<?xml version="1.0" encoding="utf-8"?>
<!-- Generator: Adobe Illustrator 21.0.2, SVG Export Plug-In . SVG Version: 6.00 Build 0)  -->
<svg version="1.1" id="Layer_1" xmlns="http://www.w3.org/2000/svg" xmlns:xlink="http://www.w3.org/1999/xlink" x="0px" y="0px"
	 viewBox="0 0 450 425" style="enable-background:new 0 0 450 425;" xml:space="preserve">
<style type="text/css">
	.st0{fill:#FFFFFF;}
</style>
<g>
	<g>
		<g>
			<path class="st0" d="M232.9,410.2c-4.7,0-9.8-3.4-10.1-9.7c-0.6-17.8-1.2-35.6-1.8-53.4c-0.5-14.4-0.9-28.7-1.4-43.1l-26,1.1
				c-0.1,0-0.3,0-0.4,0c-5.1,0-9.6-4.6-9.7-9.9l-1.8-89c-0.1-2.8,0.9-5.3,2.8-7.1c1.8-1.9,4.3-3,7.1-3h40.9c5.5,0,10,4.5,10,10v37.5
				c4.7,0,9.3-0.1,14-0.1c8.1-0.1,16.2-0.2,24.3-0.3c3.2,0,6.2,1.6,8.1,4.3c1.9,2.6,2.4,5.7,1.5,8.5c-8,24.7-16.1,49.3-24.1,73.9
				c-8,24.4-15.9,48.8-23.9,73.3C241,407.4,237.3,410.2,232.9,410.2z M229.6,283.6c5.1,0,9.5,4.6,9.7,9.9
				c0.6,16.6,1.1,33.2,1.6,49.8c0,0,19.4-59.6,26.1-80c-3.5,0-7,0.1-10.5,0.1c-8,0.1-16,0.1-24,0.2c-5.5,0-10-4.6-10-10v-37.6h-20.6
				l1.4,68.6l25.9-1.1C229.3,283.6,229.5,283.6,229.6,283.6z"/>
			<path class="st0" d="M232.5,198.6c4.1,0,7.5,3.4,7.5,7.5c0,13.4,0,26.7,0,40c-2.5,0-5,0.1-7.5,0.1c2.5,2.5,5,5,7.5,7.5
				c0-2.5,0-5.1,0-7.6c13.6-0.1,27.2-0.2,40.8-0.4c4.7,0,8.7,4.9,7.2,9.5c-16,49.1-32,98.1-48,147.2c-1.2,3.6-4.2,5.3-7.1,5.3
				c-3.7,0-7.4-2.6-7.6-7.3c-1.1-33-2.1-66-3.2-99c2.4-0.1,4.8-0.2,7.2-0.3c-2.5-2.5-5-5-7.5-7.5c0.1,2.6,0.2,5.2,0.3,7.8
				c-9.6,0.4-19.1,0.8-28.6,1.2c-0.1,0-0.2,0-0.3,0c-4,0-7.1-3.7-7.2-7.5c-0.6-29.6-1.2-59.3-1.8-89c0-2.3,0.8-4.1,2.1-5.3
				c-3.8,4.2-2,12.8,5.3,12.8c2.6,0,5.2,0,7.8,0c0.5,24.5,1,49.1,1.5,73.7c-2.4,0.1-4.9,0.2-7.3,0.3c2.5,2.5,5,5,7.5,7.5
				c-0.1-2.6-0.1-5.2-0.2-7.8c9.5-0.4,19-0.8,28.5-1.2c0.1,0,0.2,0,0.3,0c4,0,7.1,3.7,7.2,7.5c0.7,21.3,1.4,42.7,2.1,64
				c-4.4,13.6-8.9,27.2-13.3,40.8c4.9,0.7,9.8,1.3,14.7,2c-0.5-14.3-0.9-28.5-1.4-42.8c10.5-32.3,21-64.5,31.6-96.8
				c3.4,0,6.9-0.1,10.3-0.1c-2.4-3.2-4.8-6.3-7.2-9.5c-1,3.2-2.1,6.4-3.1,9.6c-12.7,0.1-25.3,0.2-38,0.4c-4.1,0-7.5-3.5-7.5-7.5
				c0-13.4,0-26.7,0-40.1c2.5,0,5,0,7.5,0c-2.5-2.5-5-5-7.5-7.5c0,2.5,0,5,0,7.5c-8.6,0-17.1,0-25.6,0c-0.1-2.5-0.1-5-0.2-7.5
				c-0.1-4.8-3.9-7.2-7.7-7.2c-1.9,0-3.9,0.6-5.3,2c1.2-1.3,3-2.2,5.3-2.2C205.3,198.6,218.9,198.6,232.5,198.6 M232.5,193.6h-40.9
				c-3.5,0-6.7,1.3-8.9,3.7c-2.3,2.3-3.6,5.4-3.5,8.9c0.6,29.7,1.2,59.4,1.8,89c0.2,6.7,5.8,12.4,12.2,12.4c0.2,0,0.4,0,0.6,0
				c7.8-0.3,15.6-0.7,23.5-1c0.4,13.5,0.9,27,1.3,40.5c0.6,17.5,1.2,35.6,1.8,53.4c0.2,6.9,5.6,12.1,12.6,12.1
				c5.5,0,10.2-3.4,11.9-8.8c8-24.5,16-49.1,24-73.6c8-24.5,16-49.1,24-73.6c1.2-3.6,0.5-7.5-1.8-10.7c-2.4-3.3-6.2-5.3-10.1-5.3
				c0,0,0,0-0.1,0c-8,0.1-16.2,0.2-24.1,0.2c-3.9,0-7.7,0.1-11.6,0.1v-35C245,199.2,239.4,193.6,232.5,193.6L232.5,193.6z
				 M189.8,204.3c0.4-0.3,1-0.5,1.7-0.5c0.8,0,2.6,0.2,2.7,2.3l0,2.4h-2.6c-1,0-1.6-0.3-2-1.2C189.2,206.5,189.3,205.1,189.8,204.3
				L189.8,204.3z M204.5,218.6H220v35.1c0,6.8,5.7,12.5,12.5,12.5c0,0,0,0,0.1,0c8-0.1,16.2-0.2,24.1-0.2c2.3,0,4.6,0,6.9-0.1
				c-6.2,19.1-12.4,38.2-18.7,57.2L243,329c-0.4-11.8-0.8-23.8-1.2-35.6c-0.2-6.8-5.6-12.3-12.2-12.3c-0.2,0-0.4,0-0.6,0l-0.3,0
				c-7.7,0.3-15.3,0.6-23,1L204.5,218.6L204.5,218.6z M232.2,394.3c0.9-2.7,1.7-5.4,2.6-8c0.1,2.8,0.2,5.6,0.3,8.4
				c-0.5-0.1-1-0.1-1.5-0.2C233.1,394.4,232.7,394.3,232.2,394.3L232.2,394.3z"/>
		</g>
	</g>
</g>
<g>
	<g>
		<g>
			<path class="st0" d="M46.1,217.3c-3.5,0-6.7-0.1-9.5-0.2C29.8,216.8,26,210.8,23,206c-0.3-0.5-0.6-1-0.9-1.4
				c-6.2-9.8-10.6-21-12.6-32.4c-3.7-21.8,0.4-43.8,11.5-62c10.1-16.6,25.8-29.8,44.3-37.2c9.2-3.7,19.1-5.7,29.4-6
				c0.9,0,1.7,0,2.6,0c5.9,0,11.9,0.6,17.9,1.8c2.9,0.5,5.8,1.2,8.7,2.2c0,0,0,0,0.1,0c7.7-13.9,18.3-25.9,31.3-35.7
				c19.1-14.4,43.2-22.4,67.8-22.4c9.8,0,19.5,1.3,28.9,3.7c29.4,7.8,54.7,27.5,69.6,54.2c7.9-2.2,16-3.4,24.2-3.4c1,0,1.9,0,2.9,0
				c41.1,1.5,76.6,31.5,84.3,71.3c4.5,23.1-0.2,47.4-13,66.5l-0.6,0.9c-2.8,4.4-6.1,9.3-12.6,9.7c0,0-3.5,0-3.5,0
				c-18.1,0.1-36.3,0.1-54.4,0.1c-18.1,0-36.3,0-54.4,0.1c-54.2,0.1-163.1,0.8-164.2,0.8H66c-2.8,0-5.5,0.1-8.3,0.2
				C53.9,217.2,50,217.3,46.1,217.3z M97.7,87.2c-4.6,0-9.1,0.4-13.5,1.3c-22,4.5-40.7,19.4-50.1,39.9c-9.9,22-7.2,48.7,7,68.6
				c3.4-0.1,8.3-0.2,11.3-0.2c10.1-0.1,20.4-0.1,30.4-0.1c15.4-0.1,30.8-0.1,46.2-0.1c15.4,0,30.8-0.1,46.2-0.1
				c17.8,0,35.6-0.1,53.3-0.1c17.9,0,35.7,0,53.6-0.1c14.7,0,29.4-0.1,44.2-0.1c14.7,0,29.4-0.1,44.1-0.1
				c10.7-0.1,21.2-0.1,31.9-0.1c7.8-11.3,12.2-25,12.4-38.7c0.2-22.2-10.2-43.2-27.8-56.2c-11.9-8.7-26-13.4-40.9-13.4
				c-9.5,0-18.9,1.9-27.9,5.6c-0.9,0.4-2,0.6-3,0.6c-4.2,0-8.3-3.3-9.5-7.4c-0.4-1.3-0.5-2.6-0.3-3.8c-6.7-12.4-15.5-22.7-25.9-30.6
				c-16-12.1-36.1-18.8-56.5-18.8c-8,0-16,1-23.6,3c-26.8,7-49.1,26-61.3,52.1c-1.6,3.4-5.7,5.2-8.8,5.2c-2.9,0-5.7-1.1-8.1-2.1
				c-1.2-0.5-2.3-0.9-3.3-1.2c-4.2-1.2-8.3-2.1-12.3-2.5C102.9,87.3,100.3,87.2,97.7,87.2z"/>
			<path class="st0" d="M223.1,15.4c9.5,0,19,1.2,28.2,3.7c29.4,7.8,54.7,28.1,69.1,54.8c-2.5,0.8-4.9,1.6-7.3,2.6
				c-2.6,1.1-4.7,3.1-5.3,5.7c-6.7-12.5-15.7-23.6-27-32.2c-16.7-12.7-37.2-19.3-58-19.3c-8.1,0-16.3,1-24.3,3.1
				c-28.1,7.3-50.7,27.3-62.9,53.5c-1.1,2.3-4.1,3.7-6.5,3.7c-3.6,0-7.2-2.2-10.7-3.2c-4.1-1.2-8.4-2.1-12.7-2.6
				c-2.6-0.3-5.3-0.4-8-0.4c-4.7,0-9.4,0.4-14,1.3c-22.9,4.6-42.2,20-51.8,41.3c-10.6,23.4-7.2,51.6,8,72.1c-1.3,0-2.1,0.1-2.1,0.1
				s-1.3,0-1.5,0c1.8,0.7,3.5,1.5,5.3,2.2c-0.6-0.7-1.2-1.5-1.8-2.3c3.2-0.1,9.2-0.2,12.5-0.2c10.1-0.1,20.3-0.1,30.4-0.1
				c30.8-0.1,61.6-0.1,92.4-0.2c35.7-0.1,71.3-0.1,106.9-0.2c29.4-0.1,58.9-0.1,88.3-0.2c11.1-0.1,22.1-0.1,33.2-0.1
				c-0.5,0.7-1.1,1.5-1.7,2.2c1.8-0.7,3.5-1.5,5.3-2.2c-1.2,0-2.4,0-3.6,0c8.7-11.9,13.4-26.5,13.6-41.2
				c0.2-22.7-10.5-44.7-28.8-58.2C375.8,89.7,361,85.2,346,85.2c-9.7,0-19.6,1.9-28.9,5.7c-0.7,0.3-1.4,0.4-2.1,0.4
				c-3.2,0-6.3-2.7-7.1-5.6c-0.4-1.3-0.4-2.4-0.1-3.5c0.9,1.6,1.7,3.2,2.5,4.9c1.2,2.7,3.4,3.8,5.6,3.8c4.9,0,10.2-5.5,7.3-11.6
				c-0.9-1.8-1.8-3.6-2.7-5.4c8.2-2.5,16.8-3.8,25.4-3.8c0.9,0,1.9,0,2.8,0c39.4,1.4,74.4,30.4,81.9,69.3c4.3,22.2,0,45.7-12.6,64.6
				c-2.9,4.4-5.6,9.2-11.3,9.5c-1.1,0-2.3,0-3.4,0c-36.3,0.1-72.6,0.1-108.9,0.2c-54.8,0.1-164.2,0.8-164.2,0.8s-42.8,0-64.1,0
				c-6.6,0.1-13.3,0.3-19.9,0.3c-3.2,0-6.3-0.1-9.4-0.2c-6.1-0.3-9.6-6.7-12.6-11.4c-6-9.5-10.3-20.3-12.2-31.4
				c-3.5-20.7,0.2-42.3,11.2-60.3c10-16.4,25.2-29,43.1-36.1c9.1-3.6,18.8-5.5,28.6-5.8c0.8,0,1.7,0,2.5,0c5.8,0,11.7,0.6,17.4,1.7
				c2.8,0.5,5.6,1.2,8.5,2.1c0.5,0.2,1.2,0.5,1.9,0.8c-0.9,1.7-1.8,3.5-2.7,5.3c2.2-1.2,4.3-2.5,6.5-3.7c-0.5,0-2.3-0.9-3.9-1.6
				c7.7-14.5,18.6-27,31.7-36.9C175.9,22.9,199.4,15.4,223.1,15.4 M223.1,10.4L223.1,10.4c-25.1,0-49.7,8.1-69.3,22.9
				c-12.8,9.6-23.2,21.3-31,34.7c-2.4-0.7-4.8-1.3-7.2-1.7c-6.1-1.2-12.3-1.8-18.3-1.8c-0.9,0-1.8,0-2.7,0
				c-10.7,0.3-20.8,2.4-30.3,6.2c-19,7.6-35.1,21.1-45.5,38.2C7.4,127.7,3.2,150.3,7,172.7c2,11.7,6.5,23.2,12.9,33.3
				c0.3,0.5,0.6,1,0.9,1.5c3.2,5,7.5,11.8,15.6,12.2c2.9,0.2,6.1,0.2,9.7,0.2c3.9,0,7.8-0.1,11.6-0.2c2.7-0.1,5.5-0.1,8.3-0.2h64.1
				c1.1,0,110-0.7,164.2-0.8c18.2-0.1,36.6-0.1,54.4-0.1c17.8,0,36.3-0.1,54.5-0.1h3.4c0.1,0,0.2,0,0.3,0
				c7.8-0.4,11.7-6.4,14.6-10.8c0.2-0.3,0.4-0.6,0.6-0.9c13.1-19.6,17.9-44.5,13.3-68.3c-3.8-19.8-14.7-38.2-30.7-51.6
				c-15.8-13.3-35.7-21-56-21.8c-1,0-2,0-3,0c-7.7,0-15.4,1-22.9,2.9c-15.4-26.4-40.8-45.9-70.2-53.7
				C243.1,11.7,233.1,10.4,223.1,10.4L223.1,10.4z M129,96c3.8,0,8.9-2.1,11.1-6.6c0,0,0,0,0,0c11.8-25.4,33.6-43.9,59.7-50.7
				c7.5-2,15.2-3,23-3c19.8,0,39.4,6.5,55,18.3c10,7.6,18.4,17.4,24.9,29.1c-0.1,1.3,0.1,2.6,0.5,4c1.5,5.2,6.7,9.2,11.9,9.2
				c1.4,0,2.7-0.3,4-0.8c8.7-3.6,17.8-5.4,27-5.4c14.4,0,28,4.5,39.5,12.9c16.9,12.5,27,32.7,26.8,54.1
				c-0.2,12.8-4.1,25.6-11.2,36.2c-10.2,0-20.3,0-30.6,0.1c-14.7,0-29.7,0.1-44.1,0.1c-14.5,0-29.4,0-44.1,0.1
				c-17.8,0.1-35.9,0.1-53.5,0.1c-17.5,0-35.6,0.1-53.4,0.1c-15.4,0.1-31.1,0.1-46.2,0.1c-15.1,0-30.8,0.1-46.2,0.1
				c-10,0-20.3,0-30.4,0.1c0,0,0,0,0,0c-2.6,0-6.7,0.1-9.9,0.2c-13-19-15.4-44.2-6-65c9-19.8,27-34.1,48.3-38.4
				c4.2-0.8,8.6-1.2,13-1.2c2.5,0,5,0.1,7.4,0.4c3.8,0.4,7.8,1.3,11.8,2.4c0.9,0.3,1.9,0.7,3.1,1.1C122.7,94.8,125.7,96,129,96
				L129,96z M313.4,82.1c0.4-0.4,1-0.7,1.6-1c1-0.4,2-0.8,2.9-1.1c0.2,0.5,0.5,0.9,0.7,1.4c0.5,1,0.4,1.9-0.1,2.8
				c-0.7,1.1-1.9,1.7-2.7,1.7c-0.3,0-0.6,0-1-0.9C314.3,84,313.9,83.1,313.4,82.1L313.4,82.1z"/>
		</g>
	</g>
</g>
</svg>
