<?xml version="1.0" encoding="utf-8"?>
<!-- Generator: Adobe Illustrator 21.0.2, SVG Export Plug-In . SVG Version: 6.00 Build 0)  -->
<svg version="1.1" id="Layer_1" xmlns="http://www.w3.org/2000/svg" xmlns:xlink="http://www.w3.org/1999/xlink" x="0px" y="0px"
	 viewBox="0 0 425 425" style="enable-background:new 0 0 425 425;" xml:space="preserve">
<style type="text/css">
	.st0{fill:#FFFFFF;}
</style>
<g>
	<g>
		<path class="st0" d="M182.6,213.6c13.6,0,27.2,0,40.9,0c-2.5-2.5-5-5-7.5-7.5c0,15.9,0,31.7,0,47.6c0,4,3.4,7.5,7.5,7.5
			c16.1-0.2,32.2-0.3,48.3-0.5c-2.4-3.2-4.8-6.3-7.2-9.5c-16,49.1-32,98.1-48,147.2c4.9,0.7,9.8,1.3,14.7,2
			c-1.2-35.6-2.3-71.2-3.5-106.8c-0.1-3.9-3.3-7.7-7.5-7.5c-11.9,0.5-23.8,1-35.8,1.5c2.5,2.5,5,5,7.5,7.5
			c-0.6-29.7-1.2-59.4-1.8-89c-0.2-9.6-15.2-9.7-15,0c0.6,29.7,1.2,59.4,1.8,89c0.1,3.9,3.4,7.7,7.5,7.5c11.9-0.5,23.8-1,35.8-1.5
			c-2.5-2.5-5-5-7.5-7.5c1.2,35.6,2.3,71.2,3.5,106.8c0.3,8.5,12.1,10.1,14.7,2c16-49.1,32-98.1,48-147.2c1.5-4.6-2.5-9.5-7.2-9.5
			c-16.1,0.2-32.2,0.3-48.3,0.5c2.5,2.5,5,5,7.5,7.5c0-15.9,0-31.7,0-47.6c0-4.1-3.4-7.5-7.5-7.5c-13.6,0-27.2,0-40.9,0
			C172.9,198.6,172.9,213.6,182.6,213.6z"/>
	</g>
</g>
<g>
	<g>
		<path class="st0" d="M313.1,79.8C299.5,50.6,273,28.3,241.8,20c-32.1-8.5-67.4-1.9-93.9,18.1c-14.6,11-26.4,25.3-34.1,41.9
			c2.2-1.2,4.3-2.5,6.5-3.7c-0.7,0-4.3-1.9-5.8-2.4c-2.8-0.9-5.6-1.6-8.4-2.1c-6.5-1.3-13.2-1.9-19.8-1.7
			c-9.7,0.3-19.4,2.2-28.4,5.8C40.1,83,25,95.5,15.1,111.8C4.2,129.7,0.5,151.1,4,171.7c1.9,11,6.1,21.8,12.1,31.2
			c3,4.6,6.4,11,12.5,11.3c9.6,0.5,19.4,0,29.1-0.1c21.1,0,42.3-0.1,63.4-0.1c54.7-0.1,109.4-0.2,164.2-0.3
			c36.3-0.1,72.6-0.1,108.9-0.2c1.1,0,2.3,0,3.4,0c5.7-0.3,8.4-5.1,11.3-9.5c12.6-18.9,16.9-42.4,12.6-64.6
			c-7.5-38.9-42.5-67.9-81.9-69.3c-12.1-0.4-24.3,1.8-35.5,6.4c-3.7,1.5-6.4,5-5.2,9.2c1,3.5,5.4,6.8,9.2,5.2
			c23.7-9.7,50.5-7.2,71.3,8.1c18.3,13.5,29,35.5,28.8,58.2c-0.2,15.6-5.6,31.1-15.3,43.4c1.8-0.7,3.5-1.5,5.3-2.2
			c-12.3,0-24.5,0-36.8,0.1c-29.4,0.1-58.9,0.1-88.3,0.2c-35.6,0.1-71.2,0.1-106.9,0.2c-30.8,0.1-61.6,0.1-92.4,0.2
			c-10.1,0-20.3,0-30.4,0.1c-4.7,0-9.9-0.6-14.6,0c-0.2,0-0.4,0-0.6,0c1.8,0.7,3.5,1.5,5.3,2.2c-16.6-20.5-20.6-49.8-9.7-73.9
			c9.6-21.1,28.8-36.4,51.5-41c7.1-1.4,14.6-1.7,21.8-0.9c4.3,0.5,8.5,1.4,12.6,2.6c3.4,1,7,3.2,10.6,3.2c2.4,0,5.4-1.4,6.5-3.7
			c12.1-26,34.6-45.8,62.5-53.1c28.1-7.4,58.6-1.4,81.7,16.1c12.7,9.6,22.5,22.4,29.3,36.8C304.3,96.1,317.2,88.5,313.1,79.8
			L313.1,79.8z"/>
	</g>
</g>
</svg>
