<?xml version="1.0" encoding="utf-8"?>
<!-- Generator: Adobe Illustrator 21.0.2, SVG Export Plug-In . SVG Version: 6.00 Build 0)  -->
<svg version="1.1" id="Layer_1" xmlns="http://www.w3.org/2000/svg" xmlns:xlink="http://www.w3.org/1999/xlink" x="0px" y="0px"
	 viewBox="0 0 425 425" style="enable-background:new 0 0 425 425;" xml:space="preserve">
<style type="text/css">
	.st0{fill:#FFFFFF;}
</style>
<g>
	<path class="st0" d="M223.9,408.7c-4.1,0-8.4-2.8-8.6-8.3c-0.6-17.9-1.2-35.8-1.8-53.8c-0.5-14.7-1-29.5-1.4-44.2l-27.5,1.2
		c-0.1,0-0.2,0-0.4,0c-4.3,0-8.1-3.9-8.2-8.5l-1.6-80.2l-53.3,0.1c-10.6,0-21.1,0-31.7,0c-10.6,0-21.2,0-31.7,0
		c-2.8,0-5.5,0.1-8.3,0.2c-3.8,0.1-7.6,0.2-11.4,0.2c-3.5,0-6.6-0.1-9.4-0.2c-6-0.3-9.5-5.8-12.4-10.3c-0.3-0.5-0.6-1-0.9-1.4
		C9.2,193.9,4.9,183,3,171.9c-3.6-21.3,0.4-42.8,11.2-60.6C24.1,95.1,39.5,82.2,57.5,75c9-3.6,18.6-5.6,28.7-5.9c0.8,0,1.7,0,2.5,0
		c5.8,0,11.7,0.6,17.5,1.8c2.8,0.5,5.7,1.2,8.5,2.1c0.3,0.1,0.8,0.3,1.2,0.5c7.7-14.1,18.2-26.2,31.3-36.1
		c18.7-14.1,42.3-21.9,66.4-21.9c9.6,0,19.1,1.2,28.3,3.7c29.1,7.8,54.2,27.4,68.7,54c8.4-2.6,17.2-4,26-4c0.9,0,1.9,0,2.8,0
		c40.5,1.4,75.3,30.9,82.8,70.1c4.4,22.8-0.2,46.6-12.7,65.3l-0.6,0.9c-2.8,4.3-5.7,8.7-11.5,9l-3.5,0c-18.1,0.1-36.3,0.1-54.4,0.1
		c-18.1,0-36.3,0-54.4,0.1l-53.3,0.1v30.3c4.9-0.1,9.9-0.1,14.8-0.1c8.3-0.1,16.6-0.2,25-0.3c2.7,0,5.2,1.4,6.9,3.7
		c1.6,2.2,2,4.8,1.3,7.2c-8,24.7-16.1,49.3-24.1,73.9c-8,24.4-15.9,48.8-23.9,73.3C230.8,406.4,227.7,408.7,223.9,408.7z
		 M220.6,285.1c4.8,0,8.1,4.4,8.2,8.5c0.6,19,1.3,38.1,1.9,57.1l0,1.2c0,0,21.6-66.1,29.4-90.1l-11.3,0.1
		c-8.4,0.1-16.9,0.2-25.3,0.3c-4.6,0-8.5-3.9-8.5-8.5v-38.9l-23.6,0l1.4,71.4l27.4-1.2C220.4,285.1,220.5,285.1,220.6,285.1z
		 M33.7,197.9c1.7,0,3.4,0.1,5,0.1c1.6,0.1,3.2,0.1,4.7,0.1c10.1-0.1,20.4-0.1,30.4-0.1c15.4-0.1,30.8-0.1,46.2-0.1
		c15.4,0,30.8-0.1,46.2-0.1c2.8,0,14.2,0,14.2,0c0.7-0.2,1.5-0.3,2.2-0.3h40.9c0.6,0,1.2,0.1,1.7,0.2l1.8,0c15.4,0,30.7,0,46.1-0.1
		c14.7,0,29.4-0.1,44.2-0.1c14.7,0,29.4-0.1,44.1-0.1c10.8-0.1,21.6-0.1,32.6-0.1c8.3-11.6,13-25.9,13.2-40.2
		c0.2-22.7-10.4-44.1-28.4-57.4c-12.1-8.9-26.6-13.6-41.8-13.6c-9.6,0-19,1.8-28.1,5.5l-0.5,0.2c-0.8,0.3-1.6,0.5-2.4,0.5
		c-0.4,0-0.8,0-1.2-0.1c-1-0.1-2-0.5-2.9-1.1c-1.9-1.2-3.4-3.1-4-5.1c-0.1-0.5-0.2-1-0.3-1.6c-6.9-13.4-16.1-24.5-27.2-32.9
		c-16.2-12.3-36.4-19-57-19c-8.1,0-16.1,1-23.8,3.1c-27.1,7.1-49.6,26.2-61.8,52.6c-1.3,2.8-4.8,4.3-7.4,4.3c-2.6,0-5.1-1-7.5-2
		c-1.2-0.5-2.3-0.9-3.4-1.3c-4.2-1.2-8.4-2.1-12.4-2.6c-2.6-0.3-5.2-0.4-7.8-0.4c-4.6,0-9.2,0.4-13.7,1.3
		c-22.3,4.5-41.3,19.6-50.8,40.4c-10.2,22.4-7.2,49.9,7.4,70C32.6,197.9,33.2,197.9,33.7,197.9z"/>
	<path class="st0" d="M213.7,16.4c9.4,0,18.9,1.2,28.1,3.6c29.2,7.8,54.3,27.8,68.5,54.2c8.5-2.8,17.5-4.2,26.5-4.2
		c0.9,0,1.9,0,2.8,0c39.4,1.4,74.4,30.4,81.9,69.3c4.3,22.2,0,45.7-12.6,64.6c-2.9,4.4-5.6,9.2-11.3,9.5c-1.1,0-2.3,0-3.4,0
		c-36.3,0.1-72.6,0.1-108.9,0.2c-18.1,0-36.2,0.1-54.3,0.1c0,10.8,0,21.5,0,32.3c13.6-0.1,27.2-0.3,40.8-0.4c4.7,0,8.7,4.9,7.2,9.5
		c-16,49.1-32,98.1-48,147.2c-1.2,3.6-4.2,5.3-7.1,5.3c-3.7,0-7.4-2.6-7.6-7.3c-1.1-33-2.1-66-3.2-99c-9.5,0.4-19.1,0.8-28.6,1.2
		c-0.1,0-0.2,0-0.3,0c-4,0-7.1-3.7-7.2-7.5c-0.5-27-1.1-54.1-1.6-81.2c-18.1,0-36.2,0.1-54.3,0.1c-21.1,0-42.3,0.1-63.4,0.1
		c-6.6,0.1-13.2,0.3-19.7,0.3c-3.1,0-6.3-0.1-9.4-0.2c-6.1-0.3-9.5-6.7-12.5-11.3c-6-9.4-10.2-20.2-12.1-31.2
		c-3.5-20.6,0.2-42,11.1-59.9C25,95.5,40.1,83,57.9,75.9c9-3.6,18.7-5.5,28.4-5.8c0.8,0,1.7,0,2.5,0c5.8,0,11.6,0.6,17.3,1.7
		c2.8,0.5,5.6,1.2,8.4,2.1c0.5,0.2,1.2,0.5,1.9,0.8c7.6-14.4,18.4-26.8,31.5-36.6C166.8,23.8,190.2,16.4,213.7,16.4 M120.3,91.4
		c-3.6,0-7.2-2.2-10.6-3.2c-4.1-1.2-8.3-2.1-12.6-2.6c-2.6-0.3-5.3-0.4-7.9-0.4c-4.7,0-9.3,0.4-13.9,1.3
		c-22.7,4.6-41.9,19.9-51.5,41c-10.5,23.2-7.2,51.1,7.8,71.5c0.7,0,1.4,0,2,0c3.3,0,6.6,0.3,9.7,0.3c10.1-0.1,20.3-0.1,30.4-0.1
		c30.8-0.1,61.6-0.1,92.4-0.2c4.8,0,9.5,0,14.3,0c0.6-0.2,1.3-0.3,2.1-0.3c13.7,0,27.3,0,40.9,0c0.6,0,1.1,0.1,1.6,0.2
		c16,0,32,0,48-0.1c29.4-0.1,58.9-0.1,88.3-0.2c11.1-0.1,22.1-0.1,33.2-0.1c8.7-11.9,13.5-26.5,13.6-41.2
		c0.2-22.7-10.5-44.7-28.8-58.2C366.8,89.7,352,85.2,337,85.2c-9.6,0-19.2,1.9-28.4,5.6c0,0-0.1,0-0.1,0c-0.1,0-0.2,0.1-0.3,0.1
		c-0.7,0.3-1.4,0.4-2.1,0.4c-0.3,0-0.7,0-1-0.1c-0.9-0.1-1.7-0.4-2.5-1c-1.7-1.1-3.1-2.8-3.6-4.6c-0.2-0.5-0.2-1.1-0.3-1.6
		c-6.7-13-15.9-24.6-27.6-33.4c-16.6-12.6-37-19.2-57.6-19.2c-8.1,0-16.2,1-24.1,3.1c-27.9,7.3-50.4,27.1-62.5,53.1
		C125.7,90,122.7,91.4,120.3,91.4 M191.8,287.3c9.5-0.4,19-0.8,28.5-1.2c0.1,0,0.2,0,0.3,0c4,0,7.1,3.7,7.2,7.5
		c0.7,21.3,1.4,42.7,2.1,64c10.5-32.3,21-64.5,31.6-96.8c-12.7,0.1-25.3,0.2-38,0.4c-4.1,0-7.5-3.5-7.5-7.5c0-13.3,0-26.6,0-39.9
		c-8.5,0-17.1,0-25.6,0C190.9,238.3,191.3,262.8,191.8,287.3 M213.7,14.4c-24.3,0-48.1,7.9-67.1,22.1c-13,9.8-23.5,21.8-31.1,35.7
		c-0.1-0.1-0.3-0.1-0.4-0.2c-2.9-0.9-5.8-1.7-8.7-2.2c-5.9-1.2-11.8-1.8-17.7-1.8c-0.9,0-1.7,0-2.6,0c-10.2,0.3-20,2.3-29.1,5.9
		c-18.3,7.3-33.8,20.3-43.8,36.7c-11,18-15,39.8-11.4,61.3C4,183.3,8.3,194.3,14.4,204c0.3,0.5,0.6,1,0.9,1.4
		c3,4.7,6.6,10.5,13.2,10.8c2.9,0.1,5.9,0.2,9.5,0.2c3.8,0,7.7-0.1,11.5-0.2c2.7-0.1,5.5-0.1,8.3-0.2c0,0,0,0,0.1,0
		c10.5,0,21.2,0,31.6,0c10.4,0,21.1-0.1,31.7-0.1l44.3-0.1l8,0c0.5,26.4,1.1,52.9,1.6,79.2c0.1,5.1,4.3,9.5,9.2,9.5
		c0.1,0,0.3,0,0.4,0c8.8-0.4,17.7-0.7,26.5-1.1c0.5,14.4,0.9,28.9,1.4,43.3c0.6,17.6,1.2,35.8,1.8,53.7c0.2,6,5.1,9.2,9.6,9.2
		c4.3,0,7.7-2.6,9-6.7c8-24.5,16-49.1,24-73.6c8-24.5,16-49.1,24-73.6c0.9-2.7,0.4-5.6-1.4-8.1c-1.8-2.5-4.7-4.1-7.7-4.1
		c-8.3,0.1-16.7,0.2-24.8,0.3c-4.7,0-9.3,0.1-14,0.1v-28.3l19.6,0l32.7-0.1c18.1,0,36.6-0.1,54.4-0.1c17.9,0,36.3-0.1,54.5-0.1h3.4
		h0.1l0.1,0c6.3-0.3,9.5-5.2,12.2-9.4c0.2-0.3,0.4-0.6,0.6-0.9c12.7-19,17.4-43.1,12.9-66.1c-3.7-19.2-14.2-36.9-29.7-49.9
		c-15.3-12.9-34.5-20.4-54.1-21.1c-1,0-1.9,0-2.9,0c-8.7,0-17.2,1.3-25.5,3.8c-14.8-26.5-39.8-46-69-53.8
		C233.1,15.6,223.4,14.4,213.7,14.4L213.7,14.4z M120.3,93.4c3,0,6.8-1.7,8.3-4.8c12.1-26.1,34.4-45,61.2-52c7.7-2,15.6-3,23.6-3
		c20.4,0,40.4,6.7,56.4,18.8c11,8.3,20,19.2,26.9,32.4c0.1,0.5,0.2,1,0.3,1.6c0.6,2.2,2.3,4.3,4.5,5.7c1,0.7,2.1,1.1,3.3,1.3
		c0.4,0.1,0.9,0.1,1.3,0.1c1,0,1.9-0.2,2.8-0.6l0.1,0l0.2-0.1l0.1,0c8.9-3.6,18.3-5.4,27.7-5.4c15,0,29.3,4.7,41.2,13.5
		c17.7,13.1,28.2,34.2,28,56.6c-0.2,14-4.7,27.8-12.7,39.2c-11.3,0-21.6,0-32.1,0.1c-14.7,0-29.7,0.1-44.2,0.1
		c-14.5,0-29.4,0-44.1,0.1c-15.7,0-31.3,0.1-47,0.1l-0.7,0c-0.6-0.1-1.2-0.2-1.8-0.2h-40.9c-0.8,0-1.6,0.1-2.4,0.3l-5.6,0
		c-2.8,0-5.6,0-8.4,0c-15.4,0.1-31.1,0.1-46.2,0.1c-15.1,0-30.8,0.1-46.2,0.1c-10,0-20.3,0-30.4,0.1c-1.5,0-3-0.1-4.7-0.1
		c-1.7-0.1-3.4-0.1-5.1-0.1c-0.4,0-0.7,0-1,0c-14.2-19.8-16.9-46.7-7-68.6c9.3-20.5,28-35.4,50.1-39.9c4.4-0.9,8.9-1.3,13.5-1.3
		c2.6,0,5.2,0.1,7.7,0.4c4,0.5,8.1,1.3,12.3,2.5c1,0.3,2.1,0.8,3.3,1.2C114.9,92.4,117.5,93.4,120.3,93.4L120.3,93.4z M192.4,215.9
		l11.2,0l10.4,0v37.9c0,5.1,4.4,9.5,9.5,9.5c8.5-0.1,17.1-0.2,25.4-0.3c3.3,0,6.5-0.1,9.8-0.1c-8.2,25.2-16.5,50.5-24.7,75.7
		l-2.5,7.7c-0.6-17.3-1.1-35.1-1.7-52.6c-0.1-4.6-3.8-9.4-9.2-9.4c-0.1,0-0.3,0-0.4,0c-8.8,0.4-17.6,0.7-26.4,1.1L192.4,215.9
		L192.4,215.9z"/>
</g>
</svg>
