<?xml version="1.0" encoding="utf-8"?>
<!-- Generator: Adobe Illustrator 21.0.2, SVG Export Plug-In . SVG Version: 6.00 Build 0)  -->
<svg version="1.1" id="Layer_1" xmlns="http://www.w3.org/2000/svg" xmlns:xlink="http://www.w3.org/1999/xlink" x="0px" y="0px"
	 viewBox="0 0 425 425" style="enable-background:new 0 0 425 425;" xml:space="preserve">
<style type="text/css">
	.st0{fill:#FFFFFF;}
</style>
<g>
	<g>
		<path class="st0" d="M312.3,283.6c5.6-15.6,11.2-31.2,16.8-46.8c-4.6,0.6-9.1,1.2-13.7,1.8c5.8,12.9,11.7,25.8,17.5,38.7
			c3.7,8.1,8.9,18.2,0.8,25.6c-5.6,5.1-13.7,4.6-19.4-1c-1.2-1.2-0.8-0.7-1.4-1.8c-1.1-1.8-1.9-3.6-2.3-5.7
			c-0.3-2.1-0.2-4.3,0.2-6.4c0.2-1,1.9-5.3,0.7-2.7c1.7-3.7,1.1-8-2.7-10.3c-3.2-1.9-8.6-1-10.3,2.7c-4.9,11.1-3.9,24,4,33.4
			c9,10.7,24.6,13.6,36.6,6.2c11.5-7.1,16.6-21.2,12.6-34.1c-2.8-8.9-7.6-17.4-11.5-25.9c-4-8.8-8-17.6-12-26.4
			c-2.9-6.4-11.8-3.6-13.7,1.8c-5.6,15.6-11.2,31.2-16.8,46.8C294.5,288.8,309,292.7,312.3,283.6z"/>
	</g>
</g>
<g>
	<g>
		<path class="st0" d="M312.6,78c-13.6-29.1-40-51.3-71.1-59.5c-31.9-8.4-67.1-1.9-93.5,18.1c-14.5,11-26.3,25.2-34,41.7
			c2.2-1.2,4.3-2.5,6.5-3.7c-0.6,0-4.3-1.9-5.8-2.4c-2.8-0.9-5.5-1.6-8.4-2.1c-6.3-1.2-12.7-1.8-19.1-1.7c-9.9,0.3-19.8,2.1-29,5.8
			c-17.7,7-32.7,19.4-42.6,35.7C4.9,127.5,1.3,148.5,4.5,168.8c1.8,11.3,6.1,22.3,12.2,31.9c3,4.7,6.3,10.9,12.4,11.2
			c9.6,0.5,19.4,0,29-0.1c20.9,0,41.8-0.1,62.7-0.1c54.6-0.1,109.2-0.2,163.9-0.3c36.2-0.1,72.5-0.1,108.7-0.2c1.1,0,2.2,0,3.3,0
			c5.8-0.3,8.7-5.7,11.6-10.1c12.2-18.7,16.3-41.9,12.1-63.7c-7.5-38.8-42.4-67.6-81.6-69c-12.1-0.4-24.2,1.8-35.4,6.4
			c-3.7,1.5-6.4,5-5.2,9.2c1,3.5,5.4,6.8,9.2,5.2c23.6-9.7,50.3-7.2,71,8.1c18.2,13.4,28.9,35.4,28.6,57.9
			c-0.2,15.6-5.5,30.9-15.2,43.2c1.8-0.7,3.5-1.5,5.3-2.2c-12.2,0-24.5,0-36.7,0.1c-29.4,0.1-58.7,0.1-88.1,0.2
			c-35.5,0.1-71,0.1-106.5,0.2c-30.6,0.1-61.1,0.1-91.7,0.2c-10.1,0-20.3,0-30.4,0.1c-4.7,0-9.8-0.6-14.5,0c-0.2,0-0.4,0-0.6,0
			c1.8,0.7,3.5,1.5,5.3,2.2c-16.5-20.4-20.5-49.6-9.7-73.6c9.5-21,28.7-36.3,51.3-40.9c7.1-1.4,14.5-1.7,21.7-0.9
			c4.2,0.5,8.4,1.4,12.5,2.6c3.4,1,7,3.2,10.6,3.2c2.4,0,5.4-1.4,6.5-3.7c12-25.9,34.5-45.6,62.2-52.9c27.9-7.4,58.3-1.4,81.4,16
			c12.7,9.6,22.4,22.3,29.2,36.6C303.7,94.3,316.6,86.7,312.6,78L312.6,78z"/>
	</g>
</g>
<g>
	<g>
		<path class="st0" d="M93.2,283.3c5.9-15.5,11.9-31,17.8-46.4c-4.6,0.6-9.1,1.2-13.7,1.8c5.6,13,11.2,26.1,16.7,39.1
			c3.5,8.2,8.4,18.4,0.1,25.6c-5.7,4.8-14,4.3-19.3-1.6c-1.2-1.3-3.1-4.6-3.5-7.6c-0.3-2.1-0.1-4.3,0.4-6.4c0.2-0.9,0.5-1.8,0.8-2.7
			c0.5-1.6-0.3,0.7,0,0c4.1-8.7-8.9-16.3-13-7.6c-5.1,11-4.3,24,3.5,33.5c8.9,10.8,24.3,13.9,36.5,6.7c11.6-6.8,16.8-21,13.1-33.9
			c-2.6-8.9-7.3-17.6-11-26.1c-3.8-8.9-7.6-17.8-11.4-26.7c-2.8-6.6-11.7-3.5-13.7,1.8c-5.9,15.5-11.9,31-17.8,46.4
			C75.2,288.3,89.7,292.2,93.2,283.3z"/>
	</g>
</g>
<g>
	<g>
		<path class="st0" d="M183.2,329.9c11.6-31.1,23.2-62.1,34.8-93.2c-4.6,0.6-9.1,1.2-13.7,1.8c9.7,22.2,19.5,44.5,29.2,66.7
			c4.6,10.6,10.4,21.2,13.9,32.3c2.7,8.6,2.8,18.1-0.6,26.5c-4.4,10.9-14.1,18.5-25.4,21.1c-7.9,1.8-16.4,0.4-23.4-3.6
			c-2.7-1.6-5.1-3.4-7.4-5.6c-0.9-0.9-1.8-1.8-2.6-2.7c-1.1-1.3-1.4-1.6-1.8-2.1c-4.7-6.4-7.2-14.1-7.2-22.1c0-4,0.6-8,1.6-11.8
			c0.4-1.4,0.9-2.8,1.3-4.2c0.8-2.4-0.3,0.4,0.5-1.2c4.1-8.7-8.9-16.3-13-7.6c-7.5,16.2-7.6,36.1,1.8,51.6
			c8.3,13.6,22.2,23.1,38.1,25c15.5,1.8,32-4.9,42.3-16.6c7.6-8.6,11.9-19.7,12.6-31.1c0.7-12.2-3.5-22.7-8.3-33.6
			c-12.9-29.5-25.8-58.9-38.7-88.4c-2.9-6.5-11.7-3.5-13.7,1.8c-11.6,31.1-23.2,62.1-34.8,93.2C165.3,335,179.8,338.9,183.2,329.9z"
			/>
	</g>
</g>
</svg>
