<?xml version="1.0" encoding="utf-8"?>
<!-- Generator: Adobe Illustrator 21.0.2, SVG Export Plug-In . SVG Version: 6.00 Build 0)  -->
<svg version="1.1" id="Layer_1" xmlns="http://www.w3.org/2000/svg" xmlns:xlink="http://www.w3.org/1999/xlink" x="0px" y="0px"
	 viewBox="0 0 425 425" style="enable-background:new 0 0 425 425;" xml:space="preserve">
<style type="text/css">
	.st0{fill:#FFFFFF;}
</style>
<g>
	<g>
		<path class="st0" d="M324.6,322.4c-8.8,0-17.1-3.9-22.8-10.7c-7.2-8.5-9.1-20.3-5.3-31.6c0.1-0.3,0.2-0.7,0.3-1l16.8-46.8
			c1.2-3.5,5.1-6.2,9-6.2c2.9,0,5.3,1.6,6.6,4.3l12,26.4c1.1,2.5,2.4,5,3.5,7.4c2.9,6,6,12.2,8,18.6c4.2,13.4-1.2,27.9-13,35.3
			C335.1,320.9,329.9,322.4,324.6,322.4C324.6,322.4,324.6,322.4,324.6,322.4z M312.9,284.8c-0.1,0.3-0.2,0.7-0.4,1.3
			c-0.2,0.7-0.6,1.7-0.7,2.1c-0.4,2.1-0.5,4.2-0.2,6.1c0.3,1.8,1,3.4,2.2,5.3c0.1,0.3,0.2,0.4,0.3,0.6c0.1,0.2,0.1,0.2,0.5,0.6
			l0.5,0.5c2.8,2.7,6.2,4.2,9.8,4.2c3.1,0,5.9-1.1,8.3-3.3c7.2-6.6,3.1-15.5-0.5-23.3l-0.5-1.1c-3.1-6.8-6.1-13.6-9.2-20.4
			l-9.5,26.6C313.1,284.2,313,284.5,312.9,284.8z"/>
		<path class="st0" d="M322.5,227.2c2.3,0,4.5,1.1,5.7,3.7c4,8.8,8,17.6,12,26.4c3.9,8.5,8.7,17,11.5,25.9c4,12.9-1.1,27-12.6,34.1
			c-4.5,2.8-9.5,4.1-14.5,4.1c-8.3,0-16.5-3.6-22.1-10.3c-7.3-8.6-8.7-20.2-5.1-30.6c0.1-0.3,0.2-0.6,0.3-1
			c5.6-15.6,11.2-31.2,16.8-46.8C315.6,229.5,319.2,227.2,322.5,227.2 M324.8,306.4c3.2,0,6.3-1.2,8.9-3.5
			c8.1-7.4,2.9-17.5-0.8-25.6c-3.4-7.5-6.8-15.1-10.2-22.6c-3.5,9.6-6.9,19.3-10.4,28.9c-0.1,0.3-0.2,0.6-0.4,0.9
			c0.1,0.1-1,2.8-1.1,3.5c-0.4,2.1-0.5,4.3-0.2,6.4c0.4,2.1,1.2,3.9,2.3,5.7c0.6,1.1,0.2,0.6,1.4,1.8
			C317.3,304.9,321.1,306.4,324.8,306.4 M311.5,285.3c0.1-0.1,0.1-0.2,0.1-0.3c0,0,0,0.1-0.1,0.1
			C311.5,285.2,311.5,285.2,311.5,285.3 M322.5,225.2c-4.3,0-8.6,2.9-9.9,6.8l-8.3,23.2l-8.5,23.6c-0.1,0.4-0.2,0.7-0.3,1.1
			c-4,11.6-1.9,23.7,5.5,32.5c5.9,7,14.5,11,23.6,11c5.5,0,10.9-1.5,15.6-4.4c12.2-7.6,17.8-22.5,13.5-36.4
			c-2-6.5-5.1-12.7-8.1-18.8c-1.2-2.4-2.4-4.9-3.5-7.4l-6-13.2l-6-13.2C328.6,227,325.9,225.2,322.5,225.2L322.5,225.2z
			 M313.8,285.2c0.1-0.3,0.3-0.6,0.4-0.9l8.7-24.3c2.7,6,5.5,12.1,8.2,18.1l0.5,1.1c3.6,7.9,7.4,16.1,0.8,22.2c-2.2,2-4.8,3-7.6,3
			c-3.2,0-6.5-1.4-9.1-4c-0.2-0.2-0.4-0.4-0.5-0.5c-0.1-0.1-0.2-0.2-0.2-0.2c0,0,0-0.1,0-0.1c-0.1-0.1-0.2-0.3-0.3-0.5l0,0l0,0
			c-1.1-1.8-1.7-3.3-2-5c-0.2-1.8-0.2-3.7,0.2-5.7c0.1-0.3,0.4-1.3,0.6-1.9C313.6,285.9,313.7,285.5,313.8,285.2L313.8,285.2z"/>
	</g>
	<g>
		<path class="st0" d="M38.5,213.1c-3.5,0-6.6-0.1-9.4-0.2c-6.1-0.3-9.6-5.9-12.4-10.4c-0.3-0.4-0.5-0.9-0.8-1.3
			C9.6,191.3,5.3,180.2,3.5,169c-3.3-21,0.7-42.2,11.2-59.6c10-16.4,24.9-28.9,43.1-36.1c8.9-3.6,18.8-5.5,29.3-5.9
			c0.5,0,0.9,0,1.4,0c5.9,0,11.9,0.6,17.9,1.7c2.8,0.5,5.5,1.2,8.5,2.1c0.3,0.1,0.8,0.3,1.2,0.5c7.6-13.9,18.1-26,31.2-35.9
			c18.6-14.1,42.2-21.9,66.2-21.9c9.5,0,19,1.2,28.1,3.6c29,7.7,54,27.2,68.5,53.7c8.4-2.6,17-3.9,25.7-3.9c0.9,0,1.9,0,2.8,0
			c40.3,1.4,75,30.8,82.5,69.8c4.3,22.4-0.1,45.9-12.2,64.4c-0.3,0.4-0.5,0.8-0.8,1.3c-2.7,4.2-5.8,9-11.6,9.3l-3.4,0
			c-18.1,0.1-36.3,0.1-54.5,0.1c-18.1,0-36.2,0-54.2,0.1l-163.8,0.3c-10.5,0-21,0-31.4,0c-10.5,0-20.9,0.1-31.4,0.1
			c-2.7,0-5.5,0.1-8.2,0.1C46.1,213,42.3,213.1,38.5,213.1z M34,195.7c1.7,0,3.3,0.1,5,0.1c1.6,0.1,3.2,0.1,4.7,0.1
			c10.1-0.1,20.4-0.1,30.4-0.1c15.3,0,30.5-0.1,45.7-0.1c15.3,0,30.6,0,46-0.1c17.8,0,35.5-0.1,53.3-0.1c17.7,0,35.5,0,53.2-0.1
			c14.7-0.1,29.4-0.1,44.2-0.1c14.6,0,29.3,0,43.9-0.1c10.6-0.1,21-0.1,32.5-0.1c8.2-11.5,12.9-25.7,13.1-40
			c0.3-22.2-10.5-44.1-28.2-57.1c-12.1-8.9-26.5-13.7-41.6-13.7c-9.7,0-19.2,1.9-28.4,5.7c-0.8,0.3-1.6,0.5-2.5,0.5
			c-3.5,0-7.1-2.8-8.1-6.3c-0.2-0.6-0.3-1.2-0.3-1.8c-6.9-13.3-16.1-24.3-27.1-32.7c-16.2-12.2-36.4-18.9-56.8-18.9
			c-8.1,0-16,1-23.7,3.1c-27,7.1-49.4,26.2-61.5,52.4c-1.3,2.8-4.8,4.3-7.4,4.3c-2.6,0-5.1-1-7.5-2c-1.2-0.5-2.3-0.9-3.4-1.3
			c-4.2-1.2-8.3-2.1-12.3-2.6c-2.6-0.3-5.2-0.4-7.8-0.4c-4.6,0-9.2,0.4-13.6,1.3c-22.3,4.5-41.2,19.6-50.6,40.3
			c-10.1,22.4-7.1,49.7,7.4,69.8C33,195.7,33.5,195.7,34,195.7z"/>
		<path class="st0" d="M213.6,14.9c9.4,0,18.8,1.2,27.9,3.6c29.1,7.7,54.1,27.6,68.3,54c8.5-2.7,17.3-4.1,26.2-4.1
			c0.9,0,1.9,0,2.8,0c39.2,1.4,74.1,30.2,81.6,69c4.2,21.8,0.1,45-12.1,63.7c-2.9,4.4-5.8,9.8-11.6,10.1c-1.1,0-2.2,0-3.3,0
			c-36.2,0.1-72.5,0.1-108.7,0.2c-54.7,0.1-109.3,0.2-163.9,0.3c-20.9,0-41.8,0.1-62.7,0.1c-6.5,0.1-13.1,0.3-19.6,0.3
			c-3.1,0-6.3-0.1-9.4-0.2c-6.1-0.3-9.4-6.5-12.4-11.2c-6.1-9.6-10.4-20.6-12.2-31.9c-3.2-20.3,0.4-41.3,11.1-58.9
			c9.9-16.3,24.9-28.7,42.6-35.7c9.2-3.7,19.1-5.5,29-5.8c0.5,0,0.9,0,1.4,0c5.9,0,11.9,0.6,17.7,1.7c2.9,0.5,5.6,1.2,8.4,2.1
			c0.5,0.2,1.2,0.5,2,0.8c7.6-14.3,18.4-26.6,31.3-36.4C166.9,22.3,190.2,14.9,213.6,14.9 M120.3,89.6c-3.6,0-7.2-2.2-10.6-3.2
			c-4.1-1.2-8.3-2.1-12.5-2.6c-2.6-0.3-5.3-0.4-7.9-0.4c-4.6,0-9.3,0.4-13.8,1.3c-22.6,4.6-41.8,19.9-51.3,40.9
			c-10.4,23.1-7.1,50.9,7.8,71.2c0.7,0,1.3,0,2,0c3.2,0,6.5,0.3,9.7,0.3c10.1-0.1,20.3-0.1,30.4-0.1c30.6-0.1,61.1-0.1,91.7-0.2
			c35.5-0.1,71-0.1,106.5-0.2c29.4-0.1,58.7-0.1,88.1-0.2c11-0.1,22.1-0.1,33.1-0.1c8.6-11.9,13.4-26.3,13.5-41
			c0.3-22.5-10.4-44.5-28.6-57.9c-12.6-9.3-27.3-13.8-42.2-13.8c-9.7,0-19.5,1.9-28.8,5.7c-0.7,0.3-1.4,0.4-2.1,0.4
			c-3.2,0-6.3-2.7-7.1-5.6c-0.2-0.6-0.3-1.2-0.3-1.8c-6.7-12.9-15.8-24.4-27.5-33.2c-16.6-12.5-36.9-19.1-57.4-19.1
			c-8,0-16.1,1-24,3.1c-27.7,7.3-50.2,27-62.2,52.9C125.7,88.2,122.7,89.6,120.3,89.6 M213.6,12.9c-24.3,0-48,7.8-66.8,22.1
			c-12.9,9.8-23.4,21.7-31,35.5c-0.2-0.1-0.3-0.1-0.4-0.2c-3.1-1-5.9-1.7-8.7-2.2c-6-1.2-12.1-1.7-18.1-1.7c-0.5,0-0.9,0-1.4,0
			c-10.7,0.3-20.7,2.3-29.7,5.9C39,79.6,24,92.3,13.9,108.9c-10.7,17.6-14.7,39-11.4,60.2c1.8,11.4,6.1,22.7,12.5,32.7
			c0.3,0.4,0.5,0.8,0.8,1.3c2.9,4.7,6.6,10.5,13.2,10.8c2.9,0.1,5.9,0.2,9.5,0.2c3.8,0,7.7-0.1,11.5-0.2c2.7-0.1,5.5-0.1,8.2-0.1
			c0,0,0,0,0.1,0c10.4,0,21,0,31.3,0c10.3,0,20.9-0.1,31.3-0.1l163.9-0.3c18.1,0,36.5-0.1,54.3-0.1c17.8,0,36.3-0.1,54.4-0.1h3.3
			h0.1l0.1,0c6.3-0.3,9.6-5.5,12.4-9.7c0.3-0.4,0.5-0.8,0.8-1.3c12.2-18.8,16.8-42.5,12.4-65.2c-3.7-19.1-14.2-36.8-29.6-49.7
			c-15.3-12.8-34.4-20.2-53.9-20.9c-1,0-1.9,0-2.9,0c-8.5,0-17,1.2-25.2,3.7C296,43.7,271,24.2,242,16.6
			C232.8,14.1,223.3,12.9,213.6,12.9L213.6,12.9z M120.3,91.6c3,0,6.8-1.7,8.3-4.8c12-25.9,34.2-44.8,60.9-51.8c7.6-2,15.5-3,23.5-3
			c20.2,0,40.2,6.6,56.2,18.7c10.9,8.2,19.9,19.1,26.8,32.2c0.1,0.6,0.2,1.2,0.3,1.8c1.1,3.9,5.2,7.1,9.1,7.1c1,0,1.9-0.2,2.8-0.6
			c9-3.7,18.4-5.6,28-5.6c14.9,0,29.1,4.7,41,13.5c8.6,6.4,15.8,14.9,20.6,24.8c4.8,9.8,7.3,20.7,7.2,31.5
			c-0.2,13.9-4.6,27.7-12.6,39c-10.9,0-21.6,0-32,0.1c-14.7,0-29.6,0.1-44,0.1c-14.4,0-29.4,0.1-44.1,0.1c-17.7,0-35.8,0.1-53.2,0.1
			c-17.5,0-35.5,0-53.3,0.1c-15.3,0.1-30.8,0.1-45.8,0.1c-15,0-30.6,0.1-45.9,0.1c-10,0-20.3,0-30.4,0.1c-1.5,0-3-0.1-4.6-0.1
			c-1.6-0.1-3.3-0.1-5-0.1c-0.3,0-0.7,0-1,0C19,175,16.2,148.3,26,126.4c9.2-20.4,27.9-35.3,49.9-39.8c4.4-0.9,8.9-1.3,13.4-1.3
			c2.6,0,5.2,0.1,7.7,0.4c3.9,0.5,8,1.3,12.2,2.5c1,0.3,2.1,0.8,3.3,1.2C114.9,90.6,117.5,91.6,120.3,91.6L120.3,91.6z"/>
	</g>
	<g>
		<path class="st0" d="M105.3,322.6c-8.9,0-17.3-4-23-11c-7.1-8.6-8.9-20.5-4.8-31.7c0.1-0.4,0.2-0.8,0.4-1.1
			c2.2-5.9,4.5-11.7,6.8-17.6c3.7-9.6,7.4-19.2,11-28.8c1.3-3.5,5.3-6.2,9.1-6.2c2.9,0,5.3,1.6,6.4,4.4l11.4,26.7
			c1.1,2.5,2.3,5,3.4,7.5c2.8,6.1,5.8,12.4,7.6,18.7c3.9,13.7-1.7,28.1-13.6,35C115.5,321.2,110.4,322.6,105.3,322.6
			C105.3,322.6,105.3,322.6,105.3,322.6z M93.4,285.5c-0.3,0.9-0.6,1.7-0.8,2.5c-0.5,2.2-0.6,4.2-0.4,6c0.4,2.7,2.1,5.8,3.2,7.1
			c2.6,2.9,6.1,4.5,9.8,4.5c2.9,0,5.8-1.1,8.1-3c7.4-6.4,3.5-15.4,0.1-23.4l-0.5-1.1c-2.9-6.9-5.9-13.9-8.9-20.8
			c-3.4,8.8-6.7,17.5-10.1,26.3c-0.1,0.1-0.1,0.3-0.2,0.4l0,0.1C93.8,284.6,93.6,285,93.4,285.5z"/>
		<path class="st0" d="M104.7,227.3c2.3,0,4.4,1.1,5.5,3.7c3.8,8.9,7.6,17.8,11.4,26.7c3.7,8.5,8.4,17.2,11,26.1
			c3.7,12.9-1.5,27.1-13.1,33.9c-4.5,2.6-9.4,3.9-14.2,3.9c-8.4,0-16.6-3.8-22.3-10.6c-7.2-8.7-8.4-20.4-4.6-30.7
			c0.1-0.3,0.2-0.7,0.3-1.1c5.9-15.4,11.9-30.9,17.8-46.4C97.7,229.6,101.3,227.3,104.7,227.3 M105.3,306.7c3.1,0,6.2-1.1,8.8-3.3
			c8.3-7.2,3.4-17.4-0.1-25.6c-3.3-7.7-6.5-15.4-9.8-23.1c-3.7,9.5-7.3,19.1-11,28.6c-0.1,0.2-0.1,0.3-0.2,0.5
			c-0.1,0.4-0.3,0.9-0.5,1.3c-0.3,0.9-0.6,1.8-0.8,2.7c-0.5,2.1-0.7,4.3-0.4,6.4c0.4,3,2.3,6.3,3.5,7.6
			C97.7,305,101.5,306.7,105.3,306.7 M104.7,225.3c-4.3,0-8.6,2.9-10.1,6.8c-3.7,9.6-7.4,19.3-11,28.8c-2.3,5.9-4.5,11.8-6.8,17.6
			c-0.1,0.4-0.3,0.8-0.4,1.2c-4.2,11.5-2.3,23.7,5,32.6c5.9,7.2,14.6,11.3,23.8,11.3c5.3,0,10.6-1.4,15.2-4.2
			c12.3-7.2,18-22.1,14-36.2c-1.9-6.5-4.8-12.8-7.7-18.9c-1.1-2.5-2.3-5-3.4-7.5l-10.5-24.6l-0.9-2.1
			C110.7,227.1,108,225.3,104.7,225.3L104.7,225.3z M94.9,284.5c0.1-0.1,0.1-0.3,0.2-0.4c3-7.9,6-15.7,9.2-24
			c2.9,6.9,5.5,12.9,7.9,18.6l0.5,1.1c3.4,8,7,16.3,0.2,22.2c-2.1,1.8-4.7,2.8-7.5,2.8c-3.4,0-6.6-1.5-9-4.2c-1-1.1-2.7-4.1-3-6.5
			c-0.2-1.7-0.1-3.6,0.4-5.7c0.2-0.8,0.4-1.6,0.7-2.4C94.6,285.4,94.7,285,94.9,284.5L94.9,284.5z"/>
	</g>
	<g>
		<path class="st0" d="M214.4,402.1c-1.7,0-3.5-0.1-5.2-0.3c-16-1.9-30.1-11.2-38.8-25.5c-9.2-15.1-9.9-35.2-1.9-52.5l0-0.1
			c5.6-14.9,11.1-29.7,16.7-44.6c5.8-15.5,11.6-31,17.4-46.6c1.3-3.5,5.2-6.2,9.1-6.2c2.9,0,5.3,1.6,6.5,4.3
			c6.5,14.9,13,29.8,19.6,44.7c6.4,14.6,12.8,29.1,19.1,43.7c5,11.4,9.1,21.8,8.4,34.1c-0.7,11.9-5.3,23.2-12.8,31.7
			C243,395.5,228.4,402.1,214.4,402.1C214.4,402.1,214.4,402.1,214.4,402.1z M182.8,333.3c-0.2,0.7-0.4,1.4-0.6,2.1
			c-0.2,0.7-0.4,1.4-0.6,2.1c-1,3.9-1.6,7.8-1.6,11.5c0,7.8,2.4,15.3,7,21.5c0.2,0.2,0.3,0.4,0.6,0.7c0.3,0.3,0.6,0.7,1.2,1.4
			c0.8,0.9,1.7,1.8,2.5,2.6c2.2,2.1,4.5,3.9,7.2,5.4c4.8,2.8,10.4,4.2,15.9,4.2c2.3,0,4.6-0.3,6.7-0.7c11.3-2.6,20.6-10.3,24.7-20.5
			c3.2-7.8,3.4-17,0.6-25.8c-2.4-7.5-5.8-14.8-9.2-21.9c-1.6-3.4-3.2-6.8-4.7-10.3c-5.3-12.1-10.6-24.2-15.9-36.4l-5.3-12l-9.3,24.8
			c-6,16.1-12,32.1-18,48.2c-0.1,0.3-0.3,0.7-0.4,1c-0.1,0.4-0.3,0.7-0.4,1c-0.1,0.2-0.2,0.4-0.3,0.5
			C183,332.9,182.9,333.1,182.8,333.3z"/>
		<path class="st0" d="M211.6,227.4c2.3,0,4.4,1.1,5.6,3.7c12.9,29.5,25.8,58.9,38.7,88.4c4.8,10.9,9,21.4,8.3,33.6
			c-0.7,11.4-5,22.5-12.6,31.1c-9.2,10.4-23.3,16.9-37.2,16.9c-1.7,0-3.4-0.1-5.1-0.3c-15.9-1.9-29.8-11.4-38.1-25
			c-9.4-15.5-9.3-35.4-1.8-51.6c0,0,0,0,0-0.1c11.4-30.4,22.7-60.8,34.1-91.2C204.7,229.7,208.3,227.4,211.6,227.4 M214.4,385.9
			c2.3,0,4.7-0.3,7-0.8c11.3-2.6,21-10.2,25.4-21.1c3.4-8.4,3.3-17.9,0.6-26.5c-3.5-11.1-9.3-21.7-13.9-32.3
			c-7.4-16.9-14.8-33.8-22.2-50.6c-9.4,25.1-18.8,50.2-28.1,75.3c-0.1,0.3-0.3,0.6-0.4,0.9c-0.1,0.3-0.2,0.6-0.4,1
			c-0.1,0.3-0.2,0.4-0.3,0.5c0,0.2-0.1,0.4-0.2,0.7c-0.4,1.4-0.9,2.8-1.3,4.2c-1,3.8-1.6,7.8-1.6,11.8c0,8,2.5,15.7,7.2,22.1
			c0.4,0.5,0.7,0.8,1.8,2.1c0.8,0.9,1.7,1.8,2.6,2.7c2.3,2.2,4.7,4,7.4,5.6C203,384.3,208.7,385.9,214.4,385.9 M211.6,225.4
			c-4.2,0-8.5,2.9-10,6.8c-5.8,15.6-11.6,31.1-17.4,46.7c-5.5,14.8-11.1,29.6-16.6,44.5c0,0,0,0,0,0c-8.2,17.6-7.4,38.1,1.9,53.5
			c8.9,14.5,23.3,24,39.6,25.9c1.7,0.2,3.5,0.3,5.3,0.3c14.4,0,29.2-6.7,38.7-17.6c7.7-8.7,12.4-20.2,13.1-32.3
			c0.7-12.5-3.4-23-8.5-34.5c-6.4-14.7-12.9-29.5-19.3-44.2c-6.4-14.7-12.9-29.4-19.3-44.2C217.6,227.2,214.9,225.4,211.6,225.4
			L211.6,225.4z M184.6,331.6c0.2-0.3,0.3-0.7,0.4-1c6-16.2,12.1-32.4,18.1-48.6l8.3-22.1l4.6,10.4c5.2,11.9,10.4,23.8,15.6,35.7
			c1.5,3.4,3.1,6.9,4.7,10.3c3.3,7.1,6.8,14.4,9.1,21.8c2.7,8.6,2.5,17.6-0.5,25.1c-4,9.9-13,17.4-24,19.9c-2.1,0.5-4.3,0.7-6.5,0.7
			c-5.4,0-10.8-1.4-15.5-4.1c-2.6-1.5-4.9-3.3-7-5.3c-0.8-0.8-1.7-1.7-2.5-2.6c-0.5-0.6-0.9-1-1.2-1.3c-0.2-0.3-0.4-0.4-0.6-0.7
			c-4.4-6.1-6.8-13.3-6.8-20.9c0-3.6,0.5-7.4,1.5-11.3c0.2-0.6,0.4-1.3,0.6-2c0.2-0.7,0.5-1.4,0.7-2.1c0.1-0.2,0.1-0.3,0.2-0.5
			c0.1-0.1,0.1-0.3,0.2-0.4C184.4,332.3,184.5,332,184.6,331.6L184.6,331.6z"/>
	</g>
</g>
</svg>
