<?xml version="1.0" encoding="utf-8"?>
<!-- Generator: Adobe Illustrator 21.0.2, SVG Export Plug-In . SVG Version: 6.00 Build 0)  -->
<svg version="1.1" id="Layer_1" xmlns="http://www.w3.org/2000/svg" xmlns:xlink="http://www.w3.org/1999/xlink" x="0px" y="0px"
	 viewBox="0 0 425 425" style="enable-background:new 0 0 425 425;" xml:space="preserve">
<style type="text/css">
	.st0{fill:#FFFFFF;}
</style>
<g>
	<g>
		<path class="st0" d="M41.9,216c-3.4,0-6.5-0.1-9.3-0.2c-6-0.3-9.5-5.8-12.2-10.1l-0.6-1c-6.2-9.4-10.4-20.2-12.3-31.2
			c-3.6-21,0.2-42.2,10.8-59.7c9.7-16.3,25.1-29.2,43.3-36.2c8.9-3.4,18.9-5.4,28.9-5.6c0.5,0,0.9,0,1.4,0c6,0,12,0.6,17.8,1.8
			c3.1,0.7,5.8,1.4,8.3,2.2c0.1,0,0.2,0.1,0.3,0.1c7.5-13.7,17.8-25.6,30.6-35.3c18.4-13.9,41.7-21.6,65.5-21.6
			c9.5,0,19,1.2,28.1,3.6c28.4,7.5,52.9,26.8,67.3,52.9c8.3-2.5,16.8-3.8,25.3-3.8c0.7,0,1.4,0,2.1,0c19.1,0.5,37.8,7.6,52.9,20.1
			c15.1,12.6,25.5,29.8,29.2,48.5c4.5,22.8-0.1,46.5-12.8,65.2l-0.5,0.7c-2.7,4.1-5.5,8.3-11.2,8.6l-3.4,0
			c-17.8,0-35.6,0.1-53.5,0.1c-18,0-36,0-54,0.1l-161.2,0.3c-10.3,0-20.5,0-30.7,0c-10.3,0-20.5,0-30.8,0c-2.7,0-5.4,0.1-8.1,0.2
			C49.5,215.9,45.6,216,41.9,216z M37.3,198.5c1.6,0,3.3,0.1,4.9,0.1c1.6,0.1,3.1,0.1,4.6,0.1c10-0.1,20.2-0.1,30.1-0.1
			c15.1,0,30.3-0.1,45.4-0.1c15.1,0,30.2,0,45.4-0.1c17.5,0,34.9-0.1,52.3-0.1c17.5,0,35,0,52.6-0.1c14.4,0,28.9-0.1,43.3-0.1
			c14.5,0,28.9,0,43.4-0.1c10.5-0.1,21.1-0.1,32-0.1c8.3-11.5,12.8-25.8,12.8-40.1c0-21.6-10.7-42.9-28-55.5
			c-11.9-8.7-26.1-13.2-40.9-13.2c-9.5,0-18.9,1.9-27.9,5.5c-0.8,0.3-1.6,0.5-2.4,0.5c-1,0-1.9-0.2-2.9-0.6
			c-0.7-0.2-1.3-0.6-1.9-1.1c-1.6-1.2-2.8-2.9-3.3-4.6c-0.1-0.3-0.2-0.6-0.2-1c-6.7-13.3-15.8-24.4-26.9-32.8
			c-15.9-12.1-35.8-18.7-56-18.7c-8,0-16,1-23.6,3.1c-26.5,7.1-48.5,25.9-60.4,51.5c-1.3,2.8-4.8,4.3-7.4,4.3c-2.6,0-5.1-1-7.5-1.9
			c-1.2-0.5-2.2-0.9-3.3-1.2c-4.1-1.2-7.8-2-11.2-2.5c-2.9-0.4-5.8-0.5-8.7-0.5c-4.4,0-8.8,0.4-12.9,1.2
			c-22.1,4.4-40.8,19.3-50.1,39.7c-10,22-7.1,48.8,7.3,68.6C36.4,198.5,36.8,198.5,37.3,198.5z"/>
		<path class="st0" d="M214.4,20.3c9.4,0,18.7,1.2,27.8,3.6c28.6,7.6,53.1,27.3,67.1,53.1c8.3-2.6,17-4,25.8-4c0.7,0,1.4,0,2.1,0
			c38.8,1,73.5,29.5,81.1,67.8c4.4,22.1,0.1,45.7-12.6,64.4c-2.8,4.2-5.4,8.6-10.9,8.9c-1.1,0-2.2,0-3.3,0
			c-35.8,0.1-71.7,0.1-107.5,0.2c-53.7,0.1-107.5,0.2-161.2,0.3c-20.5,0-41,0.1-61.5,0.1c-6.4,0.1-13,0.3-19.4,0.3
			c-3.1,0-6.2-0.1-9.3-0.2c-5.9-0.3-9.2-6.2-12.1-10.7c-6.1-9.3-10.3-19.9-12.2-30.8c-3.5-20.3,0-41.3,10.7-59
			c9.8-16.4,25-28.9,42.8-35.8c9.1-3.5,18.9-5.3,28.6-5.5c0.5,0,0.9,0,1.4,0c5.9,0,11.9,0.6,17.6,1.8c2.8,0.6,5.5,1.3,8.2,2.2
			c0.3,0.1,0.7,0.2,1.1,0.4c7.5-14,18.1-26.1,30.8-35.7C168.2,27.6,191.2,20.3,214.4,20.3 M122.3,94.1c-3.6,0-7.1-2.1-10.5-3.1
			c-3.7-1.1-7.5-2-11.4-2.5c-2.9-0.4-5.8-0.5-8.8-0.5c-4.4,0-8.8,0.4-13.1,1.2c-22.4,4.5-41.4,19.5-50.8,40.3
			c-10.3,22.7-7.1,50.1,7.7,70c0.7,0,1.3,0,2,0c3.2,0,6.4,0.2,9.5,0.2c10-0.1,20.1-0.1,30.1-0.1c30.3-0.1,60.5-0.1,90.8-0.2
			c35-0.1,69.9-0.1,104.9-0.2c28.9-0.1,57.8-0.1,86.7-0.2c10.8-0.1,21.7-0.1,32.5-0.1c8.6-11.8,13.3-26.4,13.3-41.1
			c0-21.9-10.6-43.3-28.4-56.3c-12.4-9-26.8-13.4-41.5-13.4c-9.5,0-19.1,1.9-28.2,5.6c-0.7,0.3-1.4,0.4-2.1,0.4
			c-0.8,0-1.7-0.2-2.5-0.5c-0.6-0.2-1.1-0.5-1.7-0.9c-1.4-1.1-2.6-2.6-3-4.1c-0.1-0.3-0.2-0.7-0.2-1c-6.5-13-15.7-24.5-27.3-33.3
			c-16.3-12.4-36.4-18.9-56.6-18.9c-8,0-16.1,1-23.9,3.1c-27.2,7.3-49.2,26.6-61,52C127.7,92.7,124.7,94.1,122.3,94.1 M214.4,18.3
			c-24,0-47.5,7.7-66.1,21.8c-12.7,9.6-23,21.3-30.5,34.8c-2.4-0.8-5.1-1.5-8-2.1c-5.9-1.2-11.9-1.9-18-1.9c-0.5,0-0.9,0-1.4,0
			c-10.1,0.2-20.2,2.2-29.3,5.6c-18.4,7.1-33.9,20.1-43.8,36.6C6.6,131,2.7,152.4,6.3,173.6c1.9,11.1,6.3,22.1,12.5,31.6
			c0.2,0.3,0.4,0.7,0.6,1c2.9,4.6,6.5,10.3,13,10.6c2.8,0.1,5.9,0.2,9.4,0.2c3.8,0,7.6-0.1,11.3-0.2c2.7-0.1,5.4-0.1,8.1-0.1
			c0,0,0,0,0.1,0c10.2,0,20.6,0,30.7,0c10.1,0,20.5-0.1,30.7-0.1l102.4-0.2l58.8-0.1c17.9-0.1,36.1-0.1,53.8-0.1
			c17.6,0,35.8,0,53.7-0.1h3.3h0.1l0.1,0c6.2-0.3,9.3-5,12-9.1l0.5-0.7c12.8-18.8,17.5-42.8,12.9-65.9c-3.8-18.9-14.2-36.3-29.5-49
			c-15.2-12.6-34.2-19.9-53.5-20.4c-0.7,0-1.4,0-2.2,0c-8.4,0-16.7,1.2-24.8,3.6c-14.6-26-39.2-45.1-67.6-52.7
			C233.5,19.5,224,18.3,214.4,18.3L214.4,18.3z M122.3,96.1c3,0,6.8-1.7,8.3-4.8c11.8-25.3,33.5-43.9,59.7-50.9
			c7.6-2,15.4-3.1,23.4-3.1c20,0,39.7,6.6,55.4,18.5c11,8.3,19.9,19.2,26.6,32.3c0.1,0.3,0.1,0.6,0.2,0.9c0.6,1.9,1.9,3.8,3.7,5.2
			c0.6,0.5,1.4,0.9,2.1,1.2c1.1,0.4,2.2,0.7,3.2,0.7c1,0,1.9-0.2,2.8-0.6c8.8-3.6,18.1-5.5,27.5-5.5c14.6,0,28.5,4.5,40.3,13
			c8.4,6.2,15.4,14.5,20.3,24.1c4.8,9.5,7.3,20.1,7.3,30.6c0,14-4.4,27.8-12.4,39.1c-10.7,0-21.2,0-31.5,0.1
			c-14.4,0-29.1,0.1-43.3,0.1c-14.2,0-28.9,0.1-43.4,0.1c-17.5,0.1-35.3,0.1-52.5,0.1c-17.2,0-34.9,0.1-52.4,0.1
			c-15.2,0.1-30.5,0.1-45.4,0.1c-14.9,0-30.2,0-45.4,0.1c-9.9,0-20.1,0-30.1,0.1c-1.5,0-3-0.1-4.5-0.1c-1.6-0.1-3.2-0.1-4.9-0.1
			c-0.3,0-0.7,0-1,0c-13.9-19.4-16.6-45.7-6.8-67.2c9.1-20.1,27.6-34.8,49.4-39.2C83,90.4,87.2,90,91.6,90c2.9,0,5.8,0.2,8.6,0.5
			c3.4,0.4,7.1,1.2,11.1,2.4c1,0.3,2.1,0.7,3.2,1.2C116.9,95.1,119.5,96.1,122.3,96.1L122.3,96.1z"/>
	</g>
	<g>
		<path class="st0" d="M215.9,390.2c-1.4,0-2.9-0.1-4.2-0.2c-15.7-1.5-29.8-10.4-38.8-24.4c-9.4-14.7-10.5-34.5-2.9-51.8l0-0.1
			l0-0.1c10.5-30.1,20.9-60.4,31.4-90.6c1.2-3.5,5.1-6.1,8.9-6.1c3,0,5.4,1.6,6.6,4.3c13.5,29.1,27,58.1,40.1,86.1
			c5.1,10.9,9.6,21.7,9,34.3c-0.6,11.5-4.9,22.5-12,30.9C244.7,383.4,230.1,390.2,215.9,390.2C216,390.2,216,390.2,215.9,390.2z
			 M188.9,359.1c0.2,0.2,0.4,0.4,0.6,0.8c0.4,0.5,1,1.3,1.2,1.5l3,3c2.2,2,4.5,3.6,6.9,4.9c4.6,2.6,9.9,4,15.2,4
			c2.3,0,4.6-0.3,6.9-0.8c11.2-2.6,20.4-10.5,24.2-20.7c6.2-16.5-1.9-32.4-9.7-47.8c-1.6-3.1-3.1-6-4.4-8.9
			c-6.9-15-13.8-29.8-22-47.2c-8.4,24.1-16.7,48.3-25.1,72.4c-0.2,0.6-0.5,1.3-0.9,1.9c-0.1,0.3-0.2,0.6-0.3,0.9l0,0.1
			c-0.4,1.3-0.8,2.5-1.2,3.9c-1,4-1.5,8-1.4,11.9C182.2,346.2,184.6,353.1,188.9,359.1z"/>
		<path class="st0" d="M210.4,217.9c2.3,0,4.5,1.1,5.7,3.7c13.3,28.7,26.7,57.4,40.1,86.1c5.1,10.9,9.5,21.4,8.9,33.8
			c-0.6,11.1-4.6,21.8-11.8,30.3c-9.1,10.6-23.3,17.4-37.4,17.4c-1.4,0-2.8-0.1-4.1-0.2c-15.8-1.5-29.6-10.7-38.1-23.9
			c-9.7-15.1-9.9-34.8-2.8-50.9c0,0,0-0.1,0.1-0.1c10.5-30.2,21-60.4,31.4-90.7C203.5,220.2,207.1,217.9,210.4,217.9 M188.4,360
			c-0.1-0.2-0.2-0.2-0.2-0.2c0,0,1.4,1.8,1.9,2.2c1,1,2,2,3,3c2.2,2,4.5,3.7,7.1,5.1c4.8,2.7,10.2,4.1,15.7,4.1
			c2.4,0,4.8-0.3,7.1-0.8c11.2-2.6,20.9-10.5,24.9-21.3c7.6-20.2-5.9-39.8-14.2-57.5c-7.6-16.5-15.3-33-23-49.4
			c-8.6,24.9-17.3,49.8-25.9,74.7c-0.2,0.6-0.5,1.2-0.8,1.7c-0.1,0.3-0.3,0.7-0.4,1.1c-0.4,1.3-0.8,2.6-1.2,4c-1,4-1.5,8.1-1.4,12.2
			C181.2,346.6,183.8,353.9,188.4,360 M184,321.6c0.2-0.4,0.3-0.6,0.2-0.6C184.2,321,184.1,321.3,184,321.6 M183.9,321.8
			c0-0.1,0-0.1,0.1-0.2c0,0,0,0,0,0C183.9,321.7,183.9,321.8,183.9,321.8 M210.4,215.9c-4.3,0-8.5,2.9-9.9,6.8
			c-9.7,27.9-20.6,59.6-31.4,90.5c0,0,0,0.1-0.1,0.1c-7.8,17.7-6.7,37.9,2.9,52.8c9.2,14.3,23.6,23.3,39.6,24.8
			c1.4,0.1,2.9,0.2,4.3,0.2c14.4,0,29.3-6.9,38.9-18.1c7.3-8.6,11.6-19.8,12.3-31.5c0.6-12.8-3.9-23.8-9.1-34.8l0-0.1
			c-13.2-28.2-26.8-57.4-40.1-86C216.5,217.7,213.8,215.9,210.4,215.9L210.4,215.9z M185.8,322.5c0.4-0.6,0.7-1.3,0.9-2
			c8.1-23.4,16.2-46.7,24.3-70.1c6.5,13.8,13.7,29.4,20.9,45c1.4,3,2.9,5.9,4.5,9c7.7,15.2,15.7,30.9,9.7,47
			c-3.7,9.9-12.6,17.5-23.5,20.1c-2.2,0.5-4.4,0.8-6.7,0.8c-5.1,0-10.2-1.3-14.7-3.9c-2.3-1.3-4.5-2.8-6.7-4.8l-3-3
			c-0.2-0.2-0.8-1-1.2-1.4c-0.2-0.3-0.4-0.5-0.6-0.7c-4.2-5.7-6.5-12.5-6.7-19.6c-0.1-3.8,0.4-7.7,1.3-11.6c0.4-1.4,0.8-2.7,1.2-3.9
			C185.6,323,185.7,322.7,185.8,322.5L185.8,322.5z"/>
	</g>
</g>
</svg>
