<?xml version="1.0" encoding="utf-8"?>
<!-- Generator: Adobe Illustrator 21.0.2, SVG Export Plug-In . SVG Version: 6.00 Build 0)  -->
<svg version="1.1" id="Layer_1" xmlns="http://www.w3.org/2000/svg" xmlns:xlink="http://www.w3.org/1999/xlink" x="0px" y="0px"
	 viewBox="0 0 425 425" style="enable-background:new 0 0 425 425;" xml:space="preserve">
<style type="text/css">
	.st0{fill:#FFFFFF;}
</style>
<g>
	<g>
		<path class="st0" d="M312.1,82.5C298.7,54,272.8,32,242.2,23.9c-31.6-8.4-66.5-2-92.7,17.8c-14.3,10.8-25.9,24.8-33.5,41.1
			c2.2-1.2,4.3-2.5,6.5-3.7c-0.4,0-3.5-1.7-4.9-2.1c-2.7-0.9-5.4-1.6-8.2-2.2c-6.2-1.3-12.6-1.9-19-1.8c-9.7,0.2-19.5,2-28.6,5.5
			C44,85.4,28.8,97.9,19,114.3C8.3,132,4.8,153,8.3,173.3c1.9,10.9,6.1,21.5,12.2,30.8c2.9,4.5,6.2,10.4,12.1,10.7
			c9.5,0.5,19.2,0,28.7-0.1c20.5,0,41-0.1,61.5-0.1c53.7-0.1,107.5-0.2,161.2-0.3c35.8-0.1,71.7-0.1,107.5-0.2c1.1,0,2.2,0,3.3,0
			c5.5-0.3,8.1-4.7,10.9-8.9c12.7-18.7,17-42.3,12.6-64.4c-7.6-38.3-42.3-66.8-81.1-67.8c-11.7-0.3-23.4,1.9-34.2,6.3
			c-3.7,1.5-6.4,5-5.2,9.2c1,3.5,5.4,6.8,9.2,5.2c23.2-9.5,49.3-7,69.7,7.8c17.8,13,28.4,34.4,28.4,56.3c0,15.6-5.3,31.1-15,43.3
			c1.8-0.7,3.5-1.5,5.3-2.2c-12,0-24.1,0-36.1,0.1c-28.9,0.1-57.8,0.1-86.7,0.2c-35,0.1-69.9,0.1-104.9,0.2
			c-30.3,0.1-60.5,0.1-90.8,0.2c-10,0-20.1,0-30.1,0.1c-4.6,0-9.6-0.5-14.2,0c-0.2,0-0.4,0-0.7,0c1.8,0.7,3.5,1.5,5.3,2.2
			c-16.3-20.1-20.2-48.8-9.5-72.4c9.4-20.8,28.4-35.8,50.8-40.3c7.1-1.4,14.7-1.6,21.9-0.7c3.9,0.5,7.7,1.4,11.4,2.5
			c3.4,1,6.9,3.1,10.5,3.1c2.4,0,5.4-1.4,6.5-3.7c11.8-25.4,33.8-44.7,61-52c27.6-7.4,57.7-1.5,80.5,15.8c12.4,9.4,22,21.9,28.6,36
			C303.2,98.8,316.2,91.2,312.1,82.5L312.1,82.5z"/>
	</g>
</g>
<g>
	<g>
		<path class="st0" d="M184.8,319.9c10.7-30.9,21.4-61.8,32.1-92.6c-4.6,0.6-9.1,1.2-13.7,1.8c10.2,21.8,20.4,43.6,30.5,65.5
			c8.3,17.7,21.8,37.3,14.2,57.5c-4,10.8-13.7,18.7-24.9,21.3c-7.7,1.8-15.9,0.6-22.8-3.3c-2.6-1.4-4.9-3.1-7.1-5.1c-1-1-2-2-3-3
			c-0.5-0.5-2.4-3-1.7-2c-4.6-6.1-7.2-13.4-7.4-21.1c-0.1-4.1,0.4-8.2,1.4-12.2c0.4-1.4,0.8-2.7,1.2-4c0.4-1.3,1-2.5,0.3-0.9
			c1.6-3.7,1.1-8-2.7-10.3c-3.2-1.9-8.6-1-10.3,2.7c-7.1,16.1-6.9,35.8,2.8,50.9c8.5,13.2,22.3,22.4,38.1,23.9
			c15.3,1.5,31.5-5.5,41.5-17.2c7.2-8.5,11.2-19.2,11.8-30.3c0.6-12.4-3.8-22.9-8.9-33.8c-13.4-28.7-26.8-57.4-40.1-86.1
			c-2.9-6.3-11.8-3.7-13.7,1.8c-10.7,30.9-21.4,61.8-32.1,92.6C167.2,325,181.7,329,184.8,319.9z"/>
	</g>
</g>
</svg>
