<?xml version="1.0" encoding="utf-8"?>
<!-- Generator: Adobe Illustrator 21.0.2, SVG Export Plug-In . SVG Version: 6.00 Build 0)  -->
<svg version="1.1" id="Layer_1" xmlns="http://www.w3.org/2000/svg" xmlns:xlink="http://www.w3.org/1999/xlink" x="0px" y="0px"
	 viewBox="0 0 425 425" style="enable-background:new 0 0 425 425;" xml:space="preserve">
<style type="text/css">
	.st0{fill:#FFFFFF;}
</style>
<g>
	<g>
		<path class="st0" d="M418.3,140.8C410.7,102.5,376,74,337.2,73c-9.5-0.2-18.9,1.1-27.9,4c-14-25.8-38.5-45.5-67.1-53.1
			c-31.6-8.4-66.5-2-92.7,17.8c-12.7,9.6-23.3,21.7-30.8,35.7c-0.4-0.2-0.8-0.3-1.1-0.4c-2.7-0.9-5.4-1.6-8.2-2.2
			c-6.2-1.3-12.6-1.9-19-1.8c-9.7,0.2-19.5,2-28.6,5.5C44,85.4,28.8,97.9,19,114.3C8.3,132,4.8,153,8.3,173.3
			c1.9,10.9,6.1,21.5,12.2,30.8c2.9,4.5,6.2,10.4,12.1,10.7c9.5,0.5,19.2,0,28.7-0.1c20.5,0,41-0.1,61.5-0.1
			c53.7-0.1,107.5-0.2,161.2-0.3c35.8-0.1,71.7-0.1,107.5-0.2c1.1,0,2.2,0,3.3,0c5.5-0.3,8.1-4.7,10.9-8.9
			C418.4,186.5,422.7,162.9,418.3,140.8z M391.8,198.9c-10.8,0-21.7,0-32.5,0.1c-28.9,0.1-57.8,0.1-86.7,0.2
			c-35,0.1-69.9,0.1-104.9,0.2c-30.3,0.1-60.5,0.1-90.8,0.2c-10,0-20.1,0-30.1,0.1c-3.7,0-7.6-0.3-11.4-0.2
			c-14.7-19.9-17.9-47.3-7.7-70c9.4-20.8,28.4-35.8,50.8-40.3c7.1-1.4,14.7-1.6,21.9-0.7c3.9,0.5,7.7,1.4,11.4,2.5
			c3.4,1,6.9,3.1,10.5,3.1c2.4,0,5.4-1.4,6.5-3.7c11.8-25.4,33.8-44.7,61-52c27.6-7.4,57.7-1.5,80.5,15.8
			c11.6,8.8,20.8,20.3,27.3,33.3c0,0.3,0.1,0.7,0.2,1c0.4,1.6,1.6,3.1,3,4.1c0.5,0.4,1.1,0.7,1.7,0.9c1.4,0.6,3,0.7,4.5,0.1
			c23.2-9.5,49.3-7,69.7,7.8c17.8,13,28.4,34.4,28.4,56.3C405.1,172.5,400.4,187.1,391.8,198.9z"/>
	</g>
	<g>
		<path class="st0" d="M216.1,221.6c-2.9-6.3-11.8-3.7-13.7,1.8c-10.5,30.3-21,60.5-31.4,90.7c0,0,0,0.1-0.1,0.1
			c-7.1,16.1-6.9,35.8,2.8,50.9c8.5,13.2,22.3,22.4,38.1,23.9c15.3,1.5,31.5-5.5,41.5-17.2c7.2-8.5,11.2-19.2,11.8-30.3
			c0.6-12.4-3.8-22.9-8.9-33.8C242.8,279,229.4,250.3,216.1,221.6z M184,321.6C184.2,321,184.4,320.7,184,321.6L184,321.6z
			 M184,321.6c0,0.1,0,0.1-0.1,0.2C183.9,321.8,183.9,321.7,184,321.6C184,321.7,184,321.6,184,321.6z M247.9,352.1
			c-4,10.8-13.7,18.7-24.9,21.3c-7.7,1.8-15.9,0.6-22.8-3.3c-2.6-1.4-4.9-3.1-7.1-5.1c-1-1-2-2-3-3c-0.5-0.5-2.4-3-1.7-2
			c-4.6-6.1-7.2-13.4-7.4-21.1c-0.1-4.1,0.4-8.2,1.4-12.2c0.4-1.4,0.8-2.7,1.2-4c0.1-0.4,0.3-0.8,0.4-1.1c0.3-0.5,0.6-1.1,0.8-1.7
			c8.6-24.9,17.3-49.9,25.9-74.7c7.7,16.5,15.4,32.9,23,49.4C242,312.3,255.5,331.9,247.9,352.1z"/>
	</g>
</g>
</svg>
