<?xml version="1.0" encoding="utf-8"?>
<!-- Generator: Adobe Illustrator 21.0.2, SVG Export Plug-In . SVG Version: 6.00 Build 0)  -->
<svg version="1.1" id="Layer_1" xmlns="http://www.w3.org/2000/svg" xmlns:xlink="http://www.w3.org/1999/xlink" x="0px" y="0px"
	 viewBox="0 0 425 425" style="enable-background:new 0 0 425 425;" xml:space="preserve">
<style type="text/css">
	.st0{fill:#FFFFFF;}
</style>
<g>
	<g>
		<path class="st0" d="M37.5,254.3c-3.5,0-6.6-0.1-9.4-0.2c-6.1-0.3-9.7-6-12.5-10.5c-0.3-0.4-0.5-0.8-0.8-1.2
			c-6.1-9.5-10.4-20.4-12.3-31.7c-3.5-21.1,0.4-42.5,10.9-60.2c9.9-16.6,25.4-29.7,43.7-36.9c9.1-3.6,18.8-5.6,28.8-5.9
			c0.9,0,1.7,0,2.6,0c5.8,0,11.7,0.6,17.6,1.8c2.8,0.5,5.7,1.2,8.5,2.1c0.3,0.1,0.7,0.3,1.2,0.5c7.5-13.7,18.1-26.1,30.9-35.8
			c19-14.5,42.9-22.4,67.3-22.4c9.3,0,18.6,1.2,27.6,3.5c29.5,7.6,54.9,27.4,69.7,54.3c8.5-2.7,17.3-4,26.2-4c1,0,1.9,0,2.9,0
			c19.4,0.7,38.5,8.1,53.7,20.9c15.3,12.9,25.7,30.4,29.4,49.4c4.5,23.3-0.4,47.4-13.3,66.3l-0.6,0.9c-2.7,4-5.6,8.1-11.1,8.3
			l-3.4,0c-18.4,0.1-36.8,0.1-55.2,0.1c-18.2,0-36.5,0-54.7,0.1l-164.4,0.3c-10.6,0-21.1,0-31.6,0.1c-10.5,0-21.1,0-31.6,0
			c-2.6,0-5.3,0.1-7.9,0.1C45.5,254.2,41.5,254.3,37.5,254.3z M33.3,236.7c1.7,0,3.4,0.1,5,0.1c1.6,0.1,3.2,0.1,4.7,0.1
			c10.1-0.1,20.4-0.1,30.4-0.1c15.4,0,30.8-0.1,46.3-0.1c15.6,0,31.2,0,46.7-0.1c17.8,0,35.7-0.1,53.5-0.1c17.8,0,35.7,0,53.5-0.1
			c14.9-0.1,29.7-0.1,44.6-0.1c14.7,0,29.5,0,44.2-0.1c10.7-0.1,21.6-0.1,32.6-0.1c8.3-11.6,13-25.9,13.2-40.3
			c0.2-22.8-10.5-44.3-28.5-57.6c-12.2-9-26.7-13.7-41.9-13.7c-9.8,0-19.4,1.9-28.6,5.7c-0.8,0.3-1.6,0.5-2.5,0.5
			c-3.5,0-7.1-2.8-8.1-6.3c-0.2-0.6-0.3-1.3-0.3-1.9c-7-13.5-16.7-25-27.9-33.4c-16.3-12-36.4-18.6-56.7-18.6
			c-8.5,0-16.9,1.1-25,3.4c-26.7,7.4-49,26.5-61,52.5c-1.3,2.8-4.8,4.3-7.4,4.3c-2.5,0-5-1-7.3-1.9c-1.2-0.5-2.4-1-3.6-1.3
			c-4.2-1.2-8.4-2.1-12.4-2.6c-2.6-0.3-5.3-0.4-7.9-0.4c-4.6,0-9.2,0.4-13.7,1.3c-22.4,4.5-41.5,19.7-51,40.6
			c-10.2,22.5-7.3,50,7.4,70.4C32.2,236.7,32.8,236.7,33.3,236.7z"/>
		<path class="st0" d="M213.9,54.8c9.2,0,18.4,1.1,27.3,3.4c29.6,7.6,55.1,27.8,69.5,54.6c8.6-2.8,17.6-4.2,26.7-4.2
			c0.9,0,1.9,0,2.8,0c39.5,1.4,74.6,30.5,82.1,69.5c4.3,22.5-0.1,46.5-13.1,65.5c-2.9,4.2-5.5,8.6-10.9,8.8c-1.1,0-2.3,0-3.4,0
			c-36.7,0.1-73.3,0.1-109.9,0.2c-54.8,0.1-109.6,0.2-164.4,0.3c-21.1,0-42.1,0.1-63.2,0.1c-6.6,0.1-13.3,0.3-19.9,0.3
			c-3.1,0-6.3,0-9.4-0.2c-6.1-0.3-9.5-6.6-12.5-11.3c-6.1-9.4-10.3-20.2-12.2-31.3C0,190.1,3.5,168.9,14.2,151
			c9.9-16.6,25.2-29.4,43.2-36.5c9.1-3.6,18.8-5.5,28.5-5.8c0.8,0,1.7,0,2.5,0c5.9,0,11.7,0.6,17.4,1.7c2.8,0.5,5.6,1.2,8.4,2.1
			c0.5,0.2,1.2,0.5,1.9,0.8c7.6-14.2,18.2-26.5,31.1-36.3C166.3,62.4,190.1,54.8,213.9,54.8 M120.2,129.7c-3.6,0-7.1-2.2-10.6-3.2
			c-4.1-1.2-8.3-2.1-12.6-2.6c-2.7-0.3-5.3-0.4-8-0.4c-4.7,0-9.3,0.4-13.9,1.3c-22.8,4.6-42.1,20-51.7,41.2
			c-10.6,23.3-7.2,51.3,7.8,71.8c0.7,0,1.3,0,2,0c3.3,0,6.6,0.3,9.7,0.3c10.1-0.1,20.3-0.1,30.4-0.1c31-0.1,62-0.1,93-0.2
			c35.6-0.1,71.3-0.1,107-0.2c29.6-0.1,59.2-0.1,88.8-0.2c11.1-0.1,22.1-0.1,33.2-0.1c8.7-11.9,13.5-26.5,13.6-41.3
			c0.2-22.7-10.5-44.9-28.9-58.4c-12.6-9.3-27.5-13.9-42.5-13.9c-9.8,0-19.6,1.9-29,5.8c-0.7,0.3-1.4,0.4-2.1,0.4
			c-3.2,0-6.3-2.7-7.1-5.6c-0.2-0.6-0.3-1.3-0.3-1.9c-6.8-13.2-16.3-25.1-28.3-33.9c-16.7-12.3-36.9-18.8-57.3-18.8
			c-8.5,0-16.9,1.1-25.2,3.4c-27.4,7.6-49.7,27.3-61.6,53C125.6,128.3,122.6,129.7,120.2,129.7 M213.9,52.8
			C213.9,52.8,213.9,52.8,213.9,52.8c-24.6,0-48.7,8-67.9,22.6c-12.6,9.7-23.2,21.8-30.7,35.4c-0.1-0.1-0.3-0.1-0.4-0.1l0,0l0,0
			c-2.9-0.9-5.8-1.7-8.7-2.2c-5.9-1.2-11.8-1.8-17.7-1.8c-0.9,0-1.7,0-2.6,0c-10.2,0.3-20,2.3-29.2,5.9
			c-18.5,7.3-34.2,20.5-44.2,37.3C1.8,167.9-2.1,189.5,1.4,210.8c1.9,11.4,6.3,22.5,12.5,32.1c0.2,0.4,0.5,0.8,0.8,1.2
			c3,4.8,6.7,10.7,13.3,11c2.9,0.1,6,0.2,9.5,0.2c4,0,8.1-0.1,12-0.1c2.6,0,5.3-0.1,7.9-0.1c0,0,0,0,0.1,0c10.5,0,21.2,0,31.5,0
			c10.3,0,21-0.1,31.6-0.1l54.8-0.1l109.6-0.2c18.3-0.1,36.9-0.1,54.9-0.1c18,0,36.6-0.1,55-0.1h3.4h0l0,0c6-0.2,9.1-4.8,11.9-8.8
			c0.2-0.3,0.4-0.6,0.6-0.9c13-19,17.9-43.5,13.4-67c-3.7-19.2-14.3-37-29.7-50c-15.4-12.9-34.6-20.4-54.3-21.1c-1,0-1.9,0-2.9,0
			c-8.7,0-17.4,1.3-25.7,3.8c-15-26.9-40.4-46.5-70-54.1C232.7,53.9,223.3,52.8,213.9,52.8L213.9,52.8L213.9,52.8z M120.2,131.7
			c3,0,6.8-1.7,8.3-4.8c11.9-25.7,33.9-44.6,60.3-51.9c8-2.2,16.3-3.3,24.7-3.3c20.1,0,40,6.5,56.1,18.4
			c11.1,8.2,20.6,19.5,27.5,32.8c0,0.6,0.2,1.3,0.3,1.9c1.1,3.9,5.2,7.1,9.1,7.1c1,0,1.9-0.2,2.8-0.6c9.1-3.7,18.6-5.6,28.2-5.6
			c15,0,29.3,4.7,41.4,13.5c8.7,6.4,15.9,15,20.8,25c4.9,9.9,7.4,20.9,7.3,31.8c-0.2,14-4.7,27.9-12.7,39.3c-11.3,0-21.6,0-32.1,0.1
			c-14.8,0.1-29.9,0.1-44.4,0.1c-14.5,0-29.6,0-44.4,0.1c-17.8,0-36,0.1-53.5,0.1c-17.6,0-35.7,0.1-53.5,0.1
			c-15.5,0-31.2,0.1-46.5,0.1c-15.2,0-31,0-46.5,0.1c-10,0-20.3,0-30.4,0.1c-1.5,0-3-0.1-4.7-0.1c-1.7-0.1-3.4-0.1-5.1-0.1
			c-0.4,0-0.7,0-1,0c-14.2-20-17-46.9-7-68.9c9.3-20.6,28.1-35.6,50.3-40.1c4.4-0.9,9-1.3,13.5-1.3c2.6,0,5.2,0.1,7.8,0.4
			c4,0.5,8.1,1.3,12.3,2.5c1.1,0.3,2.3,0.8,3.5,1.3C114.9,130.7,117.5,131.7,120.2,131.7L120.2,131.7z"/>
	</g>
	<g>
		<polygon class="st0" points="205,369.7 205,343.7 186.6,362.1 175.4,350.8 193.7,332.5 167.8,332.5 167.8,316.5 193.7,316.5 
			175.4,298.2 186.6,286.9 205,305.3 205,279.3 220.9,279.3 220.9,305.3 239.3,286.9 250.5,298.2 232.2,316.5 258.2,316.5 
			258.2,332.5 232.2,332.5 250.5,350.8 239.3,362.1 220.9,343.7 220.9,369.7 		"/>
		<path class="st0" d="M219.9,280.3v27.4l19.4-19.4l9.8,9.9l-19.3,19.3h27.4v14h-27.4l19.3,19.3l-9.8,9.9l-19.4-19.4v27.4H206v-27.4
			l-19.4,19.4l-9.8-9.9l19.3-19.3h-27.3v-14h27.3l-19.3-19.3l9.8-9.9l19.4,19.4v-27.4H219.9 M221.9,278.3h-2H206h-2v2v22.6l-16-16
			l-1.4-1.4l-1.4,1.4l-9.8,9.9l-1.4,1.4l1.4,1.4l15.9,15.9h-22.5h-2v2v14v2h2h22.5l-15.9,15.9l-1.4,1.4l1.4,1.4l9.8,9.9l1.4,1.4
			l1.4-1.4l16-16v22.6v2h2h13.9h2v-2v-22.6l16,16l1.4,1.4l1.4-1.4l9.8-9.9l1.4-1.4l-1.4-1.4l-15.9-15.9h22.6h2v-2v-14v-2h-2h-22.6
			l15.9-15.9l1.4-1.4l-1.4-1.4l-9.8-9.9l-1.4-1.4l-1.4,1.4l-16,16v-22.6V278.3L221.9,278.3z"/>
	</g>
	<g>
		<polygon class="st0" points="101.4,332.6 101.4,316 89.7,327.7 81.8,319.8 93.5,308 76.9,308 76.9,296.8 93.5,296.8 81.8,285.1 
			89.7,277.2 101.4,288.9 101.4,272.3 112.6,272.3 112.6,288.9 124.4,277.2 132.3,285.1 120.5,296.8 137.2,296.8 137.2,308 
			120.5,308 132.3,319.8 124.4,327.7 112.6,316 112.6,332.6 		"/>
		<path class="st0" d="M111.6,273.3v18l12.8-12.7l6.5,6.5l-12.8,12.7h18.1v9.2h-18.1l12.8,12.8l-6.5,6.5l-12.8-12.7v18h-9.2v-18
			l-12.7,12.7l-6.5-6.5L95.9,307h-18v-9.2h18l-12.7-12.7l6.5-6.5l12.7,12.7v-18H111.6 M113.6,271.3h-2h-9.2h-2v2v13.2l-9.3-9.3
			l-1.4-1.4l-1.4,1.4l-6.5,6.5l-1.4,1.4l1.4,1.4l9.3,9.3H77.9h-2v2v9.2v2h2h13.2l-9.3,9.4l-1.4,1.4l1.4,1.4l6.5,6.5l1.4,1.4l1.4-1.4
			l9.3-9.3v13.2v2h2h9.2h2v-2v-13.2l9.4,9.3l1.4,1.4l1.4-1.4l6.5-6.5l1.4-1.4l-1.4-1.4l-9.4-9.4h13.3h2v-2v-9.2v-2h-2H123l9.4-9.3
			l1.4-1.4l-1.4-1.4l-6.5-6.5l-1.4-1.4l-1.4,1.4l-9.4,9.3v-13.2V271.3L113.6,271.3z"/>
	</g>
	<g>
		<polygon class="st0" points="316,329.3 316,312.7 304.2,324.4 296.3,316.5 308.1,304.8 291.4,304.8 291.4,293.6 308.1,293.6 
			296.3,281.8 304.2,273.9 316,285.7 316,269 327.2,269 327.2,285.7 338.9,273.9 346.8,281.8 335.1,293.6 351.7,293.6 351.7,304.8 
			335.1,304.8 346.8,316.5 338.9,324.4 327.2,312.7 327.2,329.3 		"/>
		<path class="st0" d="M326.2,270v18.1l12.7-12.8l6.5,6.5l-12.7,12.8h18v9.2h-18l12.7,12.7l-6.5,6.5l-12.7-12.7v18H317v-18
			L304.2,323l-6.5-6.5l12.8-12.7h-18.1v-9.2h18.1l-12.8-12.8l6.5-6.5l12.8,12.8V270H326.2 M328.2,268h-2H317h-2v2v13.3l-9.4-9.4
			l-1.4-1.4l-1.4,1.4l-6.5,6.5l-1.4,1.4l1.4,1.4l9.4,9.4h-13.3h-2v2v9.2v2h2h13.2l-9.4,9.3l-1.4,1.4l1.4,1.4l6.5,6.5l1.4,1.4
			l1.4-1.4l9.4-9.3v13.2v2h2h9.2h2v-2v-13.2l9.3,9.3l1.4,1.4l1.4-1.4l6.5-6.5l1.4-1.4l-1.4-1.4l-9.3-9.3h13.2h2v-2v-9.2v-2h-2h-13.2
			l9.3-9.4l1.4-1.4l-1.4-1.4l-6.5-6.5l-1.4-1.4l-1.4,1.4l-9.3,9.4V270V268L328.2,268z"/>
	</g>
</g>
</svg>
