<?xml version="1.0" encoding="utf-8"?>
<!-- Generator: Adobe Illustrator 21.0.2, SVG Export Plug-In . SVG Version: 6.00 Build 0)  -->
<svg version="1.1" id="Layer_1" xmlns="http://www.w3.org/2000/svg" xmlns:xlink="http://www.w3.org/1999/xlink" x="0px" y="0px"
	 viewBox="0 0 425 425" style="enable-background:new 0 0 425 425;" xml:space="preserve">
<style type="text/css">
	.st0{fill:#FFFFFF;stroke:#FFFFFF;stroke-width:2;stroke-miterlimit:10;}
</style>
<g>
	<path class="st0" d="M422.3,178.1c-7.5-39-42.6-68.1-82.1-69.5c-10-0.3-20,1.1-29.5,4.2c-14.5-26.8-39.9-47-69.5-54.6
		c-32.2-8.3-67.5-1.4-94,18.8c-12.8,9.8-23.5,22.2-31.1,36.3c-0.8-0.3-1.5-0.7-1.9-0.8c-2.8-0.9-5.6-1.6-8.4-2.1
		c-6.5-1.3-13.2-1.9-19.9-1.7c-9.7,0.3-19.4,2.2-28.5,5.8c-18,7.1-33.3,19.9-43.2,36.5C3.5,168.9,0,190.1,3.4,210.5
		c1.9,11.1,6.1,21.9,12.2,31.3c3,4.7,6.4,11,12.5,11.3c9.7,0.4,19.6,0,29.3-0.1c21.1,0,42.1-0.1,63.2-0.1
		c54.8-0.1,109.6-0.2,164.4-0.3c36.6-0.1,73.2-0.1,109.9-0.2c1.1,0,2.3,0,3.4,0c5.4-0.2,8-4.6,10.9-8.8
		C422.2,224.6,426.6,200.6,422.3,178.1z M395.4,237.2c-11.1,0-22.1,0-33.2,0.1c-29.6,0.1-59.2,0.1-88.8,0.2
		c-35.7,0.1-71.4,0.1-107,0.2c-31,0.1-62,0.1-93,0.2c-10.1,0-20.3,0-30.4,0.1c-3.8,0-7.9-0.4-11.8-0.2c-15-20.4-18.4-48.5-7.8-71.8
		c9.6-21.2,28.9-36.6,51.7-41.2c7.2-1.4,14.6-1.7,21.9-0.9c4.3,0.5,8.5,1.4,12.6,2.6c3.5,1,7,3.2,10.6,3.2c2.4,0,5.4-1.4,6.5-3.7
		c11.9-25.7,34.2-45.4,61.6-53c28.3-7.8,58.9-2,82.5,15.4c12,8.9,21.5,20.7,28.3,33.9c0,0.6,0.1,1.2,0.3,1.9c1,3.5,5.4,6.8,9.2,5.2
		c23.8-9.8,50.7-7.2,71.5,8.1c18.4,13.5,29.1,35.7,28.9,58.4C408.8,210.7,404,225.3,395.4,237.2z"/>
	<polygon class="st0" points="249.1,298.2 239.3,288.3 219.9,307.7 219.9,280.3 206,280.3 206,307.7 186.6,288.3 176.8,298.2 
		196.1,317.5 168.8,317.5 168.8,331.5 196.1,331.5 176.8,350.8 186.6,360.7 206,341.3 206,368.7 219.9,368.7 219.9,341.3 
		239.3,360.7 249.1,350.8 229.8,331.5 257.2,331.5 257.2,317.5 229.8,317.5 	"/>
	<polygon class="st0" points="130.9,285.1 124.4,278.6 111.6,291.3 111.6,273.3 102.4,273.3 102.4,291.3 89.7,278.6 83.2,285.1 
		95.9,297.8 77.9,297.8 77.9,307 95.9,307 83.2,319.8 89.7,326.3 102.4,313.6 102.4,331.6 111.6,331.6 111.6,313.6 124.4,326.3 
		130.9,319.8 118.1,307 136.2,307 136.2,297.8 118.1,297.8 	"/>
	<polygon class="st0" points="345.4,281.8 338.9,275.3 326.2,288.1 326.2,270 317,270 317,288.1 304.2,275.3 297.7,281.8 
		310.5,294.6 292.4,294.6 292.4,303.8 310.5,303.8 297.7,316.5 304.2,323 317,310.3 317,328.3 326.2,328.3 326.2,310.3 338.9,323 
		345.4,316.5 332.7,303.8 350.7,303.8 350.7,294.6 332.7,294.6 	"/>
</g>
</svg>
