<?xml version="1.0" encoding="utf-8"?>
<!-- Generator: Adobe Illustrator 21.0.2, SVG Export Plug-In . SVG Version: 6.00 Build 0)  -->
<svg version="1.1" id="Layer_1" xmlns="http://www.w3.org/2000/svg" xmlns:xlink="http://www.w3.org/1999/xlink" x="0px" y="0px"
	 viewBox="0 0 425 425" style="enable-background:new 0 0 425 425;" xml:space="preserve">
<style type="text/css">
	.st0{fill:#FFFFFF;}
</style>
<g>
	<g>
		<polygon class="st0" points="200,296.1 200,256.9 172.3,284.6 156.3,268.5 184,240.9 144.8,240.9 144.8,218.2 184,218.2 
			156.3,190.5 172.3,174.5 200,202.2 200,163 222.7,163 222.7,202.2 250.4,174.5 266.4,190.5 238.7,218.2 277.9,218.2 277.9,240.9 
			238.7,240.9 266.4,268.5 250.4,284.6 222.7,256.9 222.7,296.1 		"/>
		<path class="st0" d="M221.7,164v40.6l28.7-28.7l14.6,14.6l-28.7,28.7h40.6v20.7h-40.6l28.7,28.6l-14.6,14.7l-28.7-28.7v40.6H201
			v-40.6l-28.7,28.7l-14.6-14.7l28.7-28.6h-40.6v-20.7h40.6l-28.7-28.7l14.6-14.6l28.7,28.7V164H221.7 M223.7,162h-2H201h-2v2v35.8
			l-25.3-25.3l-1.4-1.4l-1.4,1.4l-14.6,14.6l-1.4,1.4l1.4,1.4l25.3,25.3h-35.8h-2v2v20.7v2h2h35.8l-25.3,25.2l-1.4,1.4l1.4,1.4
			l14.6,14.7l1.4,1.4l1.4-1.4l25.3-25.3v35.8v2h2h20.7h2v-2v-35.8l25.3,25.3l1.4,1.4l1.4-1.4l14.6-14.7l1.4-1.4l-1.4-1.4l-25.3-25.2
			h35.8h2v-2v-20.7v-2h-2h-35.8l25.3-25.3l1.4-1.4l-1.4-1.4l-14.6-14.6l-1.4-1.4l-1.4,1.4l-25.3,25.3V164V162L223.7,162z"/>
	</g>
</g>
<g>
	<g>
		<polygon class="st0" points="46.5,241 46.5,215.7 28.5,233.6 17.5,222.6 35.4,204.6 10.1,204.6 10.1,189 35.4,189 17.5,171.1 
			28.5,160 46.5,177.9 46.5,152.6 62.1,152.6 62.1,177.9 80,160 91.1,171.1 73.2,189 98.5,189 98.5,204.6 73.2,204.6 91.1,222.6 
			80,233.6 62.1,215.7 62.1,241 		"/>
		<path class="st0" d="M61.1,153.6v26.7L80,161.4l9.7,9.7L70.8,190h26.7v13.6H70.8l18.9,19l-9.7,9.6l-18.9-18.9V240H47.5v-26.7
			l-19,18.9l-9.6-9.6l18.9-19H11.1V190h26.7l-18.9-18.9l9.6-9.7l19,18.9v-26.7H61.1 M63.1,151.6h-2H47.5h-2v2v21.9L29.9,160
			l-1.4-1.4l-1.4,1.4l-9.6,9.7l-1.4,1.4l1.4,1.4L33,188H11.1h-2v2v13.6v2h2H33l-15.5,15.6l-1.4,1.4l1.4,1.4l9.6,9.6l1.4,1.4l1.4-1.4
			l15.6-15.5V240v2h2h13.6h2v-2v-21.9l15.5,15.5L80,235l1.4-1.4l9.7-9.6l1.4-1.4l-1.4-1.4l-15.5-15.6h21.9h2v-2V190v-2h-2H75.6
			l15.5-15.5l1.4-1.4l-1.4-1.4l-9.7-9.7l-1.4-1.4l-1.4,1.4l-15.5,15.5v-21.9V151.6L63.1,151.6z"/>
	</g>
</g>
<g>
	<g>
		<polygon class="st0" points="364.6,236.2 364.6,210.8 346.7,228.7 335.6,217.7 353.5,199.8 328.2,199.8 328.2,184.1 353.5,184.1 
			335.6,166.2 346.7,155.1 364.6,173.1 364.6,147.7 380.2,147.7 380.2,173.1 398.1,155.1 409.2,166.2 391.3,184.1 416.6,184.1 
			416.6,199.8 391.3,199.8 409.2,217.7 398.1,228.7 380.2,210.8 380.2,236.2 		"/>
		<path class="st0" d="M379.2,148.7v26.8l18.9-19l9.7,9.7l-18.9,18.9h26.7v13.7h-26.7l18.9,18.9l-9.7,9.6l-18.9-18.9v26.8h-13.6
			v-26.8l-18.9,18.9l-9.7-9.6l18.9-18.9h-26.7v-13.7h26.7L337,166.2l9.7-9.7l18.9,19v-26.8H379.2 M381.2,146.7h-2h-13.6h-2v2v22
			l-15.5-15.6l-1.4-1.4l-1.4,1.4l-9.7,9.7l-1.4,1.4l1.4,1.4l15.5,15.5h-21.9h-2v2v13.7v2h2h21.9l-15.5,15.5l-1.4,1.4l1.4,1.4
			l9.7,9.6l1.4,1.4l1.4-1.4l15.5-15.5v22v2h2h13.6h2v-2v-22l15.5,15.5l1.4,1.4l1.4-1.4l9.7-9.6l1.4-1.4l-1.4-1.4l-15.5-15.5h21.9h2
			v-2v-13.7v-2h-2h-21.9l15.5-15.5l1.4-1.4l-1.4-1.4l-9.7-9.7l-1.4-1.4l-1.4,1.4l-15.5,15.6v-22V146.7L381.2,146.7z"/>
	</g>
</g>
</svg>
