<?xml version="1.0" encoding="utf-8"?>
<!-- Generator: Adobe Illustrator 21.0.2, SVG Export Plug-In . SVG Version: 6.00 Build 0)  -->
<svg version="1.1" id="Layer_1" xmlns="http://www.w3.org/2000/svg" xmlns:xlink="http://www.w3.org/1999/xlink" x="0px" y="0px"
	 viewBox="0 0 425 425" style="enable-background:new 0 0 425 425;" xml:space="preserve">
<style type="text/css">
	.st0{fill:#FFFFFF;}
</style>
<g>
	<polygon class="st0" points="276.9,219.2 236.3,219.2 265,190.5 250.4,175.9 221.7,204.6 221.7,164 201,164 201,204.6 172.3,175.9 
		157.7,190.5 186.4,219.2 145.8,219.2 145.8,239.9 186.4,239.9 157.7,268.5 172.3,283.2 201,254.5 201,295.1 221.7,295.1 
		221.7,254.5 250.4,283.2 265,268.5 236.3,239.9 276.9,239.9 	"/>
</g>
<g>
	<polygon class="st0" points="97.5,190 70.8,190 89.7,171.1 80,161.4 61.1,180.3 61.1,153.6 47.5,153.6 47.5,180.3 28.5,161.4 
		18.9,171.1 37.8,190 11.1,190 11.1,203.6 37.8,203.6 18.9,222.6 28.5,232.2 47.5,213.3 47.5,240 61.1,240 61.1,213.3 80,232.2 
		89.7,222.6 70.8,203.6 97.5,203.6 	"/>
</g>
<g>
	<polygon class="st0" points="415.6,185.1 388.9,185.1 407.8,166.2 398.1,156.5 379.2,175.5 379.2,148.7 365.6,148.7 365.6,175.5 
		346.7,156.5 337,166.2 355.9,185.1 329.2,185.1 329.2,198.8 355.9,198.8 337,217.7 346.7,227.3 365.6,208.4 365.6,235.2 
		379.2,235.2 379.2,208.4 398.1,227.3 407.8,217.7 388.9,198.8 415.6,198.8 	"/>
</g>
</svg>
