<?xml version="1.0" encoding="utf-8"?>
<!-- Generator: Adobe Illustrator 21.0.2, SVG Export Plug-In . SVG Version: 6.00 Build 0)  -->
<svg version="1.1" id="Layer_1" xmlns="http://www.w3.org/2000/svg" xmlns:xlink="http://www.w3.org/1999/xlink" x="0px" y="0px"
	 viewBox="0 0 425 425" style="enable-background:new 0 0 425 425;" xml:space="preserve">
<style type="text/css">
	.st0{fill:#FFFFFF;}
</style>
<g>
	<g>
		<path class="st0" d="M304.1,120.1C291,92.3,265.7,71,236,63.2c-30.6-8-64.2-1.6-89.4,17.5c-13.8,10.4-24.9,24-32.2,39.7
			c2.2-1.2,4.3-2.5,6.5-3.7c-0.2,0-4-1.8-5-2.1c-2.8-0.9-5.6-1.6-8.4-2.1c-6-1.2-12.2-1.8-18.3-1.6c-9.5,0.3-19,2.1-27.8,5.6
			c-16.9,6.7-31.3,18.7-40.7,34.4C10.5,167.5,7,187.4,10.1,206.7c1.7,10.9,5.8,21.5,11.8,30.8c2.9,4.5,6.1,10.4,12,10.7
			c9.1,0.4,18.3,0,27.3,0c20,0,40-0.1,60-0.1c52-0.1,104-0.2,156-0.3c34.5-0.1,69-0.1,103.4-0.2c1.1,0,2.1,0,3.2,0
			c5.5-0.3,8-4.7,10.8-8.9c12.2-18,16.3-40.7,12.1-62c-7.2-37-40.4-64.4-77.8-65.8c-11.6-0.4-23.2,1.7-33.9,6.1
			c-3.7,1.5-6.4,5-5.2,9.2c1,3.5,5.4,6.8,9.2,5.2c28.2-11.6,60.8-4.2,79.9,19.9c19.1,24,19.1,59.3,0.1,83.4c1.8-0.7,3.5-1.5,5.3-2.2
			c-11.7,0-23.3,0-35,0.1c-27.8,0-55.7,0.1-83.5,0.1c-33.8,0.1-67.7,0.1-101.5,0.2c-29.3,0.1-58.5,0.1-87.8,0.2
			c-9.6,0-19.3,0-28.9,0.1c-4.4,0-9.2-0.5-13.6,0c-0.2,0-0.4,0-0.6,0c1.8,0.7,3.5,1.5,5.3,2.2c-15.6-19.3-19.3-46.7-9.2-69.4
			c8.9-20,27.1-34.5,48.6-38.9c6.9-1.4,14.2-1.6,21.2-0.8c4,0.5,7.9,1.4,11.7,2.5c3.2,1,6.5,2.9,9.8,2.9c2.4,0,5.4-1.4,6.5-3.7
			c11.3-24.4,32.4-43,58.5-50.1c26.6-7.2,55.4-1.6,77.4,14.8c12.2,9.1,21.5,21.3,27.9,35C295.2,136.4,308.2,128.8,304.1,120.1
			L304.1,120.1z"/>
	</g>
</g>
<g>
	<g>
		<path class="st0" d="M43.8,267.9c15.9,28,31.9,56,47.8,84c2.3,4,4.5,7.9,6.8,11.9c4.8,8.4,17.7,0.8,13-7.6
			c-15.9-28-31.9-56-47.8-84c-2.3-4-4.5-7.9-6.8-11.9C52,251.9,39.1,259.4,43.8,267.9L43.8,267.9z"/>
	</g>
</g>
<g>
	<g>
		<path class="st0" d="M81.5,267.9c15.9,28,31.9,56,47.8,84c2.3,4,4.5,7.9,6.8,11.9c4.8,8.4,17.7,0.8,13-7.6
			c-15.9-28-31.9-56-47.8-84c-2.3-4-4.5-7.9-6.8-11.9C89.7,251.9,76.7,259.4,81.5,267.9L81.5,267.9z"/>
	</g>
</g>
<g>
	<g>
		<path class="st0" d="M119.8,267.9c15.9,28,31.9,56,47.8,84c2.3,4,4.5,7.9,6.8,11.9c4.8,8.4,17.7,0.8,13-7.6
			c-15.9-28-31.9-56-47.8-84c-2.3-4-4.5-7.9-6.8-11.9C127.9,251.9,115,259.4,119.8,267.9L119.8,267.9z"/>
	</g>
</g>
<g>
	<g>
		<path class="st0" d="M157.4,267.9c15.9,28,31.9,56,47.8,84c2.3,4,4.5,7.9,6.8,11.9c4.8,8.4,17.7,0.8,13-7.6
			c-15.9-28-31.9-56-47.8-84c-2.3-4-4.5-7.9-6.8-11.9C165.6,251.9,152.6,259.4,157.4,267.9L157.4,267.9z"/>
	</g>
</g>
<g>
	<g>
		<path class="st0" d="M197.4,266.4c15.9,28,31.9,56,47.8,84c2.3,4,4.5,7.9,6.8,11.9c4.8,8.4,17.7,0.8,13-7.6
			c-15.9-28-31.9-56-47.8-84c-2.3-4-4.5-7.9-6.8-11.9C205.6,250.4,192.6,257.9,197.4,266.4L197.4,266.4z"/>
	</g>
</g>
<g>
	<g>
		<path class="st0" d="M235,266.4c15.9,28,31.9,56,47.8,84c2.3,4,4.5,7.9,6.8,11.9c4.8,8.4,17.7,0.8,13-7.6
			c-15.9-28-31.9-56-47.8-84c-2.3-4-4.5-7.9-6.8-11.9C243.2,250.4,230.2,257.9,235,266.4L235,266.4z"/>
	</g>
</g>
<g>
	<g>
		<path class="st0" d="M273.3,266.4c15.9,28,31.9,56,47.8,84c2.3,4,4.5,7.9,6.8,11.9c4.8,8.4,17.7,0.8,13-7.6
			c-15.9-28-31.9-56-47.8-84c-2.3-4-4.5-7.9-6.8-11.9C281.5,250.4,268.5,257.9,273.3,266.4L273.3,266.4z"/>
	</g>
</g>
<g>
	<g>
		<path class="st0" d="M311,266.4c15.9,28,31.9,56,47.8,84c2.3,4,4.5,7.9,6.8,11.9c4.8,8.4,17.7,0.8,13-7.6
			c-15.9-28-31.9-56-47.8-84c-2.3-4-4.5-7.9-6.8-11.9C319.1,250.4,306.2,257.9,311,266.4L311,266.4z"/>
	</g>
</g>
<g>
	<g>
		<path class="st0" d="M350.7,267.9c15.9,28,31.9,56,47.8,84c2.3,4,4.5,7.9,6.8,11.9c4.8,8.4,17.7,0.8,13-7.6
			c-15.9-28-31.9-56-47.8-84c-2.3-4-4.5-7.9-6.8-11.9C358.9,251.9,346,259.4,350.7,267.9L350.7,267.9z"/>
	</g>
</g>
</svg>
