<?xml version="1.0" encoding="utf-8"?>
<!-- Generator: Adobe Illustrator 21.0.2, SVG Export Plug-In . SVG Version: 6.00 Build 0)  -->
<svg version="1.1" id="Layer_1" xmlns="http://www.w3.org/2000/svg" xmlns:xlink="http://www.w3.org/1999/xlink" x="0px" y="0px"
	 viewBox="0 0 425 425" style="enable-background:new 0 0 425 425;" xml:space="preserve">
<style type="text/css">
	.st0{fill:#FFFFFF;}
</style>
<g>
	<g>
		<path class="st0" d="M43,249.4c-3.4,0-6.4-0.1-9.2-0.2c-5.9-0.3-9.3-5.7-12-10c-0.3-0.4-0.5-0.8-0.8-1.2
			c-6.1-9.5-10.2-20.3-11.9-31.2c-3.2-19.9,0.6-40,10.7-56.5c9.4-15.6,24-28,41.2-34.8c8.7-3.4,18.1-5.4,28.1-5.7c0.8,0,1.6,0,2.4,0
			c5.2,0,10.7,0.6,16.2,1.7c2.8,0.5,5.7,1.2,8.5,2.1c0.1,0,0.2,0.1,0.4,0.1C123.8,100.7,134,89,146,79.9
			c17.9-13.6,40.5-21.1,63.6-21.1c9,0,18,1.1,26.6,3.4c27.7,7.3,51.5,25.9,65.6,51.3c7.9-2.4,16.1-3.6,24.3-3.6c0.9,0,1.9,0,2.8,0
			c38.4,1.4,71.5,29.5,78.7,66.6c4.3,22-0.1,44.9-12.3,62.8l-0.6,0.9c-2.6,4-5.4,8.2-11,8.5l-3.3,0c-17.1,0-34.3,0.1-51.4,0.1
			c-17.3,0-34.6,0-52,0.1l-156,0.3c-10,0-20,0-30,0c-10,0-20,0-30,0c-3,0-6,0-9,0.1C49.2,249.3,46.1,249.4,43,249.4z M38.5,232
			c1.6,0,3.1,0.1,4.7,0.1c1.5,0.1,3,0.1,4.4,0.1c9.6-0.1,19.4-0.1,28.9-0.1c14.6,0,29.1-0.1,43.7-0.1c14.7,0,29.4,0,44.1-0.1
			c16.8,0,33.7-0.1,50.5-0.1c17,0,34,0,51-0.1c13.9,0,27.8,0,41.8,0c13.9,0,27.9,0,41.8,0c10.1-0.1,20.4-0.1,30.8-0.1
			c16.8-23.6,15.9-57-2-79.6c-12.5-15.8-31.5-24.9-52.1-24.9c-9.1,0-18.1,1.8-26.7,5.3c-0.8,0.3-1.6,0.5-2.5,0.5
			c-3.5,0-7.1-2.8-8.1-6.3c-0.2-0.6-0.3-1.1-0.3-1.7c-6.6-12.8-15.3-23.3-25.9-31.3c-15.3-11.4-34.3-17.7-53.5-17.7
			c-7.8,0-15.6,1-23,3c-25.4,6.9-46.5,25-57.9,49.6c-1.3,2.8-4.8,4.3-7.4,4.3c-2.5,0-4.8-0.9-7.1-1.9c-1-0.4-2-0.8-2.9-1.1
			c-4.2-1.2-7.9-2-11.5-2.5c-2.7-0.3-5.4-0.5-8.1-0.5c-4.4,0-8.7,0.4-12.8,1.2c-21.2,4.3-39.1,18.7-47.9,38.3
			c-9.4,21.1-6.6,46.8,7,65.6C37.8,232,38.2,232,38.5,232z"/>
		<path class="st0" d="M209.6,59.8c8.9,0,17.8,1.1,26.4,3.4c27.7,7.3,51.6,26.4,65.4,51.5c8-2.5,16.4-3.8,24.8-3.8
			c0.9,0,1.9,0,2.8,0c37.4,1.4,70.6,28.8,77.8,65.8c4.2,21.3,0.1,44-12.1,62c-2.8,4.2-5.3,8.6-10.8,8.9c-1.1,0-2.1,0-3.2,0
			c-34.4,0.1-68.9,0.1-103.4,0.2c-52,0.1-104,0.2-156,0.3c-20,0-40,0.1-60,0.1c-6,0-12.1,0.2-18.2,0.2c-3,0-6.1,0-9.1-0.2
			c-5.9-0.3-9.1-6.2-12-10.7c-6-9.3-10.1-19.9-11.8-30.8c-3.1-19.3,0.4-39.2,10.6-55.8c9.4-15.7,23.8-27.7,40.7-34.4
			c8.8-3.5,18.3-5.3,27.8-5.6c0.8,0,1.6,0,2.3,0c5.3,0,10.7,0.6,16,1.6c2.8,0.5,5.6,1.2,8.4,2.1c0.3,0.1,0.7,0.2,1.2,0.5
			c7.2-13.4,17.3-25.2,29.5-34.4C164.7,67,187.1,59.8,209.6,59.8 M120.8,131.7c-3.3,0-6.6-1.9-9.8-2.9c-3.8-1.1-7.7-2-11.7-2.5
			c-2.7-0.3-5.4-0.5-8.2-0.5c-4.4,0-8.8,0.4-13,1.3C56.6,131.5,38.4,146,29.5,166c-9.7,21.8-6.7,47.9,7.4,67c0.6,0,1.1,0,1.7,0
			c3,0,6.1,0.2,9.1,0.2c9.6-0.1,19.3-0.1,28.9-0.1c29.3-0.1,58.5-0.1,87.8-0.2c33.8-0.1,67.7-0.1,101.5-0.2
			c27.8,0,55.7-0.1,83.5-0.1c10.5-0.1,20.9-0.1,31.4-0.1c17.3-24,16.8-57.9-1.8-81.2c-13.2-16.6-32.7-25.3-52.8-25.3
			c-9.1,0-18.3,1.8-27.1,5.4c-0.7,0.3-1.4,0.4-2.1,0.4c-3.2,0-6.3-2.7-7.1-5.6c-0.2-0.6-0.3-1.2-0.3-1.7
			c-6.3-12.4-15.1-23.4-26.3-31.8c-15.7-11.7-34.8-17.9-54.1-17.9c-7.8,0-15.6,1-23.3,3.1c-26.1,7.1-47.2,25.7-58.5,50.1
			C126.2,130.3,123.2,131.7,120.8,131.7 M209.6,57.8c-23.3,0-46.1,7.6-64.2,21.3c-11.9,9-22,20.5-29.2,33.5
			c-2.7-0.9-5.5-1.6-8.3-2.1c-5.5-1.1-11-1.7-16.3-1.7c-0.8,0-1.6,0-2.4,0c-10.1,0.3-19.7,2.3-28.5,5.7
			c-17.4,6.9-32.2,19.4-41.7,35.2C8.7,166.5,4.9,186.8,8.1,207c1.7,11.1,5.9,22,12.1,31.6c0.2,0.4,0.5,0.8,0.7,1.2
			c2.9,4.5,6.4,10.1,12.8,10.4c2.8,0.1,5.8,0.2,9.2,0.2c3.1,0,6.2,0,9.2-0.1c3,0,6-0.1,9-0.1c10,0,20.2,0,30-0.1
			c9.8,0,20-0.1,30-0.1l52-0.1l104-0.2c17.2,0,34.8-0.1,51.7-0.1c16.9,0,34.5,0,51.7-0.1h3.2h0.1l0.1,0c6.1-0.3,9.1-4.9,11.8-8.9
			c0.2-0.3,0.4-0.6,0.6-0.9c12.3-18.1,16.8-41.2,12.4-63.5c-7.3-37.6-40.8-66-79.7-67.4c-1,0-1.9,0-2.9,0c-8.1,0-16.1,1.2-23.8,3.5
			c-14.2-25.2-38.1-43.8-65.8-51C227.8,59,218.7,57.8,209.6,57.8L209.6,57.8z M120.8,133.7c3,0,6.8-1.7,8.3-4.8
			c11.3-24.3,32.1-42.2,57.2-49c7.4-2,15-3,22.8-3c19,0,37.8,6.2,52.9,17.5c10.5,7.8,19.1,18.2,25.6,30.7c0.1,0.6,0.2,1.2,0.3,1.7
			c1.1,3.9,5.2,7.1,9.1,7.1c1,0,1.9-0.2,2.8-0.6c8.4-3.5,17.3-5.2,26.3-5.2c20.2,0,38.9,8.9,51.3,24.5c8.7,10.9,13.6,24.8,13.9,39.1
			c0.3,13.9-3.8,27.7-11.6,38.8c-10.3,0-20.3,0-30.3,0.1c-13.9,0-28,0-41.7,0c-13.7,0-27.8,0.1-41.7,0.1
			c-16.9,0.1-34.1,0.1-50.8,0.1c-16.6,0-33.8,0.1-50.7,0.1c-14.7,0.1-29.5,0.1-43.9,0.1c-14.4,0-29.2,0-43.9,0.1
			c-9.5,0-19.3,0-28.9,0.1c-1.4,0-2.8-0.1-4.4-0.1c-1.5-0.1-3.1-0.1-4.7-0.1c-0.2,0-0.4,0-0.7,0c-13.1-18.5-15.7-43.6-6.5-64.2
			c8.6-19.4,26.2-33.5,47.2-37.8c4-0.8,8.3-1.2,12.6-1.2c2.6,0,5.3,0.2,8,0.5c3.5,0.4,7.2,1.2,11.4,2.4c0.9,0.3,1.8,0.7,2.8,1.1
			C115.7,132.7,118.1,133.7,120.8,133.7L120.8,133.7z"/>
	</g>
	<g>
		<path class="st0" d="M104.4,368.5c-2.9,0-5.3-1.5-6.8-4.2c-1.1-2-2.3-4-3.4-6c-1.1-2-2.2-3.9-3.4-5.9c-8-14-16-28.1-24-42.1
			c-8-14-15.9-27.9-23.8-41.9c-1.5-2.8-1.5-5.7,0-8.2c1.6-2.7,4.8-4.5,7.9-4.5c2.9,0,5.3,1.5,6.9,4.2c1.1,2,2.3,4,3.4,6
			c1.1,2,2.2,3.9,3.4,5.9c8,14,15.9,28,23.9,42c8,14,16,28,23.9,42c1.5,2.7,1.5,5.6,0,8.2C110.7,366.6,107.5,368.5,104.4,368.5
			C104.4,368.5,104.4,368.5,104.4,368.5z"/>
		<path class="st0" d="M50.8,256.6c2.3,0,4.5,1.1,6,3.7c2.3,4,4.5,7.9,6.8,11.9c15.9,28,31.9,56,47.8,84c3.3,5.8-1.9,11.3-7,11.3
			c-2.3,0-4.5-1.1-6-3.7c-2.3-4-4.5-7.9-6.8-11.9c-15.9-28-31.9-56-47.8-84C40.6,262,45.7,256.6,50.8,256.6 M50.8,254.6
			c-3.5,0-6.9,2-8.8,5c-1.7,2.8-1.7,6.2,0,9.2c8,14,15.9,28,23.9,42c8,14,16,28,23.9,42c1.2,2,2.3,4,3.4,6c1.1,2,2.3,4,3.4,6
			c1.7,3,4.5,4.7,7.7,4.7c3.5,0,7-2,8.8-5.1c1.7-2.8,1.6-6.2,0-9.1c-8-14-15.9-28-23.9-42c-8-14-15.9-28-23.9-42c-1.2-2-2.3-4-3.4-6
			c-1.1-2-2.3-4-3.4-6C56.8,256.3,54,254.6,50.8,254.6L50.8,254.6z"/>
	</g>
	<g>
		<path class="st0" d="M142.1,368.5c-2.9,0-5.3-1.5-6.8-4.2c-1.1-2-2.3-4-3.4-6c-1.1-2-2.2-3.9-3.4-5.9c-8-14-15.9-28-23.9-42
			c-8-14-15.9-28-23.9-42c-1.5-2.7-1.6-5.6-0.1-8.2c1.6-2.7,4.8-4.6,7.9-4.6c2.9,0,5.4,1.5,6.9,4.2c1.1,2,2.3,4,3.4,6
			c1.1,2,2.2,3.9,3.4,5.9c7.9,14,15.9,27.9,23.8,41.9c8,14,16,28.1,24,42.1c1.5,2.7,1.5,5.6,0,8.2
			C148.4,366.6,145.2,368.5,142.1,368.5C142.1,368.5,142.1,368.5,142.1,368.5z"/>
		<path class="st0" d="M88.5,256.6c2.3,0,4.5,1.1,6,3.7c2.3,4,4.5,7.9,6.8,11.9c15.9,28,31.9,56,47.8,84c3.3,5.8-1.9,11.3-7,11.3
			c-2.3,0-4.5-1.1-6-3.7c-2.3-4-4.5-7.9-6.8-11.9c-15.9-28-31.9-56-47.8-84C78.2,262,83.4,256.6,88.5,256.6 M88.5,254.6
			c-3.5,0-7,2-8.8,5.1c-1.6,2.8-1.6,6.2,0.1,9.2c8,14,15.9,28,23.9,42c8,14,16,28,23.9,42c1.2,2,2.3,4,3.4,6c1.1,2,2.3,4,3.4,6
			c1.7,3,4.5,4.7,7.7,4.7c3.5,0,7-2,8.8-5.1c1.7-2.8,1.6-6.2,0-9.1c-8-14-15.9-28-23.9-42c-8-14-15.9-28-23.9-42c-1.2-2-2.3-4-3.4-6
			c-1.1-2-2.3-4-3.4-6C94.5,256.3,91.7,254.6,88.5,254.6L88.5,254.6z"/>
	</g>
	<g>
		<path class="st0" d="M180.4,368.5c-2.9,0-5.3-1.5-6.8-4.2c-1.1-2-2.3-4-3.4-6c-1.1-2-2.2-3.9-3.4-5.9c-8-14-16-28.1-24-42.1
			c-8-14-15.9-27.9-23.8-41.9c-1.6-2.7-1.6-5.7-0.1-8.2c1.6-2.7,4.8-4.5,7.9-4.5c2.9,0,5.4,1.5,6.9,4.2c1.2,2,2.3,4,3.4,6
			c1.1,2,2.2,3.9,3.4,5.9c8,14,15.9,28,23.9,42c8,14,16,28,23.9,42c1.5,2.7,1.5,5.6,0,8.2C186.7,366.6,183.5,368.5,180.4,368.5
			C180.4,368.5,180.4,368.5,180.4,368.5z"/>
		<path class="st0" d="M126.7,256.6c2.3,0,4.6,1.1,6.1,3.7c2.3,4,4.5,7.9,6.8,11.9c15.9,28,31.9,56,47.8,84c3.3,5.8-1.9,11.3-7,11.3
			c-2.3,0-4.5-1.1-6-3.7c-2.3-4-4.5-7.9-6.8-11.9c-15.9-28-31.9-56-47.8-84C116.5,262,121.6,256.6,126.7,256.6 M126.7,254.6
			c-3.5,0-7,2-8.8,5c-1.7,2.8-1.6,6.2,0.1,9.2c8,14,15.9,28,23.9,42c8,14,16,28,23.9,42c1.2,2,2.3,4,3.4,6c1.1,2,2.3,4,3.4,6
			c1.7,3,4.5,4.7,7.7,4.7c3.5,0,7-2,8.8-5.1c1.7-2.8,1.6-6.2,0-9.1c-8-14-15.9-28-23.9-42c-8-14-16-28-23.9-42c-1.2-2-2.3-4-3.4-6
			c-1.1-2-2.3-4-3.4-6C132.8,256.3,130,254.6,126.7,254.6L126.7,254.6z"/>
	</g>
	<g>
		<path class="st0" d="M218,368.5c-2.9,0-5.3-1.5-6.8-4.2c-1.1-2-2.3-4-3.4-6c-1.1-2-2.2-3.9-3.4-5.9c-7.9-14-15.9-27.9-23.8-41.9
			c-8-14-16-28.1-24-42.1c-1.5-2.7-1.6-5.6-0.1-8.2c1.6-2.7,4.8-4.6,7.9-4.6c2.9,0,5.4,1.5,6.9,4.2c1.1,2,2.3,4,3.4,6
			c1.1,2,2.2,3.9,3.4,5.9c8,14,15.9,28,23.9,42c8,14,15.9,28,23.9,42c1.5,2.7,1.5,5.6,0,8.2C224.3,366.6,221.1,368.5,218,368.5
			L218,368.5z"/>
		<path class="st0" d="M164.4,256.6c2.3,0,4.5,1.1,6,3.7c2.3,4,4.5,7.9,6.8,11.9c15.9,28,31.9,56,47.8,84c3.3,5.8-1.9,11.3-7,11.3
			c-2.3,0-4.5-1.1-6-3.7c-2.3-4-4.5-7.9-6.8-11.9c-15.9-28-31.9-56-47.8-84C154.1,262,159.3,256.6,164.4,256.6 M164.4,254.6
			c-3.5,0-7,2-8.8,5.1c-1.6,2.8-1.6,6.2,0.1,9.2c8,14,15.9,28,23.9,42c8,14,15.9,28,23.9,42c1.2,2,2.3,4,3.4,6c1.1,2,2.3,4,3.4,6
			c1.7,3,4.5,4.7,7.7,4.7c3.5,0,7-2,8.8-5.1c1.7-2.8,1.6-6.2,0-9.1c-8-14-15.9-28-23.9-42c-8-14-15.9-28-23.9-42c-1.2-2-2.3-4-3.4-6
			c-1.1-2-2.3-4-3.4-6C170.4,256.3,167.6,254.6,164.4,254.6L164.4,254.6z"/>
	</g>
	<g>
		<path class="st0" d="M258,367c-2.9,0-5.3-1.5-6.8-4.2c-1.1-2-2.3-4-3.4-6c-1.1-2-2.2-3.9-3.4-5.9c-7.9-14-15.9-27.9-23.8-41.9
			c-8-14-16-28.1-24-42.1c-1.5-2.7-1.6-5.6-0.1-8.2c1.6-2.7,4.8-4.6,7.9-4.6c2.9,0,5.4,1.5,6.9,4.2c1.2,2,2.3,4,3.4,6
			c1.1,2,2.2,3.9,3.4,5.9c8,14.1,16,28.1,24,42.2c7.9,13.9,15.9,27.9,23.8,41.8c1.5,2.7,1.5,5.6,0,8.2
			C264.3,365.1,261.1,367,258,367L258,367z"/>
		<path class="st0" d="M204.4,255.1c2.3,0,4.5,1.1,6,3.7c2.3,4,4.5,7.9,6.8,11.9c15.9,28,31.9,56,47.8,84c3.3,5.8-1.9,11.3-7,11.3
			c-2.3,0-4.5-1.1-6-3.7c-2.3-4-4.5-7.9-6.8-11.9c-15.9-28-31.9-56-47.8-84C194.1,260.5,199.3,255.1,204.4,255.1 M204.4,253.1
			c-3.5,0-7,2-8.8,5.1c-1.6,2.8-1.6,6.2,0.1,9.2c8,14,15.9,28,23.9,42c8,14,15.9,28,23.9,42c1.2,2,2.3,4,3.4,6c1.1,2,2.3,4,3.4,6
			c1.7,3,4.5,4.7,7.7,4.7c3.5,0,7-2,8.8-5.1c1.7-2.8,1.6-6.2,0-9.1c-8-14-15.9-28-23.9-42c-8-14-15.9-28-23.9-42c-1.2-2-2.3-4-3.4-6
			c-1.1-2-2.3-4-3.4-6C210.4,254.8,207.6,253.1,204.4,253.1L204.4,253.1z"/>
	</g>
	<g>
		<path class="st0" d="M295.6,367c-2.9,0-5.3-1.5-6.8-4.2c-1.1-2-2.3-4-3.4-6c-1.1-2-2.2-3.9-3.4-5.9c-8-14.1-16-28.1-24-42.2
			c-7.9-13.9-15.9-27.9-23.8-41.8c-1.5-2.7-1.6-5.6-0.1-8.2c1.6-2.7,4.8-4.6,7.9-4.6c2.9,0,5.4,1.5,6.9,4.2c1.1,2,2.3,4,3.4,6
			c1.1,2,2.2,3.9,3.4,5.9c7.9,13.9,15.8,27.9,23.8,41.8c8,14.1,16,28.1,24,42.2c1.5,2.7,1.5,5.6,0,8.2
			C301.9,365.1,298.7,367,295.6,367C295.6,367,295.6,367,295.6,367z"/>
		<path class="st0" d="M242,255.1c2.3,0,4.5,1.1,6,3.7c2.3,4,4.5,7.9,6.8,11.9c15.9,28,31.9,56,47.8,84c3.3,5.8-1.9,11.3-7,11.3
			c-2.3,0-4.5-1.1-6-3.7c-2.3-4-4.5-7.9-6.8-11.9c-15.9-28-31.9-56-47.8-84C231.7,260.5,236.9,255.1,242,255.1 M242,253.1
			c-3.5,0-7,2-8.8,5.1c-1.6,2.8-1.6,6.2,0.1,9.2c8,14,15.9,28,23.9,42c8,14,16,28,23.9,42c1.2,2,2.3,4,3.4,6c1.1,2,2.3,4,3.4,6
			c1.7,3,4.5,4.7,7.7,4.7c3.5,0,7-2,8.8-5.1c1.7-2.8,1.6-6.2,0-9.1c-8-14-15.9-28-23.9-42c-8-14-15.9-28-23.9-42c-1.2-2-2.3-4-3.4-6
			c-1.1-2-2.3-4-3.4-6C248,254.8,245.2,253.1,242,253.1L242,253.1z"/>
	</g>
	<g>
		<path class="st0" d="M333.9,367c-2.9,0-5.3-1.5-6.8-4.2c-1.1-2-2.3-4-3.4-6c-1.1-2-2.2-3.9-3.4-5.9c-8-14.1-16-28.1-24-42.2
			c-7.9-13.9-15.9-27.9-23.8-41.8c-1.5-2.7-1.6-5.6-0.1-8.2c1.6-2.7,4.8-4.6,7.9-4.6c2.9,0,5.4,1.5,6.9,4.2c1.1,2,2.3,4,3.4,6
			c1.1,2,2.2,3.9,3.4,5.9c8,14,15.9,28,23.9,42c8,14,16,28,23.9,42c1.5,2.7,1.5,5.6,0,8.2C340.2,365.1,337,367,333.9,367L333.9,367z
			"/>
		<path class="st0" d="M280.3,255.1c2.3,0,4.5,1.1,6,3.7c2.3,4,4.5,7.9,6.8,11.9c15.9,28,31.9,56,47.8,84c3.3,5.8-1.9,11.3-7,11.3
			c-2.3,0-4.5-1.1-6-3.7c-2.3-4-4.5-7.9-6.8-11.9c-15.9-28-31.9-56-47.8-84C270,260.5,275.2,255.1,280.3,255.1 M280.3,253.1
			c-3.5,0-7,2-8.8,5.1c-1.6,2.8-1.6,6.2,0.1,9.2c8,14,15.9,28,23.9,42c8,14,16,28,23.9,42c1.2,2,2.3,4,3.4,6c1.1,2,2.3,4,3.4,6
			c1.7,3,4.5,4.7,7.7,4.7c3.5,0,7-2,8.8-5.1c1.7-2.8,1.6-6.2,0-9.1c-8-14-15.9-28-23.9-42c-8-14-15.9-28-23.9-42c-1.2-2-2.3-4-3.4-6
			c-1.1-2-2.3-4-3.4-6C286.3,254.8,283.5,253.1,280.3,253.1L280.3,253.1z"/>
	</g>
	<g>
		<path class="st0" d="M371.6,367c-2.9,0-5.3-1.5-6.8-4.2c-1.1-2-2.3-4-3.4-6c-1.1-2-2.2-3.9-3.4-5.9c-8-14.1-16-28.1-24-42.2
			c-7.9-13.9-15.9-27.9-23.8-41.8c-1.6-2.7-1.6-5.7-0.1-8.2c1.6-2.7,4.8-4.5,7.9-4.5c2.9,0,5.4,1.5,6.9,4.2c1.2,2,2.3,4,3.4,6
			c1.1,2,2.2,3.9,3.4,5.9c7.9,13.9,15.8,27.9,23.8,41.8c8,14.1,16,28.1,24,42.2c1.5,2.7,1.5,5.6,0,8.2
			C377.9,365.1,374.7,367,371.6,367C371.6,367,371.6,367,371.6,367z"/>
		<path class="st0" d="M317.9,255.1c2.3,0,4.6,1.1,6.1,3.7c2.3,4,4.5,7.9,6.8,11.9c15.9,28,31.9,56,47.8,84c3.3,5.8-1.9,11.3-7,11.3
			c-2.3,0-4.5-1.1-6-3.7c-2.3-4-4.5-7.9-6.8-11.9c-15.9-28-31.9-56-47.8-84C307.7,260.5,312.8,255.1,317.9,255.1 M317.9,253.1
			c-3.5,0-7,2-8.8,5c-1.7,2.8-1.6,6.2,0.1,9.2c8,14,15.9,28,23.9,42c8,14,16,28,23.9,42c1.2,2,2.3,4,3.4,6c1.1,2,2.3,4,3.4,6
			c1.7,3,4.5,4.7,7.7,4.7c3.5,0,7-2,8.8-5.1c1.7-2.8,1.6-6.2,0-9.1c-8-14-15.9-28-23.9-42c-8-14-15.9-28-23.9-42c-1.2-2-2.3-4-3.4-6
			c-1.1-2-2.3-4-3.4-6C324,254.8,321.2,253.1,317.9,253.1L317.9,253.1z"/>
	</g>
	<g>
		<path class="st0" d="M411.3,368.5c-2.9,0-5.3-1.5-6.8-4.2c-1.1-2-2.3-4-3.4-6c-1.1-2-2.2-3.9-3.4-5.9
			c-7.9-13.9-15.9-27.9-23.8-41.8c-8-14.1-16-28.1-24-42.2c-1.5-2.8-1.5-5.7,0-8.2c1.6-2.7,4.8-4.5,7.9-4.5c2.9,0,5.3,1.5,6.9,4.2
			c1.1,2,2.3,4,3.4,6c1.1,2,2.2,3.9,3.4,5.9c7.9,13.9,15.9,27.9,23.8,41.8c8,14.1,16,28.1,24,42.2c1.5,2.7,1.5,5.6,0,8.2
			C417.6,366.6,414.4,368.5,411.3,368.5L411.3,368.5z"/>
		<path class="st0" d="M357.7,256.6c2.3,0,4.5,1.1,6,3.7c2.3,4,4.5,7.9,6.8,11.9c15.9,28,31.9,56,47.8,84c3.3,5.8-1.9,11.3-7,11.3
			c-2.3,0-4.5-1.1-6-3.7c-2.3-4-4.5-7.9-6.8-11.9c-15.9-28-31.9-56-47.8-84C347.5,262,352.6,256.6,357.7,256.6 M357.7,254.6
			c-3.5,0-6.9,2-8.8,5c-1.7,2.8-1.7,6.2,0,9.2c8,14,15.9,28,23.9,42c8,14,16,28,23.9,42c1.2,2,2.3,4,3.4,6c1.1,2,2.3,4,3.4,6
			c1.7,3,4.5,4.7,7.7,4.7c3.5,0,7-2,8.8-5.1c1.7-2.8,1.6-6.2,0-9.1c-8-14-15.9-28-23.9-42c-8-14-15.9-28-23.9-42c-1.2-2-2.3-4-3.4-6
			c-1.1-2-2.3-4-3.4-6C363.7,256.3,360.9,254.6,357.7,254.6L357.7,254.6z"/>
	</g>
</g>
</svg>
