<?xml version="1.0" encoding="utf-8"?>
<!-- Generator: Adobe Illustrator 21.0.2, SVG Export Plug-In . SVG Version: 6.00 Build 0)  -->
<svg version="1.1" id="Layer_1" xmlns="http://www.w3.org/2000/svg" xmlns:xlink="http://www.w3.org/1999/xlink" x="0px" y="0px"
	 viewBox="0 0 425 425" style="enable-background:new 0 0 425 425;" xml:space="preserve">
<style type="text/css">
	.st0{fill:#FFFFFF;}
</style>
<g>
	<g>
		<path class="st0" d="M20.6,188c6.6-17.7,23.3-31.6,42.7-31.2c13.9,0.3,25.1,8.4,33.7,18.6c10.1,12,25.7,19.5,41.4,19.3
			c16-0.3,31.1-8.4,41.2-20.7c1-1.2,1.9-2.4,2.8-3.7c0.3-0.4,0.6-0.8,0.9-1.2c-1.4,1.9,1.1-1.2,1.5-1.7c4.6-5.1,10.4-9.2,17-11.2
			c8.8-2.6,18.2-1.6,26.2,2.9c2.9,1.6,5.5,3.6,7.9,5.9c1,1,2,2,2.9,3.1c0.3,0.4,0.6,0.7,0.9,1.1c1,1.2-0.6-0.9,0.5,0.7
			c4.6,6.8,9.1,12.9,15.7,17.9c8.3,6.2,18.3,9.6,28.6,10.2c17.8,0.9,34.2-8.3,44.8-22.2c0.7-0.9,1.4-1.8,2-2.7
			c0.5-0.7,1.9-2.4-0.1-0.1c1.5-1.8,3.2-3.5,4.9-5c6.7-6,15.3-10.3,24.2-11.1c19.4-1.8,36.7,12.5,45.8,28.6c4.7,8.4,17.7,0.9,13-7.6
			c-8.7-15.6-24-29.7-41.5-34.4c-19.2-5.2-39.5,1.7-53.6,15.3c-2.8,2.7-4.8,5.9-7.2,8.9c0.8-1-1.4,1.6-1.7,2
			c-1.2,1.3-2.4,2.5-3.7,3.6c-3,2.7-6.5,5.1-10.3,6.7c-8.8,4-19.1,3.9-28,0.3c-8.6-3.4-14.4-9.6-19.3-17.1
			c-8.8-13.4-23.8-22.5-39.8-23.4c-17-1-33.2,7.8-43.3,21.3c-0.6,0.8-1.1,1.6-1.7,2.4c-0.3,0.4-0.8,1,0.4-0.6
			c-0.3,0.4-0.7,0.9-1,1.3c-1,1.1-1.9,2.2-3,3.2c-5.5,5.5-12.2,9.6-19.7,11.4c-14.6,3.5-29-3.2-38.3-14.4
			c-11.7-14.1-29.4-23.8-48.1-22.5c-24.9,1.7-44.5,19.3-53.1,42.1C2.7,193.1,17.2,197,20.6,188L20.6,188z"/>
	</g>
</g>
<g>
	<g>
		<path class="st0" d="M20.6,228c6.6-17.7,23.3-31.6,42.7-31.2c13.9,0.3,25.1,8.4,33.7,18.6c10.1,12,25.7,19.5,41.4,19.3
			c16-0.3,31.1-8.4,41.2-20.7c1-1.2,1.9-2.4,2.8-3.7c0.3-0.4,0.6-0.8,0.9-1.2c-1.4,1.9,1.1-1.2,1.5-1.7c4.6-5.1,10.4-9.2,17-11.2
			c8.8-2.6,18.2-1.6,26.2,2.9c2.9,1.6,5.5,3.6,7.9,5.9c1,1,2,2,2.9,3.1c0.3,0.4,0.6,0.7,0.9,1.1c1,1.2-0.6-0.9,0.5,0.7
			c4.6,6.8,9.1,12.9,15.7,17.9c8.3,6.2,18.3,9.6,28.6,10.2c17.8,0.9,34.2-8.3,44.8-22.2c0.7-0.9,1.4-1.8,2-2.7
			c0.5-0.7,1.9-2.4-0.1-0.1c1.5-1.8,3.2-3.5,4.9-5c6.7-6,15.3-10.3,24.2-11.1c19.4-1.8,36.7,12.5,45.8,28.6c4.7,8.4,17.7,0.9,13-7.6
			c-8.7-15.6-24-29.7-41.5-34.4c-19.2-5.2-39.5,1.7-53.6,15.3c-2.8,2.7-4.8,5.9-7.2,8.9c0.8-1-1.4,1.6-1.7,2
			c-1.2,1.3-2.4,2.5-3.7,3.6c-3,2.7-6.5,5.1-10.3,6.7c-8.8,4-19.1,3.9-28,0.3c-8.6-3.4-14.4-9.6-19.3-17.1
			c-8.8-13.4-23.8-22.5-39.8-23.4c-17-1-33.2,7.8-43.3,21.3c-0.6,0.8-1.1,1.6-1.7,2.4c-0.3,0.4-0.8,1,0.4-0.6
			c-0.3,0.4-0.7,0.9-1,1.3c-1,1.1-1.9,2.2-3,3.2c-5.5,5.5-12.2,9.6-19.7,11.4c-14.6,3.5-29-3.2-38.3-14.4
			c-11.7-14.1-29.4-23.8-48.1-22.5c-24.9,1.7-44.5,19.3-53.1,42.1C2.7,233,17.2,236.9,20.6,228L20.6,228z"/>
	</g>
</g>
<g>
	<g>
		<path class="st0" d="M20.6,271c6.6-17.7,23.3-31.6,42.7-31.2c13.9,0.3,25.1,8.4,33.7,18.6c10.1,12,25.7,19.5,41.4,19.3
			c16-0.3,31.1-8.4,41.2-20.7c1-1.2,1.9-2.4,2.8-3.7c0.3-0.4,0.6-0.8,0.9-1.2c-1.4,1.9,1.1-1.2,1.5-1.7c4.6-5.1,10.4-9.2,17-11.2
			c8.8-2.6,18.2-1.6,26.2,2.9c2.9,1.6,5.5,3.6,7.9,5.9c1,1,2,2,2.9,3.1c0.3,0.4,0.6,0.7,0.9,1.1c1,1.2-0.6-0.9,0.5,0.7
			c4.6,6.8,9.1,12.9,15.7,17.9c8.3,6.2,18.3,9.6,28.6,10.2c17.8,0.9,34.2-8.3,44.8-22.2c0.7-0.9,1.4-1.8,2-2.7
			c0.5-0.7,1.9-2.4-0.1-0.1c1.5-1.8,3.2-3.5,4.9-5c6.7-6,15.3-10.3,24.2-11.1c19.4-1.8,36.7,12.5,45.8,28.6c4.7,8.4,17.7,0.9,13-7.6
			c-8.7-15.6-24-29.7-41.5-34.4c-19.2-5.2-39.5,1.7-53.6,15.3c-2.8,2.7-4.8,5.9-7.2,8.9c0.8-1-1.4,1.6-1.7,2
			c-1.2,1.3-2.4,2.5-3.7,3.6c-3,2.7-6.5,5.1-10.3,6.7c-8.8,4-19.1,3.9-28,0.3c-8.6-3.4-14.4-9.6-19.3-17.1
			c-8.8-13.4-23.8-22.5-39.8-23.4c-17-1-33.2,7.8-43.3,21.3c-0.6,0.8-1.1,1.6-1.7,2.4c-0.3,0.4-0.8,1,0.4-0.6
			c-0.3,0.4-0.7,0.9-1,1.3c-1,1.1-1.9,2.2-3,3.2c-5.5,5.5-12.2,9.6-19.7,11.4c-14.6,3.5-29-3.2-38.3-14.4
			c-11.7-14.1-29.4-23.8-48.1-22.5c-24.9,1.7-44.5,19.3-53.1,42.1C2.7,276.1,17.2,280,20.6,271L20.6,271z"/>
	</g>
</g>
</svg>
