<?xml version="1.0" encoding="utf-8"?>
<!-- Generator: Adobe Illustrator 21.0.2, SVG Export Plug-In . SVG Version: 6.00 Build 0)  -->
<svg version="1.1" id="Layer_1" xmlns="http://www.w3.org/2000/svg" xmlns:xlink="http://www.w3.org/1999/xlink" x="0px" y="0px"
	 viewBox="0 0 425 425" style="enable-background:new 0 0 425 425;" xml:space="preserve">
<style type="text/css">
	.st0{fill:#FFFFFF;}
</style>
<g>
	<g>
		<path class="st0" d="M136.8,295.8c-5.4,0-8.2-4.3-8.2-8.5c0-2.2,0.7-4.3,2.1-5.8c1.5-1.8,3.7-2.7,6.2-2.7
			c10.6-0.1,21.4-0.1,31.8-0.1c46.3,0,93.3-0.1,138.7-0.2c14.5-0.1,29-0.1,43.6-0.1c13.1,0,26.2,0,39.3-0.1
			c13.9-20,13.1-48.2-2.1-67.2c-10.7-13.3-26.8-21-44.2-21c-7.8,0-15.5,1.5-22.8,4.5c-0.8,0.3-1.6,0.5-2.4,0.5
			c-3.5,0-7.1-2.8-8.1-6.3c-0.2-0.7-0.3-1.3-0.3-2c-13.6-25.3-39.3-41-67.3-41l-0.7,0c-29,0.2-55.9,17.8-68.5,44.9
			c-1.3,2.8-4.7,4.3-7.4,4.3c-3.1,0-6.2-1.2-9.3-2.3c-1.9-0.7-3.7-1.4-5.5-1.8c-3.4-0.7-6.9-1-10.7-1c-2.4,0-4.9,0.1-7.6,0.4
			c-0.2,0-0.4,0-0.6,0c-4.5,0-8-4.6-8-8.5c0-4.5,3.5-8,8.4-8.5c2.4-0.2,4.9-0.3,7.3-0.3c4,0,8.1,0.3,12.1,0.9
			c3.2,0.5,6.3,1.2,9.3,2.1c0.1,0,0.2,0,0.3,0.1c6.3-11.2,14.8-20.9,25.2-28.8c15.7-12,35.5-18.6,55.7-18.6c7.9,0,15.8,1,23.3,3
			c24,6.3,44.8,22.3,57.1,44.2c4.5-1.3,9.3-2.2,14.2-2.7c2.2-0.2,4.4-0.3,6.6-0.3c22,0,43.2,10.2,56.7,27.4
			c16.3,20.5,20.6,48,11.4,71.7c-2.7,7.1-6.2,13.2-10.4,18.7c-2.1,2.6-4.2,4.4-7.9,4.6c-0.6,0-1.2,0-1.8,0c-0.6,0-1.2,0-1.7,0
			c-0.5,0-1.1,0-1.6,0h-25.8c-14.8,0-29.6,0.1-44.4,0.1c-14.9,0-29.9,0-44.8,0.1c-15.7,0-31.3,0.1-46.9,0.1c-15.6,0-31.2,0-46.9,0.1
			c-7.3,0-14.5,0-21.8,0C151.3,295.8,144.1,295.8,136.8,295.8z"/>
		<path class="st0" d="M243,129.8c7.8,0,15.5,1,23.1,2.9c24.1,6.3,44.9,22.7,56.9,44.4c4.8-1.5,9.7-2.4,14.8-2.9
			c2.2-0.2,4.4-0.3,6.5-0.3c21.5,0,42.6,10.1,56,27c15.6,19.7,20.5,47,11.3,70.7c-2.6,6.7-5.9,12.8-10.3,18.5c-2,2.5-3.9,4-7.2,4.2
			c-0.6,0-1.1,0-1.7,0c-1.1,0-2.2,0-3.3,0c-8.6,0-17.2,0-25.8,0c-29.8,0.1-59.5,0.1-89.2,0.2c-31.3,0.1-62.5,0.1-93.8,0.2
			c-14.5,0-29,0.1-43.5,0.1c-9.6,0-9.6-15,0.1-15c10.6-0.1,21.2-0.1,31.8-0.1c46.2,0,92.5-0.1,138.7-0.2c27.8-0.1,55.6-0.1,83.3-0.2
			c14.5-20.4,13.9-49.1-1.8-68.8c-11.3-14.1-27.9-21.4-45-21.4c-7.8,0-15.6,1.5-23.1,4.6c-0.7,0.3-1.4,0.4-2.1,0.4
			c-3.2,0-6.3-2.7-7.1-5.6c-0.2-0.7-0.3-1.4-0.3-2c-13.5-25.3-39.3-41.8-68.3-41.8c-0.2,0-0.5,0-0.7,0
			c-30.2,0.2-56.8,18.4-69.4,45.5c-1.1,2.3-4,3.7-6.5,3.7c-4.8,0-9.9-3-14.6-4c-3.6-0.7-7.3-1-10.9-1c-2.6,0-5.1,0.1-7.7,0.4
			c-0.2,0-0.4,0-0.5,0c-3.9,0-7-4-7-7.5c0-4.3,3.5-7.1,7.5-7.5c2.4-0.2,4.8-0.3,7.2-0.3c4,0,7.9,0.3,11.9,0.9
			c3.1,0.5,6.2,1.2,9.2,2.1c0.3,0.1,0.6,0.2,1,0.4c6.3-11.4,15-21.4,25.4-29.3C203.7,136,223.3,129.8,243,129.8 M243,127.8l0,2
			L243,127.8c-20.5,0-40.5,6.7-56.3,18.8c-10.3,7.8-18.8,17.4-25.1,28.4c-2.9-0.8-5.9-1.5-9-2c-4.1-0.6-8.2-1-12.2-1
			c-2.4,0-4.9,0.1-7.4,0.3c-5.4,0.5-9.3,4.5-9.3,9.5c0,4.5,3.8,9.5,9,9.5c0.2,0,0.5,0,0.7,0c2.7-0.3,5.1-0.4,7.5-0.4
			c3.7,0,7.2,0.3,10.5,1c1.7,0.4,3.4,1,5.3,1.7c3.1,1.1,6.4,2.3,9.6,2.3c2.9,0,6.7-1.5,8.3-4.8c6.1-13.1,15.6-24.2,27.4-32
			c12-8,25.9-12.2,40.2-12.3c0.2,0,0.5,0,0.7,0c27.5,0,52.8,15.4,66.3,40.3c0,0.7,0.2,1.4,0.3,2c1.1,3.9,5.2,7.1,9.1,7.1
			c1,0,1.9-0.2,2.8-0.6c7.2-2.9,14.7-4.4,22.4-4.4c17.1,0,32.9,7.5,43.4,20.6c7.3,9.2,11.5,20.9,11.8,32.9
			c0.3,11.7-3.1,23.2-9.5,32.6c-12.9,0-25.8,0.1-38.7,0.1c-14.3,0-29.1,0.1-43.6,0.1c-45.4,0.1-92.4,0.2-138.7,0.2
			c-10.4,0-21.2,0-31.8,0.1c-6.1,0-9.3,4.8-9.3,9.5c0,4.7,3.2,9.5,9.2,9.5c7.3,0,14.6,0,21.8-0.1c7.1,0,14.5-0.1,21.7-0.1
			c15.7,0,31.5-0.1,46.9-0.1c15.4,0,31.3-0.1,46.9-0.1c14.9-0.1,30-0.1,44.6-0.1c14.6,0,29.7-0.1,44.6-0.1h25.8c0.5,0,1,0,1.6,0
			c0.6,0,1.2,0,1.7,0c0.7,0,1.3,0,1.8,0c4.3-0.3,6.7-2.5,8.6-4.9c4.4-5.7,7.8-11.9,10.6-19c4.6-11.8,5.9-25,3.8-37.9
			c-2.1-12.7-7.4-24.7-15.4-34.8c-13.7-17.4-35.2-27.8-57.5-27.8c-2.2,0-4.5,0.1-6.7,0.3c-4.7,0.5-9.3,1.3-13.6,2.5
			c-12.5-21.7-33.4-37.7-57.4-43.9C259,128.8,251,127.8,243,127.8L243,127.8z"/>
	</g>
	<g>
		<path class="st0" d="M135.8,240.8c-14.8,0-29.6-6.9-39.5-18.6c-9.6-11.4-19.6-17.1-30.7-17.6c-0.5,0-0.9,0-1.4,0
			c-16.7,0-32.3,11.6-38.9,28.9c-1.4,3.6-4.5,5.7-8.4,5.7c0,0,0,0,0,0c-3,0-5.8-1.4-7.3-3.5c-1.3-1.9-1.5-4.4-0.6-6.9
			c9-24.1,29.9-40.3,53.1-41.1c0.6,0,1.2,0,1.7,0c16,0,32.1,7.8,43.1,20.8c5.9,7,15.8,15.4,29,15.4c1.4,0,2.9-0.1,4.3-0.3
			c6.7-0.8,13.6-4.2,19.5-9.4c1.5-1.3,3-2.9,4.9-5.1c0.2-0.3,0.9-1.2,1.1-1.5c10.1-13.8,25.1-21.7,41.2-21.7l0.3,0
			c5.4,0,8.3,4.3,8.3,8.5s-2.8,8.5-8.3,8.5l-0.4,0c-8.3,0-16.1,3.1-22.4,8.9c-1,1-2.2,2.2-3.2,3.3c-0.4,0.4-0.8,0.9-1.2,1.3l0,0
			c-0.5,0.6-1,1.3-1.5,2c-0.4,0.5-0.7,1-1.1,1.4c-9.6,12.1-23.6,19.7-38.4,20.8C137.9,240.8,136.8,240.8,135.8,240.8z"/>
		<path class="st0" d="M206.9,186.9c0.1,0,0.2,0,0.3,0c9.7,0,9.7,15,0,15c-0.1,0-0.3,0-0.4,0c-8.7,0-16.7,3.3-23.1,9.2
			c-1.1,1.1-2.2,2.2-3.3,3.4c-0.4,0.4-0.8,0.9-1.2,1.4c0.5-0.6,0.7-0.8,0.6-0.8c0,0-0.2,0.3-0.3,0.4c-1,1.2-1.9,2.5-2.9,3.8
			c-9.2,11.6-22.9,19.3-37.7,20.4c-1,0.1-2.1,0.1-3.1,0.1c-14.7,0-29.2-7.1-38.8-18.2c-8.1-9.6-18.3-17.4-31.4-17.9
			c-0.5,0-0.9,0-1.4,0c-18,0-33.5,13-39.8,29.5c-1.3,3.6-4.4,5.1-7.4,5.1c-4.6,0-9.1-3.6-7-9.1c8.3-22.2,27.8-39.6,52.2-40.5
			c0.6,0,1.1,0,1.7,0c16.2,0,32,8.2,42.3,20.4c7.7,9.1,17.7,15.8,29.7,15.8c1.5,0,2.9-0.1,4.5-0.3c7.5-0.9,14.5-4.7,20-9.7
			c1.7-1.6,3.4-3.4,4.9-5.2c0.3-0.4,0.9-1.2,1.2-1.5C176,195.2,190.6,186.9,206.9,186.9 M206.9,184.9L206.9,184.9
			c-16.4,0-31.7,8-42,22.1c-0.2,0.3-0.8,1.1-1.1,1.5c-1.8,2.1-3.3,3.7-4.7,4.9c-5.7,5.2-12.4,8.4-18.9,9.2c-1.4,0.2-2.8,0.3-4.2,0.3
			c-7.1,0-17.7-2.6-28.2-15.1c-11.2-13.2-27.5-21.1-43.8-21.1c-0.6,0-1.2,0-1.8,0c-23.6,0.9-44.8,17.3-54,41.8
			c-1.1,2.8-0.8,5.6,0.7,7.8c1.7,2.5,4.8,4,8.1,4c4.3,0,7.8-2.5,9.3-6.4c6.4-16.9,21.6-28.2,37.9-28.2c0.4,0,0.9,0,1.3,0
			c10.7,0.4,20.5,6,29.9,17.2c10.2,11.9,25.2,18.9,40.3,18.9c1.1,0,2.2,0,3.3-0.1c15.1-1.1,29.4-8.8,39.1-21.2
			c0.4-0.5,0.7-1,1.1-1.5c0.5-0.7,1-1.3,1.5-1.9l0,0c0.4-0.5,0.7-0.9,1.1-1.2l0,0l0,0c1.1-1.2,2.2-2.3,3.2-3.3
			c6.1-5.7,13.7-8.6,21.7-8.6l0.4,0c6.1,0,9.3-4.8,9.3-9.5c0-4.7-3.2-9.5-9.3-9.5L206.9,184.9L206.9,184.9z"/>
	</g>
	<g>
		<path class="st0" d="M138.2,276.1c-14.8,0-29.6-6.9-39.5-18.6C89,246.2,79,240.4,68,240c-0.5,0-0.9,0-1.4,0
			c-16.7,0-32.3,11.6-38.9,28.9c-1.4,3.6-4.5,5.7-8.4,5.7c-3,0-5.8-1.4-7.3-3.5c-1.3-1.9-1.5-4.4-0.6-6.9
			c9-24.1,29.9-40.3,53.1-41.1c0.6,0,1.2,0,1.8,0c16,0,32.1,7.8,43.1,20.8c5.9,7,15.8,15.4,29,15.4c1.4,0,2.9-0.1,4.3-0.3
			c6.7-0.8,13.6-4.2,19.5-9.4c1.5-1.3,3-2.9,4.9-5.1c0.2-0.3,0.9-1.2,1.1-1.5c10.1-13.8,25.1-21.7,41.2-21.7l0.3,0
			c5.4,0,8.3,4.3,8.3,8.5s-2.8,8.5-8.3,8.5l-0.4,0c-8.3,0-16.1,3.1-22.4,8.9c-1.1,1.1-2.2,2.2-3.2,3.3c-0.4,0.4-0.8,0.9-1.2,1.3l0,0
			c-0.5,0.6-1,1.3-1.5,2c-0.4,0.5-0.7,1-1.1,1.4c-9.6,12.1-23.6,19.7-38.4,20.8C140.3,276.1,139.2,276.1,138.2,276.1z"/>
		<path class="st0" d="M209.3,222.2c0.1,0,0.2,0,0.3,0c9.7,0,9.7,15,0,15c-0.1,0-0.3,0-0.4,0c-8.7,0-16.7,3.3-23.1,9.2
			c-1.1,1.1-2.2,2.2-3.3,3.4c-0.4,0.4-0.8,0.9-1.2,1.4c0.5-0.6,0.7-0.8,0.6-0.8c0,0-0.2,0.3-0.3,0.4c-1,1.2-1.9,2.5-2.9,3.8
			c-9.2,11.6-22.9,19.3-37.7,20.4c-1,0.1-2.1,0.1-3.1,0.1c-14.7,0-29.2-7.1-38.8-18.2c-8.1-9.6-18.3-17.4-31.4-17.9
			c-0.5,0-0.9,0-1.4,0c-18,0-33.5,13-39.8,29.5c-1.3,3.6-4.4,5.1-7.4,5.1c-4.6,0-9.1-3.6-7-9.1c8.3-22.2,27.8-39.6,52.2-40.5
			c0.6,0,1.1,0,1.7,0c16.2,0,32,8.2,42.3,20.4c7.7,9.1,17.7,15.8,29.7,15.8c1.5,0,2.9-0.1,4.5-0.3c7.5-0.9,14.5-4.7,20-9.7
			c1.7-1.6,3.4-3.4,4.9-5.2c0.3-0.4,0.9-1.2,1.2-1.5C178.4,230.5,193,222.2,209.3,222.2 M209.3,220.2L209.3,220.2
			c-16.4,0-31.7,8-42,22.1c-0.2,0.3-0.8,1.1-1.1,1.5c-1.8,2.1-3.3,3.7-4.7,4.9c-5.7,5.2-12.4,8.4-18.9,9.2c-1.4,0.2-2.8,0.3-4.2,0.3
			c-7.1,0-17.7-2.6-28.2-15.1C99,229.9,82.6,222,66.3,222c-0.6,0-1.2,0-1.8,0c-23.6,0.9-44.8,17.3-54,41.8c-1.1,2.8-0.8,5.6,0.7,7.8
			c1.7,2.5,4.8,4,8.1,4c4.3,0,7.8-2.5,9.3-6.4C35,252.3,50.3,241,66.6,241c0.4,0,0.9,0,1.3,0c10.7,0.4,20.5,6,29.9,17.2
			c10.2,11.9,25.2,18.9,40.3,18.9c1.1,0,2.2,0,3.3-0.1c15.1-1.1,29.4-8.8,39.1-21.2c0.4-0.5,0.7-1,1.1-1.5c0.5-0.7,1-1.3,1.5-1.9
			l0,0c0.4-0.5,0.7-0.9,1.1-1.2l0,0l0,0c1.1-1.2,2.2-2.3,3.2-3.3c6.1-5.7,13.7-8.6,21.7-8.6l0.4,0c6.1,0,9.3-4.8,9.3-9.5
			c0-4.7-3.2-9.5-9.3-9.5L209.3,220.2L209.3,220.2z"/>
	</g>
</g>
</svg>
