<?xml version="1.0" encoding="utf-8"?>
<!-- Generator: Adobe Illustrator 21.0.2, SVG Export Plug-In . SVG Version: 6.00 Build 0)  -->
<svg version="1.1" id="Layer_1" xmlns="http://www.w3.org/2000/svg" xmlns:xlink="http://www.w3.org/1999/xlink" x="0px" y="0px"
	 viewBox="0 0 425 425" style="enable-background:new 0 0 425 425;" xml:space="preserve">
<style type="text/css">
	.st0{fill:#FFFFFF;}
</style>
<g>
	<g>
		<path class="st0" d="M136.8,294.8c14.5,0,29-0.1,43.5-0.1c31.3-0.1,62.5-0.1,93.8-0.2c29.7-0.1,59.4-0.1,89.2-0.2
			c8.6,0,17.2,0,25.8,0c1.6,0,3.3,0.1,5,0c3.3-0.2,5.2-1.7,7.2-4.2c4.4-5.7,7.7-11.8,10.3-18.5c9.2-23.7,4.3-51-11.3-70.7
			c-14.7-18.6-38.8-29-62.5-26.7c-7.3,0.7-14.3,2.3-21,5.1c-3.7,1.5-6.4,5-5.2,9.2c1,3.5,5.4,6.8,9.2,5.2c24-9.8,51.7-3.7,68.1,16.8
			c16.3,20.4,16.4,50.5,0.2,71c1.8-0.7,3.5-1.5,5.3-2.2c-29,0.1-58,0.1-87,0.2c-46.2,0.1-92.5,0.2-138.7,0.2
			c-10.6,0-21.2,0-31.8,0.1C127.2,279.8,127.2,294.8,136.8,294.8L136.8,294.8z"/>
	</g>
</g>
<g>
	<g>
		<path class="st0" d="M325.8,182.5c-11.4-24.3-33.6-43-59.7-49.8c-26.8-7-56.2-1.4-78.2,15.4c-12,9.1-21.7,20.9-28.1,34.6
			c2.2-1.2,4.3-2.5,6.5-3.7c-0.2,0-3.6-1.7-4.8-2c-3-0.9-6.1-1.6-9.2-2.1c-6.4-1-12.7-1.2-19.1-0.6c-4,0.4-7.5,3.2-7.5,7.5
			c0,3.7,3.4,7.9,7.5,7.5c6.2-0.6,12.4-0.6,18.6,0.6c4.7,1,9.8,4,14.6,4c2.5,0,5.4-1.4,6.5-3.7c12.6-27.1,39.2-45.3,69.4-45.5
			c30.6-0.3,57.8,17.8,70.8,45.3C316.9,198.8,329.9,191.2,325.8,182.5L325.8,182.5z"/>
	</g>
</g>
<g>
	<g>
		<path class="st0" d="M24.4,233.2c6.4-17,22.6-30.2,41.2-29.5c13.1,0.5,23.3,8.3,31.4,17.9c10.2,11.9,26.2,19.2,41.9,18.1
			c14.8-1.1,28.5-8.8,37.7-20.4c1-1.3,1.9-2.6,2.9-3.8c0.2-0.3,0.8-1-0.3,0.4c0.4-0.5,0.8-1,1.2-1.4c1.1-1.2,2.2-2.3,3.3-3.4
			c6.5-6,14.6-9.3,23.5-9.2c9.7,0,9.7-15,0-15c-16.4-0.1-31.1,8.2-40.7,21.3c-0.4,0.5-2.2,2.9-0.7,1c-1.7,2-3.5,4-5.4,5.7
			c-5.5,5-12.5,8.8-20,9.7c-14,1.9-25.6-5.3-34.2-15.5c-10.7-12.7-27.2-21-44-20.4c-24.4,0.9-43.9,18.3-52.2,40.5
			C6.5,238.3,21,242.2,24.4,233.2L24.4,233.2z"/>
	</g>
</g>
<g>
	<g>
		<path class="st0" d="M26.8,268.5c6.4-17,22.6-30.2,41.2-29.5c13.1,0.5,23.3,8.3,31.4,17.9c10.2,11.9,26.2,19.2,41.9,18.1
			c14.8-1.1,28.5-8.8,37.7-20.4c1-1.3,1.9-2.6,2.9-3.8c0.2-0.3,0.8-1-0.3,0.4c0.4-0.5,0.8-1,1.2-1.4c1.1-1.2,2.2-2.3,3.3-3.4
			c6.5-6,14.6-9.3,23.5-9.2c9.7,0,9.7-15,0-15c-16.4-0.1-31.1,8.2-40.7,21.3c-0.4,0.5-2.2,2.9-0.7,1c-1.7,2-3.5,4-5.4,5.7
			c-5.5,5-12.5,8.8-20,9.7c-14,1.9-25.6-5.3-34.2-15.5c-10.7-12.7-27.2-21-44-20.4c-24.4,0.9-43.9,18.3-52.2,40.5
			C8.9,273.6,23.4,277.5,26.8,268.5L26.8,268.5z"/>
	</g>
</g>
</svg>
