<?xml version="1.0" encoding="utf-8"?>
<!-- Generator: Adobe Illustrator 21.0.2, SVG Export Plug-In . SVG Version: 6.00 Build 0)  -->
<svg version="1.1" id="Layer_1" xmlns="http://www.w3.org/2000/svg" xmlns:xlink="http://www.w3.org/1999/xlink" x="0px" y="0px"
	 viewBox="0 0 425 425" style="enable-background:new 0 0 425 425;" xml:space="preserve">
<style type="text/css">
	.st0{fill:#FFFFFF;}
</style>
<g>
	<g>
		<path class="st0" d="M386.8,254.4c18.6-23.5,24.4-55.2,13.1-83.3c-9.8-24.4-30.7-43.3-56.3-49.9c-17.3-4.5-35.9-3.2-52.4,3.5
			c-3.7,1.5-6.4,5-5.2,9.2c1,3.5,5.4,6.8,9.2,5.2c28.7-11.7,62-4.1,81.3,20.6c19,24.3,18.9,59.8-0.3,84c-2.5,3.2-3.1,7.5,0,10.6
			C378.8,257,384.3,257.6,386.8,254.4L386.8,254.4z"/>
	</g>
</g>
<g>
	<g>
		<path class="st0" d="M300.3,127.9c-13.2-28.2-38.9-49.7-69.1-57.6c-30.8-8-64.6-1.5-90,17.7c-13.9,10.6-25.2,24.2-32.6,40.1
			c2.2-1.2,4.3-2.5,6.5-3.7c-0.1,0-1.9-1-2.6-1.3c-1.9-0.7-3.9-1.3-5.8-1.8c-4.4-1.2-8.9-1.9-13.4-2.4c-7.5-0.8-15.1-0.4-22.6,0.8
			c-12.8,2.1-25.2,7.6-35.5,15.4C13.6,151.6,0.9,177.8,2.1,205c0.8,18.5,7.8,35.6,19.4,50c2.6,3.2,7.9,2.6,10.6,0
			c3.1-3.1,2.5-7.5,0-10.6c-15.8-19.6-19.7-47.6-9.2-70.6c9.2-20.2,27.5-34.7,49.2-39.1c6.7-1.3,13.6-1.6,20.4-0.9
			c4.3,0.4,8.6,1.4,12.8,2.7c3.2,1,6.5,2.9,9.9,2.9c2.4,0,5.4-1.4,6.5-3.7c11.5-24.8,33-43.6,59.5-50.7c27-7.2,56.3-1.4,78.5,15.5
			c12.1,9.2,21.4,21.3,27.8,35C291.4,144.2,304.4,136.6,300.3,127.9L300.3,127.9z"/>
	</g>
</g>
<g>
	<g>
		<path class="st0" d="M271,210.6c1.4-0.9,2.8-1.6,4.5-1.8c1.5-0.3,2.7-0.1,4.1,0.2c1.3,0.2,1.4,0.5,1.6,0.5
			c5.2,2.6,4.1,7.2,1.4,11.5c-0.1,0.2-0.9,1.1-0.1,0.2c0.9-1.1-0.4,0.5-0.7,0.7c-0.8,0.6-1.3,1.2-2.3,1.7c-2.7,1.5-5.9,2-9,2.1
			c-4.4,0.2-8.5-0.7-12.2-3.1c-2.3-1.5-5.9-4.9-7.7-8.5c-2.6-5.2-2.3-11.3,0.5-16.4c5.2-9.4,15.1-12.8,25.5-12.6
			c9.1,0.2,18.1,4,23,11c3.6,5.2,4.2,8.6,5.8,15c0.2,0.7,0.3-2-0.1-0.9c-1,2.7-0.5,6.8-1.2,9.8c-1.1,4.8-3,9.6-6.1,13.5
			c-2.3,2.9-4.6,4.8-7.5,6.5c-1.3,0.8-2.6,1.5-4,2.1c1.4-0.6-0.4,0.2-0.8,0.3c-0.7,0.2-1.4,0.5-2.1,0.7c-1,0.3-2,0.5-3,0.8
			c-1.9,0.4-1.4-0.1-0.3,0.1c-0.3-0.1-0.8,0-1.1,0c-3.5-0.1-7,0-10.4,0c-15.2,0-30.4,0-45.7,0c-31.9,0-63.7,0-95.6,0
			c-23.6,0-47.2,0-70.8,0c-1.2,0-2.4,0-3.6,0c-9.7,0-9.7,15,0,15c24.9,0,49.7,0,74.6,0c36.6,0,73.2,0,109.8,0c13.5,0,27,0,40.4,0
			c10.6,0,21.2-5.2,28.6-12.6c9-9.1,14.3-23.3,13.8-36.1c-0.2-5.7-2.4-11.5-4.8-16.6c-11.9-24.5-47.6-31.5-68.5-14.2
			c-10,8.3-15.3,21.6-12.3,34.4c2.6,11.4,12.1,21.2,23.1,25.1c13,4.5,30.2,1.3,38-10.6c8.7-13.2,2.7-30.2-12.9-33.9
			c-6.5-1.5-13.7-0.2-19.3,3.4C255.3,202.8,262.8,215.8,271,210.6L271,210.6z"/>
	</g>
</g>
<g>
	<g>
		<path class="st0" d="M365.6,328.7c15.8,10,40.7-1.1,36.1-21.7c-4.2-19-27-25.4-43.5-18.7c-15.1,6-24.8,22.4-21.6,38.5
			c3.4,17.3,19.5,27.9,36.2,29.4c16.7,1.5,33-4.7,42.3-18.9c4.5-6.8,7.8-15.8,7.1-24c-1.2-15.7-7.6-30.4-21.2-39.1
			c-5.6-3.6-12.5-6.2-19.1-6.6c-14.9-0.8-30.1,0-45.1,0c-26.1,0-52.2,0-78.3,0c-27.4,0-54.7,0-82.1,0c-44.4,0-88.9,0-133.3,0
			c-0.9,0-1.8,0-2.7,0c-9.7,0-9.7,15,0,15c34.2,0,68.5,0,102.7,0c28.4,0,56.9,0,85.3,0c41.2,0,82.4,0,123.6,0c7.8,0,15.6,0,23.5,0
			c1.9,0,3.8,0.1,5.7,0c1.6,0,1.2,0.2,0.1-0.1c7.8,2,12.4,3.3,18,9.6c3.9,4.4,6.2,10.4,7.4,16.3c0.5,2.6,0.2,5.6,0.8,8
			c0.3,1.1,0.5-2.2,0.1-0.9c-0.2,0.6-0.2,1.3-0.4,2c-1.7,8.2-5.4,15.4-13.4,20c-11.1,6.4-28.4,5.6-37.3-4.2
			c-4.7-5.2-7-12.4-4.5-19.2c1.8-4.8,6-8.8,9.5-10.8c5.4-3.1,13.4-3.4,19.1-0.9c1.4,0.6,2.2,1.4,3.3,2.2c0.5,0.4,1.8,2.2,0.4,0.3
			c0.3,0.4,0.6,0.9,0.9,1.3c1.7,2.9,3.2,6.3,0.5,9.2c-1.7,1.8-2.6,2.1-5.3,2.4c-2.6,0.3-5.1-0.6-7.2-1.9
			C365,310.6,357.4,323.6,365.6,328.7L365.6,328.7z"/>
	</g>
</g>
</svg>
