<?xml version="1.0" encoding="utf-8"?>
<!-- Generator: Adobe Illustrator 21.0.2, SVG Export Plug-In . SVG Version: 6.00 Build 0)  -->
<svg version="1.1" id="Layer_1" xmlns="http://www.w3.org/2000/svg" xmlns:xlink="http://www.w3.org/1999/xlink" x="0px" y="0px"
	 viewBox="0 0 425 425" style="enable-background:new 0 0 425 425;" xml:space="preserve">
<style type="text/css">
	.st0{fill:#FFFFFF;}
</style>
<g>
	<g>
		<path class="st0" d="M26.5,258.2c-2.4,0-4.4-0.9-5.7-2.5C8.7,240.7,1.9,223.2,1.1,205c-1.2-27.4,11.3-53.8,33.5-70.7
			c10.7-8.1,23.1-13.5,35.9-15.6c5.1-0.8,10.1-1.2,14.8-1.2c2.8,0,5.5,0.1,8.1,0.4c5.4,0.6,9.7,1.4,13.6,2.4
			c1.2,0.3,2.5,0.7,3.9,1.2c7.3-13.2,17.3-24.8,29.8-34.3C158.7,73.5,181.5,66,204.8,66c9,0,18,1.1,26.6,3.4
			c28.2,7.4,52.4,26.3,66.6,51.9c8-2.4,16.4-3.7,24.8-3.7c7.1,0,14.2,0.9,21.1,2.7c25.6,6.6,46.9,25.5,57,50.5
			c11.1,27.6,6,59.9-13.2,84.3c-1.3,1.6-3.3,2.5-5.7,2.5c-2.4,0-4.9-1-6.4-2.6c-3.1-3.1-3.2-7.9-0.1-11.9
			c19-23.9,19.1-58.7,0.3-82.8c-12.7-16.3-32.1-25.6-53.2-25.6c-9.2,0-18.3,1.8-27,5.3c-0.8,0.3-1.6,0.5-2.4,0.5
			c-3.5,0-7.1-2.8-8.1-6.3c-0.2-0.7-0.3-1.3-0.3-2c-6.5-12.5-15.1-22.8-25.6-30.9C243.6,89.5,224.2,83,204.4,83c-7.8,0-15.5,1-23,3
			c-25.8,6.9-47.3,25.2-58.9,50.2c-1.3,2.8-4.8,4.3-7.4,4.3c-2.5,0-5-1-7.3-1.9c-1-0.4-2-0.8-2.9-1.1c-4.6-1.4-8.7-2.3-12.6-2.7
			c-2.3-0.2-4.7-0.4-7.1-0.4c-4.4,0-8.8,0.4-13,1.2C51,140,32.8,154.4,23.8,174.2c-10.3,22.6-6.8,49.9,9.1,69.6
			c3.1,3.9,3.1,8.8-0.1,11.9C31.2,257.3,28.8,258.2,26.5,258.2C26.5,258.2,26.5,258.2,26.5,258.2z"/>
		<path class="st0" d="M204.8,67c8.9,0,17.8,1.1,26.4,3.3c28.2,7.4,52.5,26.6,66.3,52.1c8.2-2.6,16.7-3.9,25.3-3.9
			c7,0,14,0.9,20.8,2.6c25.6,6.6,46.5,25.5,56.3,49.9c11.3,28.1,5.5,59.8-13.1,83.3c-1.2,1.5-3,2.2-4.9,2.2c-2.1,0-4.3-0.8-5.7-2.3
			c-3.1-3.1-2.5-7.4,0-10.6c19.2-24.2,19.3-59.7,0.3-84c-13.3-17.1-33.4-26-54-26c-9.2,0-18.5,1.8-27.3,5.4
			c-0.7,0.3-1.4,0.4-2.1,0.4c-3.2,0-6.3-2.7-7.1-5.6c-0.2-0.7-0.3-1.4-0.3-2c-6.3-12.2-15-23-26-31.4C243.8,88.4,224.2,82,204.4,82
			c-7.8,0-15.6,1-23.2,3c-26.5,7.1-48,25.9-59.5,50.7c-1.1,2.3-4.1,3.7-6.5,3.7c-3.4,0-6.7-1.9-9.9-2.9c-4.2-1.3-8.5-2.3-12.8-2.7
			c-2.4-0.2-4.8-0.4-7.2-0.4c-4.4,0-8.9,0.4-13.2,1.3c-21.7,4.4-40,18.9-49.2,39.1c-10.5,23-6.6,51,9.2,70.6c2.5,3.1,3.1,7.5,0,10.6
			c-1.4,1.4-3.6,2.2-5.6,2.2c-1.9,0-3.7-0.7-5-2.2C9.9,240.6,2.9,223.5,2.1,205c-1.2-27.2,11.5-53.4,33.1-69.9
			c10.3-7.8,22.7-13.3,35.5-15.4c4.8-0.8,9.7-1.2,14.6-1.2c2.7,0,5.3,0.1,8,0.4c4.5,0.5,9,1.2,13.4,2.4c1.5,0.4,3.1,0.9,4.6,1.4
			c7.3-13.6,17.6-25.3,29.9-34.7C159.5,74.2,182.1,66.9,204.8,67 M204.8,65l0,2L204.8,65c-23.5,0-46.5,7.6-64.8,21.5
			c-12.4,9.4-22.3,20.8-29.6,33.9c-1.1-0.3-2.1-0.6-3.2-0.9c-3.9-1.1-8.3-1.9-13.7-2.5c-2.7-0.3-5.4-0.4-8.2-0.4
			c-4.7,0-9.8,0.4-14.9,1.2c-13,2.1-25.6,7.6-36.4,15.8c-22.4,17.1-35.1,43.9-33.9,71.6c0.8,18.3,7.7,36,19.8,51.2
			c1.5,1.9,3.8,2.9,6.5,2.9c2.6,0,5.2-1,7-2.7c3.6-3.6,3.6-9,0.2-13.3c-7.6-9.4-12.4-20.8-14-33c-1.6-12.3,0.1-24.6,5.1-35.5
			c8.9-19.5,26.7-33.7,47.8-38c4.2-0.8,8.5-1.2,12.8-1.2c2.3,0,4.7,0.1,7,0.4c3.8,0.4,7.9,1.2,12.4,2.6c0.9,0.3,1.8,0.7,2.8,1
			c2.4,1,4.9,1.9,7.7,1.9c3,0,6.8-1.7,8.3-4.8c11.5-24.7,32.7-42.8,58.2-49.6c7.4-2,15-3,22.7-3c19.5,0,38.7,6.4,54,18.1
			c10.4,7.9,18.9,18.1,25.2,30.3c0,0.7,0.2,1.4,0.3,2c1.1,3.9,5.2,7.1,9.1,7.1c1,0,1.9-0.2,2.8-0.6c8.5-3.5,17.4-5.2,26.6-5.2
			c20.8,0,39.9,9.2,52.4,25.2c8.9,11.4,13.8,25.9,13.8,40.8c0,14.9-5,29.4-14,40.7c-3.4,4.4-3.4,9.7,0.2,13.3
			c1.7,1.8,4.4,2.9,7.1,2.9c2.7,0,5-1,6.5-2.9c19.5-24.6,24.6-57.3,13.4-85.3c-10.2-25.3-31.7-44.4-57.7-51.1
			c-6.9-1.8-14.1-2.7-21.3-2.7c-8.2,0-16.4,1.2-24.3,3.5c-14.4-25.5-38.6-44.3-66.8-51.7C223,66.1,213.9,65,204.8,65L204.8,65z"/>
	</g>
	<g>
		<path class="st0" d="M279.1,243c0.2-0.1,0.5-0.1,0.6-0.1c0.1,0,0.2,0,0.3,0l-0.1,2c-0.1,0-0.3,0-0.4,0L279.1,243z"/>
		<path class="st0" d="M279.8,244c0.1,0,0.1,0,0.2,0c0,0,0,0,0,0c-0.2,0-0.4,0-0.5,0C279.5,244,279.6,244,279.8,244 M279.8,242
			c-0.3,0-0.6,0-0.9,0.1l0.7,3.9l0.1,0c0.1,0,0.2,0,0.3,0l0.1-4C280,242,279.9,242,279.8,242L279.8,242z"/>
	</g>
	<g>
		<path class="st0" d="M53.1,260c-5.4,0-8.3-4.3-8.3-8.5s2.8-8.5,8.3-8.5h215.7c1.1,0,2.3,0,3.4,0c1.2,0,2.3,0,3.5,0
			c1.2,0,2.3,0,3.5,0l0.1,0l0.1,0.5l0.1-0.4c0.1,0,0.3,0,0.5-0.1l0,0c0.1,0,0.1,0,0.2,0c0.1,0,0.2,0,0.2,0c0.4-0.1,1-0.3,1.5-0.4
			c0.5-0.1,1-0.2,1.5-0.4c0.3-0.1,0.7-0.2,1-0.3c0.4-0.1,0.7-0.3,1.1-0.4c0.1,0,0.4-0.1,0.7-0.3l0,0c1.3-0.5,2.5-1.2,3.9-2
			c3-1.7,5.1-3.6,7.2-6.3c2.7-3.4,4.7-7.8,5.9-13.1c0.3-1.2,0.4-2.8,0.4-4.2c0.1-1.8,0.2-3.6,0.6-5.1l-0.2-0.7
			c-1.3-5.2-2.1-8.4-5.2-13c-4.4-6.3-12.9-10.4-22.2-10.6c-0.3,0-0.6,0-0.8,0c-7.8,0-18.2,2.1-23.8,12.1c-2.7,4.9-2.9,10.7-0.5,15.5
			c1.8,3.6,5.4,6.8,7.4,8.1c3.1,2,6.5,3,10.5,3c0.4,0,0.8,0,1.1,0c3.6-0.1,6.4-0.8,8.6-2c0.6-0.3,1-0.6,1.4-1
			c0.2-0.2,0.5-0.4,0.8-0.6c0.1-0.1,0.2-0.2,0.4-0.4c0,0,0.1-0.1,0.1-0.2c1.8-2.9,2.5-5.2,2-7c-0.4-1.3-1.3-2.3-2.8-3.1
			c-0.2,0-0.3-0.1-0.4-0.2c-0.1-0.1-0.4-0.2-1.1-0.3c-1-0.2-1.7-0.3-2.5-0.3c-0.4,0-0.9,0-1.3,0.1c-1.4,0.2-2.6,0.6-4.2,1.7
			c-1.4,0.9-2.9,1.4-4.4,1.4c-3.6,0-6.8-2.7-7.8-6.5c-1-3.7,0.4-7.3,3.8-9.2c4.2-2.7,9.3-4.2,14.3-4.2c1.9,0,3.9,0.2,5.7,0.6
			c7.5,1.8,13.4,6.7,16.1,13.6c2.8,7.1,1.9,15.1-2.6,21.9c-5.3,8.1-15.4,13-26.9,13c-4.2,0-8.4-0.7-12.2-2
			c-11.6-4.1-21.2-14.5-23.7-25.8c-3-12.7,2-26.6,12.6-35.4c7.6-6.3,17.7-9.8,28.4-9.8c18.1,0,34.4,9.6,41.6,24.3
			c2,4.2,4.7,10.6,4.9,17c0.5,13.2-5,27.7-14.1,36.8c-8.1,8.1-19,12.9-29.3,12.9H53.1z"/>
		<path class="st0" d="M274.8,169.9c16.6,0,33.3,8.5,40.7,23.8c2.4,5.1,4.6,10.9,4.8,16.6c0.5,12.8-4.8,27-13.8,36.1
			c-7.4,7.4-18,12.6-28.6,12.6c-13.4,0-26.9,0-40.4,0c-36.6,0-73.2,0-109.8,0c-24.9,0-49.7,0-74.6,0c-9.7,0-9.7-15,0-15
			c1.2,0,2.4,0,3.6,0c23.6,0,47.2,0,70.8,0c31.9,0,63.7,0,95.6,0c15.3,0,30.5,0,45.7,0c2.3,0,4.6,0,6.9,0c1.2,0,2.3,0,3.5,0
			c0.1,0,0.1,0,0.2,0c-0.1,0-0.1,0.1,0.1,0.1c0.1,0,0.3,0,0.7-0.1c-0.1,0-0.1,0-0.2,0c0.1,0,0.1,0,0.2,0c0.1,0,0.3,0,0.4-0.1
			c1-0.3,2-0.5,3-0.8c0.7-0.2,1.4-0.5,2.1-0.7c0.3-0.1,1.3-0.5,1.3-0.5c0,0-0.1,0.1-0.5,0.2c1.4-0.6,2.7-1.3,4-2.1
			c2.9-1.7,5.2-3.6,7.5-6.5c3.1-3.9,5-8.7,6.1-13.5c0.7-2.9,0.2-6.9,1.1-9.6c-1.5-6-2.2-9.3-5.6-14.3c-4.9-7-13.9-10.8-23-11
			c-0.3,0-0.6,0-0.9,0c-10.1,0-19.6,3.5-24.6,12.6c-2.8,5.1-3.1,11.2-0.5,16.4c1.8,3.6,5.4,7,7.7,8.5c3.4,2.2,7.1,3.1,11,3.1
			c0.4,0,0.8,0,1.2,0c3.1-0.1,6.3-0.6,9-2.1c1-0.5,1.5-1.1,2.3-1.7c0.1-0.1,0.3-0.3,0.5-0.5c0.1-0.1,0.2-0.3,0.3-0.4
			c2.7-4.3,3.8-8.9-1.4-11.5c-0.2,0-0.3-0.3-1.6-0.5c-0.9-0.2-1.7-0.3-2.6-0.3c-0.5,0-1,0-1.5,0.1c-1.7,0.2-3.1,0.9-4.5,1.8
			c-1.3,0.8-2.6,1.2-3.9,1.2c-6.4,0-10.5-9.8-3.5-13.9c4.1-2.6,9-4,13.8-4c1.8,0,3.7,0.2,5.5,0.6c15.6,3.7,21.6,20.7,12.9,33.9
			c-5.6,8.5-15.9,12.5-26.1,12.5c-4.1,0-8.2-0.7-11.9-1.9c-11-3.9-20.5-13.7-23.1-25.1c-3-12.8,2.3-26.1,12.3-34.4
			C254.9,173,264.8,169.9,274.8,169.9 M274.8,167.9l0,2L274.8,167.9c-10.9,0-21.2,3.6-29.1,10c-10.9,9.1-16,23.4-13,36.4
			c2.7,11.6,12.5,22.3,24.4,26.5c1.3,0.4,2.6,0.8,3.9,1.1h-38h-95.6H56.7h-3.6c-6.1,0-9.3,4.8-9.3,9.5c0,2.4,0.8,4.7,2.3,6.5
			c1.7,2,4.1,3,7,3h74.6h109.8h40.4c10.5,0,21.8-4.9,30-13.2c9.3-9.4,14.9-24.1,14.4-37.6c-0.2-6.6-3-13.1-5-17.4
			C310,177.7,293.3,167.9,274.8,167.9L274.8,167.9z M269.3,223.7c-3.8,0-7-0.9-9.9-2.8c-2.3-1.5-5.5-4.7-7-7.7
			c-2.2-4.5-2.1-9.9,0.5-14.5c5.3-9.6,15.4-11.6,22.9-11.6c0.3,0,0.5,0,0.8,0c9,0.2,17.2,4.1,21.4,10.1c3.1,4.4,3.8,7.3,5.1,12.6
			l0.1,0.5c-0.4,1.6-0.5,3.4-0.6,5.1c-0.1,1.5-0.1,2.9-0.4,4.1c-1.2,5.1-3.1,9.4-5.7,12.7c-2,2.6-4.1,4.4-6.9,6
			c-1.4,0.8-2.5,1.5-3.8,2l0,0c-0.2,0.1-0.4,0.2-0.5,0.2c-0.4,0.1-0.8,0.3-1.2,0.4c-0.3,0.1-0.6,0.2-0.9,0.3
			c-0.5,0.1-0.9,0.3-1.4,0.4c-0.5,0.1-1,0.2-1.5,0.4c0,0,0,0,0,0c0,0-0.1,0-0.1,0l0,0c0,0-0.1,0-0.1,0l0,0.1c0,0,0,0,0.1,0l0,0.3
			l0.2,1.5l0.2-1l0.3,0.9l-0.2-1.1l0.1-0.4c0.4,0.3,0.8,0.8,0.9,1.4c0.1,1.1-0.6,1.9-1.4,2.2l0-0.1l0.2-1.8l-0.2-1.3l-0.1,2.7
			l-0.6-3.4l0,0c0,0,0,0,0,0l0,0l-0.1,0c-0.2,0-0.5,0-0.7,0c8.1-1.8,14.9-6.2,19-12.5c4.6-7.1,5.6-15.4,2.7-22.8
			c-2.8-7.1-9-12.3-16.8-14.2c-1.9-0.4-3.9-0.7-5.9-0.7c-5.3,0-10.5,1.5-14.9,4.3c-3.7,2.2-5.3,6.2-4.2,10.4
			c1.2,4.3,4.8,7.3,8.8,7.3c1.7,0,3.3-0.5,4.9-1.5c1.5-0.9,2.5-1.4,3.7-1.5l0.1,0l0.1,0c0.4-0.1,0.7-0.1,1.1-0.1
			c0.7,0,1.3,0.1,2.2,0.3l0.1,0l0.1,0c0.5,0.1,0.7,0.2,0.7,0.2c0.1,0.1,0.2,0.1,0.5,0.2c1.3,0.7,2,1.4,2.3,2.4
			c0.4,1.5-0.2,3.6-1.8,6.2l0,0c0,0-0.1,0.1-0.1,0.1c-0.1,0.1-0.2,0.2-0.2,0.2c-0.3,0.2-0.6,0.4-0.8,0.6c-0.4,0.4-0.7,0.6-1.2,0.8
			l0,0l0,0c-2,1.1-4.7,1.7-8.1,1.8C270,223.7,269.7,223.7,269.3,223.7L269.3,223.7z"/>
	</g>
	<g>
		<path class="st0" d="M377.7,357.4c-1.6,0-3.3-0.1-4.9-0.2c-21.9-2-34.4-16.6-37.1-30.2c-3.2-16.3,6.3-33.3,22.2-39.6
			c4.3-1.7,9.1-2.6,13.9-2.6c13,0,27.6,6.8,30.9,22.1c1.5,6.6,0.2,12.7-3.8,17.6c-4.5,5.7-12.1,9.1-20.1,9.1c-5,0-9.7-1.3-13.7-3.9
			c-3.3-2.1-4.7-5.7-3.6-9.4c1.1-3.8,4.3-6.5,7.9-6.5c1.5,0,3,0.5,4.5,1.4c1.9,1.2,3.8,1.8,5.6,1.8c0.3,0,0.6,0,0.9-0.1
			c2.5-0.3,3.2-0.5,4.7-2.1c2.1-2.2,1.2-4.8-0.6-8c-0.2-0.2-0.3-0.4-0.5-0.7c-0.5-0.6-0.6-0.7-0.6-0.7c-0.3-0.2-0.5-0.4-0.8-0.6
			c-0.7-0.6-1.3-1.1-2.3-1.4c-2.4-1-5.2-1.6-8.2-1.6c-3.7,0-7.3,0.9-10,2.4c-3.1,1.7-7.3,5.5-9.1,10.3c-2.2,6-0.6,12.8,4.3,18.2
			c4.6,5.1,12,8,20.3,8c5.7,0,11.3-1.4,15.8-4c6.9-4,11-10.1,12.9-19.3c0.1-0.4,0.1-0.7,0.2-1l0-0.1c-0.3-1.2-0.3-2.6-0.4-3.9
			c-0.1-1.2-0.1-2.5-0.3-3.7c-0.9-4.6-2.9-11-7.2-15.8c-5.3-5.9-9.4-7.2-17-9.2c-0.1,0-0.2,0-0.4,0c-0.6,0-1.2,0-1.9,0
			c-0.6,0-1.3,0-1.9,0c-0.6,0-1.3,0-1.9,0H40.4c-5.4,0-8.3-4.3-8.3-8.5s2.8-8.5,8.3-8.5h296.4c5,0,10.1-0.1,15-0.2
			c5-0.1,10.1-0.2,15.1-0.2c5.6,0,10.6,0.1,15,0.4c6.4,0.4,13.5,2.8,19.6,6.8c12.6,8.1,20.3,22.2,21.7,39.9
			c0.6,7.6-2.1,16.8-7.3,24.6C407.8,350.3,393.8,357.4,377.7,357.4C377.7,357.4,377.7,357.4,377.7,357.4z"/>
		<path class="st0" d="M366.9,267.2c5,0,10,0.1,15,0.4c6.6,0.4,13.5,3,19.1,6.6c13.6,8.7,20,23.4,21.2,39.1c0.7,8.2-2.6,17.2-7.1,24
			c-8.4,12.8-22.5,19.1-37.4,19.1c-1.6,0-3.2-0.1-4.9-0.2c-16.7-1.5-32.8-12.1-36.2-29.4c-3.2-16.1,6.5-32.5,21.6-38.5
			c4.2-1.7,8.9-2.6,13.5-2.6c13.4,0,26.8,7.2,30,21.3c3.4,15.4-9.5,25.4-22.9,25.4c-4.6,0-9.2-1.2-13.2-3.7c-6.9-4.3-2.7-14,3.7-14
			c1.2,0,2.6,0.4,3.9,1.2c1.8,1.1,4,2,6.2,2c0.3,0,0.7,0,1-0.1c2.7-0.3,3.6-0.6,5.3-2.4c2.7-2.9,1.2-6.3-0.5-9.2
			c-0.2-0.2-0.3-0.5-0.5-0.7c-0.2-0.3-0.6-0.7-0.8-0.9c-1.1-0.8-1.9-1.6-3.3-2.2c-2.5-1.1-5.5-1.7-8.6-1.7c-3.8,0-7.5,0.9-10.5,2.6
			c-3.5,2-7.7,6-9.5,10.8c-2.5,6.8-0.2,14,4.5,19.2c5.1,5.7,13.1,8.3,21,8.3c5.8,0,11.6-1.4,16.3-4.1c8-4.6,11.7-11.8,13.4-20
			c0.1-0.5,0.2-0.9,0.3-1.3c-0.5-2.4-0.3-5.2-0.8-7.8c-1.2-5.9-3.5-11.9-7.4-16.3c-5.5-6.2-10-7.6-17.6-9.5c-0.1,0-0.3,0-0.5,0
			c-0.6,0-1.3,0-1.9,0c-1.3,0-2.5,0-3.8,0c-7.9,0-15.7,0-23.5,0c-41.2,0-82.4,0-123.6,0c-28.4,0-56.9,0-85.3,0
			c-34.2,0-68.5,0-102.7,0c-9.7,0-9.7-15,0-15c0.9,0,1.8,0,2.7,0c44.4,0,88.9,0,133.3,0c27.4,0,54.7,0,82.1,0c26.1,0,52.2,0,78.3,0
			C346.8,267.6,356.9,267.2,366.9,267.2 M382.2,282.7c0.1,0,0,0-0.4,0C382,282.7,382.2,282.7,382.2,282.7 M366.9,265.2
			c-5,0-10.2,0.1-15.1,0.2c-4.9,0.1-10,0.2-15,0.2h-78.3h-82.1H43.1h-2.7c-6.1,0-9.3,4.8-9.3,9.5s3.2,9.5,9.3,9.5h102.7h85.3H352
			h11.5c-2.1,0.4-4.1,1.1-6,1.8c-16.3,6.5-26.1,24-22.8,40.7c1.7,8.6,6.5,16.2,13.9,21.8c6.7,5.1,15.3,8.4,24.1,9.2
			c1.7,0.2,3.4,0.2,5,0.2c16.5,0,30.8-7.3,39.1-20c5.3-8,8.1-17.5,7.4-25.3c-1.4-17.9-9.2-32.4-22.1-40.6c-6.2-4-13.5-6.5-20.1-6.9
			C377.5,265.4,372.6,265.2,366.9,265.2L366.9,265.2z M380.1,284.6c0.4,0,0.8,0,1.1,0c0.1,0,0.1,0,0.2,0c7.3,1.9,11.3,3.2,16.4,8.8
			c4.1,4.6,6,10.9,6.9,15.4c0.2,1.1,0.3,2.2,0.3,3.5c0.1,1.3,0.1,2.6,0.4,3.9c0,0.3-0.1,0.5-0.1,0.7l0,0.1l0,0.1
			c-1.8,8.9-5.8,14.9-12.4,18.7c-4.3,2.5-9.7,3.9-15.3,3.9c-8,0-15.1-2.8-19.5-7.7c-4.6-5.1-6.2-11.5-4.1-17.2
			c1.7-4.5,5.7-8.1,8.6-9.8c2.6-1.5,6-2.3,9.5-2.3c2.8,0,5.5,0.5,7.8,1.5c0.8,0.3,1.4,0.8,2.1,1.3c0.3,0.2,0.5,0.4,0.8,0.6
			c0,0,0.2,0.2,0.4,0.5c0.2,0.2,0.3,0.5,0.4,0.6c2,3.4,2.1,5.2,0.7,6.7c-1.3,1.3-1.6,1.5-4.1,1.8c-0.3,0-0.5,0-0.8,0
			c-1.6,0-3.4-0.6-5.1-1.7c-1.6-1-3.3-1.5-5-1.5c-4,0-7.6,3-8.8,7.2c-1.2,4.2,0.4,8.2,4.1,10.5c4.2,2.6,9.1,4,14.3,4
			c8.3,0,16.1-3.5,20.9-9.4c4.1-5.2,5.5-11.5,4-18.4C400.9,294,390.8,287,380.1,284.6L380.1,284.6z"/>
	</g>
</g>
</svg>
