<?xml version="1.0" encoding="utf-8"?>
<!-- Generator: Adobe Illustrator 21.0.2, SVG Export Plug-In . SVG Version: 6.00 Build 0)  -->
<svg version="1.1" id="Layer_1" xmlns="http://www.w3.org/2000/svg" xmlns:xlink="http://www.w3.org/1999/xlink" x="0px" y="0px"
	 viewBox="0 0 425 425" style="enable-background:new 0 0 425 425;" xml:space="preserve">
<style type="text/css">
	.st0{fill:#FFFFFF;}
</style>
<g>
	<g>
		<path class="st0" d="M16.4,202.6c13.3,0,26.6,0,39.8,0c31.9,0,63.8,0,95.7,0c38.6,0,77.2,0,115.8,0c33.4,0,66.7,0,100.1,0
			c16.2,0,32.5,0.7,48.7,0c0.2,0,0.5,0,0.7,0c9.7,0,9.7-15,0-15c-13.3,0-26.6,0-39.8,0c-31.9,0-63.8,0-95.7,0
			c-38.6,0-77.2,0-115.8,0c-33.4,0-66.7,0-100.1,0c-16.2,0-32.5-0.7-48.7,0c-0.2,0-0.5,0-0.7,0C6.8,187.6,6.7,202.6,16.4,202.6
			L16.4,202.6z"/>
	</g>
</g>
<g>
	<g>
		<path class="st0" d="M14.9,237.6c13.3,0,26.6,0,39.8,0c31.9,0,63.8,0,95.7,0c38.6,0,77.2,0,115.8,0c33.4,0,66.7,0,100.1,0
			c16.2,0,32.5,0.7,48.7,0c0.2,0,0.5,0,0.7,0c9.7,0,9.7-15,0-15c-13.3,0-26.6,0-39.8,0c-31.9,0-63.8,0-95.7,0
			c-38.6,0-77.2,0-115.8,0c-33.4,0-66.7,0-100.1,0c-16.2,0-32.5-0.7-48.7,0c-0.2,0-0.5,0-0.7,0C5.2,222.6,5.2,237.6,14.9,237.6
			L14.9,237.6z"/>
	</g>
</g>
<g>
	<g>
		<path class="st0" d="M16.4,267.9c13.3,0,26.6,0,39.8,0c31.9,0,63.8,0,95.7,0c38.6,0,77.2,0,115.8,0c33.4,0,66.7,0,100.1,0
			c16.2,0,32.5,0.7,48.7,0c0.2,0,0.5,0,0.7,0c9.7,0,9.7-15,0-15c-13.3,0-26.6,0-39.8,0c-31.9,0-63.8,0-95.7,0
			c-38.6,0-77.2,0-115.8,0c-33.4,0-66.7,0-100.1,0c-16.2,0-32.5-0.7-48.7,0c-0.2,0-0.5,0-0.7,0C6.8,252.9,6.7,267.9,16.4,267.9
			L16.4,267.9z"/>
	</g>
</g>
<g>
	<g>
		<path class="st0" d="M14.9,171.4c13.3,0,26.6,0,39.8,0c31.9,0,63.8,0,95.7,0c38.6,0,77.2,0,115.8,0c33.4,0,66.7,0,100.1,0
			c16.2,0,32.5,0.7,48.7,0c0.2,0,0.5,0,0.7,0c9.7,0,9.7-15,0-15c-13.3,0-26.6,0-39.8,0c-31.9,0-63.8,0-95.7,0
			c-38.6,0-77.2,0-115.8,0c-33.4,0-66.7,0-100.1,0c-16.2,0-32.5-0.7-48.7,0c-0.2,0-0.5,0-0.7,0C5.2,156.4,5.2,171.4,14.9,171.4
			L14.9,171.4z"/>
	</g>
</g>
</svg>
