<?xml version="1.0" encoding="utf-8"?>
<!-- Generator: Adobe Illustrator 21.0.2, SVG Export Plug-In . SVG Version: 6.00 Build 0)  -->
<svg version="1.1" id="Layer_1" xmlns="http://www.w3.org/2000/svg" xmlns:xlink="http://www.w3.org/1999/xlink" x="0px" y="0px"
	 viewBox="0 0 425 425" style="enable-background:new 0 0 425 425;" xml:space="preserve">
<style type="text/css">
	.st0{fill:#FFFFFF;}
</style>
<g>
	<g>
		<g>
			<path class="st0" d="M400.3,203.9c-5.4,0-10.9-0.1-16.3-0.2c-5.3-0.1-10.8-0.2-16.2-0.2H16.4c-5.4,0-8.2-4.3-8.2-8.5
				c0-4.2,2.8-8.5,8.2-8.5h0.7c4.8-0.2,10.1-0.3,16.2-0.3c5.4,0,10.9,0.1,16.3,0.2c5.3,0.1,10.8,0.2,16.2,0.2h351.4
				c5.4,0,8.3,4.3,8.3,8.5s-2.8,8.5-8.3,8.5h-0.7C411.7,203.8,406.4,203.9,400.3,203.9z"/>
			<path class="st0" d="M33.3,187.3c10.8,0,21.7,0.3,32.5,0.3c33.4,0,66.7,0,100.1,0c38.6,0,77.2,0,115.8,0c31.9,0,63.8,0,95.7,0
				c13.2,0,26.5,0,39.8,0c9.7,0,9.7,15,0,15c-0.2,0-0.5,0-0.7,0c-5.4,0.2-10.8,0.3-16.2,0.3c-10.8,0-21.7-0.3-32.5-0.3
				c-33.4,0-66.7,0-100.1,0c-38.6,0-77.2,0-115.8,0c-31.9,0-63.8,0-95.7,0c-13.2,0-26.5,0-39.8,0c-9.7,0-9.6-15,0-15
				c0.2,0,0.5,0,0.7,0C22.5,187.4,27.9,187.3,33.3,187.3 M33.3,185.3c-6.1,0-11.4,0.1-16.3,0.3h-0.7c-6.1,0-9.2,4.8-9.2,9.5
				c0,4.7,3.2,9.5,9.2,9.5h39.8h95.7h115.8h100.1c5.4,0,10.9,0.1,16.2,0.2c5.3,0.1,10.9,0.2,16.3,0.2c6.1,0,11.4-0.1,16.3-0.3h0.7
				c6.1,0,9.3-4.8,9.3-9.5s-3.2-9.5-9.3-9.5h-39.8h-95.7H165.9H65.8c-5.4,0-10.9-0.1-16.2-0.2C44.3,185.4,38.8,185.3,33.3,185.3
				L33.3,185.3z"/>
		</g>
	</g>
</g>
<g>
	<g>
		<g>
			<path class="st0" d="M398.8,238.9c-5.4,0-10.9-0.1-16.3-0.2c-5.3-0.1-10.8-0.2-16.2-0.2H14.9c-5.4,0-8.3-4.3-8.3-8.5
				s2.8-8.5,8.3-8.5h0.7c4.8-0.2,10.1-0.3,16.2-0.3c5.4,0,10.9,0.1,16.3,0.2c5.3,0.1,10.8,0.2,16.2,0.2h351.4c5.4,0,8.3,4.3,8.3,8.5
				s-2.8,8.5-8.3,8.5H415C410.2,238.8,404.9,238.9,398.8,238.9z"/>
			<path class="st0" d="M31.8,222.3c10.8,0,21.7,0.3,32.5,0.3c33.4,0,66.7,0,100.1,0c38.6,0,77.2,0,115.8,0c31.9,0,63.8,0,95.7,0
				c13.2,0,26.5,0,39.8,0c9.7,0,9.7,15,0,15c-0.2,0-0.5,0-0.7,0c-5.4,0.2-10.8,0.3-16.2,0.3c-10.8,0-21.7-0.3-32.5-0.3
				c-33.4,0-66.7,0-100.1,0c-38.6,0-77.2,0-115.8,0c-31.9,0-63.8,0-95.7,0c-13.2,0-26.5,0-39.8,0c-9.7,0-9.7-15,0-15
				c0.2,0,0.5,0,0.7,0C21,222.4,26.4,222.3,31.8,222.3 M31.8,220.3c-6.1,0-11.4,0.1-16.3,0.3h-0.7c-6.1,0-9.3,4.8-9.3,9.5
				c0,4.7,3.2,9.5,9.3,9.5h39.8h95.7h115.8h100.1c5.4,0,10.9,0.1,16.2,0.2c5.3,0.1,10.9,0.2,16.3,0.2c6.1,0,11.4-0.1,16.3-0.3h0.7
				c6.1,0,9.3-4.8,9.3-9.5s-3.2-9.5-9.3-9.5h-39.8h-95.7H164.4H64.3c-5.4,0-10.9-0.1-16.2-0.2C42.8,220.4,37.3,220.3,31.8,220.3
				L31.8,220.3z"/>
		</g>
	</g>
</g>
<g>
	<g>
		<g>
			<path class="st0" d="M400.3,269.2c-5.4,0-10.9-0.1-16.3-0.2c-5.3-0.1-10.8-0.2-16.2-0.2H16.4c-5.4,0-8.2-4.3-8.2-8.5
				c0-4.2,2.8-8.5,8.2-8.5h0.7c4.8-0.2,10.1-0.3,16.2-0.3c5.4,0,10.9,0.1,16.3,0.2c5.3,0.1,10.8,0.2,16.2,0.2h351.4
				c5.4,0,8.3,4.3,8.3,8.5s-2.8,8.5-8.3,8.5h-0.7C411.7,269.1,406.4,269.2,400.3,269.2z"/>
			<path class="st0" d="M33.3,252.6c10.8,0,21.7,0.3,32.5,0.3c33.4,0,66.7,0,100.1,0c38.6,0,77.2,0,115.8,0c31.9,0,63.8,0,95.7,0
				c13.2,0,26.5,0,39.8,0c9.7,0,9.7,15,0,15c-0.2,0-0.5,0-0.7,0c-5.4,0.2-10.8,0.3-16.2,0.3c-10.8,0-21.7-0.3-32.5-0.3
				c-33.4,0-66.7,0-100.1,0c-38.6,0-77.2,0-115.8,0c-31.9,0-63.8,0-95.7,0c-13.2,0-26.5,0-39.8,0c-9.7,0-9.6-15,0-15
				c0.2,0,0.5,0,0.7,0C22.5,252.7,27.9,252.6,33.3,252.6 M33.3,250.6c-6.1,0-11.4,0.1-16.3,0.3h-0.7c-6.1,0-9.2,4.8-9.2,9.5
				c0,4.7,3.2,9.5,9.2,9.5h39.8h95.7h115.8h100.1c5.4,0,10.9,0.1,16.2,0.2c5.3,0.1,10.9,0.2,16.3,0.2c6.1,0,11.4-0.1,16.3-0.3h0.7
				c6.1,0,9.3-4.8,9.3-9.5s-3.2-9.5-9.3-9.5h-39.8h-95.7H165.9H65.8c-5.4,0-10.9-0.1-16.2-0.2C44.3,250.7,38.8,250.6,33.3,250.6
				L33.3,250.6z"/>
		</g>
	</g>
</g>
<g>
	<g>
		<g>
			<path class="st0" d="M398.8,172.7c-5.4,0-10.9-0.1-16.3-0.2c-5.3-0.1-10.8-0.2-16.2-0.2H14.9c-5.4,0-8.3-4.3-8.3-8.5
				s2.8-8.5,8.3-8.5h0.7c4.8-0.2,10.1-0.3,16.2-0.3c5.4,0,10.9,0.1,16.3,0.2c5.3,0.1,10.8,0.2,16.2,0.2h351.4c5.4,0,8.3,4.3,8.3,8.5
				s-2.8,8.5-8.3,8.5H415C410.2,172.6,404.9,172.7,398.8,172.7z"/>
			<path class="st0" d="M31.8,156.1c10.8,0,21.7,0.3,32.5,0.3c33.4,0,66.7,0,100.1,0c38.6,0,77.2,0,115.8,0c31.9,0,63.8,0,95.7,0
				c13.2,0,26.5,0,39.8,0c9.7,0,9.7,15,0,15c-0.2,0-0.5,0-0.7,0c-5.4,0.2-10.8,0.3-16.2,0.3c-10.8,0-21.7-0.3-32.5-0.3
				c-33.4,0-66.7,0-100.1,0c-38.6,0-77.2,0-115.8,0c-31.9,0-63.8,0-95.7,0c-13.2,0-26.5,0-39.8,0c-9.7,0-9.7-15,0-15
				c0.2,0,0.5,0,0.7,0C21,156.2,26.4,156.1,31.8,156.1 M31.8,154.1c-6.1,0-11.4,0.1-16.3,0.3h-0.7c-6.1,0-9.3,4.8-9.3,9.5
				s3.2,9.5,9.3,9.5h39.8h95.7h115.8h100.1c5.4,0,10.9,0.1,16.2,0.2c5.3,0.1,10.9,0.2,16.3,0.2c6.1,0,11.4-0.1,16.3-0.3h0.7
				c6.1,0,9.3-4.8,9.3-9.5c0-4.7-3.2-9.5-9.3-9.5h-39.8h-95.7H164.4H64.3c-5.4,0-10.9-0.1-16.2-0.2
				C42.8,154.2,37.3,154.1,31.8,154.1L31.8,154.1z"/>
		</g>
	</g>
</g>
</svg>
