<?xml version="1.0" encoding="utf-8"?>
<!-- Generator: Adobe Illustrator 21.0.2, SVG Export Plug-In . SVG Version: 6.00 Build 0)  -->
<svg version="1.1" id="Layer_1" xmlns="http://www.w3.org/2000/svg" xmlns:xlink="http://www.w3.org/1999/xlink" x="0px" y="0px"
	 viewBox="0 0 425 425" style="enable-background:new 0 0 425 425;" xml:space="preserve">
<style type="text/css">
	.st0{fill:#FFFFFF;}
</style>
<g>
	<g>
		<g>
			<path class="st0" d="M286.9,199.1c-0.8,0-1.6,0-2.5-0.1c-10.8-0.6-20.9-4.2-29.1-10.4c-6.9-5.2-11.7-11.8-15.9-18.1
				c-0.2-0.2-0.3-0.4-0.3-0.5l-0.1-0.1c-0.2-0.2-0.3-0.4-0.4-0.5c-0.2-0.2-0.3-0.4-0.5-0.6c-0.8-1-1.8-2-2.8-3
				c-2.5-2.4-5-4.2-7.7-5.7c-4.9-2.7-10.4-4.2-16-4.2c-3.2,0-6.4,0.5-9.4,1.4c-6,1.8-11.8,5.6-16.5,10.9c-1.2,1.5-1.7,2.1-2,2.4
				l-0.3,0.4c-0.9,1.4-1.9,2.6-2.8,3.7c-10.6,12.9-26.3,20.8-41.9,21.1l-0.6,0c-15.7,0-31.2-7.3-41.6-19.7c-10-11.8-21.1-18-33-18.2
				c-0.3,0-0.5,0-0.8,0c-17.7,0-34.1,12.3-40.9,30.6c-1.4,3.6-4.5,5.8-8.4,5.8c0,0,0,0,0,0c-3,0-5.8-1.4-7.3-3.5
				c-1.3-1.9-1.5-4.4-0.6-6.9c9.3-24.7,30-41.1,54-42.7c1.1-0.1,2.3-0.1,3.4-0.1c16.6,0,33.6,8.6,45.5,23c7.9,9.5,18.7,15,29.7,15
				c2.6,0,5.1-0.3,7.6-0.9c7-1.7,13.6-5.5,19.2-11.1c0.8-0.7,1.5-1.5,2.2-2.3c0.3-0.3,0.5-0.6,0.8-0.9c0.1-0.1,0.3-0.4,0.4-0.6
				c0.2-0.2,0.5-0.6,0.5-0.6l0,0c0.1-0.2,0.3-0.4,0.4-0.6c0.3-0.4,0.6-0.8,0.9-1.2c10.2-13.6,25.7-21.8,41.5-21.8
				c0.9,0,1.8,0,2.7,0.1c16,0.9,31.5,10,40.6,23.8c5.7,8.6,11.5,13.8,18.8,16.7c4.3,1.7,8.9,2.6,13.5,2.6c4.9,0,9.5-1,13.7-2.9
				c3.5-1.5,6.9-3.7,10-6.5c1.2-1,2.3-2.1,3.6-3.5c1-1.3,1.5-1.9,1.9-2.3c0.7-0.9,1.3-1.7,2-2.6c1.5-2.1,3.1-4.2,5.1-6.1
				c11.4-11,26.4-17.3,41.2-17.3c4.5,0,9,0.6,13.4,1.8c16.4,4.4,32.6,17.8,42.1,34.9c1.5,2.7,1.5,5.6,0,8.2
				c-1.6,2.7-4.8,4.6-7.9,4.6c-2.9,0-5.3-1.5-6.8-4.2c-11.8-20.8-29.8-28.2-41.6-28.2c-1.1,0-2.2,0-3.2,0.1
				c-8.3,0.7-16.6,4.6-23.6,10.8c-1.3,1.2-2.6,2.4-3.7,3.6c-0.1,0.2-0.3,0.4-0.4,0.6c-0.2,0.2-0.4,0.5-0.5,0.7
				c-0.6,0.9-1.3,1.8-2,2.7C319.3,190.6,303.1,199.1,286.9,199.1z"/>
			<path class="st0" d="M211.4,139.7c0.9,0,1.8,0,2.6,0.1c16,0.9,31,10,39.8,23.4c4.9,7.5,10.7,13.7,19.3,17.1
				c4.4,1.8,9.1,2.7,13.8,2.7c4.9,0,9.7-1,14.2-3c3.8-1.6,7.3-4,10.3-6.7c1.3-1.1,2.5-2.3,3.7-3.6c0.3-0.3,1.8-2.2,1.9-2.2
				c0,0,0,0.1-0.2,0.2c0,0,0,0,0,0c0,0,0,0,0,0c2.4-3,4.4-6.2,7.2-8.9c10.9-10.5,25.5-17,40.5-17c4.4,0,8.8,0.6,13.1,1.7
				c17.5,4.7,32.8,18.8,41.5,34.4c3.2,5.9-2,11.3-7,11.3c-2.3,0-4.5-1.1-6-3.7c-8.6-15.2-24.4-28.8-42.5-28.8
				c-1.1,0-2.2,0.1-3.3,0.2c-8.9,0.8-17.5,5.1-24.2,11.1c-1.7,1.5-3.4,3.2-4.9,5c0.8-0.9,1-1.2,1-1.2c0,0-0.6,0.8-0.9,1.3
				c-0.6,0.9-1.3,1.8-2,2.7c-10.1,13.3-25.5,22.3-42.4,22.3c-0.8,0-1.6,0-2.4-0.1c-10.3-0.6-20.3-4-28.6-10.2
				c-6.6-5-11.1-11.1-15.7-17.9c-0.2-0.3-0.3-0.4-0.3-0.5c0.1,0.2,0.2,0.2,0.2,0.2c0,0-0.2-0.3-0.2-0.3c0,0,0,0,0.1,0.1
				c0-0.1-0.1-0.1-0.2-0.2c-0.3-0.4-0.6-0.7-0.9-1.1c-0.9-1.1-1.9-2.1-2.9-3.1c-2.4-2.3-5-4.3-7.9-5.9c-5.1-2.9-10.8-4.3-16.5-4.3
				c-3.3,0-6.5,0.5-9.7,1.4c-6.6,2-12.4,6.1-17,11.2c-0.3,0.4-1.9,2.3-1.9,2.3c0,0,0.1-0.2,0.4-0.6c-0.3,0.4-0.6,0.8-0.9,1.2
				c-0.9,1.3-1.8,2.5-2.8,3.7c-10.1,12.3-25.2,20.4-41.2,20.7c-0.2,0-0.4,0-0.6,0c-15.5,0-30.8-7.5-40.8-19.3
				c-8.6-10.2-19.8-18.3-33.7-18.6c-0.3,0-0.5,0-0.8,0c-19,0-35.4,13.8-41.9,31.2c-1.3,3.6-4.4,5.1-7.4,5.1c-4.6,0-9.1-3.6-7-9.1
				c8.6-22.8,28.2-40.4,53.1-42.1c1.1-0.1,2.2-0.1,3.4-0.1c17.4,0,33.7,9.4,44.7,22.6c7.6,9.2,18.7,15.3,30.4,15.3
				c2.6,0,5.2-0.3,7.9-0.9c7.5-1.8,14.2-5.9,19.7-11.4c1.1-1,2-2.1,3-3.2c0.3-0.4,0.7-0.9,1-1.3c-0.6,0.8-0.8,1.1-0.8,1.1
				c0,0,0.2-0.2,0.4-0.5c0.6-0.8,1.1-1.6,1.7-2.4C180.3,148.3,195.3,139.7,211.4,139.7 M211.4,137.7
				C211.4,137.7,211.4,137.7,211.4,137.7c-16.1,0-31.9,8.3-42.3,22.2c-0.3,0.4-0.6,0.8-0.9,1.3c-0.1,0.2-0.3,0.4-0.4,0.5l0,0
				c-0.1,0.2-0.3,0.4-0.5,0.6c-0.2,0.2-0.3,0.4-0.5,0.6c-0.2,0.3-0.5,0.5-0.7,0.8c-0.7,0.8-1.4,1.5-2.1,2.2l0,0l0,0
				c-5.5,5.5-12,9.2-18.8,10.9c-2.4,0.6-4.9,0.9-7.4,0.9c-10.7,0-21.2-5.3-28.9-14.6c-12.1-14.6-29.4-23.3-46.3-23.3
				c-1.2,0-2.3,0-3.5,0.1c-24.4,1.7-45.4,18.3-54.8,43.4c-1.1,2.8-0.8,5.6,0.7,7.8c1.7,2.5,4.8,4,8.1,4c4.3,0,7.8-2.5,9.3-6.4
				c3.1-8.4,8.7-15.9,15.6-21.3c7.3-5.7,15.8-8.6,24.4-8.6c0.3,0,0.5,0,0.8,0c11.6,0.2,22.4,6.3,32.2,17.9
				c10.5,12.5,26.4,20,42.3,20c0.2,0,0.4,0,0.6,0c16-0.3,31.9-8.3,42.7-21.4c1-1.2,1.9-2.4,2.9-3.8l0.3-0.3c0.4-0.4,1-1.2,2-2.4
				c4.7-5.2,10.2-8.8,16.1-10.6c3-0.9,6.1-1.3,9.1-1.3c5.4,0,10.8,1.4,15.5,4.1c2.6,1.4,5.1,3.3,7.5,5.6c1,1,1.9,1.9,2.7,2.9
				c0.2,0.2,0.3,0.4,0.5,0.6c0.1,0.1,0.2,0.3,0.4,0.4l0,0l0,0l0.1,0.1c0.1,0.1,0.2,0.3,0.3,0.5c4.3,6.4,9.1,13,16.1,18.4
				c8.4,6.3,18.7,10,29.7,10.6c0.8,0,1.7,0.1,2.5,0.1c16.5,0,33-8.6,44-23c0.7-0.9,1.4-1.8,2.1-2.8c0.1-0.2,0.3-0.4,0.5-0.7
				c0.2-0.2,0.3-0.4,0.4-0.6c1.1-1.2,2.3-2.3,3.5-3.5c6.8-6.1,15-9.9,23.1-10.6c1-0.1,2.1-0.1,3.1-0.1c11.6,0,29.2,7.3,40.7,27.7
				c1.7,3,4.5,4.7,7.7,4.7c3.5,0,7-2,8.8-5.1c1.7-2.8,1.7-6.2,0-9.2c-9.7-17.3-26-30.9-42.7-35.4c-4.4-1.2-9-1.8-13.6-1.8
				c-15,0-30.3,6.4-41.9,17.6c-2,2-3.6,4.1-5.2,6.2c-0.6,0.8-1.2,1.7-1.9,2.5c-0.5,0.4-1.1,1.1-2,2.3c-1.3,1.4-2.4,2.4-3.5,3.4l0,0
				l0,0c-3.1,2.8-6.4,5-9.7,6.3l0,0l0,0c-4.1,1.9-8.6,2.8-13.3,2.8c-4.4,0-9-0.9-13.1-2.6c-7.2-2.8-12.8-7.9-18.4-16.3
				c-9.2-14.1-25.1-23.4-41.4-24.3C213.2,137.7,212.3,137.7,211.4,137.7L211.4,137.7L211.4,137.7z"/>
		</g>
	</g>
</g>
<g>
	<g>
		<g>
			<path class="st0" d="M286.9,239.1c-0.8,0-1.6,0-2.4-0.1c-10.8-0.6-20.9-4.2-29.1-10.4c-6.9-5.2-11.7-11.8-15.9-18.1
				c-0.2-0.2-0.3-0.4-0.3-0.5l-0.1-0.1c-0.2-0.2-0.3-0.4-0.4-0.5c-0.2-0.2-0.3-0.4-0.5-0.6c-0.8-1-1.8-2-2.8-3
				c-2.5-2.4-5-4.2-7.7-5.7c-4.9-2.7-10.4-4.2-16-4.2c-3.2,0-6.4,0.5-9.4,1.4c-6,1.8-11.8,5.6-16.5,10.9c-1.2,1.5-1.7,2.1-2,2.4
				l-0.3,0.4c-0.9,1.4-1.9,2.6-2.8,3.7c-10.6,12.9-26.3,20.8-41.9,21.1l-0.6,0c-15.7,0-31.2-7.3-41.6-19.7c-10-11.8-21.1-18-33-18.2
				c-0.3,0-0.5,0-0.8,0c-17.7,0-34.1,12.3-40.9,30.6c-1.4,3.6-4.5,5.7-8.4,5.7c0,0,0,0,0,0c-3,0-5.9-1.4-7.4-3.6
				c-1.3-1.9-1.5-4.4-0.6-6.8c9.3-24.7,30-41.1,54-42.7c1.1-0.1,2.3-0.1,3.4-0.1c16.6,0,33.6,8.6,45.5,23c7.9,9.5,18.7,15,29.7,15
				c2.6,0,5.1-0.3,7.6-0.9c7-1.7,13.6-5.5,19.2-11.1c0.8-0.7,1.5-1.5,2.2-2.3c0.3-0.3,0.5-0.6,0.8-0.9c0.1-0.1,0.3-0.4,0.4-0.6
				c0.2-0.2,0.5-0.6,0.5-0.6l0,0c0.1-0.2,0.3-0.4,0.4-0.6c0.3-0.4,0.6-0.8,0.9-1.2c10.2-13.6,25.7-21.8,41.5-21.8
				c0.9,0,1.8,0,2.7,0.1c16,0.9,31.5,10,40.6,23.8c5.7,8.6,11.5,13.8,18.8,16.7c4.3,1.7,8.9,2.6,13.5,2.6c4.9,0,9.5-1,13.7-2.9
				c3.5-1.5,6.9-3.7,10-6.5c1.2-1,2.3-2.1,3.6-3.5c1-1.3,1.5-1.9,1.9-2.3c0.7-0.9,1.3-1.7,2-2.6c1.5-2.1,3.1-4.2,5.1-6.1
				c11.4-11,26.4-17.3,41.2-17.3c4.5,0,9,0.6,13.4,1.8c16.4,4.4,32.6,17.8,42.1,34.9c1.5,2.7,1.5,5.6,0,8.2
				c-1.6,2.7-4.8,4.6-7.9,4.6c-2.9,0-5.3-1.5-6.8-4.2c-11.8-20.8-29.8-28.2-41.6-28.2c-1.1,0-2.2,0-3.2,0.1
				c-8.3,0.7-16.6,4.6-23.6,10.8c-1.3,1.2-2.6,2.4-3.7,3.6c-0.1,0.2-0.3,0.4-0.4,0.6c-0.2,0.2-0.4,0.5-0.5,0.7
				c-0.6,0.9-1.3,1.8-2,2.7C319.3,230.6,303.1,239.1,286.9,239.1z"/>
			<path class="st0" d="M211.4,179.7c0.9,0,1.8,0,2.6,0.1c16,0.9,31,10,39.8,23.4c4.9,7.5,10.7,13.7,19.3,17.1
				c4.4,1.8,9.1,2.7,13.8,2.7c4.9,0,9.7-1,14.2-3c3.8-1.6,7.3-4,10.3-6.7c1.3-1.1,2.5-2.3,3.7-3.6c0.3-0.3,1.8-2.2,1.9-2.2
				c0,0,0,0.1-0.2,0.2c0,0,0,0,0,0c0,0,0,0,0,0c2.4-3,4.4-6.2,7.2-8.9c10.9-10.5,25.5-17,40.5-17c4.4,0,8.8,0.6,13.1,1.7
				c17.5,4.7,32.8,18.8,41.5,34.4c3.2,5.9-2,11.3-7,11.3c-2.3,0-4.5-1.1-6-3.7c-8.6-15.2-24.4-28.8-42.5-28.8
				c-1.1,0-2.2,0.1-3.3,0.2c-8.9,0.8-17.5,5.1-24.2,11.1c-1.7,1.5-3.4,3.2-4.9,5c0.8-0.9,1-1.2,1-1.2c0,0-0.6,0.8-0.9,1.3
				c-0.6,0.9-1.3,1.8-2,2.7c-10.1,13.3-25.5,22.3-42.4,22.3c-0.8,0-1.6,0-2.4-0.1c-10.3-0.6-20.3-4-28.6-10.2
				c-6.6-5-11.1-11.1-15.7-17.9c-0.2-0.3-0.3-0.4-0.3-0.5c0.1,0.2,0.2,0.2,0.2,0.2c0,0-0.2-0.3-0.2-0.3c0,0,0,0,0.1,0.1
				c0-0.1-0.1-0.1-0.2-0.2c-0.3-0.4-0.6-0.7-0.9-1.1c-0.9-1.1-1.9-2.1-2.9-3.1c-2.4-2.3-5-4.3-7.9-5.9c-5.1-2.9-10.8-4.3-16.5-4.3
				c-3.3,0-6.5,0.5-9.7,1.4c-6.6,2-12.4,6.1-17,11.2c-0.3,0.4-1.9,2.3-1.9,2.3c0,0,0.1-0.2,0.4-0.6c-0.3,0.4-0.6,0.8-0.9,1.2
				c-0.9,1.3-1.8,2.5-2.8,3.7c-10.1,12.3-25.2,20.4-41.2,20.7c-0.2,0-0.4,0-0.6,0c-15.5,0-30.8-7.5-40.8-19.3
				c-8.6-10.2-19.8-18.3-33.7-18.6c-0.3,0-0.5,0-0.8,0c-19,0-35.4,13.8-41.9,31.2c-1.3,3.5-4.4,5-7.4,5c-4.6,0-9.1-3.6-7-9
				c8.6-22.8,28.2-40.4,53.1-42.1c1.1-0.1,2.2-0.1,3.4-0.1c17.4,0,33.7,9.4,44.7,22.6c7.6,9.2,18.7,15.3,30.4,15.3
				c2.6,0,5.2-0.3,7.9-0.9c7.5-1.8,14.2-5.9,19.7-11.4c1.1-1,2-2.1,3-3.2c0.3-0.4,0.7-0.9,1-1.3c-0.6,0.8-0.8,1.1-0.8,1.1
				c0,0,0.2-0.2,0.4-0.5c0.6-0.8,1.1-1.6,1.7-2.4C180.3,188.3,195.3,179.7,211.4,179.7 M211.4,177.7
				C211.4,177.7,211.4,177.7,211.4,177.7c-16.1,0-31.9,8.3-42.3,22.2c-0.3,0.4-0.6,0.8-0.9,1.3c-0.1,0.2-0.3,0.4-0.4,0.5l0,0
				c-0.1,0.2-0.3,0.4-0.5,0.6c-0.2,0.2-0.3,0.4-0.5,0.6c-0.2,0.3-0.5,0.5-0.7,0.8c-0.7,0.8-1.4,1.5-2.1,2.2l0,0l0,0
				c-5.5,5.5-12,9.2-18.8,10.9c-2.4,0.6-4.9,0.9-7.4,0.9c-10.7,0-21.2-5.3-28.9-14.6c-12.1-14.6-29.4-23.3-46.3-23.3
				c-1.2,0-2.3,0-3.5,0.1c-24.4,1.7-45.4,18.3-54.8,43.4c-1.1,2.8-0.8,5.5,0.7,7.7c1.7,2.5,4.8,4,8.2,4c4.2,0,7.8-2.4,9.3-6.3
				c3.1-8.4,8.7-15.9,15.6-21.3c7.3-5.7,15.8-8.6,24.4-8.6c0.3,0,0.5,0,0.8,0c11.6,0.2,22.4,6.3,32.2,17.9
				c10.5,12.5,26.4,20,42.3,20c0.2,0,0.4,0,0.6,0c16-0.3,31.9-8.3,42.7-21.4c1-1.2,1.9-2.4,2.9-3.8l0.3-0.3c0.4-0.4,1-1.2,2-2.4
				c4.7-5.2,10.2-8.8,16.1-10.6c3-0.9,6.1-1.3,9.1-1.3c5.4,0,10.8,1.4,15.5,4.1c2.6,1.4,5.1,3.3,7.5,5.6c1,1,1.9,1.9,2.7,2.9
				c0.2,0.2,0.3,0.4,0.5,0.6c0.1,0.1,0.2,0.3,0.4,0.4l0,0l0,0l0.1,0.1c0.1,0.1,0.2,0.3,0.3,0.5c4.3,6.4,9.1,13,16.1,18.4
				c8.4,6.3,18.7,10,29.7,10.6c0.8,0,1.7,0.1,2.5,0.1c16.5,0,33-8.6,44-23c0.7-0.9,1.4-1.8,2.1-2.8c0.1-0.2,0.3-0.4,0.5-0.7
				c0.2-0.2,0.3-0.4,0.4-0.6c1.1-1.2,2.3-2.3,3.5-3.5c6.8-6.1,15-9.9,23.1-10.6c1-0.1,2.1-0.1,3.1-0.1c11.6,0,29.2,7.3,40.7,27.7
				c1.7,3,4.5,4.7,7.7,4.7c3.5,0,7-2,8.8-5.1c1.7-2.8,1.7-6.2,0-9.2c-9.7-17.3-26-30.9-42.7-35.4c-4.4-1.2-9-1.8-13.6-1.8
				c-15,0-30.3,6.4-41.9,17.6c-2,2-3.6,4.1-5.2,6.2c-0.6,0.8-1.2,1.7-1.9,2.5c-0.5,0.4-1.1,1.1-2,2.3c-1.3,1.4-2.4,2.4-3.5,3.4l0,0
				l0,0c-3.1,2.8-6.4,5-9.7,6.3l0,0l0,0c-4.1,1.9-8.6,2.8-13.3,2.8c-4.4,0-9-0.9-13.1-2.6c-7.2-2.8-12.8-7.9-18.4-16.3
				c-9.2-14.1-25.1-23.4-41.4-24.3C213.2,177.7,212.3,177.7,211.4,177.7L211.4,177.7L211.4,177.7z"/>
		</g>
	</g>
</g>
<g>
	<g>
		<g>
			<path class="st0" d="M286.9,282.1c-0.8,0-1.6,0-2.4-0.1c-10.8-0.6-20.9-4.2-29.1-10.4c-6.9-5.2-11.7-11.8-15.9-18.1
				c-0.2-0.2-0.3-0.4-0.3-0.5l-0.1-0.1c-0.2-0.2-0.3-0.4-0.4-0.5c-0.2-0.2-0.3-0.4-0.5-0.6c-0.8-1-1.8-2-2.8-3
				c-2.5-2.4-5-4.2-7.7-5.7c-4.9-2.7-10.4-4.2-16-4.2c-3.2,0-6.4,0.5-9.4,1.4c-6,1.8-11.8,5.6-16.5,10.9c-1.2,1.5-1.7,2.1-2,2.4
				l-0.3,0.4c-0.9,1.4-1.9,2.6-2.8,3.7c-10.6,12.9-26.3,20.8-41.9,21.1l-0.6,0c-15.7,0-31.2-7.3-41.6-19.7c-10-11.8-21.1-18-33-18.2
				c-0.3,0-0.5,0-0.8,0c-17.7,0-34.1,12.3-40.9,30.6c-1.4,3.6-4.5,5.8-8.4,5.8c0,0,0,0,0,0c-3,0-5.8-1.4-7.3-3.5
				c-1.3-1.9-1.5-4.4-0.6-6.9c9.3-24.7,30-41.1,54-42.7c1.1-0.1,2.3-0.1,3.4-0.1c16.6,0,33.6,8.6,45.5,23c7.9,9.5,18.7,15,29.7,15
				c2.6,0,5.1-0.3,7.6-0.9c7-1.7,13.6-5.5,19.2-11.1c0.8-0.7,1.5-1.5,2.2-2.3c0.3-0.3,0.5-0.6,0.8-0.9c0.1-0.1,0.3-0.4,0.4-0.6
				c0.2-0.2,0.5-0.6,0.5-0.6l0,0c0.1-0.2,0.3-0.4,0.4-0.6c0.3-0.4,0.6-0.8,0.9-1.2c10.2-13.6,25.7-21.8,41.5-21.8
				c0.9,0,1.8,0,2.7,0.1c16,0.9,31.5,10,40.6,23.8c5.7,8.6,11.5,13.8,18.8,16.7c4.3,1.7,8.9,2.6,13.5,2.6c4.9,0,9.5-1,13.7-2.9
				c3.5-1.5,6.9-3.7,10-6.5c1.2-1,2.3-2.1,3.6-3.5c0.9-1.2,1.4-1.8,1.8-2.2c0.7-0.9,1.4-1.8,2-2.7c1.5-2.1,3.1-4.2,5.1-6.1
				c11.4-11,26.4-17.3,41.2-17.3c4.5,0,9,0.6,13.4,1.8c16.4,4.4,32.6,17.8,42.1,34.9c1.5,2.7,1.5,5.6,0,8.2
				c-1.6,2.7-4.8,4.6-7.9,4.6c-2.9,0-5.3-1.5-6.8-4.2c-11.8-20.8-29.8-28.2-41.6-28.2c-1.1,0-2.2,0-3.2,0.1
				c-8.3,0.7-16.6,4.6-23.6,10.8c-1.3,1.2-2.6,2.4-3.7,3.6c-0.1,0.2-0.3,0.4-0.4,0.6c-0.2,0.2-0.4,0.5-0.5,0.7
				c-0.6,0.9-1.3,1.8-2,2.7C319.3,273.6,303.1,282.1,286.9,282.1z"/>
			<path class="st0" d="M211.4,222.7c0.9,0,1.8,0,2.6,0.1c16,0.9,31,10,39.8,23.4c4.9,7.5,10.7,13.7,19.3,17.1
				c4.4,1.8,9.1,2.7,13.8,2.7c4.9,0,9.7-1,14.2-3c3.8-1.6,7.3-4,10.3-6.7c1.3-1.1,2.5-2.3,3.7-3.6c0.3-0.3,1.8-2.2,1.9-2.2
				c0,0,0,0.1-0.2,0.2c0,0,0,0,0,0c0,0,0,0,0,0c2.4-3,4.4-6.2,7.2-8.9c10.9-10.5,25.5-17,40.5-17c4.4,0,8.8,0.6,13.1,1.7
				c17.5,4.7,32.8,18.8,41.5,34.4c3.2,5.9-2,11.3-7,11.3c-2.3,0-4.5-1.1-6-3.7c-8.6-15.2-24.4-28.8-42.5-28.8
				c-1.1,0-2.2,0.1-3.3,0.2c-8.9,0.8-17.5,5.1-24.2,11.1c-1.7,1.5-3.4,3.2-4.9,5c0.8-0.9,1-1.2,1-1.2c0,0-0.6,0.8-0.9,1.3
				c-0.6,0.9-1.3,1.8-2,2.7c-10.1,13.3-25.5,22.3-42.4,22.3c-0.8,0-1.6,0-2.4-0.1c-10.3-0.6-20.3-4-28.6-10.2
				c-6.6-5-11.1-11.1-15.7-17.9c-0.2-0.3-0.3-0.4-0.3-0.5c0.1,0.2,0.2,0.2,0.2,0.2c0,0-0.2-0.3-0.2-0.3c0,0,0,0,0.1,0.1
				c0-0.1-0.1-0.1-0.2-0.2c-0.3-0.4-0.6-0.7-0.9-1.1c-0.9-1.1-1.9-2.1-2.9-3.1c-2.4-2.3-5-4.3-7.9-5.9c-5.1-2.9-10.8-4.3-16.5-4.3
				c-3.3,0-6.5,0.5-9.7,1.4c-6.6,2-12.4,6.1-17,11.2c-0.3,0.4-1.9,2.3-1.9,2.3c0,0,0.1-0.2,0.4-0.6c-0.3,0.4-0.6,0.8-0.9,1.2
				c-0.9,1.3-1.8,2.5-2.8,3.7c-10.1,12.3-25.2,20.4-41.2,20.7c-0.2,0-0.4,0-0.6,0c-15.5,0-30.8-7.5-40.8-19.3
				c-8.6-10.2-19.8-18.3-33.7-18.6c-0.3,0-0.5,0-0.8,0c-19,0-35.4,13.8-41.9,31.2c-1.3,3.6-4.4,5.1-7.4,5.1c-4.6,0-9.1-3.6-7-9.1
				c8.6-22.8,28.2-40.4,53.1-42.1c1.1-0.1,2.2-0.1,3.4-0.1c17.4,0,33.7,9.4,44.7,22.6c7.6,9.2,18.7,15.3,30.4,15.3
				c2.6,0,5.2-0.3,7.9-0.9c7.5-1.8,14.2-5.9,19.7-11.4c1.1-1,2-2.1,3-3.2c0.3-0.4,0.7-0.9,1-1.3c-0.6,0.8-0.8,1.1-0.8,1.1
				c0,0,0.2-0.2,0.4-0.4c0.6-0.8,1.1-1.6,1.7-2.4C180.3,231.3,195.3,222.7,211.4,222.7 M211.4,220.7
				C211.4,220.7,211.4,220.7,211.4,220.7c-16.1,0-31.9,8.3-42.3,22.2c-0.3,0.4-0.6,0.8-0.9,1.3c-0.1,0.2-0.3,0.4-0.4,0.5l0,0
				c-0.1,0.2-0.3,0.4-0.5,0.6c-0.2,0.2-0.3,0.4-0.5,0.6c-0.2,0.3-0.5,0.5-0.7,0.8c-0.7,0.8-1.4,1.5-2.1,2.2l0,0l0,0
				c-5.5,5.5-12,9.2-18.8,10.9c-2.4,0.6-4.9,0.9-7.4,0.9c-10.7,0-21.2-5.3-28.9-14.6c-12.1-14.6-29.4-23.3-46.3-23.3
				c-1.2,0-2.3,0-3.5,0.1c-24.4,1.7-45.4,18.3-54.8,43.4c-1.1,2.8-0.8,5.6,0.7,7.8c1.7,2.5,4.8,4,8.1,4c4.3,0,7.8-2.5,9.3-6.4
				c3.1-8.4,8.7-15.9,15.6-21.3c7.3-5.7,15.8-8.6,24.4-8.6c0.3,0,0.5,0,0.8,0c11.6,0.2,22.4,6.3,32.2,17.9
				c10.5,12.5,26.4,20,42.3,20c0.2,0,0.4,0,0.6,0c16-0.3,31.9-8.3,42.7-21.4c1-1.2,1.9-2.4,2.9-3.8l0.3-0.3c0.4-0.4,1-1.2,2-2.4
				c4.7-5.2,10.2-8.8,16.1-10.6c3-0.9,6.1-1.3,9.1-1.3c5.4,0,10.8,1.4,15.5,4.1c2.6,1.4,5.1,3.3,7.5,5.6c1,1,1.9,1.9,2.7,2.9
				c0.2,0.2,0.3,0.4,0.5,0.6c0.1,0.1,0.2,0.3,0.4,0.4l0,0l0,0l0.1,0.1c0.1,0.1,0.2,0.3,0.3,0.5c4.3,6.4,9.1,13,16.1,18.4
				c8.4,6.3,18.7,10,29.7,10.6c0.8,0,1.7,0.1,2.5,0.1c16.5,0,33-8.6,44-23c0.7-0.9,1.4-1.8,2.1-2.8c0.1-0.2,0.3-0.4,0.5-0.7
				c0.2-0.2,0.3-0.4,0.4-0.6c1.1-1.2,2.3-2.3,3.5-3.5c6.8-6.1,15-9.9,23.1-10.6c1-0.1,2.1-0.1,3.1-0.1c11.6,0,29.2,7.3,40.7,27.7
				c1.7,3,4.5,4.7,7.7,4.7c3.5,0,7-2,8.8-5.1c1.7-2.8,1.7-6.2,0-9.2c-9.7-17.3-26-30.9-42.7-35.4c-4.4-1.2-9-1.8-13.6-1.8
				c-15,0-30.3,6.4-41.9,17.6c-2,2-3.6,4.1-5.2,6.2c-0.6,0.8-1.2,1.7-1.9,2.5c-0.5,0.4-1.1,1.1-2,2.3c-1.3,1.4-2.4,2.4-3.5,3.4l0,0
				l0,0c-3.1,2.8-6.4,5-9.7,6.3l0,0l0,0c-4.1,1.9-8.6,2.8-13.3,2.8c-4.4,0-9-0.9-13.1-2.6c-7.2-2.8-12.8-7.9-18.4-16.3
				c-9.2-14.1-25.1-23.4-41.4-24.3C213.2,220.7,212.3,220.7,211.4,220.7L211.4,220.7L211.4,220.7z"/>
		</g>
	</g>
</g>
</svg>
