<?xml version="1.0" encoding="utf-8"?>
<!-- Generator: Adobe Illustrator 21.0.2, SVG Export Plug-In . SVG Version: 6.00 Build 0)  -->
<svg version="1.1" id="Layer_1" xmlns="http://www.w3.org/2000/svg" xmlns:xlink="http://www.w3.org/1999/xlink" x="0px" y="0px"
	 viewBox="0 0 425 425" style="enable-background:new 0 0 425 425;" xml:space="preserve">
<style type="text/css">
	.st0{fill:#FFFFFF;}
</style>
<g>
	<g>
		<g>
			<path class="st0" d="M374.5,296.7C374.5,296.7,374.5,296.7,374.5,296.7c-0.6,0.9-0.8,1.8-0.9,2.8c-0.2,1-0.2,2,0.1,3
				c0.2,1,0.7,1.8,1.3,2.6c0.5,0.8,1.2,1.5,2.1,1.9c1.7,0.9,3.8,1.4,5.8,0.8c1.9-0.6,3.4-1.7,4.5-3.4c0,0,0,0,0,0
				c0.5-0.9,0.8-1.8,0.9-2.8c0.2-1,0.2-2-0.1-3c-0.2-1-0.7-1.8-1.3-2.6c-0.5-0.8-1.2-1.5-2.1-1.9c-1.7-0.9-3.8-1.4-5.8-0.8
				C377.1,293.8,375.6,295,374.5,296.7L374.5,296.7z"/>
		</g>
	</g>
	<g>
		<g>
			<path class="st0" d="M149.9,41.8c-41.1,19.9-73.5,54.7-90.8,96.9c-17,41.4-18,89.3-2.7,131.4c14.3,39.6,42.1,73.7,78.1,95.6
				c38.2,23.2,84.1,31.4,128,23.8c51.7-9,97.4-40.9,124.9-85.3c5.1-8.2-7.9-15.8-13-7.6c-22.6,36.5-58.5,63.6-99.9,74.9
				c-39.9,10.8-83.5,6.7-120.4-12c-34.6-17.5-62.4-46.4-78.5-81.6c-17.2-37.4-19.6-81.1-7.4-120.3c14-45.1,46.9-82.3,89.3-102.8
				C166.2,50.6,158.6,37.6,149.9,41.8L149.9,41.8z"/>
		</g>
	</g>
	<g>
		<g>
			<path class="st0" d="M377.2,294C377.2,294,377.2,294,377.2,294c-0.9,0.5-1.6,1.1-2.1,1.9c-0.7,0.7-1.1,1.6-1.3,2.6
				c-0.3,1-0.4,2-0.1,3c0,1,0.3,1.9,0.9,2.8c1,1.6,2.6,3,4.5,3.4c0.7,0.1,1.3,0.2,2,0.3c1.4,0,2.6-0.3,3.8-1c0,0,0,0,0,0
				c0.9-0.5,1.6-1.1,2.1-1.9c0.7-0.7,1.1-1.6,1.3-2.6c0.3-1,0.4-2,0.1-3c0-1-0.3-1.9-0.9-2.8c-1-1.6-2.6-3-4.5-3.4
				c-0.7-0.1-1.3-0.2-2-0.3C379.6,293,378.4,293.3,377.2,294L377.2,294z"/>
		</g>
	</g>
	<g>
		<g>
			<path class="st0" d="M147.5,45.1c-33.1,55.3-35,125.3-4.7,182.2c26.1,48.8,74.5,84.6,129,94.4c38.3,6.9,77.6,1.7,112.8-14.8
				c8.7-4.1,1.1-17-7.6-13c-52.8,24.6-115.9,19.9-164.6-11.9c-42.5-27.8-71.2-75-75.8-125.7c-3.3-36.2,5-72.4,23.7-103.6
				C165.5,44.4,152.5,36.8,147.5,45.1L147.5,45.1z"/>
		</g>
	</g>
</g>
</svg>
