<?xml version="1.0" encoding="utf-8"?>
<!-- Generator: Adobe Illustrator 21.0.2, SVG Export Plug-In . SVG Version: 6.00 Build 0)  -->
<svg version="1.1" id="Layer_1" xmlns="http://www.w3.org/2000/svg" xmlns:xlink="http://www.w3.org/1999/xlink" x="0px" y="0px"
	 viewBox="0 0 425 425" style="enable-background:new 0 0 425 425;" xml:space="preserve">
<style type="text/css">
	.st0{fill:#FFFFFF;}
</style>
<g>
	<path class="st0" d="M230.4,393.3c-34.3,0-67.7-9.2-96.4-26.7c-36.2-22-64.1-56.2-78.5-96.1c-15.4-42.3-14.4-90.5,2.7-132.1
		c17.6-42.8,50-77.4,91.3-97.4c1.3-0.6,2.6-0.9,3.9-0.9c2.6,0,5,1.2,6.8,3.3c2.1,2.1,3.6,5.9,1,9.9c-18.7,31.2-26.8,66.8-23.6,103
		c4.6,50.4,32.7,97.1,75.4,125c27.4,17.9,59.5,27.4,92.8,27.4c0,0,0,0,0,0c24.5,0,49-5.4,70.9-15.6c0.4-0.2,0.9-0.4,1.4-0.5
		c0.4-0.1,0.9-0.3,1.3-0.3c0.6-0.1,1.1-0.2,1.7-0.2h0.1l0.7,0.1c0.2,0,0.4,0.1,0.7,0.1l0.7,0.1c1.3,0.3,2.4,0.9,3.4,1.8
		c0.1,0.1,0.1,0.1,0.2,0.1c0.6,0.6,1.2,1.2,1.6,2c0.5,0.8,0.8,1.6,1,2.4c0.2,0.6,0.2,1.3,0.2,1.9c0,0.6,0,1.3-0.2,2
		c-0.1,0.6-0.3,1.2-0.6,1.8c0,0.1-0.1,0.1-0.1,0.2c-0.1,0.2-0.2,0.4-0.3,0.5l-0.1,0.1c-0.2,0.2-0.4,0.5-0.6,0.7
		c-0.2,0.3-0.4,0.5-0.6,0.7c-28.3,44.4-73.6,75-124.3,83.8C252.1,392.3,241.2,393.3,230.4,393.3
		C230.4,393.3,230.4,393.3,230.4,393.3z M134.1,69.7c-31,21.7-54,52.9-65,88.2c-12.2,39.3-9.5,82.9,7.4,119.6
		c16,34.9,43.7,63.8,78,81.1c23,11.6,49,17.8,75.4,17.8c15,0,29.9-2,44.2-5.8c31.7-8.7,61-27.2,82.9-52.3c-17,4.9-34.5,7.4-52.2,7.4
		c-11.1,0-22.4-1-33.4-3c-54.7-9.8-103.2-45.3-129.7-94.9C116.2,179.5,113.4,120.7,134.1,69.7z"/>
	<path class="st0" d="M153.4,41c2.4,0,4.6,1.2,6,3c2.1,2.1,3,5.4,0.9,8.8c-18.7,31.2-27,67.4-23.7,103.6
		c4.6,50.7,33.3,97.9,75.8,125.7c27.9,18.2,60.6,27.6,93.3,27.6c24.4,0,48.8-5.2,71.3-15.7c0.4-0.2,0.8-0.3,1.3-0.5
		c0.4-0.1,0.8-0.2,1.2-0.3c0.5-0.1,1-0.2,1.5-0.2c0.2,0,0.4,0.1,0.6,0.1c0.2,0,0.4,0.1,0.6,0.1c0.2,0,0.5,0.1,0.8,0.1
		c1.1,0.2,2.1,0.8,2.9,1.5c0,0,0.1,0.1,0.1,0.1c0.6,0.5,1.1,1.1,1.5,1.8c0.5,0.7,0.7,1.4,0.8,2.1c0.1,0.6,0.2,1.1,0.2,1.7
		c0,0.6,0,1.2-0.2,1.8c-0.1,0.5-0.3,1.1-0.5,1.6c0,0.1-0.1,0.2-0.1,0.2c-0.1,0.1-0.1,0.3-0.2,0.4c0,0,0,0.1-0.1,0.1
		c-0.2,0.2-0.3,0.5-0.6,0.7c-0.2,0.3-0.4,0.5-0.6,0.7c-27.6,43.4-72.8,74.6-123.7,83.5c-10.6,1.8-21.4,2.8-32.1,2.8
		c-33.6,0-67-9-95.9-26.6c-36-21.9-63.8-56-78.1-95.6c-15.3-42.1-14.3-90,2.7-131.4c17.3-42.2,49.7-77,90.8-96.9
		C151.1,41.2,152.2,41,153.4,41 M136.4,66.9c-32.1,21.5-56.6,53.4-68.2,90.7c-12.2,39.2-9.8,82.9,7.4,120.3
		c16.1,35.2,43.9,64.1,78.5,81.6c23.5,11.9,49.7,17.9,75.9,17.9c15,0,30-2,44.5-5.9c33.5-9.2,63.4-28.7,85.6-55.1
		c-17.9,5.5-36.4,8.3-55.1,8.3c-11.1,0-22.2-1-33.2-3c-54.5-9.8-102.9-45.6-129-94.4C116.4,177.7,114.4,118.1,136.4,66.9 M153.4,39
		L153.4,39c-1.5,0-2.9,0.3-4.3,1c-20.6,10-39.1,23.6-54.9,40.5C78.4,97.3,66,116.7,57.2,137.9c-17.2,41.9-18.2,90.3-2.7,132.8
		c14.5,40.2,42.5,74.5,78.9,96.6c28.9,17.6,62.4,26.8,97,26.8c10.9,0,21.8-0.9,32.4-2.8c25.5-4.4,49.5-14.2,71.4-29.1
		c21.3-14.4,39.8-33.5,53.6-55.1c0.2-0.2,0.4-0.5,0.6-0.7c0.2-0.3,0.5-0.5,0.6-0.8c0,0,0-0.1,0.1-0.1c0.1-0.2,0.2-0.4,0.3-0.5l0-0.1
		c0.1-0.1,0.1-0.2,0.2-0.3c0.3-0.6,0.5-1.3,0.7-2c0.2-0.8,0.3-1.5,0.3-2.2c0-0.7-0.1-1.4-0.3-2.1c-0.2-1-0.5-1.9-1.1-2.8
		c-0.5-0.8-1.1-1.5-1.8-2.1c0,0-0.1-0.1-0.2-0.1c-1.2-1-2.5-1.7-3.8-2l-0.1,0l-0.1,0c-0.2,0-0.4-0.1-0.7-0.1l0,0
		c-0.2,0-0.5-0.1-0.7-0.1l-0.1,0l-0.5-0.1l-0.1,0H381c-0.6,0-1.2,0.1-1.9,0.2c-0.5,0.1-1,0.2-1.5,0.4c-0.5,0.2-1,0.3-1.5,0.5
		c-21.7,10.1-46.1,15.5-70.4,15.5c-33,0-64.9-9.4-92.2-27.2c-20.6-13.5-38.5-32-51.5-53.6c-13.1-21.7-21.2-46.1-23.4-70.6
		c-3.3-36,4.8-71.4,23.4-102.4c2.4-3.8,1.9-8-1.2-11.1C158.9,40.3,156.2,39,153.4,39L153.4,39z M230,375.4c-26.2,0-52.2-6.1-75-17.7
		c-34.1-17.3-61.7-45.9-77.6-80.6c-16.8-36.5-19.5-79.8-7.3-118.9c10.6-34.1,32.4-64.3,61.8-85.7c-9.2,23.8-13.5,49.7-12.5,75.3
		c1.1,28.2,8.5,56,21.6,80.5c13,24.3,31.8,45.9,54.4,62.5c22.7,16.7,49,28.1,76,32.9c11,2,22.3,3,33.5,3c16.6,0,33.1-2.2,49.2-6.5
		c-9.9,11-21.2,20.6-33.7,28.6c-14.5,9.3-30.1,16.3-46.5,20.8C259.7,373.4,244.9,375.4,230,375.4L230,375.4z"/>
</g>
</svg>
