<?xml version="1.0" encoding="utf-8"?>
<!-- Generator: Adobe Illustrator 21.0.2, SVG Export Plug-In . SVG Version: 6.00 Build 0)  -->
<svg version="1.1" id="Layer_1" xmlns="http://www.w3.org/2000/svg" xmlns:xlink="http://www.w3.org/1999/xlink" x="0px" y="0px"
	 viewBox="0 0 425 425" style="enable-background:new 0 0 425 425;" xml:space="preserve">
<style type="text/css">
	.st0{fill:#FFFFFF;}
</style>
<g>
	<g>
		<path class="st0" d="M274.1,211.3c-0.3,25.7-16.3,49.7-40.8,58.5c-24.8,8.8-52.5,1.3-69.4-18.8c-16.8-20-18.7-49.6-5.3-71.8
			c13.2-22,39.8-34,65-29C252.8,156,273.8,181.6,274.1,211.3c0.1,9.6,15.1,9.7,15,0c-0.3-32.5-20.7-61.5-51.2-72.7
			c-30-11-65.3-1.3-85.5,23.4c-20.5,25.1-23.6,61.1-6.8,89c16.8,27.8,49.5,42,81.3,36c36-6.8,61.8-39.6,62.2-75.7
			C289.2,201.6,274.2,201.6,274.1,211.3z"/>
	</g>
</g>
<g>
	<g>
		<path class="st0" d="M219.4,95.3c0-27.4,0-54.8,0-82.1c0-9.7-15-9.7-15,0c0,27.4,0,54.8,0,82.1C204.4,105,219.4,105,219.4,95.3
			L219.4,95.3z"/>
	</g>
</g>
<g>
	<g>
		<path class="st0" d="M219.4,409.4c0-27.4,0-54.8,0-82.1c0-9.7-15-9.7-15,0c0,27.4,0,54.8,0,82.1C204.4,419,219.4,419,219.4,409.4
			L219.4,409.4z"/>
	</g>
</g>
<g>
	<g>
		<path class="st0" d="M327.8,218.8c27.4,0,54.8,0,82.1,0c9.7,0,9.7-15,0-15c-27.4,0-54.8,0-82.1,0
			C318.2,203.8,318.1,218.8,327.8,218.8L327.8,218.8z"/>
	</g>
</g>
<g>
	<g>
		<path class="st0" d="M13.8,218.8c27.4,0,54.8,0,82.1,0c9.7,0,9.7-15,0-15c-27.4,0-54.8,0-82.1,0C4.1,203.8,4.1,218.8,13.8,218.8
			L13.8,218.8z"/>
	</g>
</g>
<g>
	<g>
		<path class="st0" d="M299.2,134.6c19.4-19.4,38.7-38.7,58.1-58.1c6.8-6.8-3.8-17.4-10.6-10.6c-19.4,19.4-38.7,38.7-58.1,58.1
			C281.7,130.8,292.3,141.4,299.2,134.6L299.2,134.6z"/>
	</g>
</g>
<g>
	<g>
		<path class="st0" d="M77.1,356.7c19.4-19.4,38.7-38.7,58.1-58.1c6.8-6.8-3.8-17.4-10.6-10.6c-19.4,19.4-38.7,38.7-58.1,58.1
			C59.7,352.9,70.3,363.5,77.1,356.7L77.1,356.7z"/>
	</g>
</g>
<g>
	<g>
		<path class="st0" d="M135.2,124c-19.4-19.4-38.7-38.7-58.1-58.1c-6.8-6.8-17.4,3.8-10.6,10.6c19.4,19.4,38.7,38.7,58.1,58.1
			C131.4,141.4,142,130.8,135.2,124L135.2,124z"/>
	</g>
</g>
<g>
	<g>
		<path class="st0" d="M357.2,346.1c-19.4-19.4-38.7-38.7-58.1-58.1c-6.8-6.8-17.4,3.8-10.6,10.6c19.4,19.4,38.7,38.7,58.1,58.1
			C353.5,363.5,364.1,352.9,357.2,346.1L357.2,346.1z"/>
	</g>
</g>
</svg>
