<?xml version="1.0" encoding="utf-8"?>
<!-- Generator: Adobe Illustrator 21.0.2, SVG Export Plug-In . SVG Version: 6.00 Build 0)  -->
<svg version="1.1" id="Layer_1" xmlns="http://www.w3.org/2000/svg" xmlns:xlink="http://www.w3.org/1999/xlink" x="0px" y="0px"
	 viewBox="0 0 425 425" style="enable-background:new 0 0 425 425;" xml:space="preserve">
<style type="text/css">
	.st0{fill:#FFFFFF;}
</style>
<g>
	<g>
		<path class="st0" d="M212.4,289.4c-27.6,0-53.5-14.5-67.6-37.8c-16.9-28.1-14.2-64.4,6.9-90.2c14.5-17.7,37.1-28.3,60.6-28.3
			c9,0,17.7,1.5,26,4.6c30.7,11.3,51.6,40.9,51.9,73.6c-0.2,17.9-6.6,35.4-18,49.5c-11.6,14.2-27.5,23.9-45,27.2
			C222.2,288.9,217.3,289.4,212.4,289.4C212.4,289.4,212.4,289.4,212.4,289.4z M212.1,150.1c-21.5,0-41.7,11.4-52.6,29.6
			c-13.3,22.1-11.2,51.1,5.2,70.6c11.8,14,29.1,22.1,47.5,22.1c7.1,0,14.1-1.2,20.8-3.6c23.7-8.5,39.8-31.6,40.1-57.6
			c-0.3-29.2-21.2-54.4-49.7-60.1C219.7,150.4,215.9,150.1,212.1,150.1z"/>
		<path class="st0" d="M212.3,134.1c8.7,0,17.4,1.5,25.6,4.5c30.5,11.2,50.9,40.2,51.2,72.7c-0.4,36.1-26.2,68.9-62.2,75.7
			c-4.8,0.9-9.7,1.4-14.5,1.4c-26.9,0-52.5-13.8-66.8-37.4c-16.8-27.9-13.7-63.9,6.8-89C167,144.1,189.6,134.1,212.3,134.1
			 M212.2,273.4c7.1,0,14.2-1.2,21.1-3.6c24.5-8.8,40.5-32.8,40.8-58.5c-0.3-29.7-21.3-55.3-50.5-61.1c-3.8-0.8-7.7-1.1-11.5-1.1
			c-21.4,0-42.3,11.5-53.5,30.1c-13.4,22.2-11.5,51.8,5.3,71.8C176.1,265.5,193.9,273.4,212.2,273.4 M212.3,132.1
			c-23.8,0-46.7,10.7-61.4,28.6c-10.4,12.7-16.5,28.1-17.8,44.6c-1.3,16.6,2.4,32.8,10.9,46.7c14.3,23.6,40.5,38.3,68.5,38.3
			c5,0,10-0.5,14.9-1.4c17.7-3.3,33.9-13.1,45.6-27.6c11.5-14.2,18-32,18.2-50.1c-0.2-16.4-5.2-32.1-14.6-45.5
			c-9.4-13.4-22.5-23.5-37.9-29.1C230.2,133.7,221.4,132.1,212.3,132.1L212.3,132.1z M212.2,271.4c-18.1,0-35.1-7.9-46.8-21.7
			c-16.1-19.2-18.2-47.8-5.1-69.5c5.3-8.8,12.9-16.2,22.2-21.3c9.1-5.1,19.4-7.8,29.6-7.8c3.7,0,7.5,0.4,11.1,1.1
			c13.6,2.7,26.1,10.1,34.9,20.9c8.9,10.7,13.8,24.3,14,38.3c-0.3,25.5-16.2,48.2-39.5,56.6C226,270.3,219.2,271.4,212.2,271.4
			L212.2,271.4z"/>
	</g>
	<g>
		<path class="st0" d="M211.9,103.6c-4.2,0-8.5-2.8-8.5-8.3V13.2c0-5.4,4.3-8.3,8.5-8.3c4.2,0,8.5,2.8,8.5,8.3v82.1
			C220.4,100.7,216.1,103.6,211.9,103.6z"/>
		<path class="st0" d="M211.9,5.9c3.8,0,7.5,2.4,7.5,7.3c0,27.3,0,54.7,0,82.1c0,4.9-3.8,7.3-7.5,7.3s-7.5-2.4-7.5-7.3
			c0-27.3,0-54.7,0-82.1C204.4,8.4,208.2,5.9,211.9,5.9 M211.9,3.9c-4.7,0-9.5,3.2-9.5,9.3v82.1c0,6.1,4.8,9.3,9.5,9.3
			s9.5-3.2,9.5-9.3V13.2C221.4,7.1,216.6,3.9,211.9,3.9L211.9,3.9z"/>
	</g>
	<g>
		<path class="st0" d="M211.9,417.6c-4.2,0-8.5-2.8-8.5-8.2v-82.1c0-5.4,4.3-8.3,8.5-8.3c4.2,0,8.5,2.8,8.5,8.3v82.1
			C220.4,414.8,216.1,417.6,211.9,417.6z"/>
		<path class="st0" d="M211.9,320c3.8,0,7.5,2.4,7.5,7.3c0,27.3,0,54.7,0,82.1c0,4.8-3.8,7.2-7.5,7.2s-7.5-2.4-7.5-7.2
			c0-27.3,0-54.7,0-82.1C204.4,322.4,208.2,320,211.9,320 M211.9,318c-4.7,0-9.5,3.2-9.5,9.3v82.1c0,6,4.8,9.2,9.5,9.2
			s9.5-3.2,9.5-9.2v-82.1C221.4,321.2,216.6,318,211.9,318L211.9,318z"/>
	</g>
	<g>
		<path class="st0" d="M327.8,219.8c-5.4,0-8.2-4.3-8.2-8.5c0-4.2,2.8-8.5,8.2-8.5h82.1c5.4,0,8.3,4.3,8.3,8.5
			c0,4.2-2.8,8.5-8.3,8.5H327.8z"/>
		<path class="st0" d="M409.9,203.8c9.7,0,9.7,15,0,15c-27.3,0-54.7,0-82.1,0c-9.7,0-9.6-15,0-15
			C355.1,203.8,382.5,203.8,409.9,203.8 M409.9,201.8h-82.1c-6.1,0-9.2,4.8-9.2,9.5c0,4.7,3.2,9.5,9.2,9.5h82.1
			c6.1,0,9.3-4.8,9.3-9.5S416,201.8,409.9,201.8L409.9,201.8z"/>
	</g>
	<g>
		<path class="st0" d="M13.8,219.8c-5.4,0-8.3-4.3-8.3-8.5c0-4.2,2.8-8.5,8.3-8.5h82.1c5.4,0,8.3,4.3,8.3,8.5c0,4.2-2.8,8.5-8.3,8.5
			H13.8z"/>
		<path class="st0" d="M95.9,203.8c9.7,0,9.7,15,0,15c-27.3,0-54.7,0-82.1,0c-9.7,0-9.7-15,0-15C41.1,203.8,68.5,203.8,95.9,203.8
			 M95.9,201.8H13.8c-6.1,0-9.3,4.8-9.3,9.5s3.2,9.5,9.3,9.5h82.1c6.1,0,9.3-4.8,9.3-9.5S102,201.8,95.9,201.8L95.9,201.8z"/>
	</g>
	<g>
		<path class="st0" d="M294.2,137.8c-3.5,0-6.8-2.4-8.2-5.7c-1.3-3.1-0.6-6.3,1.9-8.8L346,65.2c1.6-1.6,3.6-2.5,5.7-2.5
			c3.4,0,6.8,2.4,8.2,5.7c1.3,3.1,0.6,6.3-1.8,8.8l-58.1,58.1C298.3,136.9,296.3,137.8,294.2,137.8
			C294.2,137.8,294.2,137.8,294.2,137.8z"/>
		<path class="st0" d="M351.7,63.7c5.7,0,10.9,7.5,5.6,12.8c-19.4,19.4-38.7,38.7-58.1,58.1c-1.6,1.5-3.3,2.2-5,2.2
			c-5.8,0-10.9-7.5-5.6-12.8c19.4-19.4,38.7-38.7,58.1-58.1C348.2,64.4,350,63.7,351.7,63.7 M351.7,61.7c-2.4,0-4.6,1-6.4,2.8
			l-19.4,19.4l-38.7,38.7c-2.8,2.7-3.6,6.4-2.1,9.9c1.5,3.7,5.3,6.3,9.1,6.3c2.4,0,4.6-1,6.4-2.8l58.1-58.1c2.7-2.7,3.5-6.4,2.1-9.9
			C359.2,64.3,355.5,61.7,351.7,61.7L351.7,61.7z"/>
	</g>
	<g>
		<path class="st0" d="M72.1,359.9c-3.4,0-6.8-2.4-8.2-5.7c-1.3-3.1-0.6-6.3,1.8-8.8l58.1-58.1c1.6-1.6,3.6-2.5,5.7-2.5
			c3.4,0,6.8,2.4,8.2,5.7c1.3,3.1,0.6,6.3-1.8,8.8l-58.1,58.1C76.2,359,74.2,359.9,72.1,359.9C72.1,359.9,72.1,359.9,72.1,359.9z"/>
		<path class="st0" d="M129.6,285.8c5.7,0,10.9,7.5,5.6,12.8c-19.4,19.4-38.7,38.7-58.1,58.1c-1.5,1.5-3.3,2.2-5,2.2
			c-5.7,0-10.9-7.5-5.6-12.8c19.4-19.4,38.7-38.7,58.1-58.1C126.1,286.5,127.9,285.8,129.6,285.8 M129.6,283.8c-2.4,0-4.6,1-6.4,2.8
			L99,310.8l-33.9,33.9c-2.7,2.7-3.5,6.4-2.1,9.9c1.5,3.7,5.3,6.3,9.1,6.3c2.4,0,4.6-1,6.4-2.8l58.1-58.1c2.7-2.7,3.5-6.4,2.1-9.9
			C137.1,286.4,133.4,283.8,129.6,283.8L129.6,283.8z"/>
	</g>
	<g>
		<path class="st0" d="M129.6,137.8c-2.1,0-4-0.9-5.7-2.5L65.8,77.2c-2.5-2.5-3.1-5.7-1.8-8.8c1.4-3.4,4.8-5.7,8.2-5.7
			c2.1,0,4,0.9,5.7,2.5l58.1,58.1c2.5,2.5,3.1,5.7,1.8,8.8C136.4,135.4,133,137.8,129.6,137.8C129.6,137.8,129.6,137.8,129.6,137.8z
			"/>
		<path class="st0" d="M72.1,63.7c1.7,0,3.4,0.6,5,2.2c19.4,19.4,38.7,38.7,58.1,58.1c5.3,5.3,0.1,12.8-5.6,12.8
			c-1.7,0-3.4-0.6-5-2.2c-19.4-19.4-38.7-38.7-58.1-58.1C61.2,71.2,66.4,63.7,72.1,63.7 M72.1,61.7c-3.8,0-7.6,2.6-9.1,6.3
			c-1.4,3.5-0.7,7.1,2.1,9.9L99,111.8l24.2,24.2c1.8,1.8,4,2.8,6.4,2.8c3.8,0,7.6-2.6,9.1-6.3c1.4-3.5,0.7-7.1-2.1-9.9L78.5,64.5
			C76.7,62.7,74.5,61.7,72.1,61.7L72.1,61.7z"/>
	</g>
	<g>
		<path class="st0" d="M351.6,359.9c-2.1,0-4.1-0.9-5.7-2.5l-58.1-58.1c-2.5-2.5-3.1-5.7-1.8-8.8c1.4-3.4,4.8-5.7,8.2-5.7
			c2.1,0,4,0.9,5.7,2.5l58.1,58.1c2.5,2.5,3.2,5.7,1.9,8.8C358.4,357.5,355.1,359.9,351.6,359.9
			C351.6,359.9,351.6,359.9,351.6,359.9z"/>
		<path class="st0" d="M294.1,285.8c1.7,0,3.4,0.6,5,2.2c19.4,19.4,38.7,38.7,58.1,58.1c5.3,5.3,0.2,12.8-5.6,12.8
			c-1.7,0-3.5-0.6-5-2.2c-19.4-19.4-38.7-38.7-58.1-58.1C283.2,293.3,288.4,285.8,294.1,285.8 M294.1,283.8c-3.8,0-7.6,2.6-9.1,6.3
			c-1.4,3.5-0.7,7.1,2.1,9.9l58.1,58.1c1.8,1.8,4.1,2.8,6.4,2.8c3.8,0,7.6-2.6,9.1-6.3c1.4-3.5,0.6-7.1-2.1-9.9L319.9,306
			l-19.4-19.4C298.7,284.8,296.5,283.8,294.1,283.8L294.1,283.8z"/>
	</g>
</g>
</svg>
