<?xml version="1.0" encoding="utf-8"?>
<!-- Generator: Adobe Illustrator 21.0.2, SVG Export Plug-In . SVG Version: 6.00 Build 0)  -->
<svg version="1.1" id="Layer_1" xmlns="http://www.w3.org/2000/svg" xmlns:xlink="http://www.w3.org/1999/xlink" x="0px" y="0px"
	 viewBox="0 0 425 425" style="enable-background:new 0 0 425 425;" xml:space="preserve">
<style type="text/css">
	.st0{fill:#FFFFFF;}
</style>
<g>
	<g>
		<path class="st0" d="M167.3,155c-4.2,0-8.5-2.8-8.5-8.2v-65c0-5.4,4.3-8.3,8.5-8.3s8.5,2.8,8.5,8.3v65
			C175.8,152.2,171.5,155,167.3,155z"/>
		<path class="st0" d="M167.3,74.5c3.8,0,7.5,2.4,7.5,7.3c0,21.7,0,43.3,0,65c0,4.8-3.8,7.2-7.5,7.2s-7.5-2.4-7.5-7.2
			c0-21.7,0-43.3,0-65C159.8,76.9,163.5,74.5,167.3,74.5 M167.3,72.5c-4.7,0-9.5,3.2-9.5,9.3v65c0,6,4.8,9.2,9.5,9.2
			s9.5-3.2,9.5-9.2v-65C176.8,75.7,172,72.5,167.3,72.5L167.3,72.5z"/>
	</g>
	<g>
		<path class="st0" d="M10.6,247c-5.4,0-8.3-4.3-8.3-8.5s2.8-8.5,8.3-8.5h65c5.4,0,8.3,4.3,8.3,8.5S81,247,75.6,247H10.6z"/>
		<path class="st0" d="M75.6,231c9.7,0,9.7,15,0,15c-21.7,0-43.3,0-65,0c-9.7,0-9.7-15,0-15C32.3,231,53.9,231,75.6,231 M75.6,229
			h-65c-6.1,0-9.3,4.8-9.3,9.5s3.2,9.5,9.3,9.5h65c6.1,0,9.3-4.8,9.3-9.5S81.7,229,75.6,229L75.6,229z"/>
	</g>
	<g>
		<path class="st0" d="M232.4,182.1c-3.4,0-6.7-2.3-8.1-5.7c-1.3-3.1-0.6-6.4,1.8-8.9l45.9-45.9c1.6-1.6,3.6-2.5,5.7-2.5
			c3.4,0,6.8,2.4,8.2,5.7c1.3,3.1,0.6,6.3-1.8,8.8l-45.9,45.9C236.5,181.3,234.5,182.1,232.4,182.1L232.4,182.1z"/>
		<path class="st0" d="M277.7,120.2c5.7,0,10.9,7.5,5.6,12.8c-15.3,15.3-30.6,30.6-45.9,45.9c-1.6,1.6-3.3,2.2-5,2.2
			c-5.7,0-10.8-7.5-5.6-12.8c15.3-15.3,30.6-30.6,45.9-45.9C274.2,120.9,276,120.2,277.7,120.2 M277.7,118.2c-2.4,0-4.6,1-6.4,2.8
			l-29.5,29.5l-16.4,16.4c-2.7,2.8-3.5,6.5-2,10c1.5,3.7,5.3,6.3,9,6.3c2.4,0,4.6-1,6.4-2.8l22.9-22.9l22.9-22.9
			c2.7-2.7,3.5-6.4,2.1-9.9C285.2,120.8,281.5,118.2,277.7,118.2L277.7,118.2z"/>
	</g>
	<g>
		<path class="st0" d="M102.2,182.1c-2.1,0-4.1-0.9-5.8-2.5l-45.9-45.9c-2.5-2.5-3.1-5.7-1.8-8.8c1.4-3.4,4.8-5.7,8.2-5.7
			c2.1,0,4,0.9,5.7,2.5l45.9,45.9c2.5,2.5,3.2,5.7,1.9,8.9C108.9,179.8,105.6,182.1,102.2,182.1
			C102.2,182.1,102.2,182.1,102.2,182.1z"/>
		<path class="st0" d="M56.8,120.2c1.7,0,3.4,0.6,5,2.2c15.3,15.3,30.6,30.6,45.9,45.9c5.3,5.3,0.2,12.8-5.5,12.8
			c-1.7,0-3.5-0.7-5.1-2.2c-15.3-15.3-30.6-30.6-45.9-45.9C45.9,127.7,51.1,120.2,56.8,120.2 M56.8,118.2c-3.8,0-7.6,2.6-9.1,6.3
			c-1.4,3.5-0.7,7.1,2.1,9.9l22.9,22.9l22.9,22.9c1.8,1.8,4.1,2.8,6.5,2.8c3.8,0,7.5-2.6,9.1-6.3c1.4-3.5,0.6-7.2-2.1-10l-16.4-16.4
			L63.2,121C61.4,119.2,59.2,118.2,56.8,118.2L56.8,118.2z"/>
	</g>
	<g>
		<path class="st0" d="M98.4,352c-3,0-5.7-0.1-8.1-0.2c-5.9-0.3-9.4-5.9-12.1-10.4l-0.6-0.9c-5.3-8.4-8.8-18.1-10.2-27.9
			c-2.6-17.6,1-35.4,9.9-50.2c6.4-10.5,15.5-19.3,26.3-25.6c0.9-23.9,15-45.7,35.8-55.5c8.7-4.2,18-6.3,27.6-6.3
			c14.7,0,29.1,5.1,40.6,14.3c11.7-5.1,24.8-7.8,37.8-7.8c8.1,0,16.1,1,23.8,3c24.6,6.5,45.8,23,58.3,45.3c6.9-2,13.9-3,21-3
			c0.9,0,1.8,0,2.7,0.1c33.8,1.3,63.2,26,70,58.6c4,19.2,0.6,39.3-9.5,55.2l-0.7,1.1c-2.7,4.3-5.8,9.2-11.5,9.5l-2.8,0
			c-15.1,0-30.2,0.1-45.2,0.1c-15.2,0-30.4,0-45.7,0.1c-46,0-92.7,0.1-137.8,0.2l-0.4,0c-8.9,0-17.8,0-26.6,0
			c-8.9,0-17.8,0.1-26.7,0.1c-2.6,0-5.3,0-7.9,0.1C103.9,351.9,101.1,352,98.4,352z M141.4,243.7c-5.4,0-10.7,0.7-15.8,2
			c-11.2,3.1-21.2,9.5-28.9,18.6C80,284,78.9,313.5,94.1,334.8c11.9-0.1,23.8-0.1,34.1-0.1l166.4-0.3c17.6,0,35.2-0.1,52.8-0.1
			c16.1,0,32.2,0,48.3-0.1c14.2-20.2,13.4-48.9-1.8-68.4C382.9,252,366.3,244,348.4,244c-8,0-15.8,1.6-23.3,4.6
			c-0.8,0.3-1.6,0.5-2.4,0.5c-3.5,0-7.1-2.8-8.1-6.3c-0.1-0.5-0.2-1-0.3-1.5c-5.6-10.9-13.4-20.3-22.6-27.1
			c-13.3-10-29.9-15.5-46.7-15.5c-6.8,0-13.6,0.9-20.1,2.7c-22.1,6-40.5,21.8-50.5,43.3c-1.3,2.8-4.7,4.3-7.4,4.3
			c-2.5,0-4.9-0.9-7.3-1.9c-1.3-0.5-2.4-1-3.6-1.3c-4-1.1-7.9-1.8-11.7-2C143.5,243.8,142.4,243.7,141.4,243.7z M141,226.7
			c4.8,0,9.7,0.5,14.7,1.4c2.7,0.5,5,1.1,7.3,1.8c6.5-11.6,15.3-21.6,26.3-29.9c0.6-0.5,1.2-0.9,1.9-1.4c-7.4-4.4-15.8-6.7-24.4-6.7
			c-7.1,0-13.9,1.6-20.1,4.7c-13.1,6.6-22.2,18.4-25.1,32.7c5.8-1.6,11.9-2.4,18.1-2.6C140.1,226.7,140.6,226.7,141,226.7z"/>
		<path class="st0" d="M167.1,176c14.5,0,28.8,5,40.4,14.5c11.9-5.2,24.9-7.9,38-7.9c7.9,0,15.9,1,23.6,3
			c24.6,6.5,45.8,23.3,58,45.5c6.9-2.1,14.2-3.2,21.5-3.2c0.9,0,1.8,0,2.7,0.1c33,1.3,62.3,25.3,69.1,57.8
			c3.9,18.5,0.8,38.4-9.4,54.5c-2.8,4.4-5.7,9.8-11.4,10.1c-0.9,0-1.8,0-2.7,0c-30.3,0.1-60.6,0.1-90.9,0.2
			c-46.1,0-92.1,0.1-138.2,0.2c-17.8,0-35.5,0.1-53.3,0.1c-5.3,0-10.6,0.2-16,0.2c-2.7,0-5.4,0-8-0.2c-5.8-0.3-9.1-6.3-11.9-10.8
			c-5.2-8.3-8.7-17.8-10.1-27.5c-2.5-17.1,0.8-34.7,9.8-49.5c6.5-10.7,15.7-19.4,26.4-25.6c0.7-23.3,14-45.2,35.3-55.2
			C148.6,178,157.9,176,167.1,176 M120.3,230.7c6.3-1.9,12.9-2.8,19.4-3c0.4,0,0.9,0,1.3,0c4.9,0,9.7,0.5,14.5,1.4
			c2.6,0.5,5.1,1.1,7.6,1.9c0.1,0,0.2,0.1,0.3,0.1c6.5-11.9,15.6-22.1,26.5-30.3c1-0.8,2.1-1.5,3.2-2.3c-7.9-5-17-7.7-26.2-7.7
			c-7,0-14,1.6-20.6,4.8C132.4,202.7,122.9,215.7,120.3,230.7 M167.1,247.9c-3.6,0-7.2-2.2-10.6-3.1c-3.9-1.1-7.8-1.8-11.9-2
			c-1.1,0-2.1-0.1-3.2-0.1c-5.4,0-10.7,0.7-16,2.1c-11.6,3.2-21.7,9.8-29.4,18.9c-17.2,20.2-17.9,50.8-2.4,72.1
			c11.5-0.1,23.1-0.1,34.6-0.1c55.5-0.1,110.9-0.2,166.4-0.3c33.9-0.1,67.7-0.1,101.5-0.2c14.8-20.7,14.2-49.8-1.5-70
			C383.1,250.6,366,243,348.4,243c-7.9,0-16,1.5-23.7,4.7c-0.7,0.3-1.4,0.4-2.1,0.4c-3.2,0-6.3-2.7-7.1-5.6c-0.1-0.5-0.2-1-0.3-1.5
			c-5.5-10.8-13.2-20.4-22.9-27.6c-13.7-10.3-30.4-15.7-47.3-15.7c-6.8,0-13.6,0.9-20.3,2.7c-22.8,6.2-41.2,22.5-51.1,43.8
			C172.5,246.5,169.6,247.9,167.1,247.9 M167.1,174l0,2L167.1,174c-9.8,0-19.2,2.1-28,6.4c-21,9.9-35.2,31.8-36.4,55.9
			c-10.8,6.4-19.8,15.2-26.2,25.7c-9.1,15-12.7,33-10.1,50.8c1.4,9.9,5,19.7,10.4,28.3l0.6,0.9c2.9,4.7,6.5,10.5,12.9,10.8
			c2.4,0.1,5.1,0.2,8.1,0.2c2.7,0,5.4,0,8.1-0.1c2.6,0,5.3-0.1,7.9-0.1c8.9,0,17.9,0,26.7-0.1c8.7,0,17.7-0.1,26.6-0.1l0.3,0
			c45.2-0.1,91.9-0.2,137.9-0.2c15.2-0.1,30.6-0.1,45.4-0.1c14.9,0,30.3,0,45.5-0.1h2.7h0.1l0.1,0c6.3-0.3,9.6-5.7,12.3-10
			c0.2-0.4,0.5-0.7,0.7-1.1c10.2-16.2,13.8-36.6,9.7-56c-6.9-33.1-36.8-58-71-59.4c-0.9,0-1.9-0.1-2.8-0.1c-6.9,0-13.8,1-20.5,2.9
			c-12.7-22.2-33.9-38.5-58.5-45c-7.8-2-15.9-3.1-24.1-3.1c-12.9,0-25.9,2.6-37.6,7.6C196.2,179.1,181.8,174,167.1,174L167.1,174z
			 M122.9,227.9c3.2-13.2,11.9-24.2,24.3-30.4c6.1-3.1,12.7-4.6,19.7-4.6c7.9,0,15.6,2,22.5,5.8c-0.2,0.2-0.5,0.3-0.7,0.5
			c-10.9,8.2-19.7,18.1-26.2,29.5c-2-0.6-4.2-1.1-6.6-1.6c-5-1-10-1.4-14.8-1.4c-0.5,0-0.9,0-1.4,0
			C133.9,225.8,128.3,226.6,122.9,227.9L122.9,227.9z M167.1,249.9c2.9,0,6.7-1.5,8.3-4.8c9.9-21.2,28-36.8,49.8-42.7
			c6.4-1.7,13.1-2.6,19.8-2.6c16.6,0,32.9,5.4,46.1,15.3c9,6.7,16.6,15.9,22.2,26.6c0.1,0.5,0.2,1,0.3,1.4c1.1,3.9,5.2,7.1,9.1,7.1
			c1,0,1.9-0.2,2.8-0.6c7.3-3,15.1-4.5,22.9-4.5c17.6,0,33.9,7.8,44.6,21.4c7.3,9.4,11.5,21.4,11.8,33.6c0.3,11.9-3.2,23.6-9.7,33.2
			c-16,0-31.9,0.1-47.8,0.1c-17.3,0-35.1,0.1-52.7,0.1l-83.2,0.1l-83.2,0.1c-10.2,0-22,0-33.6,0.1c-6.9-9.8-10.4-22-10.1-34.4
			c0.4-12.8,5-25,13-34.4c7.5-8.9,17.4-15.2,28.4-18.3c4.9-1.3,10.1-2,15.5-2c1,0,2.1,0,3.1,0.1c3.8,0.2,7.5,0.8,11.4,1.9
			c1.1,0.3,2.3,0.8,3.5,1.2C161.9,248.9,164.4,249.9,167.1,249.9L167.1,249.9z"/>
	</g>
</g>
</svg>
