<?xml version="1.0" encoding="utf-8"?>
<!-- Generator: Adobe Illustrator 21.0.2, SVG Export Plug-In . SVG Version: 6.00 Build 0)  -->
<svg version="1.1" id="Layer_1" xmlns="http://www.w3.org/2000/svg" xmlns:xlink="http://www.w3.org/1999/xlink" x="0px" y="0px"
	 viewBox="0 0 425 425" style="enable-background:new 0 0 425 425;" xml:space="preserve">
<style type="text/css">
	.st0{fill:#FFFFFF;}
</style>
<g>
	<g>
		<path class="st0" d="M119.6,238.5c0.2-18.2,10.4-34.6,26.7-42.8c18.2-9.1,40.3-4.9,54.7,9.1c6.9,6.7,17.5-3.9,10.6-10.6
			c-19.1-18.6-47.6-23.5-71.7-12c-21.6,10.2-35,32.7-35.3,56.4C104.5,248.1,119.5,248.1,119.6,238.5L119.6,238.5z"/>
	</g>
</g>
<g>
	<g>
		<path class="st0" d="M174.8,146.8c0-21.7,0-43.3,0-65c0-9.7-15-9.7-15,0c0,21.7,0,43.3,0,65C159.8,156.4,174.8,156.4,174.8,146.8
			L174.8,146.8z"/>
	</g>
</g>
<g>
	<g>
		<path class="st0" d="M10.6,246c21.7,0,43.3,0,65,0c9.7,0,9.7-15,0-15c-21.7,0-43.3,0-65,0C0.9,231,0.9,246,10.6,246L10.6,246z"/>
	</g>
</g>
<g>
	<g>
		<path class="st0" d="M237.4,178.9c15.3-15.3,30.6-30.6,45.9-45.9c6.8-6.8-3.8-17.4-10.6-10.6c-15.3,15.3-30.6,30.6-45.9,45.9
			C220,175.2,230.6,185.8,237.4,178.9L237.4,178.9z"/>
	</g>
</g>
<g>
	<g>
		<path class="st0" d="M107.7,168.3c-15.3-15.3-30.6-30.6-45.9-45.9c-6.8-6.8-17.4,3.8-10.6,10.6c15.3,15.3,30.6,30.6,45.9,45.9
			C104,185.8,114.6,175.2,107.7,168.3L107.7,168.3z"/>
	</g>
</g>
<g>
	<g>
		<path class="st0" d="M329.7,236.3c-11.6-24.8-34.2-43.7-60.7-50.7c-27-7-56.8-1.6-79.1,15.2c-12.5,9.4-22.6,21.5-29.2,35.7
			c2.2-1.2,4.3-2.5,6.5-3.7c-0.2,0-3.2-1.5-4.1-1.8c-2.5-0.8-5-1.4-7.6-1.9c-5.2-1-10.5-1.5-15.8-1.4c-8.3,0.2-16.7,1.7-24.5,4.7
			c-15.3,5.9-28.4,16.5-37,30.6c-9,14.8-12.3,32.4-9.8,49.5c1.4,9.7,4.9,19.2,10.1,27.5c2.8,4.5,6.1,10.5,11.9,10.8
			c8,0.4,16.1,0,24,0c17.8,0,35.5-0.1,53.3-0.1c46.1-0.1,92.1-0.2,138.2-0.2c30.3-0.1,60.6-0.1,90.9-0.2c0.9,0,1.8,0,2.7,0
			c5.7-0.3,8.6-5.7,11.4-10.1c10.2-16.1,13.3-36,9.4-54.5c-6.8-32.5-36.1-56.5-69.1-57.8c-10.4-0.4-20.9,1.5-30.5,5.4
			c-3.7,1.5-6.4,5-5.2,9.2c1,3.5,5.4,6.8,9.2,5.2c24.7-10.1,53.2-3.7,69.9,17.5c16.3,20.9,16.4,51.4-0.1,72.2
			c1.8-0.7,3.5-1.5,5.3-2.2c-35.1,0.1-70.1,0.1-105.2,0.2c-55.5,0.1-110.9,0.2-166.4,0.3c-12.7,0-25.5,0-38.2,0.1
			c1.8,0.7,3.5,1.5,5.3,2.2c-17.2-21.3-17.1-53.4,0.7-74.3c7.7-9.1,17.8-15.7,29.4-18.9c6.3-1.7,12.7-2.3,19.2-2
			c4.1,0.2,8,0.9,11.9,2c3.4,0.9,7,3.1,10.6,3.1c2.5,0,5.4-1.4,6.5-3.7c9.9-21.3,28.3-37.6,51.1-43.8c23.2-6.3,48.4-1.4,67.6,13
			c10.6,7.9,18.8,18.6,24.4,30.6C320.8,252.6,333.7,245,329.7,236.3L329.7,236.3z"/>
	</g>
</g>
</svg>
