<?xml version="1.0" encoding="utf-8"?>
<!-- Generator: Adobe Illustrator 21.0.2, SVG Export Plug-In . SVG Version: 6.00 Build 0)  -->
<svg version="1.1" id="Layer_1" xmlns="http://www.w3.org/2000/svg" xmlns:xlink="http://www.w3.org/1999/xlink" x="0px" y="0px"
	 viewBox="0 0 425 425" style="enable-background:new 0 0 425 425;" xml:space="preserve">
<style type="text/css">
	.st0{fill:#FFFFFF;}
</style>
<g>
	<g>
		<g>
			<path class="st0" d="M405.3,256.4C405.3,256.4,405.3,256.4,405.3,256.4c-0.5,0.9-0.8,1.8-0.9,2.8c-0.2,1-0.2,2,0.1,3
				c0.2,1,0.7,1.8,1.3,2.6c0.5,0.8,1.2,1.5,2.1,1.9c1.7,0.9,3.8,1.4,5.8,0.8c1.9-0.6,3.4-1.7,4.5-3.4c0,0,0,0,0,0
				c0.5-0.9,0.8-1.8,0.9-2.8c0.2-1,0.2-2-0.1-3c-0.2-1-0.7-1.8-1.3-2.6c-0.5-0.8-1.2-1.5-2.1-1.9c-1.7-0.9-3.8-1.4-5.8-0.8
				C407.8,253.6,406.4,254.8,405.3,256.4L405.3,256.4z"/>
		</g>
	</g>
	<g>
		<g>
			<path class="st0" d="M335.5,320.5c34.3-6.1,64.3-26.9,82.7-56.4c5.1-8.2-7.9-15.8-13-7.6c-16.5,26.4-43.2,44.1-73.8,49.5
				C322,307.7,326,322.1,335.5,320.5L335.5,320.5z"/>
		</g>
	</g>
	<g>
		<g>
			<path class="st0" d="M329.4,321.3c2-0.3,4.1-0.5,6.1-0.9c1.7-0.3,3.6-2,4.5-3.4c0.9-1.6,1.3-4,0.8-5.8c-0.6-1.8-1.7-3.6-3.4-4.5
				c-0.6-0.3-1.2-0.5-1.8-0.8c-1.3-0.4-2.7-0.4-4,0c-1.3,0.2-2.5,0.4-3.8,0.6c0.7-0.1,1.3-0.2,2-0.3c-0.1,0-0.2,0-0.3,0
				c-1,0-2,0.2-2.9,0.6c-0.9,0.3-1.7,0.8-2.4,1.6c-1.3,1.3-2.3,3.4-2.2,5.3c0.1,1.9,0.7,4,2.2,5.3
				C325.5,320.4,327.5,321.6,329.4,321.3L329.4,321.3z"/>
		</g>
	</g>
	<g>
		<g>
			<path class="st0" d="M261.1,90.8c-37.6,18.3-62.7,54.6-67.9,95.9c-0.5,4,3.8,7.5,7.5,7.5c4.5,0,7-3.5,7.5-7.5
				c4.6-36.1,28-67.1,60.5-82.9C277.3,99.5,269.7,86.6,261.1,90.8L261.1,90.8z"/>
		</g>
	</g>
	<g>
		<g>
			<path class="st0" d="M408,253.8C408,253.8,408,253.8,408,253.8c-0.9,0.5-1.6,1.1-2.1,1.9c-0.7,0.7-1.1,1.6-1.3,2.6
				c-0.3,1-0.4,2-0.1,3c0,1,0.3,1.9,0.9,2.8c1,1.6,2.6,3,4.5,3.4c0.7,0.1,1.3,0.2,2,0.3c1.4,0,2.6-0.3,3.8-1c0,0,0,0,0,0
				c0.9-0.5,1.6-1.1,2.1-1.9c0.7-0.7,1.1-1.6,1.3-2.6c0.3-1,0.4-2,0.1-3c0-1-0.3-1.9-0.9-2.8c-1-1.6-2.6-3-4.5-3.4
				c-0.7-0.1-1.3-0.2-2-0.3C410.4,252.7,409.1,253.1,408,253.8L408,253.8z"/>
		</g>
	</g>
	<g>
		<g>
			<path class="st0" d="M329.7,274c28.7,7.9,58.8,5.2,85.8-7.3c8.8-4,1.1-17-7.6-13c-23.2,10.8-49.6,12.6-74.2,5.8
				C324.4,257,320.4,271.5,329.7,274L329.7,274z"/>
		</g>
	</g>
	<g>
		<g>
			<path class="st0" d="M258.6,93.9c-25.1,42.2-22.6,96.4,6.8,135.8c2.4,3.3,6.5,4.9,10.3,2.7c3.2-1.8,5.1-7,2.7-10.3
				c-26.4-35.2-29.4-82.6-6.8-120.6C276.5,93.1,263.5,85.6,258.6,93.9L258.6,93.9z"/>
		</g>
	</g>
</g>
<g>
	<g>
		<path class="st0" d="M272.7,217.7c-9.1,0.1-18,1.8-26.4,5.2c-3.7,1.5-6.4,5-5.2,9.2c1,3.5,5.4,6.8,9.2,5.2
			c7.2-3,14.6-4.5,22.4-4.7C282.4,232.6,282.4,217.6,272.7,217.7L272.7,217.7z"/>
	</g>
</g>
<g>
	<g>
		<path class="st0" d="M255.3,226.1c-11.1-23.6-32.7-41.7-58-48.3c-25.8-6.7-54.1-1.4-75.4,14.7c-11.8,8.9-21.3,20.4-27.6,33.8
			c2.2-1.2,4.3-2.5,6.5-3.7c0,0-2.4-1.3-3.4-1.6c-2.2-0.7-4.5-1.3-6.8-1.8c-5.3-1.1-10.7-1.6-16-1.5c-7.6,0.2-15.4,1.5-22.5,4.2
			c-14.4,5.4-26.6,15.1-35,27.9c-8.5,13-12.4,29.2-10.8,44.6c0.9,9.1,3.5,17.8,7.7,25.9c2.8,5.3,7.2,14.4,13.9,14.8
			c6.7,0.4,13.6,0,20.3,0c15.7,0,31.4-0.1,47.1-0.1c42.9-0.1,85.7-0.1,128.6-0.2c30.6-0.1,61.2-0.1,91.8-0.2c2,0,4,0.1,5.9,0
			c6.8-0.4,11.2-9.7,13.9-15.1c4.2-8.4,6.6-17.3,7.4-26.6c2.6-31.5-17.7-61.1-47.3-71.5c-7.3-2.5-15-3.7-22.7-3.8
			c-9.7-0.1-9.7,14.9,0,15c19.6,0.2,37.8,10.5,47.7,27.5c11.2,19.2,9.5,44.2-4.3,61.7c1.8-0.7,3.5-1.5,5.3-2.2
			c-33.1,0.1-66.2,0.1-99.3,0.2c-52.8,0.1-105.5,0.2-158.3,0.3c-12.1,0-24.3,0-36.4,0.1c1.8,0.7,3.5,1.5,5.3,2.2
			c-16.1-20.1-16-50,0.5-69.7c7.4-8.8,17.2-15.2,28.3-18.1c5.9-1.6,11.8-2.1,17.9-1.7c4.1,0.2,8.2,1,12.1,2.2c2.9,0.9,5.9,2.6,9,2.6
			c2.5,0,5.4-1.4,6.5-3.7c12.3-26.4,38.3-43.9,67.6-43.9c29.3,0,55.2,17.5,67.5,43.7C246.5,242.4,259.4,234.8,255.3,226.1
			L255.3,226.1z"/>
	</g>
</g>
</svg>
