<?xml version="1.0" encoding="utf-8"?>
<!-- Generator: Adobe Illustrator 21.0.2, SVG Export Plug-In . SVG Version: 6.00 Build 0)  -->
<svg version="1.1" id="Layer_1" xmlns="http://www.w3.org/2000/svg" xmlns:xlink="http://www.w3.org/1999/xlink" x="0px" y="0px"
	 viewBox="0 0 425 425" style="enable-background:new 0 0 425 425;" xml:space="preserve">
<style type="text/css">
	.st0{fill:#FFFFFF;}
</style>
<g>
	<g>
		<path class="st0" d="M313.4,177.1c-13.6-29.1-40.1-51.4-71.2-59.6c-32-8.4-67.2-1.9-93.7,18.1c-14.6,11-26.3,25.2-34,41.8
			c2.2-1.2,4.3-2.5,6.5-3.7c-0.7,0-4.3-1.9-5.8-2.4c-2.8-0.9-5.6-1.6-8.4-2.1c-6.3-1.2-12.7-1.8-19.1-1.7c-9.9,0.3-19.8,2.1-29,5.8
			C41,180.3,25.9,192.7,16,209C5.1,226.9,1.5,248.2,4.9,268.8c1.8,11,6.1,21.8,12.1,31.2c3,4.7,6.3,11,12.4,11.3
			c9.6,0.5,19.4,0,29-0.1c21,0,42-0.1,63.1-0.1c54.8-0.1,109.5-0.2,164.3-0.3c36.1-0.1,72.3-0.1,108.4-0.2c1.2,0,2.3,0,3.5,0
			c5.8-0.3,8.8-5.7,11.6-10.1c12.3-18.8,16.3-41.9,12.1-63.8c-7.5-38.8-42.5-67.7-81.7-69.1c-12.1-0.4-24.2,1.8-35.4,6.4
			c-3.7,1.5-6.4,5-5.2,9.2c1,3.5,5.4,6.8,9.2,5.2c23.6-9.7,50.4-7.2,71.1,8.1c18.2,13.5,28.9,35.4,28.7,58
			c-0.2,15.6-5.5,31-15.2,43.3c1.8-0.7,3.5-1.5,5.3-2.2c-12.2,0-24.4,0-36.6,0.1c-29.3,0.1-58.7,0.1-88,0.2
			c-35.7,0.1-71.3,0.1-107,0.2c-30.7,0.1-61.4,0.1-92.1,0.2c-10.1,0-20.3,0-30.4,0.1c-4.7,0-9.8-0.6-14.5,0c-0.2,0-0.4,0-0.6,0
			c1.8,0.7,3.5,1.5,5.3,2.2c-16.5-20.4-20.6-49.7-9.7-73.7c9.6-21.1,28.7-36.3,51.4-40.9c7.1-1.4,14.5-1.7,21.7-0.9
			c4.2,0.5,8.4,1.4,12.5,2.6c3.4,1,7,3.2,10.6,3.2c2.4,0,5.4-1.4,6.5-3.7c12-25.9,34.6-45.6,62.3-53c28-7.4,58.4-1.4,81.5,16.1
			c12.7,9.6,22.5,22.3,29.2,36.7C304.5,193.4,317.5,185.8,313.4,177.1L313.4,177.1z"/>
	</g>
</g>
</svg>
