<?xml version="1.0" encoding="utf-8"?>
<!-- Generator: Adobe Illustrator 21.0.2, SVG Export Plug-In . SVG Version: 6.00 Build 0)  -->
<svg version="1.1" id="Layer_1" xmlns="http://www.w3.org/2000/svg" xmlns:xlink="http://www.w3.org/1999/xlink" x="0px" y="0px"
	 viewBox="0 0 425 425" style="enable-background:new 0 0 425 425;" xml:space="preserve">
<style type="text/css">
	.st0{fill:#FFFFFF;}
</style>
<g>
	<g>
		<g>
			<path class="st0" d="M38.8,312.5c-3.5,0-6.6-0.1-9.4-0.2c-6-0.3-9.5-5.9-12.3-10.4c-0.3-0.5-0.6-0.9-0.9-1.4
				C9.9,290.8,5.7,279.9,3.9,269c-3.5-21.3,0.5-42.8,11.2-60.5c9.8-16.2,25.1-29,43.2-36.1c8.9-3.6,18.8-5.5,29.3-5.9
				c0.5,0,0.9,0,1.4,0c5.9,0,11.9,0.6,17.9,1.7c2.8,0.5,5.7,1.2,8.5,2.1c0.3,0.1,0.8,0.3,1.2,0.5c7.6-14,18.1-26.2,31.2-36
				c18.7-14.1,42.3-21.9,66.4-21.9c9.6,0,19,1.2,28.2,3.6c29.1,7.7,54.1,27.3,68.7,53.9c8.4-2.6,17-3.9,25.7-3.9c0.9,0,1.9,0,2.8,0
				c19.3,0.7,38.2,8.1,53.3,20.8c15.2,12.8,25.6,30.3,29.3,49.2c4.3,22.5-0.1,46-12.2,64.5l-0.6,0.9c-2.8,4.4-5.9,9.4-11.8,9.7
				l-3.6,0c-18,0-35.9,0.1-53.9,0.1c-18.2,0-36.3,0-54.5,0.1l-164.3,0.3c-10.6,0-21.1,0-31.6,0c-10.5,0-21,0-31.5,0
				c-2.7,0-5.5,0.1-8.2,0.2C46.4,312.4,42.6,312.5,38.8,312.5z M34.4,295.1c1.7,0,3.3,0.1,5,0.1c1.6,0.1,3.2,0.1,4.7,0.1
				c10.1-0.1,20.4-0.1,30.4-0.1c15.4-0.1,30.9-0.1,46.3-0.1c15.3,0,30.5,0,45.8-0.1c17.8,0,35.5-0.1,53.2-0.1
				c17.9,0,35.8,0,53.8-0.1c14.6,0,29.2-0.1,43.8-0.1c14.7,0,29.5,0,44.2-0.1c10.9-0.1,22-0.1,32.5-0.1c8.2-11.5,12.9-25.8,13-40.1
				c0.2-22.5-10.4-43.9-28.3-57.2c-12.1-8.9-26.5-13.7-41.7-13.7c-9.7,0-19.3,1.9-28.4,5.7c-0.8,0.3-1.6,0.5-2.5,0.5
				c-1.1,0-2.2-0.3-3.3-0.8c-0.4-0.2-0.8-0.4-1.1-0.7c-1.8-1.2-3.1-3-3.7-4.9c-0.1-0.4-0.2-0.8-0.2-1.1c-6.8-13.4-16-24.6-27.4-33.2
				c-16.2-12.3-36.4-19-56.9-19c-8.1,0-16.1,1-23.8,3.1c-27.1,7.2-49.6,26.4-61.6,52.5c-1.3,2.8-4.8,4.3-7.4,4.3c-2.6,0-5.1-1-7.5-2
				c-1.2-0.5-2.3-0.9-3.4-1.3c-4.2-1.2-8.3-2.1-12.3-2.6c-2.6-0.3-5.2-0.4-7.8-0.4c-4.6,0-9.2,0.4-13.6,1.3
				c-22.3,4.5-41.2,19.6-50.7,40.3c-10.1,22.3-7.2,49.7,7.4,69.8C33.4,295.1,33.9,295.1,34.4,295.1z"/>
			<path class="st0" d="M214.3,113.9c9.4,0,18.8,1.2,27.9,3.6c29.1,7.7,54.2,27.7,68.5,54.2c-2.2,0.7-4.3,1.5-6.4,2.3
				c-3.4,1.4-5.9,4.4-5.4,8c-6.6-13.2-15.9-24.8-27.8-33.7c-16.6-12.6-36.9-19.2-57.5-19.2c-8.1,0-16.1,1-24,3.1
				c-27.7,7.4-50.3,27.1-62.3,53c-1.1,2.3-4.1,3.7-6.5,3.7c-3.6,0-7.2-2.2-10.6-3.2c-4.1-1.2-8.3-2.1-12.5-2.6
				c-2.6-0.3-5.3-0.4-7.9-0.4c-4.6,0-9.3,0.4-13.8,1.3c-22.7,4.6-41.8,19.8-51.4,40.9c-10.5,23.1-7.1,51,7.8,71.3
				c-1,0-1.9,0.1-2.8,0.2c-0.2,0-0.4,0-0.6,0c1.8,0.7,3.5,1.5,5.3,2.2c-0.6-0.8-1.3-1.6-1.9-2.4c0.7,0,1.3,0,2,0
				c3.3,0,6.6,0.3,9.7,0.3c10.1-0.1,20.3-0.1,30.4-0.1c30.7-0.1,61.4-0.1,92.1-0.2c35.7-0.1,71.3-0.1,107-0.2
				c29.3-0.1,58.7-0.1,88-0.2c11-0.1,22-0.1,33-0.1c-0.5,0.7-1.1,1.5-1.7,2.2c1.8-0.7,3.5-1.5,5.3-2.2c-1.2,0-2.4,0-3.6,0
				c8.6-11.9,13.3-26.4,13.5-41.1c0.2-22.6-10.5-44.5-28.7-58c-12.6-9.3-27.3-13.8-42.3-13.8c-9.7,0-19.5,1.9-28.8,5.7
				c-0.7,0.3-1.4,0.4-2.1,0.4c-1,0-2-0.3-2.9-0.7c0.8,0.4,1.7,0.5,2.5,0.5c5,0,10.4-5.5,7.5-11.5c-0.9-1.8-1.8-3.6-2.7-5.4
				c8.5-2.7,17.3-4.1,26.2-4.1c0.9,0,1.9,0,2.8,0c39.2,1.4,74.2,30.3,81.7,69.1c4.2,21.9,0.2,45-12.1,63.8
				c-2.8,4.4-5.8,9.8-11.6,10.1c-1.2,0-2.3,0-3.5,0c-36.1,0.1-72.3,0.1-108.4,0.2c-54.8,0.1-109.5,0.2-164.3,0.3
				c-21.1,0-42.1,0.1-63.1,0.1c-6.5,0.1-13.1,0.3-19.6,0.3c-3.1,0-6.3-0.1-9.4-0.2C23.3,311,20,304.7,17,300
				c-6-9.4-10.3-20.2-12.1-31.2C1.5,248.2,5.1,226.9,16,209c9.9-16.3,25-28.7,42.7-35.7c9.2-3.7,19.1-5.5,29-5.8c0.5,0,0.9,0,1.4,0
				c5.9,0,11.9,0.6,17.7,1.7c2.8,0.5,5.6,1.2,8.4,2.1c0.5,0.2,1.2,0.5,1.9,0.8c-0.9,1.7-1.8,3.5-2.6,5.3c2.2-1.2,4.3-2.5,6.5-3.7
				c-0.5,0-2.3-0.9-3.9-1.6c7.6-14.3,18.3-26.7,31.4-36.5C167.4,121.3,190.8,113.9,214.3,113.9 M298.9,182c0.5,1,1,2,1.4,3
				c0.6,1.1,1.3,2,2.1,2.5c-1.6-1.1-2.8-2.7-3.3-4.3C299,182.8,298.9,182.4,298.9,182 M302.4,187.5c0.3,0.2,0.6,0.4,1,0.6
				C303,188,302.7,187.8,302.4,187.5 M214.3,111.9c-24.3,0-48.1,7.8-67,22.1c-13,9.8-23.4,21.7-31.1,35.5c-0.1-0.1-0.3-0.1-0.4-0.1
				c-2.9-0.9-5.8-1.7-8.7-2.2c-6.1-1.2-12.1-1.7-18.1-1.7c-0.5,0-0.9,0-1.4,0c-10.7,0.3-20.7,2.3-29.7,5.9
				c-18.2,7.2-33.7,20.2-43.7,36.5C3.4,225.8-0.6,247.6,2.9,269.1c1.8,11,6.1,22.1,12.4,32c0.3,0.4,0.6,0.9,0.9,1.4
				c2.9,4.7,6.6,10.5,13.1,10.8c2.9,0.1,5.9,0.2,9.5,0.2c3.8,0,7.7-0.1,11.5-0.2c2.7-0.1,5.5-0.1,8.2-0.1c0,0,0,0,0.1,0
				c10.4,0,21.1,0,31.4,0c10.4,0,21.1-0.1,31.6-0.1l73.2-0.1l91.1-0.2c18.1,0,36.4-0.1,54.2-0.1c17.8,0,36.2,0,54.2-0.1h3.5h0.1
				l0.1,0c6.4-0.3,9.9-5.8,12.6-10.1l0.6-0.9c12.2-18.7,16.7-42.5,12.4-65.3c-3.7-19.1-14.2-36.8-29.6-49.7
				c-15.3-12.8-34.5-20.3-54-21c-1,0-1.9,0-2.9,0c-8.6,0-17,1.3-25.3,3.7c-14.8-26.5-39.8-46-68.9-53.7
				C233.5,113.1,223.9,111.9,214.3,111.9L214.3,111.9z M120.8,190.9c3,0,6.8-1.7,8.3-4.8c12-25.9,34.2-44.8,61-51.9
				c7.6-2,15.5-3,23.5-3c20.3,0,40.3,6.7,56.3,18.8c11.2,8.5,20.3,19.5,27,32.7c0.1,0.4,0.1,0.7,0.2,1.1c0.4,1.4,1.2,2.8,2.3,3.9
				l2.8,5.5l-0.4-3.6c0.2,0.1,0.5,0.3,0.7,0.4c1.2,0.6,2.5,0.9,3.7,0.9c1,0,1.9-0.2,2.8-0.6c9-3.7,18.5-5.6,28-5.6
				c15,0,29.2,4.7,41.1,13.5c17.7,13.1,28.1,34.2,27.9,56.4c-0.2,14-4.6,27.8-12.6,39.1c-10.3,0-21.2,0-32,0.1
				c-14.6,0-29.6,0.1-44,0.1c-14.4,0-29.4,0.1-44,0.1c-17.9,0.1-36,0.1-53.5,0.1c-17.5,0-35.6,0-53.5,0.1c-15.3,0.1-31,0.1-46,0.1
				c-15.1,0-30.7,0.1-46.1,0.1c-10,0-20.3,0-30.4,0.1c-1.5,0-3-0.1-4.7-0.1c-1.6-0.1-3.3-0.1-5-0.1c-0.3,0-0.7,0-1,0
				c-14.2-19.8-16.9-46.6-7-68.4c9.3-20.4,28-35.3,50-39.8c4.4-0.9,8.9-1.3,13.4-1.3c2.6,0,5.2,0.1,7.7,0.4c3.9,0.5,8,1.3,12.2,2.5
				c1,0.3,2.1,0.8,3.3,1.2C115.4,189.9,118,190.9,120.8,190.9L120.8,190.9z M300.8,181.5c-0.2-2.8,2.1-4.8,4.2-5.6
				c1.5-0.6,3.1-1.2,4.6-1.7c0.7,1.3,1.3,2.6,1.9,3.8c1.1,2.4,0.5,4.3-0.3,5.5c-1.2,1.9-3.4,3.2-5.4,3.2c-0.6,0-1.2-0.1-1.7-0.3
				c-0.2-0.1-0.5-0.3-0.7-0.4c-0.6-0.4-1.1-1-1.4-1.8C301.7,183.2,301.3,182.3,300.8,181.5L300.8,181.5z"/>
		</g>
	</g>
</g>
</svg>
