<?xml version="1.0" encoding="utf-8"?>
<!-- Generator: Adobe Illustrator 21.0.2, SVG Export Plug-In . SVG Version: 6.00 Build 0)  -->
<svg version="1.1" id="Layer_1" xmlns="http://www.w3.org/2000/svg" xmlns:xlink="http://www.w3.org/1999/xlink" x="0px" y="0px"
	 viewBox="0 0 425 425" style="enable-background:new 0 0 425 425;" xml:space="preserve">
<style type="text/css">
	.st0{fill:#FFFFFF;}
</style>
<g>
	<g>
		<path class="st0" d="M269.3,187.3c-11.7-24.9-34.3-43.9-61-50.9c-27.1-7.1-57-1.6-79.5,15.3c-12.6,9.4-22.7,21.6-29.3,35.8
			c2.2-1.2,4.3-2.5,6.5-3.7c-0.2,0-3.2-1.5-4.2-1.8c-2.5-0.8-5.1-1.4-7.6-1.9c-5.2-1-10.6-1.5-15.9-1.4c-8.3,0.2-16.8,1.7-24.6,4.7
			c-15.4,6-28.5,16.6-37.1,30.7c-9.2,15.1-12.5,33.1-9.7,50.5c1.5,9.7,5.2,19.2,10.4,27.5c2.8,4.4,5.8,9.9,11.5,10.2
			c8.1,0.4,16.3,0,24.4,0c17.8,0,35.5-0.1,53.3-0.1c46.2-0.1,92.3-0.2,138.5-0.2c30.6-0.1,61.1-0.1,91.7-0.2c0.9,0,1.8,0,2.7,0
			c5.5-0.3,8.3-5.2,11-9.4c10.3-15.9,13.7-35.5,10.2-54.1c-6.3-33.2-36.1-58-69.6-59.4c-10.4-0.4-21,1.5-30.6,5.4
			c-3.7,1.5-6.4,5-5.2,9.2c1,3.5,5.4,6.8,9.2,5.2c24.8-10.1,53.5-3.7,70.3,17.6c16.4,21,16.5,51.6-0.1,72.6c1.8-0.7,3.5-1.5,5.3-2.2
			c-35.2,0.1-70.4,0.1-105.6,0.2c-55.7,0.1-111.4,0.2-167.2,0.3c-12.9,0-25.7,0-38.6,0.1c1.8,0.7,3.5,1.5,5.3,2.2
			c-17.3-21.4-17.2-53.7,0.7-74.7c7.8-9.1,17.9-15.8,29.5-19c6.3-1.7,12.7-2.4,19.3-2c4.1,0.2,8.1,0.9,12,2
			c3.4,0.9,7.1,3.1,10.6,3.1c2.5,0,5.4-1.4,6.5-3.7c10-21.4,28.4-37.8,51.4-44c23.3-6.3,48.7-1.4,68,13c10.7,8,18.9,18.7,24.5,30.7
			C260.5,203.6,273.4,196,269.3,187.3L269.3,187.3z"/>
	</g>
</g>
<g>
	<g>
		<path class="st0" d="M354.6,265.2c8,0,16,0,24,0c5.1,0,10.3,0,15.4,0c3.8,0,7.9,0.6,10.9-2.2c6.7-6.3,11-17.5,12.9-26.3
			c1.9-9,1.9-18.3,0-27.3c-3.4-15.9-13.5-30-27-38.9c-16.9-11.2-39-13.2-57.7-5.6c-3.7,1.5-6.4,5-5.2,9.2c1,3.6,5.4,6.8,9.2,5.2
			c20-8.1,43-3.3,56.7,13.8c13.7,16.9,13.9,42.1,0.4,59.2c1.8-0.7,3.5-1.5,5.3-2.2c-15,0-30,0.1-45,0.1
			C344.9,250.2,344.9,265.2,354.6,265.2L354.6,265.2z"/>
	</g>
</g>
<g>
	<g>
		<path class="st0" d="M342,168.1c-10-21.2-29.5-37.5-52.3-43.1c-25.6-6.3-52.2,0.6-72.1,17.7c-7.3,6.3,3.3,16.9,10.6,10.6
			c16.1-13.9,38.3-19.1,58.9-13.5c18.8,5.1,33.7,18.4,42,35.9C333.2,184.4,346.1,176.8,342,168.1L342,168.1z"/>
	</g>
</g>
</svg>
