<?xml version="1.0" encoding="utf-8"?>
<!-- Generator: Adobe Illustrator 21.0.2, SVG Export Plug-In . SVG Version: 6.00 Build 0)  -->
<svg version="1.1" id="Layer_1" xmlns="http://www.w3.org/2000/svg" xmlns:xlink="http://www.w3.org/1999/xlink" x="0px" y="0px"
	 viewBox="0 0 425 425" style="enable-background:new 0 0 425 425;" xml:space="preserve">
<style type="text/css">
	.st0{fill:#FFFFFF;}
</style>
<g>
	<g>
		<g>
			<path class="st0" d="M36.9,303.5c-3.1,0-5.7-0.1-8.2-0.2c-5.8-0.3-8.9-5.3-11.7-9.6l-0.6-1C11,284,7.4,274.4,5.9,264.8
				c-2.9-17.9,0.6-36,9.8-51.2c8.6-14.1,21.6-24.9,37.6-31.1c7.6-2.9,16.2-4.6,24.9-4.8c0.5,0,0.9,0,1.4,0c4.9,0,9.8,0.5,14.8,1.4
				c2.9,0.6,5.2,1.2,7.3,1.8c6.5-11.7,15.4-21.8,26.5-30c15.9-11.9,35.9-18.5,56.4-18.5c8.1,0,16.2,1,23.9,3.1
				c24.7,6.5,46,23,58.6,45.5c6.9-2,14-3.1,21.1-3.1c0.9,0,1.8,0,2.8,0.1c34.5,1.4,64.2,26.8,70.5,60.2c3.6,19.1-0.2,39.1-10.3,54.8
				l-0.5,0.7c-2.6,4.1-5.6,8.8-11.3,9.1l-2.8,0c-15.2,0-30.4,0.1-45.6,0.1c-15.4,0-30.7,0-46.1,0.1c-46.1,0-92.9,0.1-138.2,0.2
				l-0.3,0c-8.9,0-17.8,0-26.6,0.1c-8.9,0-17.8,0-26.7,0c-2.7,0-5.4,0-8.1,0.1C42.4,303.4,39.7,303.5,36.9,303.5z M79.7,194.7
				c-5.1,0-10.3,0.7-15.4,2.1c-11.1,3.1-21.2,9.5-29,18.7c-16.6,19.4-17.7,49.8-2.7,70.8c11.5-0.1,23.2-0.1,34.5-0.1l167.2-0.3
				c17.5,0,35-0.1,52.5-0.1c16.3,0,32.6,0,48.9-0.1c14.5-20.6,13.8-48.9-1.8-68.8c-11-13.9-27.6-21.9-45.7-21.9
				c-8,0-15.9,1.6-23.4,4.6c-0.8,0.3-1.6,0.5-2.4,0.5c-3.5,0-7.1-2.8-8.1-6.3c-0.1-0.5-0.2-0.9-0.3-1.4
				c-5.7-11.2-13.4-20.4-22.8-27.4c-13.4-10-30.1-15.5-47-15.5c-6.8,0-13.6,0.9-20.2,2.7c-22.1,6-40.6,21.8-50.8,43.5
				c-1.3,2.8-4.7,4.3-7.4,4.3c-2.4,0-4.9-0.9-7.2-1.9c-1.3-0.5-2.5-1-3.6-1.3c-4-1.1-7.9-1.8-11.8-2
				C82.1,194.7,80.9,194.7,79.7,194.7z"/>
			<path class="st0" d="M184.6,133.4c8,0,15.9,1,23.7,3c24.8,6.5,46.1,23.4,58.3,45.7c-2.1,0.6-4.2,1.4-6.2,2.2
				c-3.3,1.3-5.8,4.2-5.5,7.8c-5.5-10.9-13.3-20.5-23.1-27.9c-13.8-10.3-30.6-15.7-47.6-15.7c-6.9,0-13.7,0.9-20.4,2.7
				c-23,6.2-41.4,22.6-51.4,44c-1.1,2.3-4,3.7-6.5,3.7c-3.5,0-7.2-2.2-10.6-3.1c-3.9-1.1-7.9-1.8-12-2c-1.2-0.1-2.4-0.1-3.6-0.1
				c-5.3,0-10.5,0.7-15.7,2.1c-11.6,3.2-21.7,9.9-29.5,19c-17.3,20.3-18,51.1-2.4,72.5c-1.2,0-2.4,0-3.6,0c1.8,0.7,3.5,1.5,5.3,2.2
				c-0.6-0.7-1.2-1.5-1.7-2.2c11.7-0.1,23.3-0.1,35-0.1c55.8-0.1,111.5-0.2,167.2-0.3c34-0.1,68-0.1,101.9-0.2
				c-0.5,0.7-1.1,1.5-1.6,2.2c1.8-0.7,3.5-1.5,5.3-2.2c-1.2,0-2.4,0-3.7,0c14.9-20.9,14.3-50.1-1.5-70.4
				c-11.6-14.7-28.8-22.3-46.5-22.3c-8,0-16.1,1.5-23.8,4.7c-0.7,0.3-1.4,0.4-2.1,0.4c-3.2,0-6.3-2.7-7.1-5.6
				c-0.1-0.5-0.2-0.9-0.3-1.4c0.5,0.9,0.9,1.9,1.4,2.8c1.3,2.7,3.5,3.8,5.7,3.8c4.9,0,10.1-5.5,7.3-11.4c-0.8-1.8-1.7-3.5-2.7-5.2
				c7-2.1,14.3-3.2,21.6-3.2c0.9,0,1.8,0,2.7,0.1c33.5,1.4,63.3,26.2,69.6,59.4c3.5,18.6,0.1,38.2-10.2,54.1
				c-2.7,4.2-5.5,9.1-11,9.4c-0.9,0-1.8,0-2.7,0c-30.6,0.1-61.1,0.1-91.7,0.2c-46.2,0-92.3,0.1-138.5,0.2c-17.8,0-35.5,0.1-53.3,0.1
				c-5.4,0-10.8,0.2-16.3,0.2c-2.7,0-5.4,0-8.1-0.2c-5.7-0.3-8.7-5.8-11.5-10.2c-5.2-8.3-8.9-17.8-10.4-27.5
				c-2.8-17.4,0.5-35.4,9.7-50.5c8.6-14.1,21.7-24.7,37.1-30.7c7.8-3,16.3-4.5,24.6-4.7c0.4,0,0.9,0,1.3,0c4.9,0,9.8,0.5,14.6,1.4
				c2.5,0.5,5.1,1.1,7.6,1.9c0.1,0,0.3,0.1,0.4,0.1c-1,1.8-1.9,3.5-2.7,5.4c2.2-1.2,4.3-2.5,6.5-3.7c-0.2,0-2.6-1.2-3.8-1.7
				c6.5-11.9,15.6-22.2,26.6-30.4C144.9,139.6,164.7,133.4,184.6,133.4 M184.6,131.4c-20.7,0-41,6.7-57,18.7
				c-10.9,8.1-19.8,18.1-26.3,29.6c-1.9-0.6-4.1-1.1-6.7-1.6c-5-1-10-1.5-15-1.5c-0.5,0-0.9,0-1.4,0c-8.9,0.2-17.6,1.9-25.3,4.8
				c-16.2,6.3-29.4,17.2-38.1,31.5c-9.3,15.3-12.9,33.7-10,51.9c1.5,9.7,5.2,19.5,10.7,28.2c0.2,0.3,0.4,0.7,0.6,1
				c2.7,4.4,6.1,9.8,12.4,10.1c2.5,0.1,5.2,0.2,8.2,0.2c2.7,0,5.5,0,8.2-0.1c2.7,0,5.4-0.1,8.1-0.1c8.9,0,17.9,0,26.7-0.1
				c8.7,0,17.7,0,26.6,0l0.3,0c45.3-0.1,92.1-0.2,138.2-0.2c15.3,0,30.8-0.1,45.8-0.1c15,0,30.6,0,45.9-0.1h2.7h0.1l0.1,0
				c6.2-0.3,9.5-5.5,12.1-9.6l0.5-0.7c10.3-15.9,14.1-36.2,10.5-55.6c-3.1-16.4-12.1-31.6-25.3-42.8c-13.1-11.1-29.5-17.5-46.2-18.2
				c-0.9,0-1.9-0.1-2.8-0.1c-7,0-13.9,1-20.7,2.9c-12.8-22.3-34.1-38.8-58.8-45.3C201,132.4,192.8,131.4,184.6,131.4L184.6,131.4z
				 M105.9,200.9c2.9,0,6.7-1.5,8.3-4.8c10-21.4,28.3-37,50.1-42.9c6.4-1.7,13.1-2.6,19.9-2.6c16.7,0,33.2,5.4,46.4,15.3
				c9.2,6.9,16.8,15.9,22.4,26.9c0.1,0.5,0.2,0.9,0.3,1.4c0.4,1.5,1.3,3,2.5,4.1l2.1,4l-0.2-2.6c1.5,0.9,3.1,1.5,4.7,1.5
				c1,0,1.9-0.2,2.8-0.6c7.4-3,15.1-4.5,23-4.5c17.8,0,34.2,7.8,45,21.5c7.4,9.5,11.6,21.5,11.9,33.8c0.3,12-3.2,23.8-9.8,33.4
				c-16,0-32.1,0.1-48.1,0.1c-17.3,0-35.2,0.1-52.8,0.1l-167.2,0.3c-11.1,0-22.6,0-34,0.1c-6.9-9.9-10.5-22.1-10.1-34.6
				c0.4-12.9,5-25.2,13-34.6c7.7-9,17.6-15.4,28.5-18.4c5-1.4,10.1-2,15.2-2c1.2,0,2.3,0,3.5,0.1c3.8,0.2,7.7,0.8,11.6,1.9
				c1.1,0.3,2.3,0.8,3.6,1.2C100.8,199.9,103.3,200.9,105.9,200.9L105.9,200.9z M256.9,191.6c0-2.7,2.2-4.6,4.2-5.4
				c1.5-0.6,3-1.2,4.5-1.7c0.6,1.2,1.2,2.4,1.8,3.7c1.1,2.4,0.5,4.3-0.3,5.5c-1.2,1.8-3.2,3-5.2,3c-1.7,0-3-0.9-3.9-2.7
				C257.7,193.2,257.3,192.4,256.9,191.6L256.9,191.6z"/>
		</g>
	</g>
</g>
<g>
	<g>
		<g>
			<path class="st0" d="M397.5,266.3c-0.6,0-1.2,0-1.8,0c-0.6,0-1.1,0-1.7,0h-39.4c-2.6,0-4.7-0.9-6.2-2.7c-1.3-1.5-2.1-3.6-2.1-5.8
				c0-4.2,2.8-8.5,8.2-8.5c7.5,0,15,0,22.5,0c6.1,0,12.2,0,18.3,0c11.3-16.6,10.3-39.8-2.3-55.4c-8.8-11-22.1-17.3-36.4-17.3
				c-6.5,0-13,1.3-19.1,3.8c-0.8,0.3-1.6,0.5-2.5,0.5c-3.5,0-7.1-2.9-8.1-6.4c-1.2-4.2,1.2-8.5,5.8-10.4c7.5-3.1,15.6-4.6,23.8-4.6
				c12.6,0,24.6,3.6,34.8,10.3c14,9.3,24,23.7,27.4,39.5c1.9,9.2,1.9,18.5,0,27.7c-0.9,4.2-4.6,18.7-13.2,26.8
				C403.2,265.9,400.3,266.3,397.5,266.3L397.5,266.3z"/>
			<path class="st0" d="M356.6,160.4c12,0,24.1,3.4,34.2,10.1c13.5,8.9,23.6,23,27,38.9c1.9,9,1.9,18.3,0,27.3
				c-1.9,8.8-6.2,20-12.9,26.3c-2.1,2-4.7,2.3-7.4,2.3c-1.2,0-2.3-0.1-3.5-0.1c-5.1,0-10.3,0-15.4,0c-8,0-16,0-24,0
				c-9.7,0-9.7-15-0.1-15c13.8,0,27.6-0.1,41.3-0.1c-0.5,0.7-1.1,1.5-1.6,2.2c1.8-0.7,3.5-1.5,5.3-2.2c-1.2,0-2.4,0-3.7,0
				c11.8-17,11.1-40.8-2-57c-9.4-11.7-23.1-17.6-37.2-17.6c-6.5,0-13.2,1.3-19.5,3.8c-0.7,0.3-1.4,0.4-2.1,0.4
				c-3.2,0-6.3-2.7-7.1-5.6c-1.2-4.2,1.5-7.7,5.2-9.2C340.6,161.9,348.6,160.4,356.6,160.4 M356.6,158.4c-8.4,0-16.6,1.6-24.2,4.7
				c-5.1,2.1-7.7,6.8-6.4,11.6c1.1,4,5.1,7.1,9,7.1c1,0,2-0.2,2.9-0.6c6-2.4,12.3-3.7,18.7-3.7c14.1,0,27.1,6.2,35.7,16.9
				c12.2,15.1,13.2,37.5,2.5,53.8c-5.9,0-11.8,0-17.8,0c-7.4,0-15,0-22.5,0c-6,0-9.2,4.8-9.2,9.5c0,2.4,0.8,4.8,2.3,6.5
				c1.7,2,4.1,3.1,7,3.1h24H394c0.6,0,1.1,0,1.7,0c0.6,0,1.2,0,1.8,0c2.9,0,6.2-0.3,8.8-2.8c8.8-8.3,12.6-23,13.5-27.3
				c2-9.3,2-18.8,0-28.1c-3.4-16.1-13.6-30.8-27.9-40.2C381.6,162,369.4,158.4,356.6,158.4L356.6,158.4z"/>
		</g>
	</g>
</g>
<g>
	<g>
		<g>
			<path class="st0" d="M334.7,180.5c-2.8,0-5.2-1.6-6.5-4.4c-8.4-17.6-23.4-30.5-41.4-35.4c-5.3-1.4-10.8-2.2-16.4-2.2
				c-15.3,0-30,5.5-41.6,15.5c-1.6,1.4-3.6,2.2-5.6,2.2c-3.7,0-7.3-2.5-8.6-6c-1.1-3-0.3-6,2.3-8.3c15.2-13.1,34.3-20.2,53.8-20.2
				c6.4,0,12.9,0.8,19.2,2.3c22.9,5.6,42.7,21.9,53,43.6c1.3,2.8,1.2,5.8-0.5,8.4C340.7,178.8,337.7,180.5,334.7,180.5L334.7,180.5z
				"/>
			<path class="st0" d="M270.8,122.7c6.3,0,12.6,0.8,18.9,2.3c22.8,5.6,42.3,21.9,52.3,43.1c2.8,6-2.4,11.4-7.3,11.4
				c-2.2,0-4.4-1.1-5.6-3.8c-8.3-17.5-23.2-30.8-42-35.9c-5.5-1.5-11.1-2.2-16.6-2.2c-15.3,0-30.4,5.5-42.3,15.7
				c-1.6,1.4-3.3,1.9-5,1.9c-6.1,0-11.4-7.6-5.6-12.5C232.6,129.8,251.4,122.7,270.8,122.7 M270.8,120.7c-19.8,0-39.1,7.3-54.5,20.5
				c-2.9,2.5-3.9,6-2.6,9.4c1.4,3.9,5.5,6.7,9.5,6.7c2.3,0,4.4-0.8,6.3-2.4c11.4-9.8,25.9-15.2,41-15.2c5.5,0,10.9,0.7,16.1,2.1
				c17.7,4.8,32.5,17.5,40.7,34.8c1.5,3.2,4.2,5,7.4,5c3.3,0,6.7-1.9,8.5-4.9c1.8-2.9,2-6.3,0.5-9.4c-10.4-22-30.4-38.5-53.6-44.2
				C283.8,121.5,277.3,120.7,270.8,120.7L270.8,120.7z"/>
		</g>
	</g>
</g>
</svg>
