<?xml version="1.0" encoding="utf-8"?>
<!-- Generator: Adobe Illustrator 21.0.2, SVG Export Plug-In . SVG Version: 6.00 Build 0)  -->
<svg version="1.1" id="Layer_1" xmlns="http://www.w3.org/2000/svg" xmlns:xlink="http://www.w3.org/1999/xlink" x="0px" y="0px"
	 viewBox="0 0 425 425" style="enable-background:new 0 0 425 425;" xml:space="preserve">
<style type="text/css">
	.st0{fill:#FFFFFF;}
</style>
<g>
	<circle class="st0" cx="97.5" cy="299.5" r="10.5"/>
	<g>
		<path class="st0" d="M100.5,299.5c-0.2,3.9-6.1,4-6.1,0C94.4,295.6,100.3,295.6,100.5,299.5c0.5,9.6,15.5,9.7,15,0
			c-0.5-9.8-7.9-18-18-18c-9.9,0-18,8.3-18,18c-0.1,9.6,8,17.7,17.5,18c10.4,0.4,18.1-8,18.6-18C116,289.9,101,289.9,100.5,299.5z"
			/>
	</g>
</g>
<g>
	<circle class="st0" cx="175.8" cy="299.5" r="10.5"/>
	<g>
		<path class="st0" d="M178.9,299.5c-0.2,3.9-6.1,4-6.1,0C172.8,295.6,178.7,295.6,178.9,299.5c0.5,9.6,15.5,9.7,15,0
			c-0.5-9.8-7.9-18-18-18c-9.9,0-18,8.3-18,18c-0.1,9.6,8,17.7,17.5,18c10.4,0.4,18.1-8,18.6-18
			C194.4,289.9,179.4,289.9,178.9,299.5z"/>
	</g>
</g>
<g>
	<circle class="st0" cx="252.6" cy="299.5" r="10.5"/>
	<g>
		<path class="st0" d="M255.7,299.5c-0.2,3.9-6.1,4-6.1,0C249.6,295.6,255.5,295.6,255.7,299.5c0.5,9.6,15.5,9.7,15,0
			c-0.5-9.8-7.9-18-18-18c-9.9,0-18,8.3-18,18c-0.1,9.6,8,17.7,17.5,18c10.4,0.4,18.1-8,18.6-18
			C271.2,289.9,256.2,289.9,255.7,299.5z"/>
	</g>
</g>
<g>
	<circle class="st0" cx="329.9" cy="299.5" r="10.5"/>
	<g>
		<path class="st0" d="M332.9,299.5c-0.2,3.9-6.1,4-6.1,0C326.8,295.6,332.7,295.6,332.9,299.5c0.5,9.6,15.5,9.7,15,0
			c-0.5-9.8-7.9-18-18-18c-9.9,0-18,8.3-18,18c-0.1,9.6,8,17.7,17.5,18c10.4,0.4,18.1-8,18.6-18
			C348.5,289.9,333.5,289.9,332.9,299.5z"/>
	</g>
</g>
<g>
	<circle class="st0" cx="135.7" cy="360" r="10.5"/>
	<g>
		<path class="st0" d="M138.8,360c-0.2,3.9-6.1,4-6.1,0C132.7,356,138.6,356,138.8,360c0.5,9.6,15.5,9.7,15,0c-0.5-9.8-7.9-18-18-18
			c-9.9,0-18,8.3-18,18c-0.1,9.6,8,17.7,17.5,18c10.4,0.4,18.1-8,18.6-18C154.3,350.3,139.3,350.3,138.8,360z"/>
	</g>
</g>
<g>
	<circle class="st0" cx="212.5" cy="360" r="10.5"/>
	<g>
		<path class="st0" d="M215.5,360c-0.2,3.9-6.1,4-6.1,0C209.5,356,215.3,356,215.5,360c0.5,9.6,15.5,9.7,15,0c-0.5-9.8-7.9-18-18-18
			c-9.9,0-18,8.3-18,18c-0.1,9.6,8,17.7,17.5,18c10.4,0.4,18.1-8,18.6-18C231.1,350.3,216.1,350.3,215.5,360z"/>
	</g>
</g>
<g>
	<circle class="st0" cx="289.8" cy="360" r="10.5"/>
	<g>
		<path class="st0" d="M292.8,360c-0.2,3.9-6.1,4-6.1,0C286.7,356,292.6,356,292.8,360c0.5,9.6,15.5,9.7,15,0c-0.5-9.8-7.9-18-18-18
			c-9.9,0-18,8.3-18,18c-0.1,9.6,8,17.7,17.5,18c10.4,0.4,18.1-8,18.6-18C308.3,350.3,293.3,350.3,292.8,360z"/>
	</g>
</g>
<g>
	<g>
		<path class="st0" d="M313.1,110.6c-13.8-29.5-40.7-52-72.3-60.1c-32.2-8.3-67.5-1.4-94,18.8c-14.4,11-26.1,25.2-33.7,41.6
			c2.2-1.2,4.3-2.5,6.5-3.7c-0.7,0-4.4-1.9-5.8-2.4c-2.8-0.9-5.6-1.6-8.4-2.1c-6.5-1.3-13.2-1.9-19.9-1.7
			c-9.7,0.3-19.4,2.2-28.5,5.8c-18,7.1-33.3,19.9-43.2,36.5c-10.7,17.9-14.2,39-10.8,59.5c1.9,11.1,6.1,21.9,12.2,31.3
			c3,4.7,6.4,11,12.5,11.3c9.7,0.4,19.6,0,29.3-0.1c21.1,0,42.1-0.1,63.2-0.1c54.8-0.1,109.6-0.2,164.4-0.3
			c36.6-0.1,73.2-0.1,109.9-0.2c1.1,0,2.3,0,3.4,0c5.4-0.2,8-4.6,10.9-8.8c13-19,17.4-43,13.1-65.5c-7.5-39-42.6-68.1-82.1-69.5
			c-12.2-0.4-24.4,1.8-35.6,6.4c-3.7,1.5-6.4,5-5.2,9.2c1,3.5,5.4,6.8,9.2,5.2c23.8-9.8,50.7-7.2,71.5,8.1
			c18.4,13.5,29.1,35.7,28.9,58.4c-0.2,15.7-5.6,31.2-15.3,43.5c1.8-0.7,3.5-1.5,5.3-2.2c-12.3,0-24.5,0-36.8,0.1
			c-29.6,0.1-59.2,0.1-88.8,0.2c-35.7,0.1-71.4,0.1-107,0.2c-31,0.1-62,0.1-93,0.2c-10.1,0-20.3,0-30.4,0.1c-4.7,0-9.9-0.6-14.6,0
			c-0.2,0-0.4,0-0.6,0c1.8,0.7,3.5,1.5,5.3,2.2c-16.6-20.6-20.7-50-9.7-74.2c9.6-21.2,28.9-36.6,51.7-41.2
			c7.2-1.4,14.6-1.7,21.9-0.9c4.3,0.5,8.5,1.4,12.6,2.6c3.5,1,7,3.2,10.6,3.2c2.4,0,5.4-1.4,6.5-3.7c11.9-25.7,34.2-45.4,61.6-53
			c28.3-7.8,58.9-2,82.5,15.4c13,9.6,23.1,22.7,30,37.3C304.2,126.9,317.2,119.3,313.1,110.6L313.1,110.6z"/>
	</g>
</g>
</svg>
