<?xml version="1.0" encoding="utf-8"?>
<!-- Generator: Adobe Illustrator 21.0.2, SVG Export Plug-In . SVG Version: 6.00 Build 0)  -->
<svg version="1.1" id="Layer_1" xmlns="http://www.w3.org/2000/svg" xmlns:xlink="http://www.w3.org/1999/xlink" x="0px" y="0px"
	 viewBox="0 0 425 425" style="enable-background:new 0 0 425 425;" xml:space="preserve">
<style type="text/css">
	.st0{fill:#FFFFFF;}
</style>
<g>
	<g>
		<path class="st0" d="M97.7,318.5c-0.2,0-0.5,0-0.7,0c-10.1-0.3-18.6-9-18.5-19c0-10.3,8.7-19,19-19c9,0,16.6,6.4,18.5,15.5
			c0.4,1.1,0.6,2.2,0.6,3.5C116.1,310.4,107.9,318.5,97.7,318.5C97.7,318.5,97.7,318.5,97.7,318.5z"/>
		<path class="st0" d="M97.5,281.5c9,0,15.8,6.5,17.6,14.8c0.4,0.9,0.6,2,0.5,3.2c-0.5,9.8-7.8,18-17.9,18c-0.2,0-0.5,0-0.7,0
			c-9.5-0.3-17.6-8.4-17.5-18C79.5,289.8,87.6,281.5,97.5,281.5 M97.5,279.5c-10.8,0-20,9.2-20,20c-0.1,10.5,8.8,19.7,19.4,20
			c0.3,0,0.5,0,0.8,0c10.8,0,19.3-8.6,19.9-19.9c0.1-1.4-0.1-2.7-0.6-3.9C114.9,286.2,106.9,279.5,97.5,279.5L97.5,279.5z"/>
	</g>
	<g>
		<path class="st0" d="M176.1,318.5c-0.2,0-0.5,0-0.7,0c-10.1-0.3-18.6-9-18.5-19c0-10.3,8.7-19,19-19c9,0,16.6,6.4,18.5,15.5
			c0.4,1.1,0.6,2.2,0.6,3.5C194.5,310.4,186.3,318.5,176.1,318.5C176.1,318.5,176.1,318.5,176.1,318.5z"/>
		<path class="st0" d="M175.9,281.5c9,0,15.8,6.5,17.6,14.8c0.4,0.9,0.6,2,0.5,3.2c-0.5,9.8-7.8,18-17.9,18c-0.2,0-0.5,0-0.7,0
			c-9.5-0.3-17.6-8.4-17.5-18C157.9,289.8,166,281.5,175.9,281.5 M175.9,279.5c-10.8,0-20,9.2-20,20c-0.1,10.5,8.8,19.7,19.4,20
			c0.3,0,0.5,0,0.8,0c10.8,0,19.3-8.6,19.9-19.9c0.1-1.4-0.1-2.7-0.6-3.9C193.3,286.2,185.3,279.5,175.9,279.5L175.9,279.5z"/>
	</g>
	<g>
		<path class="st0" d="M252.9,318.5c-0.2,0-0.5,0-0.7,0c-10.1-0.3-18.6-9-18.5-19c0-10.3,8.7-19,19-19c9,0,16.6,6.4,18.5,15.5
			c0.4,1.1,0.6,2.2,0.6,3.5C271.3,310.4,263.1,318.5,252.9,318.5L252.9,318.5z"/>
		<path class="st0" d="M252.7,281.5c9,0,15.8,6.5,17.6,14.8c0.4,0.9,0.6,2,0.5,3.2c-0.5,9.8-7.8,18-17.9,18c-0.2,0-0.5,0-0.7,0
			c-9.5-0.3-17.6-8.4-17.5-18C234.7,289.8,242.8,281.5,252.7,281.5 M252.7,279.5c-10.8,0-20,9.2-20,20c-0.1,10.5,8.8,19.7,19.4,20
			c0.3,0,0.5,0,0.8,0c10.8,0,19.3-8.6,19.9-19.9c0.1-1.4-0.1-2.7-0.6-3.9C270.1,286.2,262.1,279.5,252.7,279.5L252.7,279.5z"/>
	</g>
	<g>
		<path class="st0" d="M330.1,318.5c-0.2,0-0.5,0-0.7,0c-10.1-0.3-18.6-9-18.5-19c0-10.3,8.7-19,19-19c8.9,0,16.5,6.3,18.5,15.4
			c0.5,1.1,0.7,2.3,0.6,3.7C348.5,310.4,340.3,318.5,330.1,318.5L330.1,318.5z"/>
		<path class="st0" d="M329.9,281.5c8.9,0,15.8,6.4,17.6,14.7c0.4,0.9,0.6,2,0.5,3.3c-0.5,9.8-7.8,18-17.9,18c-0.2,0-0.5,0-0.7,0
			c-9.5-0.3-17.6-8.4-17.5-18C311.9,289.8,320,281.5,329.9,281.5 M329.9,279.5c-10.8,0-20,9.2-20,20c-0.1,10.5,8.8,19.7,19.4,20
			c0.3,0,0.5,0,0.8,0c10.8,0,19.3-8.6,19.9-19.9c0.1-1.4-0.1-2.8-0.6-4C347.2,286.1,339.2,279.5,329.9,279.5L329.9,279.5z"/>
	</g>
	<g>
		<path class="st0" d="M136,379c-0.2,0-0.5,0-0.7,0c-10.1-0.3-18.6-9-18.5-19c0-10.3,8.7-19,19-19c8.9,0,16.5,6.4,18.5,15.5
			c0.4,1.1,0.6,2.3,0.6,3.6C154.4,370.9,146.2,379,136,379C136,379,136,379,136,379z"/>
		<path class="st0" d="M135.8,342c9,0,15.8,6.5,17.6,14.8c0.4,0.9,0.6,2,0.5,3.2c-0.5,9.8-7.8,18-17.9,18c-0.2,0-0.5,0-0.7,0
			c-9.5-0.3-17.6-8.4-17.5-18C117.8,350.3,125.9,342,135.8,342 M135.8,340c-10.8,0-20,9.2-20,20c-0.1,10.5,8.8,19.7,19.4,20
			c0.3,0,0.5,0,0.8,0c10.8,0,19.3-8.6,19.9-19.9c0.1-1.4-0.1-2.7-0.6-3.9C153.2,346.6,145.2,340,135.8,340L135.8,340z"/>
	</g>
	<g>
		<path class="st0" d="M212.7,379c-0.2,0-0.5,0-0.7,0c-10.1-0.3-18.6-9-18.5-19c0-10.3,8.7-19,19-19c8.9,0,16.5,6.3,18.5,15.3
			c0.5,1.1,0.7,2.4,0.6,3.7C231.1,370.9,222.9,379,212.7,379C212.7,379,212.7,379,212.7,379z"/>
		<path class="st0" d="M212.5,342c8.9,0,15.7,6.4,17.5,14.7c0.4,0.9,0.6,2.1,0.6,3.3c-0.5,9.8-7.8,18-17.9,18c-0.2,0-0.5,0-0.7,0
			c-9.5-0.3-17.6-8.4-17.5-18C194.5,350.3,202.6,342,212.5,342 M212.5,340c-10.8,0-20,9.2-20,20c-0.1,10.5,8.8,19.7,19.4,20
			c0.3,0,0.5,0,0.8,0c10.8,0,19.3-8.6,19.9-19.9c0.1-1.5-0.1-2.8-0.6-4.1C229.8,346.6,221.8,340,212.5,340L212.5,340z"/>
	</g>
	<g>
		<path class="st0" d="M290,379c-0.2,0-0.5,0-0.7,0c-10.1-0.3-18.6-9-18.5-19c0-10.3,8.7-19,19-19c8.9,0,16.5,6.4,18.5,15.5
			c0.4,1.1,0.6,2.3,0.6,3.6C308.4,370.9,300.2,379,290,379L290,379z"/>
		<path class="st0" d="M289.8,342c9,0,15.8,6.5,17.6,14.8c0.4,0.9,0.6,2,0.5,3.2c-0.5,9.8-7.8,18-17.9,18c-0.2,0-0.5,0-0.7,0
			c-9.5-0.3-17.6-8.4-17.5-18C271.8,350.3,279.9,342,289.8,342 M289.8,340c-10.8,0-20,9.2-20,20c-0.1,10.5,8.8,19.7,19.4,20
			c0.3,0,0.5,0,0.8,0c10.8,0,19.3-8.6,19.9-19.9c0.1-1.4-0.1-2.7-0.6-3.9C307.2,346.6,299.2,340,289.8,340L289.8,340z"/>
	</g>
	<g>
		<path class="st0" d="M37.1,246.6c-3.5,0-6.6-0.1-9.4-0.2c-6.1-0.3-9.7-6-12.5-10.5c-0.3-0.4-0.5-0.8-0.8-1.2
			C8.2,225.2,3.9,214.2,2,203c-3.5-21.2,0.4-42.5,10.9-60.2c9.9-16.6,25.4-29.7,43.7-36.9c9.1-3.6,18.8-5.6,28.8-5.9
			c0.9,0,1.7,0,2.6,0c5.8,0,11.7,0.6,17.6,1.8c2.8,0.5,5.7,1.2,8.5,2.1c0.3,0.1,0.7,0.3,1.2,0.5c7.5-13.7,18.1-26.1,30.9-35.8
			c19-14.5,42.9-22.4,67.3-22.4c9.3,0,18.6,1.2,27.6,3.5c29.5,7.6,54.9,27.4,69.7,54.3c8.5-2.7,17.3-4,26.2-4c1,0,1.9,0,2.9,0
			c19.4,0.7,38.5,8.1,53.7,20.9c15.3,12.9,25.7,30.4,29.4,49.4c4.5,23.3-0.4,47.4-13.3,66.3l-0.6,0.9c-2.7,4-5.6,8.1-11.1,8.3
			l-3.4,0c-18.4,0.1-36.8,0.1-55.2,0.1c-18.2,0-36.5,0-54.7,0.1l-164.4,0.3c-10.6,0-21.1,0-31.6,0c-10.5,0-21.1,0.1-31.6,0.1
			c-2.6,0-5.3,0.1-7.9,0.1C45.1,246.5,41.1,246.6,37.1,246.6z M32.9,229c1.7,0,3.4,0.1,5,0.1c1.6,0.1,3.2,0.1,4.7,0.1
			c10.1-0.1,20.4-0.1,30.4-0.1c15.5,0,31-0.1,46.5-0.1c15.5,0,31,0,46.5-0.1c17.9-0.1,35.8-0.1,53.8-0.1c17.7,0,35.5,0,53.2-0.1
			c14.9-0.1,29.7-0.1,44.6-0.1c14.7,0,29.5,0,44.2-0.1c10.7-0.1,21.6-0.1,32.6-0.1c8.3-11.6,13-25.9,13.2-40.3
			c0.2-22.8-10.4-44.3-28.5-57.6c-12.2-9-26.7-13.7-41.9-13.7c-9.8,0-19.4,1.9-28.6,5.7c-0.8,0.3-1.6,0.5-2.5,0.5
			c-3.5,0-7.1-2.8-8.1-6.3c-0.2-0.6-0.3-1.2-0.3-1.9c-7-13.5-16.7-25-27.9-33.4c-16.3-12-36.4-18.6-56.7-18.6
			c-8.5,0-16.9,1.1-25,3.4c-26.7,7.4-49,26.5-61,52.5c-1.3,2.8-4.8,4.3-7.4,4.3c-2.5,0-5-1-7.3-1.9c-1.2-0.5-2.4-1-3.6-1.3
			c-4.2-1.2-8.4-2.1-12.4-2.6c-2.6-0.3-5.3-0.4-7.9-0.4c-4.6,0-9.2,0.4-13.7,1.3c-22.5,4.5-41.5,19.7-51,40.6
			c-10.2,22.5-7.3,50,7.4,70.4C31.8,229,32.4,229,32.9,229z"/>
		<path class="st0" d="M213.5,47.1c9.2,0,18.4,1.1,27.3,3.4c29.6,7.6,55.1,27.8,69.5,54.6c8.6-2.8,17.6-4.2,26.7-4.2
			c0.9,0,1.9,0,2.8,0c39.5,1.4,74.6,30.5,82.1,69.5c4.3,22.5-0.1,46.5-13.1,65.5c-2.9,4.2-5.5,8.6-10.9,8.8c-1.1,0-2.3,0-3.4,0
			c-36.7,0.1-73.3,0.1-109.9,0.2c-54.8,0.1-109.6,0.2-164.4,0.3c-21.1,0-42.1,0.1-63.2,0.1c-6.6,0.1-13.3,0.3-19.9,0.3
			c-3.1,0-6.3,0-9.4-0.2c-6.1-0.3-9.5-6.6-12.5-11.3C9.1,224.7,4.9,213.9,3,202.8c-3.4-20.5,0.1-41.6,10.8-59.5
			c9.9-16.6,25.2-29.4,43.2-36.5c9.1-3.6,18.8-5.5,28.5-5.8c0.8,0,1.7,0,2.5,0c5.9,0,11.7,0.6,17.4,1.7c2.8,0.5,5.6,1.2,8.4,2.1
			c0.5,0.2,1.2,0.5,1.9,0.8c7.6-14.2,18.2-26.5,31.1-36.3C165.9,54.7,189.7,47.1,213.5,47.1 M119.8,122c-3.6,0-7.1-2.2-10.6-3.2
			c-4.1-1.2-8.3-2.1-12.6-2.6c-2.7-0.3-5.3-0.4-8-0.4c-4.7,0-9.3,0.4-13.9,1.3c-22.8,4.6-42.1,20-51.7,41.2
			c-10.6,23.3-7.2,51.3,7.8,71.8c0.7,0,1.3,0,2,0c3.3,0,6.6,0.3,9.7,0.3c10.1-0.1,20.3-0.1,30.4-0.1c31-0.1,62-0.1,93-0.2
			c35.6-0.1,71.3-0.1,107-0.2c29.6-0.1,59.2-0.1,88.8-0.2c11.1-0.1,22.1-0.1,33.2-0.1c8.7-11.9,13.5-26.5,13.6-41.3
			c0.2-22.7-10.5-44.9-28.9-58.4c-12.6-9.3-27.5-13.9-42.5-13.9c-9.8,0-19.6,1.9-29,5.8c-0.7,0.3-1.4,0.4-2.1,0.4
			c-3.2,0-6.3-2.7-7.1-5.6c-0.2-0.6-0.3-1.3-0.3-1.9c-6.8-13.2-16.3-25.1-28.3-33.9c-16.7-12.3-36.9-18.8-57.3-18.8
			c-8.5,0-16.9,1.1-25.2,3.4c-27.4,7.6-49.7,27.3-61.6,53C125.2,120.6,122.2,122,119.8,122 M213.5,45.1c-24.6,0-48.7,8-67.9,22.6
			c-12.6,9.7-23.2,21.8-30.7,35.4c-0.1-0.1-0.3-0.1-0.4-0.1l0,0l0,0c-2.9-0.9-5.8-1.7-8.7-2.2C99.9,99.6,93.9,99,88,99
			c-0.9,0-1.7,0-2.6,0c-10.2,0.3-20,2.3-29.2,5.9c-18.5,7.3-34.2,20.5-44.2,37.3C1.4,160.1-2.5,181.7,1,203.1
			c1.9,11.4,6.3,22.5,12.5,32.1c0.2,0.4,0.5,0.8,0.8,1.2c3,4.8,6.7,10.7,13.3,11c2.9,0.1,6,0.2,9.5,0.2c4,0,8.1-0.1,12-0.1
			c2.6,0,5.3-0.1,7.9-0.1c0,0,0,0,0.1,0c10.5,0,21.2,0,31.5,0c10.3,0,21-0.1,31.6-0.1l164.4-0.3c18.3-0.1,36.9-0.1,54.9-0.1
			c18,0,36.6-0.1,55-0.1h3.4h0l0,0c6-0.2,9.1-4.8,11.9-8.8c0.2-0.3,0.4-0.6,0.6-0.9c13-19,17.9-43.5,13.4-67
			c-3.7-19.2-14.3-37-29.7-50c-15.4-12.9-34.6-20.4-54.3-21.1c-1,0-1.9,0-2.9,0c-8.7,0-17.4,1.3-25.7,3.8
			c-15-26.9-40.4-46.5-70-54.1C232.3,46.2,222.9,45.1,213.5,45.1L213.5,45.1z M119.8,124c3,0,6.8-1.7,8.3-4.8
			C140,93.5,162,74.6,188.4,67.2c8-2.2,16.3-3.3,24.7-3.3c20.1,0,40,6.5,56.1,18.4c11.1,8.2,20.6,19.5,27.5,32.8
			c0,0.6,0.2,1.3,0.3,1.9c1.1,3.9,5.2,7.1,9.1,7.1c1,0,1.9-0.2,2.8-0.6c9.1-3.7,18.6-5.6,28.2-5.6c15,0,29.3,4.7,41.4,13.5
			c8.7,6.4,15.9,15,20.8,25c4.9,9.9,7.4,20.9,7.3,31.8c-0.2,14-4.7,27.9-12.7,39.3c-11.3,0-21.6,0-32.1,0.1
			c-14.8,0-29.8,0.1-44.4,0.1c-14.6,0-29.6,0.1-44.4,0.1c-17.8,0-36,0.1-53.5,0.1c-17.5,0-35.7,0-53.5,0.1
			c-15.5,0.1-31.3,0.1-46.5,0.1c-15.2,0-31,0-46.5,0.1c-10,0-20.3,0-30.4,0.1c-1.5,0-3-0.1-4.7-0.1c-1.7-0.1-3.4-0.1-5.1-0.1
			c-0.4,0-0.7,0-1,0c-14.2-20-17-46.9-7-68.9c9.3-20.6,28.1-35.6,50.3-40.1c4.4-0.9,9-1.3,13.5-1.3c2.6,0,5.2,0.1,7.8,0.4
			c4,0.5,8.1,1.3,12.3,2.5c1.1,0.3,2.3,0.8,3.5,1.3C114.5,123,117.1,124,119.8,124L119.8,124z"/>
	</g>
</g>
</svg>
