<?xml version="1.0" encoding="utf-8"?>
<!-- Generator: Adobe Illustrator 21.0.2, SVG Export Plug-In . SVG Version: 6.00 Build 0)  -->
<svg version="1.1" id="Layer_1" xmlns="http://www.w3.org/2000/svg" xmlns:xlink="http://www.w3.org/1999/xlink" x="0px" y="0px"
	 viewBox="0 0 425 425" style="enable-background:new 0 0 425 425;" xml:space="preserve">
<style type="text/css">
	.st0{fill:#FFFFFF;}
</style>
<g>
	<g>
		<path class="st0" d="M10.4,215.6c26.3,0,52.6,0,78.9,0c41.9,0,83.8,0,125.7,0c9.6,0,19.2,0,28.8,0c9.7,0,9.7-15,0-15
			c-26.3,0-52.6,0-78.9,0c-41.9,0-83.8,0-125.7,0c-9.6,0-19.2,0-28.8,0C0.7,200.6,0.7,215.6,10.4,215.6L10.4,215.6z"/>
	</g>
</g>
<g>
	<g>
		<path class="st0" d="M12.2,183c31.3,0,62.6,0,93.9,0c39.3,0,78.6,0,117.9,0c8.8,0,16.9-2,25-5.9c10-5,18.5-13.2,23.9-23
			c6-10.8,10.4-25.7,8.5-38.2c-2.7-18.5-14.2-36.2-31.4-44c-28.6-12.9-67.2-4.1-79.1,26.9c-11.5,29.9,15.4,60.4,45.6,59
			c15.9-0.7,30-7.8,35.7-23.4c6.5-17.7-6.9-34-24.6-35.6c-6.8-0.6-14.1,1.4-19.9,5.1c-8.1,5.2-0.6,18.2,7.6,13
			c4.7-3,10.2-4,15.5-2.1c1.1,0.4,2.8,1.2,4.5,2.6c2.7,2.2,4.1,5.5,3.6,9c-0.4,2.9-1.7,5.4-3.2,7.8c-0.5,0.8-1.6,2.2-0.7,1
			c-0.9,1-1.8,2.1-2.8,2.9c-5,3.9-12,4.8-18.1,4.8c-10.6,0-18.9-4.9-24.9-12.5c-8.4-10.6-7.6-24.8,0.7-35.2
			c14.8-18.7,48.2-18.7,64.5-2.2c5.6,5.6,8.9,12.4,10.9,19.4c0.7,2.3,1,4.7,1.5,7c0,0.1,0.4-1.9-0.1-0.7c-1,2.5-0.4,6.8-0.9,9.6
			c-1.9,11.3-6.4,21.8-14.9,29.5c-5.3,4.8-11.1,7.6-17.8,9.3c-1.1,0.3-2.2,0.5-3.2,0.7c-0.4,0.1-0.8,0.1-1.2,0.2
			c-1.5,0.4,1.6,0,0.8-0.1c-0.4,0-0.8,0.1-1.1,0.1c-3.2,0-6.4,0-9.7,0c-37,0-74.1,0-111.1,0c-31.2,0-62.5-0.6-93.7,0
			c-0.5,0-1.1,0-1.6,0C2.6,168,2.6,183,12.2,183L12.2,183z"/>
	</g>
</g>
<g>
	<g>
		<path class="st0" d="M10.2,252.8c26.4,0,52.8,0,79.1,0c39.6,0,79.1,0,118.7,0c6.4,0,13.2,0.6,19.6,0.1c-1.9,0.2-1.2-0.2,0.4,0.1
			c1.2,0.3,2.3,0.5,3.5,0.8c1.4,0.4,2.8,0.8,4.1,1.3c2.3,0.8,1.3,0.4,3.8,1.6c8.1,4,14.3,9.7,18.8,18.1c3,5.5,4.7,11.6,5.7,17.8
			c0.5,3.1,0.2,6.5,0.9,9.6c0.3,1.5,0.3-1.4,0.1-0.6c-1.3,6.3-2.8,11.6-5.3,16.4c-4.3,8-10.6,14.5-19.4,18.2
			c-13,5.4-30.5,5.3-42.7-1.9c-9.3-5.5-16.3-15.8-16.3-26.8c0-6.3,2.4-12.4,6.4-17.3c3-3.7,5.7-6,9.2-8.1c9.2-5.5,24.7-6.1,33.4,0.8
			c1,0.8,1.9,1.8,2.7,2.8c0.6,0.7-0.3-0.4-0.3-0.5c0.3,0.4,0.6,0.8,0.9,1.2c1.6,2.7,3.2,5.3,3.5,8.6c0.3,3.3-1.1,6.5-3.7,8.6
			c-1.8,1.5-3.3,2.2-4.6,2.6c-5.3,1.8-10.7,0.8-15.3-2.2c-8.2-5.2-15.7,7.8-7.6,13c12.3,7.9,30,6.6,39.9-4.6
			c11.4-12.8,5.6-32.5-7.2-42c-13.1-9.7-34.1-9.7-48.1-2c-10.4,5.7-19,15.9-22.5,27.3c-4.8,15.9,1.1,32.9,12.7,44.3
			c11.9,11.6,28.7,15.6,45,14.5c25.5-1.8,45.6-17.9,52.4-42.5c5.6-20.4-3-45.8-18.7-59.7c-8.9-7.9-21.1-13.9-33.2-14.4
			c-12-0.4-24,0-36,0c-22.7,0-45.4,0-68.1,0c-36.6,0-73.3-0.5-109.9,0c-0.6,0-1.3,0-1.9,0C0.6,237.8,0.5,252.8,10.2,252.8
			L10.2,252.8z"/>
	</g>
</g>
<g>
	<g>
		<path class="st0" d="M274,236.1c23.9,0,47.9,0,71.8,0c6.9,0,14.4,0.8,21.3,0c1.6-0.2-2.1-0.5-0.5-0.1c0.5,0.1,1.1,0.2,1.6,0.3
			c2,0.4,4,0.9,5.9,1.5c3.7,1.2,9,3.8,12.6,6.6c5.8,4.5,10.1,10.3,13.1,16.9c1.8,4.2,3,8.7,3.9,13.1c0.5,2.6,0.8,5.2,0.9,7.8
			c0.1,0.9-0.2,2.6,0.1,3.4c0.4,0.9,0.5-2.3,0.1-0.6c-0.1,0.6-0.2,1.2-0.3,1.9c-0.4,2.2-1,4.3-1.6,6.4c-1.6,4.9-3.7,9.7-7.6,14.6
			c-10.9,13.9-32.2,17.9-49.4,13c-16.3-4.7-29.3-22.1-23.1-39.3c6.1-16.8,26.5-25.5,43.4-18c2,0.9,3.9,2.1,5.5,3.7
			c0.5,0.5,1,1.1,1.5,1.7c-1.5-1.8,0.6,1,0.8,1.3c2.6,4.2,4.4,9.5,1.5,14c-4.6,7.1-14.9,7.5-22.2,2.9c-8.2-5.2-15.7,7.8-7.6,13
			c9.3,6,21.3,6.7,31.3,1.9c12.8-6.2,18-20.5,12.7-33.6c-9.2-22.6-39.5-28-59.6-16.7c-19.9,11.2-29.5,35.3-20,56.6
			c9.9,22.2,34.3,31.5,57.5,29.2c20-2,37.4-12.7,46.1-31.1c2.5-5.2,4.4-10.7,5.4-16.4c1.3-7.5,0.1-15.3-1.7-22.7
			c-5.7-24.4-27-46.3-53.2-46.3c-29.2,0-58.3,0-87.5,0c-0.9,0-1.7,0-2.6,0C264.3,221.1,264.3,236.1,274,236.1L274,236.1z"/>
	</g>
</g>
<g>
	<g>
		<path class="st0" d="M274.6,199.3c27.9,0,55.8,0,83.7,0c6.6,0,12.8,0.3,19.2-1.4c15.1-3.9,28.3-13.9,35.9-27.5
			c7.5-13.5,11.2-30.6,7-45.6c-4.6-16.1-15.3-30.2-30.8-37c-21.6-9.4-50.9-7-67.7,10.8c-17.6,18.7-17.1,47,2.5,64.1
			c15.9,13.8,44.6,17.1,60.4,1c8.2-8.3,12.5-21.5,7.5-32.5c-5.1-11.2-18.2-17.2-30.1-15.7c-4.9,0.6-9.8,2.2-14,4.9
			c-8.1,5.2-0.6,18.2,7.6,13c6.6-4.2,14.7-3.9,20,0.4c4.1,3.4,4.4,8.5,2.5,13.2c-0.6,1.4-1.5,2.7-2.3,4c-0.2,0.3-1.8,2.3-0.3,0.5
			c-0.7,0.8-1.4,1.6-2.2,2.3c-7,6.2-19.1,6.7-27.7,4.3c-6.4-1.9-10.5-5.1-14.7-9.7c-12.3-13.6-7.8-33.5,6.4-43.7
			c14.8-10.6,39.8-9.6,54,1.7c9,7.1,13.5,16.7,15.5,27.6c0.1,0.6,0.2,1.3,0.3,1.9c0.1,0.3,0.5-1.7-0.1-0.8c-0.5,0.8-0.2,3.7-0.3,4.7
			c-0.2,2.8-0.6,5.5-1.2,8.3c-1.7,8.1-4.9,16-10.3,22.2c-7.2,8.4-15,12-25.3,14.2c-2.8,0.6,1.1,0.2-0.6,0.1c-0.4,0-0.9,0-1.3,0
			c-3.9,0.1-7.8,0-11.7,0c-27.3,0-54.7,0-82,0C264.9,184.3,264.9,199.3,274.6,199.3L274.6,199.3z"/>
	</g>
</g>
</svg>
