<?xml version="1.0" encoding="utf-8"?>
<!-- Generator: Adobe Illustrator 21.0.2, SVG Export Plug-In . SVG Version: 6.00 Build 0)  -->
<svg version="1.1" id="Layer_1" xmlns="http://www.w3.org/2000/svg" xmlns:xlink="http://www.w3.org/1999/xlink" x="0px" y="0px"
	 viewBox="0 0 425 425" style="enable-background:new 0 0 425 425;" xml:space="preserve">
<style type="text/css">
	.st0{fill:#FFFFFF;}
</style>
<g>
	<g>
		<g>
			<path class="st0" d="M10.4,216.6c-5.4,0-8.3-4.3-8.3-8.5s2.8-8.5,8.3-8.5h233.4c5.4,0,8.3,4.3,8.3,8.5s-2.8,8.5-8.3,8.5H10.4z"/>
			<path class="st0" d="M243.8,200.6c9.7,0,9.7,15,0,15c-9.6,0-19.2,0-28.8,0c-41.9,0-83.8,0-125.7,0c-26.3,0-52.6,0-78.9,0
				c-9.7,0-9.7-15,0-15c9.6,0,19.2,0,28.8,0c41.9,0,83.8,0,125.7,0C191.2,200.6,217.5,200.6,243.8,200.6 M243.8,198.6h-78.9H39.2
				H10.4c-6.1,0-9.3,4.8-9.3,9.5s3.2,9.5,9.3,9.5h78.9H215h28.8c6.1,0,9.3-4.8,9.3-9.5S249.9,198.6,243.8,198.6L243.8,198.6z"/>
		</g>
	</g>
</g>
<g>
	<g>
		<g>
			<path class="st0" d="M12.2,184c-5.4,0-8.2-4.3-8.2-8.5c0-2.2,0.7-4.3,2.1-5.8c1.5-1.8,3.7-2.7,6.2-2.7h1.6
				c9.3-0.2,19.5-0.3,31.2-0.3c10.4,0,21,0.1,31.3,0.1c10.2,0.1,20.8,0.1,31.2,0.1h120.8c0.1,0,0.2,0,0.3,0l0.4-0.1
				c0.2,0,0.3,0,0.5-0.1l0.6-0.1c0.9-0.2,1.7-0.3,2.6-0.6c7-1.8,12.5-4.7,17.4-9.1c7.6-6.9,12.5-16.6,14.6-28.9
				c0.2-1.1,0.2-2.4,0.2-3.8c0-2,0.1-4,0.6-5.6c-0.1-0.5-0.2-1-0.3-1.5c-0.3-1.5-0.6-3-1-4.5c-2.2-7.9-5.7-14.1-10.6-19
				c-7.4-7.5-18.7-11.8-31-11.8c-13.4,0-25,5.1-32.1,13.9c-8.3,10.4-8.6,24-0.7,34c6.3,7.9,14.6,12.1,24.1,12.1
				c7.8,0,13.5-1.5,17.5-4.6c0.7-0.6,1.4-1.4,2.1-2.2l0.5-0.6c0.2-0.3,0.4-0.6,0.6-0.9c1.3-2.1,2.7-4.6,3.1-7.4
				c0.4-3.1-0.7-6-3.2-8.1c-1.7-1.4-3.4-2.1-4.2-2.4c-1.7-0.6-3.4-0.9-5.2-0.9c-3.2,0-6.4,1-9.4,2.9c-1.4,0.9-2.9,1.4-4.4,1.4
				c-3.5,0-6.7-2.7-7.8-6.5c-1.1-3.8,0.3-7.5,3.6-9.6c5.3-3.4,11.9-5.4,18-5.4c0.8,0,1.7,0,2.5,0.1c9.6,0.9,18.3,6,23.1,13.7
				c4.4,7,5.2,15.2,2.3,23.2c-5.4,14.7-18.4,23.3-36.6,24.1c-0.7,0-1.4,0-2,0c-15.4,0-30.5-8.1-39.5-21.2c-8.2-11.9-10-26.2-5-39.2
				c7.9-20.5,28.2-33.3,52.9-33.3c9.5,0,19.1,2,27.5,5.8c16.8,7.6,29.1,24.8,32,44.8c2.1,13.5-3.1,28.9-8.6,38.8
				c-5.5,10-14.2,18.3-24.3,23.4c-8.4,4-16.7,6-25.4,6H12.2z"/>
			<path class="st0" d="M222.9,66.2c9.3,0,18.6,1.9,27.1,5.7c17.2,7.8,28.7,25.5,31.4,44c1.9,12.5-2.5,27.4-8.5,38.2
				c-5.4,9.8-13.9,18-23.9,23c-8.1,3.9-16.2,5.9-25,5.9c-39.3,0-78.6,0-117.9,0c-31.3,0-62.6,0-93.9,0c-9.6,0-9.6-15,0.1-15
				c0.5,0,1.1,0,1.6,0c10.4-0.2,20.8-0.3,31.2-0.3c20.8,0,41.7,0.3,62.5,0.3c37,0,74.1,0,111.1,0c3.3,0,6.5,0,9.7,0
				c0.2,0,0.4,0,0.7-0.1c-0.1,0-0.3,0-0.4,0.1c-0.5,0.1-0.5,0.2-0.3,0.2c0.4,0,1.6-0.2,1.1-0.3c-0.1,0-0.3,0-0.4,0
				c0.3,0,0.5-0.1,0.8-0.1c1-0.2,2.1-0.4,3.2-0.7c6.7-1.7,12.5-4.5,17.8-9.3c8.5-7.7,13-18.2,14.9-29.5c0.5-2.8-0.1-7,0.9-9.5
				c0,0.2,0.1,0.4,0.1,0.6c0,0,0,0,0,0c0,0,0.2-1.1,0.1-1.1c0,0-0.1,0.1-0.2,0.4c0,0,0,0.1,0,0.1c-0.4-2.1-0.7-4.3-1.4-6.4
				c-2-7-5.3-13.8-10.9-19.4c-7.9-8-19.8-12.1-31.7-12.1c-12.6,0-25.2,4.7-32.8,14.3c-8.3,10.4-9.1,24.6-0.7,35.2
				c6,7.6,14.3,12.5,24.9,12.5c6.1,0,13.1-0.9,18.1-4.8c1-0.8,1.9-1.9,2.8-2.9c-0.3,0.3-0.3,0.5-0.3,0.5c0,0,0.7-0.9,1-1.5
				c1.5-2.4,2.8-4.9,3.2-7.8c0.5-3.5-0.9-6.8-3.6-9c-1.7-1.4-3.4-2.2-4.5-2.6c-1.8-0.7-3.7-1-5.5-1c-3.5,0-6.9,1.1-10,3.1
				c-1.3,0.8-2.6,1.2-3.9,1.2c-6.4,0-10.5-9.8-3.7-14.2c5.1-3.3,11.4-5.2,17.5-5.2c0.8,0,1.6,0,2.4,0.1
				c17.7,1.6,31.1,17.9,24.6,35.6c-5.7,15.6-19.8,22.7-35.7,23.4c-0.7,0-1.3,0-2,0c-29.4,0-54.8-29.8-43.6-59
				C179.3,77,200.9,66.2,222.9,66.2 M222.9,64.2l0,2L222.9,64.2c-11.7,0-22.8,2.9-32.1,8.4c-10.1,6-17.6,14.8-21.7,25.5
				c-5.1,13.3-3.2,27.9,5.1,40.1c9.2,13.4,24.6,21.7,40.3,21.7c0.7,0,1.4,0,2.1,0c18.4-0.8,32-9.8,37.5-24.7
				c3-8.3,2.2-16.9-2.4-24.1c-5-8-14-13.3-23.9-14.2c-0.9-0.1-1.7-0.1-2.6-0.1c-6.4,0-13,2-18.6,5.5c-3.7,2.4-5.2,6.5-4,10.7
				c1.2,4.2,4.9,7.2,8.8,7.2c1.7,0,3.3-0.5,4.9-1.5c2.8-1.8,5.9-2.8,8.9-2.8c1.7,0,3.3,0.3,4.9,0.9c0.8,0.3,2.3,0.9,3.9,2.3
				c2.2,1.8,3.3,4.4,2.9,7.2c-0.4,2.7-1.6,4.9-2.9,7c-0.1,0.2-0.3,0.5-0.5,0.7c-0.2,0.2-0.3,0.4-0.5,0.6c-0.7,0.8-1.4,1.5-2,2.1
				c-3.8,2.9-9.3,4.4-16.9,4.4c-9.3,0-17.2-3.9-23.3-11.7c-7.6-9.6-7.3-22.7,0.7-32.7c6.7-8.5,18.4-13.6,31.3-13.6
				c11.8,0,23.1,4.3,30.2,11.5c4.8,4.8,8.2,10.9,10.4,18.5c0.4,1.4,0.7,2.9,1,4.4c0.1,0.4,0.2,0.9,0.2,1.3c-0.5,1.7-0.5,3.7-0.6,5.7
				c0,1.4,0,2.6-0.2,3.6c-2,12.1-6.8,21.6-14.3,28.4c-4.8,4.3-10.1,7.1-16.9,8.8c-0.9,0.2-1.8,0.4-2.6,0.6l-0.5,0.1l0,0l0,0
				c-0.1,0-0.2,0-0.4,0.1l-0.2,0l-0.2,0c-0.1,0-0.2,0-0.2,0l-9.7,0H107.6c-10.4,0-21-0.1-31.2-0.1c-10.2-0.1-20.8-0.1-31.3-0.1
				c-11.7,0-21.9,0.1-31.3,0.3l-1.6,0c-3.4,0-6.3,1.6-8,4.4c-1.8,3.1-1.8,7.1,0,10.2c1.6,2.8,4.5,4.4,7.9,4.4h93.9H224
				c8.9,0,17.3-2,25.9-6.1c10.4-5.2,19.2-13.6,24.8-23.8c5.6-10.1,10.8-25.7,8.7-39.5c-3-20.3-15.4-37.8-32.6-45.5
				C242.2,66.2,232.6,64.2,222.9,64.2L222.9,64.2z"/>
		</g>
	</g>
</g>
<g>
	<g>
		<g>
			<path class="st0" d="M220.4,355.7c-11.5,0-27.9-2.6-40.5-15c-12.7-12.5-17.6-29.8-13-45.3c3.5-11.5,12.1-21.9,23-27.9
				c6.6-3.7,14.9-5.7,23.4-5.7c9.9,0,19.1,2.8,25.8,7.7c7.4,5.5,12.6,14.5,13.6,23.6c0.8,7.6-1.4,14.5-6.2,19.9
				c-5.6,6.3-14,10-23.2,10c-6.4,0-12.8-1.8-18-5.2c-3.3-2.1-4.7-5.8-3.6-9.6c1.1-3.8,4.3-6.5,7.8-6.5c1.5,0,3,0.5,4.4,1.4
				c3,1.9,6.2,2.9,9.4,2.9c1.7,0,3.4-0.3,5-0.8c1.5-0.5,2.8-1.2,4.3-2.4c2.4-1.9,3.6-4.8,3.3-7.7c-0.3-3-1.7-5.4-3.2-7.9l-0.1-0.2
				l-0.2-0.2c-0.1-0.1-0.2-0.2-0.3-0.4c-0.9-1.2-1.8-2-2.6-2.7c-3.9-3.1-9.6-4.8-16-4.8c-5.9,0-11.9,1.5-16.2,4.1
				c-3.5,2.1-6.1,4.4-8.9,7.9c-4,4.9-6.2,10.8-6.2,16.7c0,10.1,6.2,20.3,15.8,25.9c6.1,3.6,14,5.6,22.3,5.6c6.9,0,13.6-1.3,19.5-3.7
				c8-3.4,14.4-9.3,18.9-17.7c2.1-4,3.6-8.7,5-15.4c-0.4-1.7-0.4-3.5-0.5-5.2c-0.1-1.5-0.1-2.8-0.3-4.2c-1.1-6.9-2.9-12.6-5.6-17.5
				c-4.3-8-10.1-13.6-18.4-17.7c-0.5-0.3-0.9-0.4-1.2-0.6c-0.8-0.4-0.8-0.4-1.7-0.7l-0.8-0.3c-1.3-0.5-2.7-0.9-4-1.3
				c-0.6-0.1-1.1-0.3-1.7-0.4c-0.6-0.1-1.2-0.3-1.8-0.4c-0.1,0-0.2,0-0.3,0c-0.3,0-0.5,0-0.6,0c-1.5,0.1-3.1,0.1-5,0.1
				c-2.3,0-4.7-0.1-7.1-0.2c-2.3-0.1-4.6-0.1-6.8-0.1H10.2c-2.5,0-4.7-0.9-6.2-2.7c-1.3-1.5-2-3.6-2-5.8c0-4.2,2.8-8.4,8.1-8.4l2,0
				c10.9-0.1,22.9-0.2,36.6-0.2c12.2,0,24.6,0.1,36.7,0.1c12,0.1,24.4,0.1,36.6,0.1h68.1c4,0,8,0,12-0.1c4,0,8-0.1,12-0.1
				c4.5,0,8.4,0.1,12,0.2c11.4,0.5,24,5.9,33.8,14.7c16.4,14.5,24.5,40.6,19,60.7c-6.9,24.8-27.3,41.4-53.3,43.2
				C223.9,355.6,222.2,355.7,220.4,355.7z"/>
			<path class="st0" d="M48.7,237.7c24.4,0,48.9,0.2,73.3,0.2c22.7,0,45.4,0,68.1,0c8,0,16-0.2,24-0.2c4,0,8,0,12,0.2
				c12.1,0.5,24.3,6.5,33.2,14.4c15.7,13.9,24.3,39.3,18.7,59.7c-6.8,24.6-26.9,40.7-52.4,42.5c-1.7,0.1-3.4,0.2-5.2,0.2
				c-14.6,0-29.2-4.3-39.8-14.7c-11.6-11.4-17.5-28.4-12.7-44.3c3.5-11.4,12.1-21.6,22.5-27.3c6.6-3.6,14.7-5.5,22.9-5.5
				c9.1,0,18.3,2.4,25.2,7.5c12.8,9.5,18.6,29.2,7.2,42c-5.7,6.5-14,9.6-22.4,9.6c-6.1,0-12.3-1.7-17.5-5
				c-6.8-4.4-2.6-14.2,3.7-14.2c1.2,0,2.5,0.4,3.9,1.2c3,2,6.4,3.1,9.9,3.1c1.8,0,3.6-0.3,5.4-0.9c1.3-0.4,2.8-1.1,4.6-2.6
				c2.6-2.1,4-5.3,3.7-8.6c-0.3-3.3-1.9-5.9-3.5-8.6c-0.3-0.4-0.6-0.8-0.9-1.2c0,0.1,0.5,0.7,0.5,0.7c0,0-0.1-0.1-0.2-0.2
				c-0.8-1-1.7-2-2.7-2.8c-4.4-3.5-10.5-5.1-16.7-5.1c-6.1,0-12.2,1.5-16.7,4.3c-3.5,2.1-6.2,4.4-9.2,8.1c-4,4.9-6.4,11-6.4,17.3
				c0,11,7,21.3,16.3,26.8c6.6,3.9,14.7,5.7,22.9,5.7c6.9,0,13.9-1.3,19.8-3.8c8.8-3.7,15.1-10.2,19.4-18.2
				c2.4-4.7,3.9-9.8,5.2-15.9c0,0,0,0,0,0.1c0.1,0.3,0.1,0.4,0.2,0.4c0.1,0,0.1-1.2,0-1.2c0,0,0,0-0.1,0.1c0,0.2-0.1,0.4-0.1,0.5
				c-0.7-3.1-0.4-6.5-0.9-9.5c-1-6.2-2.7-12.3-5.7-17.8c-4.5-8.4-10.7-14.1-18.8-18.1c-2.5-1.2-1.5-0.8-3.8-1.6
				c-1.3-0.5-2.7-0.9-4.1-1.3c-1.2-0.3-2.3-0.5-3.5-0.8c-0.2,0-0.4-0.1-0.6-0.1c0.1,0,0.1,0,0.2,0c-0.1,0-0.1,0-0.2,0
				c-0.2,0-0.4,0-0.6,0c-0.4,0-0.6,0.1-0.2,0.1c0,0,0,0,0.1,0c-1.6,0.1-3.3,0.1-4.9,0.1c-4.6,0-9.4-0.3-13.9-0.3
				c-39.6,0-79.1,0-118.7,0c-26.3,0-52.7,0-79.1,0c-9.7,0-9.6-14.9-0.1-14.9c0,0,0.1,0,0.1,0c0.6,0,1.3,0,1.9,0
				C24.3,237.7,36.5,237.7,48.7,237.7 M227.4,252.9C227.4,252.9,227.4,252.9,227.4,252.9c-0.3,0-0.5,0-0.6,0
				C227,252.9,227.2,252.9,227.4,252.9 M48.7,235.7c-13.7,0-25.7,0.1-36.7,0.2l-1.9,0l-0.1,0c-6,0-9.1,4.7-9.1,9.4
				c0,2.4,0.8,4.7,2.3,6.4c1.7,2,4.1,3,6.9,3h79.1H208c2.2,0,4.5,0.1,6.8,0.1c2.3,0.1,4.7,0.2,7.1,0.2c1.8,0,3.5,0,5-0.1
				c0.1,0,0.3,0,0.5,0c0.1,0,0.1,0,0.2,0c0.6,0.1,1.2,0.3,1.7,0.4c0.5,0.1,1.1,0.2,1.7,0.4c1.4,0.4,2.7,0.8,3.9,1.2l0,0l0,0l0.8,0.3
				c0.8,0.3,0.8,0.3,1.6,0.6c0.3,0.1,0.7,0.3,1.2,0.6c8,4,13.7,9.4,17.9,17.2c2.6,4.8,4.4,10.4,5.5,17.2c0.2,1.3,0.3,2.6,0.3,4
				c0.1,1.7,0.2,3.5,0.5,5.2c-1.4,6.5-2.9,11-4.9,14.9c-4.4,8.2-10.6,14-18.4,17.3c-5.7,2.4-12.3,3.6-19.1,3.6
				c-8.2,0-15.9-1.9-21.8-5.4c-9.3-5.5-15.3-15.3-15.3-25.1c0-5.6,2.1-11.3,5.9-16c2.7-3.4,5.3-5.6,8.7-7.6c4.2-2.5,9.9-4,15.7-4
				c6.2,0,11.7,1.6,15.4,4.6c0.7,0.6,1.5,1.4,2.4,2.5l0,0l0,0c0.1,0.1,0.2,0.3,0.4,0.4l0.1,0.1l0.1,0.2c1.4,2.4,2.8,4.8,3.1,7.5
				c0.2,2.6-0.9,5.2-3,6.9c-1.8,1.5-3.1,2-3.9,2.2l0,0l0,0c-1.5,0.5-3.1,0.8-4.7,0.8c-3,0-6.1-1-8.8-2.8c-1.6-1-3.3-1.5-4.9-1.5
				c-3.9,0-7.6,2.9-8.8,7.2c-1.2,4.2,0.3,8.3,4,10.7c5.4,3.5,12,5.4,18.6,5.4c9.4,0,18.1-3.8,23.9-10.3c5-5.6,7.3-12.8,6.5-20.7
				c-1-9.4-6.2-18.5-14-24.3c-6.9-5.1-16.3-7.9-26.4-7.9c-8.6,0-17.1,2.1-23.9,5.8c-11.1,6.1-19.8,16.7-23.4,28.5
				c-4.8,15.9,0.3,33.6,13.2,46.3c12.9,12.6,29.6,15.2,41.3,15.2c1.7,0,3.5-0.1,5.3-0.2c26.5-1.9,47.2-18.7,54.2-44
				c2.8-10.1,2.3-22-1.4-33.4c-3.6-11.2-10-21.3-17.9-28.3c-10-8.9-22.8-14.4-34.4-14.9c-3.6-0.1-7.6-0.2-12.1-0.2
				c-4,0-8.1,0-12,0.1c-3.9,0-8,0.1-12,0.1H122c-12.2,0-24.6-0.1-36.6-0.1C73.4,235.7,60.9,235.7,48.7,235.7L48.7,235.7z"/>
		</g>
	</g>
</g>
<g>
	<g>
		<g>
			<path class="st0" d="M360.7,338.9c-23.5,0-43.2-11.5-51.5-30.1c-9.4-21.1-0.6-46,20.4-57.9c6.8-3.8,14.8-5.8,23.1-5.8
				c17.6,0,32.2,8.8,38,23c5.6,13.8,0,28.5-13.2,34.9c-4.4,2.1-9.4,3.3-14.4,3.3c-6.4,0-12.6-1.8-17.9-5.2c-3.3-2.1-4.7-5.8-3.6-9.6
				c1.1-3.8,4.3-6.5,7.8-6.5c1.5,0,3,0.5,4.4,1.4c2.9,1.9,6.4,2.9,9.8,2.9c4.7,0,8.8-2,11-5.5c2.7-4.2,0.7-9.4-1.5-12.9
				c0,0-0.2-0.2-0.3-0.5c-0.5-0.7-0.8-1.2-1-1.5c-0.3-0.3-0.5-0.6-0.8-0.9c-1.4-1.4-3.1-2.6-5.2-3.5c-3.9-1.7-8.1-2.6-12.5-2.6
				c-13.1,0-25.3,8.2-29.6,20.1c-3.1,8.7-0.9,16.1,1.5,20.9c4.2,8.1,12,14.5,20.9,17.1c4.6,1.3,9.4,2,14.3,2
				c14.1,0,26.8-5.5,34-14.6c4.1-5.2,6.1-10.1,7.4-14.3c0.6-2,1.2-4.1,1.6-6.3c0-0.4,0.1-0.7,0.2-1.1c-0.2-0.6-0.1-1.4-0.1-2.2
				c0-0.4,0-0.9,0-1.2c-0.1-2.6-0.4-5.2-0.9-7.7c-1-5.1-2.3-9.3-3.8-12.9c-3.1-6.7-7.4-12.3-12.8-16.5c-3.7-2.9-9-5.4-12.3-6.4
				c-1.8-0.6-3.7-1.1-5.8-1.5c-0.3-0.1-0.5-0.1-0.8-0.2l-0.1,0c-2.1,0.2-4.4,0.3-7,0.3l0,0c-2.4,0-4.9-0.1-7.3-0.2
				c-2.3-0.1-4.7-0.2-7-0.2H274c-5.4,0-8.3-4.3-8.3-8.5c0-2.2,0.7-4.3,2.1-5.8c1.5-1.8,3.7-2.7,6.3-2.7h90.1
				c12.7,0,24.8,4.9,35,14.3c9.5,8.7,16.3,20.3,19.2,32.8c1.6,6.4,3.2,14.8,1.7,23.1c-1,5.5-2.8,11.1-5.5,16.7
				c-8.5,18-25.6,29.5-46.9,31.7C365.4,338.8,363,338.9,360.7,338.9z"/>
			<path class="st0" d="M364.2,221.1c26.2,0,47.5,21.9,53.2,46.3c1.8,7.4,3,15.2,1.7,22.7c-1,5.7-2.9,11.2-5.4,16.4
				c-8.7,18.4-26.1,29.1-46.1,31.1c-2.3,0.2-4.6,0.3-6.9,0.3c-21,0-41.7-9.5-50.6-29.5c-9.5-21.3,0.1-45.4,20-56.6
				c6.8-3.8,14.7-5.7,22.6-5.7c15.5,0,30.9,7.4,37,22.4c5.3,13.1,0.1,27.4-12.7,33.6c-4.4,2.1-9.2,3.2-14,3.2
				c-6.1,0-12.1-1.7-17.3-5.1c-6.8-4.4-2.6-14.2,3.7-14.2c1.2,0,2.5,0.4,3.9,1.2c3.1,2,6.8,3,10.4,3c4.7,0,9.2-1.9,11.8-5.9
				c2.9-4.5,1.1-9.8-1.5-14c-0.2-0.2-1.4-1.9-1.3-1.9c0,0,0.2,0.2,0.5,0.6c-0.5-0.6-1-1.2-1.5-1.7c-1.6-1.6-3.5-2.8-5.5-3.7
				c-4.2-1.9-8.6-2.7-12.9-2.7c-13.2,0-25.9,8.1-30.5,20.7c-6.2,17.2,6.8,34.6,23.1,39.3c4.7,1.3,9.6,2,14.6,2
				c13.4,0,26.8-4.9,34.8-15c3.9-4.9,6-9.7,7.6-14.6c0.6-2.1,1.2-4.2,1.6-6.4c0.1-0.5,0.1-0.9,0.2-1.3c0.1,0.1,0.1,0.2,0.1,0.2
				c0.2,0,0.3-1.3,0.2-1.3c0,0-0.1,0.1-0.2,0.5c0,0.2-0.1,0.4-0.1,0.6c0,0,0,0,0,0c-0.3-0.8,0-2.5-0.1-3.4c-0.1-2.6-0.4-5.2-0.9-7.8
				c-0.9-4.4-2.1-8.9-3.9-13.1c-3-6.6-7.3-12.4-13.1-16.9c-3.6-2.8-8.9-5.4-12.6-6.6c-1.9-0.6-3.9-1.1-5.9-1.5
				c-0.3-0.1-0.7-0.1-1.1-0.2c1-0.1-0.1-0.3-0.7-0.3c-0.3,0-0.4,0.1,0.2,0.2c0.2,0,0.3,0.1,0.5,0.1c0,0,0,0,0,0
				c-2.3,0.3-4.7,0.4-7.1,0.4c-4.8,0-9.6-0.4-14.2-0.4c-23.9,0-47.9,0-71.8,0c-9.7,0-9.7-15,0.1-15c0.9,0,1.7,0,2.6,0
				C305.9,221.1,335,221.1,364.2,221.1 M364.2,219.1h-87.5h-2.6c-6.1,0-9.4,4.8-9.4,9.5c0,4.7,3.2,9.5,9.3,9.5h71.8
				c2.2,0,4.5,0.1,6.9,0.2c2.4,0.1,4.9,0.2,7.3,0.2c2.6,0,4.9-0.1,7-0.3c0.3,0,0.5,0.1,0.8,0.1c2,0.4,3.9,0.9,5.7,1.4
				c3.2,1,8.4,3.5,12,6.3c5.3,4.1,9.5,9.5,12.5,16.1c1.5,3.5,2.7,7.7,3.8,12.7c0.5,2.5,0.8,5,0.9,7.5l0,0.1l0,0.1c0,0.2,0,0.7,0,1
				c0,0.8-0.1,1.5,0.1,2.3c0,0.3-0.1,0.6-0.1,0.9c-0.4,2.1-0.9,4-1.5,6.1c-1.3,4.1-3.2,8.9-7.3,13.9c-7,8.9-19.4,14.2-33.2,14.2
				c-4.8,0-9.6-0.6-14.1-1.9c-8.7-2.5-16.2-8.7-20.3-16.6c-2.3-4.6-4.5-11.8-1.5-20.1c4.1-11.4,15.9-19.4,28.6-19.4
				c4.2,0,8.3,0.9,12.1,2.5c1.9,0.9,3.6,2,4.9,3.3c0.2,0.2,0.5,0.5,0.7,0.8c0.2,0.4,0.6,0.9,1,1.4c0.1,0.2,0.3,0.4,0.3,0.5
				c3,4.8,3.5,8.8,1.5,11.8c-2.8,4.4-7.6,5-10.2,5c-3.2,0-6.5-1-9.3-2.7c-1.6-1-3.2-1.5-4.9-1.5c0,0,0,0,0,0c-3.9,0-7.6,2.9-8.8,7.2
				c-1.2,4.2,0.3,8.3,4,10.7c5.4,3.5,11.8,5.4,18.4,5.4c5.1,0,10.2-1.2,14.8-3.4c6.6-3.2,11.7-8.7,14.1-15.3
				c2.5-6.6,2.3-14-0.5-20.8c-5.9-14.6-20.8-23.7-38.9-23.7c-8.5,0-16.6,2.1-23.6,6c-21.5,12.1-30.5,37.5-20.8,59.2
				c4.4,9.8,11.9,17.9,21.7,23.2c9,4.9,19.6,7.5,30.8,7.5c2.4,0,4.7-0.1,7.1-0.4c21.7-2.2,39-13.9,47.7-32.2
				c2.7-5.6,4.6-11.3,5.6-16.9c1.5-8.5-0.1-17-1.7-23.5c-3-12.7-9.9-24.5-19.5-33.3C389.5,224.1,377.1,219.1,364.2,219.1
				L364.2,219.1z"/>
		</g>
	</g>
</g>
<g>
	<g>
		<g>
			<path class="st0" d="M363.4,200.3c-0.8,0-1.7,0-2.5,0c-0.9,0-1.7,0-2.6,0h-83.7c-5.4,0-8.3-4.3-8.3-8.5c0-4.1,2.7-8.2,7.9-8.2
				l0.3,0l82,0c1.3,0,2.6,0,3.9,0c1.3,0,2.6,0,3.9,0c1.3,0,2.6,0,3.9,0l1.4,0c0.1,0,0.2-0.1,0.4-0.1c11.2-2.4,18.4-6.4,24.8-13.9
				c4.8-5.5,8.2-12.9,10.1-21.8c0.6-2.8,1-5.5,1.2-8.2c0-0.3,0-0.8,0-1.3c0-1.5,0-2.6,0.2-3.4c0-0.3-0.1-0.6-0.1-0.8
				c-2.2-11.8-7.1-20.7-15.1-27c-7.1-5.6-17.3-8.9-28-8.9c-9.5,0-18.3,2.6-24.8,7.2c-7.3,5.3-12.1,13.2-13,21.7
				c-0.8,7.5,1.6,14.8,6.7,20.5c3.9,4.3,7.8,7.5,14.2,9.4c3,0.8,6.4,1.3,9.8,1.3c7,0,13.1-1.9,17-5.4c0.6-0.5,1.1-1.1,1.5-1.6
				c0,0,0.2-0.2,0.3-0.4c0.2-0.3,0.4-0.5,0.5-0.6c0.2-0.3,0.3-0.5,0.5-0.8c0.6-1,1.3-2,1.7-3c2-4.8,1.2-9.2-2.2-12
				c-2.5-2-5.8-3.2-9.3-3.2c-3.3,0-6.6,1-9.5,2.8c-1.4,0.9-2.9,1.4-4.4,1.4c-3.5,0-6.7-2.7-7.8-6.5c-1.1-3.8,0.3-7.5,3.6-9.6
				c4.1-2.7,9.1-4.4,14.4-5.1c1.2-0.2,2.5-0.2,3.8-0.2c11.9,0,22.9,6.6,27.4,16.5c4.7,10.4,1.6,24.2-7.7,33.6
				c-7,7.1-17.1,11.1-28.5,11.1c-12.2,0-24.6-4.5-33.3-12c-9.4-8.2-14.9-19.4-15.5-31.4c-0.6-12.5,4-24.6,12.9-34.1
				c9.9-10.5,25.2-16.5,41.8-16.5c9.4,0,18.8,1.9,27,5.5c15,6.6,26.4,20.3,31.4,37.6c3.9,14,1.3,31.3-7.1,46.4
				c-7.7,13.8-21,24-36.5,28C372.7,200.2,367.7,200.3,363.4,200.3z"/>
			<path class="st0" d="M363,82.4c9.2,0,18.5,1.9,26.6,5.4c15.5,6.8,26.2,20.9,30.8,37c4.2,15,0.5,32.1-7,45.6
				c-7.6,13.6-20.8,23.6-35.9,27.5c-4.7,1.3-9.4,1.4-14.1,1.4c-1.7,0-3.4,0-5.1,0c-27.9,0-55.8,0-83.7,0c-9.6,0-9.7-14.7-0.4-14.7
				c0.1,0,0.2,0,0.3,0c27.3,0,54.7,0,82,0c2.6,0,5.2,0,7.8,0c1.3,0,2.6,0,3.9,0c0.4,0,0.9,0,1.3,0c0,0,0.1,0,0.1,0
				c-0.7,0.2-0.6,0.2-0.4,0.2c0.4,0,1.2-0.2,0.4-0.2c0.1,0,0.3-0.1,0.5-0.1c10.3-2.2,18.1-5.8,25.3-14.2c5.4-6.2,8.6-14.1,10.3-22.2
				c0.6-2.8,1-5.5,1.2-8.3c0.1-1-0.2-3.8,0.3-4.7c0,0.3,0.1,0.5,0.1,0.8c0,0,0,0,0,0c0.1,0,0.3-1.1,0.1-1.1c-0.1,0-0.1,0.1-0.2,0.2
				c0,0,0,0,0,0c-0.1-0.4-0.1-0.8-0.2-1.1c-2-10.9-6.5-20.5-15.5-27.6c-7.5-6-18.1-9.1-28.6-9.1c-9.3,0-18.5,2.4-25.4,7.4
				c-14.2,10.2-18.7,30.1-6.4,43.7c4.2,4.6,8.3,7.8,14.7,9.7c3,0.8,6.5,1.3,10.1,1.3c6.5,0,13.1-1.6,17.6-5.6
				c0.6-0.5,1.1-1.1,1.6-1.7c0,0.1-0.1,0.1-0.1,0.1c0,0,0.2-0.2,0.6-0.7c-0.2,0.2-0.4,0.4-0.6,0.6c0.2-0.3,0.8-1,0.9-1.1
				c0.8-1.3,1.7-2.6,2.3-4c1.9-4.7,1.6-9.8-2.5-13.2c-2.8-2.2-6.3-3.4-9.9-3.4c-3.4,0-6.9,1-10.1,3c-1.3,0.8-2.6,1.2-3.9,1.2
				c-6.4,0-10.5-9.8-3.7-14.2c4.2-2.7,9.1-4.3,14-4.9c1.2-0.2,2.4-0.2,3.7-0.2c10.8,0,21.9,5.9,26.4,15.9c5,11,0.7,24.2-7.5,32.5
				c-7.3,7.5-17.5,10.8-27.8,10.8c-11.9,0-24.1-4.4-32.6-11.8c-19.6-17.1-20.1-45.4-2.5-64.1C332.4,87.5,347.7,82.4,363,82.4
				 M363,80.4v2V80.4c-16.9,0-32.5,6.1-42.5,16.8c-9.1,9.7-13.8,22.1-13.2,34.8c0.6,12.3,6.2,23.8,15.9,32.1
				c8.8,7.7,21.5,12.3,33.9,12.3c11.6,0,22-4,29.2-11.4c4.4-4.5,7.7-10.2,9.2-16.1c1.7-6.5,1.2-13-1.3-18.6
				c-4.7-10.2-16-17.1-28.3-17.1c-1.3,0-2.6,0.1-3.9,0.2c-5.4,0.7-10.6,2.5-14.8,5.2c-3.7,2.4-5.2,6.5-4,10.7
				c1.2,4.2,4.9,7.2,8.8,7.2c1.7,0,3.3-0.5,4.9-1.5c2.8-1.8,5.9-2.7,9-2.7c3.3,0,6.3,1,8.7,2.9c4.3,3.5,2.8,8.8,1.9,10.9
				c-0.4,0.9-1,1.8-1.6,2.8c-0.2,0.3-0.3,0.5-0.5,0.8c-0.1,0.1-0.3,0.3-0.4,0.6c-0.1,0.2-0.2,0.3-0.3,0.4c-0.4,0.5-0.9,1-1.4,1.4
				c-3.7,3.3-9.5,5.1-16.3,5.1c-3.3,0-6.6-0.4-9.5-1.3c-6.2-1.8-10-5-13.8-9.1c-5-5.5-7.3-12.5-6.5-19.7c0.9-8.2,5.5-15.9,12.6-21
				c6.3-4.5,14.9-7,24.2-7c10.5,0,20.4,3.2,27.4,8.7c7.8,6.2,12.7,14.8,14.8,26.4c0,0.2,0.1,0.4,0.1,0.6c-0.2,0.9-0.2,2-0.2,3.5
				c0,0.5,0,1,0,1.2l0,0l0,0c-0.2,2.6-0.6,5.3-1.2,8c-1.8,8.7-5.1,15.9-9.9,21.3c-6.3,7.4-13.1,11.2-24.2,13.6c-0.1,0-0.2,0-0.3,0.1
				h-1.2h0l0,0c-1.1,0-2.4,0-3.8,0c-1.3,0-2.6,0-3.9,0c-1.3,0-2.6,0-3.9,0h-82c-0.1,0-0.2,0-0.3,0c-5.8,0-8.9,4.6-8.9,9.2
				c0,2.4,0.8,4.7,2.3,6.4c1.7,2,4.1,3,7,3h83.7c0.9,0,1.7,0,2.6,0c0.8,0,1.7,0,2.5,0c4.4,0,9.5-0.1,14.6-1.5
				c15.8-4.1,29.3-14.4,37.1-28.5c8.5-15.3,11.2-32.9,7.2-47.1c-5-17.7-16.7-31.6-31.9-38.3C382,82.3,372.5,80.4,363,80.4L363,80.4z
				"/>
		</g>
	</g>
</g>
</svg>
