<?xml version="1.0" encoding="utf-8"?>
<!-- Generator: Adobe Illustrator 21.1.0, SVG Export Plug-In . SVG Version: 6.00 Build 0)  -->
<svg version="1.1" id="Layer_1" xmlns="http://www.w3.org/2000/svg" xmlns:xlink="http://www.w3.org/1999/xlink" x="0px" y="0px"
	 viewBox="0 0 841.9 595.3" style="enable-background:new 0 0 841.9 595.3;" xml:space="preserve">
<style type="text/css">
	.st0{fill:#FFFFFF;}
</style>
<g>
	<g>
		<path class="st0" d="M400.6,294.4c-0.3,2.3,0.4,4.6,2,6.3c3,3.2,8.2,3.1,11.5-0.1c3.4-3.2,3.6-8.3,0.6-11.5
			c-3-3.2-8.2-3.1-11.5,0.1C401.7,290.7,400.9,292.5,400.6,294.4"/>
		<g>
			<path class="st0" d="M398.1,294.4c-0.4,5.8,3.8,11,9.8,11.2c5.7,0.2,10.8-4.3,11.4-10c0.6-5.5-3.2-10.5-8.7-11.2
				c-5.9-0.8-11.4,3.5-12.4,9.3c-0.5,3.1,4.3,4.5,4.8,1.3c0.6-3.2,3-6,6.5-5.8c2.9,0.2,5.1,2.7,4.8,5.6c-0.6,7.3-11.8,7.4-11.2-0.5
				C403.4,291.2,398.3,291.2,398.1,294.4L398.1,294.4z"/>
		</g>
	</g>
	<g>
		<line class="st0" x1="400.6" y1="294.4" x2="192" y2="295.6"/>
		<g>
			<path class="st0" d="M400.6,291.9c-23.5,0.1-47,0.3-70.5,0.4c-37.5,0.2-74.9,0.4-112.4,0.6c-8.6,0-17.2,0.1-25.8,0.1
				c-3.2,0-3.2,5,0,5c23.5-0.1,47-0.3,70.5-0.4c37.5-0.2,74.9-0.4,112.4-0.6c8.6,0,17.2-0.1,25.8-0.1
				C403.8,296.9,403.8,291.9,400.6,291.9L400.6,291.9z"/>
		</g>
	</g>
</g>
</svg>
