<?xml version="1.0" encoding="utf-8"?>
<!-- Generator: Adobe Illustrator 21.0.2, SVG Export Plug-In . SVG Version: 6.00 Build 0)  -->
<svg version="1.1" id="Layer_1" xmlns="http://www.w3.org/2000/svg" xmlns:xlink="http://www.w3.org/1999/xlink" x="0px" y="0px"
	 viewBox="0 0 566.9 566.9" style="enable-background:new 0 0 566.9 566.9;" xml:space="preserve">
<style type="text/css">
	.st0{fill:#D75341;}
</style>
<g>
	<path class="st0" d="M120.9,277.8v21.3c0,11.5-4.6,19.6-13.9,24.1c-9.3,4.6-23,6.8-41.2,6.8H8.2V191.6h56.1
		c19.6,0,32.9,2.2,39.9,6.6c7,4.4,10.5,12.1,10.5,23v17.1c0,4-1.6,7.7-4.7,11.1c-3.1,3.4-6.7,5.7-10.7,6.8v1.1
		c5.1,0.6,10,2.8,14.6,6.8C118.6,268.1,120.9,272.7,120.9,277.8z M82.7,234.1v-6.8c0-4.6-1.1-7.7-3.2-9.4s-7.4-2.6-15.8-2.6H41.5
		v32.7h22.8c7.8,0,12.8-1,15-3C81.6,243,82.7,239.3,82.7,234.1z M87.6,294.7v-11.1c0-5.1-1.3-8.8-3.9-10.9c-2.6-2.1-7.3-3.2-14-3.2
		H41.5v36.9h23.7c8.1,0,13.9-0.9,17.3-2.8C85.9,301.8,87.6,298.8,87.6,294.7z"/>
	<path class="st0" d="M242.1,330.1h-30.7v-12.6c-2.4,9.8-13.4,14.7-33.1,14.7c-13.7,0-23-2.5-28.2-7.4c-5.1-4.9-7.7-12.3-7.7-22.3
		v-75.8h31.2v71.5c0,5.7,1,9.5,2.9,11.5c1.9,2,6.5,3,13.8,3c9,0,14.7-1,17.1-2.9c2.4-1.9,3.6-5.8,3.6-11.6v-71.5h31.2V330.1z"/>
	<path class="st0" d="M337.1,250.5h-10.7c-8.5,0-15,1.3-19.3,3.9c-4.3,2.6-6.5,7.1-6.5,13.6v62.1h-31.2V226.8h29.7v18.1
		c0.1-5.1,3.1-9.8,8.9-14c5.8-4.2,11.8-6.3,18-6.3h11.1V250.5z"/>
	<path class="st0" d="M453.8,330.1h-31.2v-71.7c0-5.7-1-9.5-2.9-11.5c-1.9-2-6.5-3-13.8-3c-9,0-14.7,1-17.1,2.9
		c-2.4,1.9-3.6,5.8-3.6,11.6v71.7h-31.2V226.8h30.7v12.6c2.4-9.8,13.4-14.7,33.1-14.7c13.7,0,23,2.5,28.2,7.4
		c5.1,4.9,7.7,12.3,7.7,22.3V330.1z"/>
	<path class="st0" d="M550.1,331.2c-6,0.7-11.7,1.1-17.3,1.1c-4.8,0-9.1-0.2-12.7-0.5c-3.6-0.4-7.4-1.2-11.3-2.6
		c-3.9-1.3-7.1-3.1-9.6-5.3c-2.5-2.2-4.6-5.3-6.2-9.4c-1.6-4.1-2.5-8.9-2.5-14.4v-54h-20.9v-19.2h20.9v-29.9h31.2v29.9h28.4V246
		h-28.4v48.7c0,7.1,1.1,11.9,3.2,14.4c2.1,2.5,6.8,3.7,14.1,3.7c2.4,0,6.1-0.4,11.1-1.1V331.2z"/>
</g>
</svg>
