<?xml version="1.0" encoding="utf-8"?>
<!-- Generator: Adobe Illustrator 21.0.2, SVG Export Plug-In . SVG Version: 6.00 Build 0)  -->
<svg version="1.1" id="Layer_1" xmlns="http://www.w3.org/2000/svg" xmlns:xlink="http://www.w3.org/1999/xlink" x="0px" y="0px"
	 viewBox="0 0 566.9 566.9" style="enable-background:new 0 0 566.9 566.9;" xml:space="preserve">
<style type="text/css">
	.st0{fill:#FFFFFF;}
</style>
<g>
	<g>
		<g>
			<path class="st0" d="M61,202.9c0.3,69.3,42.8,132.3,106.8,158.7c35.1,14.5,75.1,16.5,111.6,6.1c37-10.6,69.5-33.7,92-64.8
				c42.5-58.5,42.6-141.1,0.2-199.7c-40.9-56.5-113.1-83.4-180.9-66.5C124.9,53,73,109.5,63,176.6C61.7,185.4,61,194.1,61,202.9
				c0,9.7,15,9.7,15,0c0.3-62.5,38.4-120.5,96.4-144.5c58.8-24.3,128.1-9.8,172.3,35.8c45.4,46.9,57,119.8,27.7,178.2
				c-15.2,30.3-40,55.1-70.3,70.4c-33.1,16.6-72.1,20.7-108,11.6c-60.7-15.3-107-66.8-116.4-128.6c-1.2-7.6-1.6-15.3-1.6-23
				C75.9,193.3,60.9,193.2,61,202.9z"/>
		</g>
	</g>
	<g>
		<g>
			<path class="st0" d="M500.1,518.5c-17.2-22.3-34.4-44.6-51.7-66.9c-27.3-35.4-54.7-70.8-82-106.1c-6.3-8.2-12.6-16.3-18.9-24.5
				c-2.5-3.2-8-2.6-10.6,0c-3.2,3.1-2.5,7.4,0,10.6c17.2,22.3,34.4,44.6,51.7,66.9c27.3,35.4,54.7,70.8,82,106.1
				c6.3,8.2,12.6,16.3,18.9,24.5c2.5,3.2,8,2.6,10.6,0C503.3,526,502.6,521.7,500.1,518.5L500.1,518.5z"/>
		</g>
	</g>
</g>
</svg>
